<svg viewBox="0 0 57 30" xmlns="http://www.w3.org/2000/svg"><g fill="#A4AB61"><path d="M20.175 14.191c6 .5 12.1.4 18.1.4 6.1 0 12.1 0 18.2-.3.2 0 .2-.4 0-.4-6.1-.3-12.1-.3-18.2-.3-6 0-12.1-.2-18.1.4-.2 0-.2.2 0 .2z"/><path d="M24.275 13.991c-4.8-.6-8.6 3.4-13.5 2.6-2.2-.4-4.2-1.6-6.1-2.7-1.5-.8-2.8-2.2-4.6-1.9-.1 0-.1.1 0 .2 3.5 2 7 4.8 11.1 5.4 4.7.7 8.5-2.8 13.1-3.2.3 0 .3-.4 0-.4z"/><path d="M.575 12.391c1.9.1 3.7-.8 5.3-1.7 2.5-1.3 4.8-2 7.6-1.1 2.4.7 4.4 2.5 6.6 3.7 2 1 3.8 1 5.9.7v-.1c-2.6-.4-4.8-1.1-7-2.5-2.1-1.3-4-2.7-6.5-3.2-1.9-.4-3.8.1-5.5.9-2.2 1-4.4 1.9-6.5 2.9-.1.1 0 .4.1.4z"/><path d="M1.175 12.291c3.7.5 7.5.6 11.3 1 2 .2 4 .5 6.1.7 1.8.2 3.6.6 5.3-.1.1 0 .1-.2 0-.2-3.5-.2-7-.6-10.5-1-4-.5-8.1-1.1-12.1-.7-.2.1-.3.3-.1.3zm38.2 1.8c-3.5-.1-7.2-.6-10.5.9-3.4 1.6-4.9 5.2-7.4 7.6 0 0 0 .1.1.1 2.4-1.9 3.9-4.8 6.5-6.5 3.2-2.2 7.6-1.8 11.3-1.9.2 0 .2-.2 0-.2z"/><path d="M28.474 15.291c-7.4-.4-11.7 6.9-12.9 13.2 0 .2.1.5.4.5 3.4-.4 6.4-1.3 8.8-3.8 2.4-2.5 3.4-6.3 3.8-9.6 0-.1-.1-.1-.1-.1-.9.9-1 2.2-1.3 3.4-.4 1.6-1.1 3.1-2 4.5-2 3-5.6 4.6-9.1 4.8.1.2.3.3.4.5.8-3.1 1.6-6 3.5-8.6 2.2-3 5.2-4 8.7-4.6 0 0 0-.2-.2-.2z"/><path d="M16.175 28.392c2.1-.3 3.6-3 4.9-4.5 1.9-2.2 3.7-4.4 5.5-6.7 0 0 0-.1-.1 0-1.7 2-3.7 3.6-5.3 5.7-1.6 1.9-3.4 3.6-5.1 5.4-.1 0 0 .1.1.1zm22.201-14.401c-2-1.1-4.2-1.3-6.2-2.4-1.9-1.1-3.5-2.7-5.3-4-.1-.1-.2.1-.1.1 3.1 3.8 6.8 5.6 11.5 6.6.2.1.3-.2.1-.3z"/><path d="M32.774 12.091c-1.5-.2-3-.2-4.4-.4-2.1-.4-4-1.7-5.4-3.2-1.1-1.2-1.9-2.6-2.7-3.9-.4-.6-.8-1.2-1.3-1.7-.2-.2-1.2-.9-.8-.8 4.1.4 8 0 11.1 3.4 1.1 1.3 1.7 3 2.3 4.5.4 1 .6 2 1.5 2.6.2.1.6-.2.4-.4-.9-1.3-1.2-3.2-1.9-4.6-.7-1.5-1.6-2.8-2.9-3.9-3.2-2.7-7.5-2.2-11.4-2.2-.2 0-.3.3-.2.4 2.4 2.7 3.7 6.2 6.5 8.6 2.6 2.2 5.9 2.6 9.1 2.2.3-.2.3-.6.1-.6z"/><path d="M35.474 13.091c-3.8-1.4-6.4-4.4-9.5-6.8-2.4-1.8-5.3-4.4-8.4-4.5v.1c6.9 2.4 11.1 8.8 17.9 11.4.1.1.1-.2 0-.2zm11.701.6c-4 .1-7.3 4.1-9.4 7 0 .1 0 .2.1.1 1.5-1 2.5-2.4 3.8-3.7 1.6-1.6 3.4-2.5 5.5-3.2.1 0 .1-.2 0-.2z"/><path d="M43.075 14.991c-7.7-.8-11.4 8.1-11.6 14.5 0 .2.2.3.3.3 3.3-.3 6.5-1.9 9-4.1 3.2-2.9 2.6-7 2.6-10.8 0-.1-.1-.1-.2 0-.7 1-.6 2-.5 3.2.1 2.5-.6 4.8-2.1 6.7-.9 1.2-2.4 2-3.8 2.7-.9.5-1.9.9-2.9 1.2-.7.2-1.8.8-1.7-.3.2-3 1.1-6 2.7-8.5 1.9-3 4.8-4.3 8.2-4.6.2 0 .2-.3 0-.3z"/><path d="M32.075 29.691c1.5-1.9 2.7-4.2 4-6.3 1.3-2.1 3.1-3.7 4.5-5.8 0-.1-.1-.1-.1-.1-1.5 1.6-3.2 3-4.6 4.9-1.6 2.2-2.9 4.7-4 7.1 0 .2.2.3.2.2zm19.901-15.6c-2.8-1.3-5.3-3-8.1-4.4-.1 0-.2.1-.1.1 2.4 1.9 5 4 8.1 4.5.1 0 .2-.2.1-.2z"/><path d="M48.075 12.491c-3.5-.5-6.7-1.3-9.4-3.7-2.6-2.2-3.8-5.4-5.9-7.9.1.2 4.5-.1 5.1-.1 2.8.2 5.4 1.2 7.1 3.5 1.7 2.4 1.3 6.6 3.7 8.5.1.1.2 0 .2-.1-1.3-3.5-1.4-7.5-4.2-10.2-3.1-3-8.6-2.7-12.5-2.1-.1 0-.2.2-.1.3 2 3.1 3.6 6.6 6.4 9.1 2.6 2.3 6.2 3.3 9.6 2.9.1 0 .1-.2 0-.2z"/><path d="M49.075 12.991c-3.1-2.2-6.2-4.2-9.1-6.7-2.2-1.9-4.7-4.7-7.5-5.5-.1 0-.1.1-.1.1 2.4 2.3 5.3 4.3 7.8 6.4 1.3 1.1 2.6 2.2 3.9 3.2 1.5 1.1 3.2 1.7 4.8 2.7.2.1.3-.1.2-.2z"/></g></svg>