<svg width="330" height="255" xmlns="http://www.w3.org/2000/svg"><g fill="#fff"><path fill-rule="evenodd" clip-rule="evenodd" d="M67.19 199.668c-.803.441-8.916 16.832-12.482 23.982-1.012 2.044-2.699 2.926-5.39 3.32 3.671-7.712 10.499-22.517 10.442-22.605l4.7-7.799c12.963-23.782 29.558-44.928 47.494-65.102 4.482-5.042 9.037-10.028 13.55-15.054a39.82 39.82 0 0 0 1.31-1.539c-.803-2.292-1.518-4.184-2.297-6.34-2.024 0-4.659.313-7.173-.112a7.278 7.278 0 0 1-4.08-2.63c-1.422-1.827-.225-4.664 2.136-5.61a30.025 30.025 0 0 1 4.016-1.026l-6.177-8.384c-1.333 2.404-3.116 2.637-5.502 2.404-3.301-.296-6.659.177-10 .2-1.552.04-3.103-.11-4.618-.448-2.539-.617-4.017-2.405-3.896-4.449.05-1.06.5-2.063 1.26-2.806a4.222 4.222 0 0 1 2.836-1.202c2.71-.088 5.421.132 8.08.658 1.88.32 3.663 1.194 5.511 1.755a21.2 21.2 0 0 0 2.49.44l.265-.536c-2.811-2.357-5.542-4.81-8.466-7.046-2.795-2.108-5.791-3.943-8.386-6.292 12.611 5.707 21.712 15.326 29.198 26.94.401-.641.562-.801.53-.857-3.783-9.282-7.856-18.436-14.948-25.762a17.915 17.915 0 0 0-4.755-3.046c-1.96-1.018-4.08-1.724-6.04-2.742a3.4 3.4 0 0 1-1.712-1.947c-.441-2.35-2.41-2.726-4.016-3.207-3.438-1.09-6.988-1.843-10.442-2.853a16.968 16.968 0 0 1-4.265-1.804c-1.88-1.17-2.24-3.142-1.67-5.114a3.72 3.72 0 0 1 1.537-2.281 3.734 3.734 0 0 1 2.687-.604c1.943.31 3.81.976 5.51 1.964 2.41 1.418 4.579 3.254 6.868 4.881 1.43 1.018 1.703 1.956 1.197 4.593l1.952.882c2.908-2.605 5.325-2.838 8.506-.425 2.884 2.188 5.623 4.6 8.305 7.03 1.607 1.474 1.093 3.206-1.373 4.673 6.884 8.015 10.94 17.586 14.956 27.188l.803-.296c-1.494-5.691-2.562-11.527-4.586-17.017-2.514-6.862-5.848-13.418-8.74-20.143a6.992 6.992 0 0 1-.36-3.086c0-.281.947-.578 1.501-.73a4.165 4.165 0 0 1 1.446-.056 3.43 3.43 0 0 1 1.534.417 1.249 1.249 0 0 1 0 1.154 3.163 3.163 0 0 1-1.542.28c-.233 0-.474-.28-1.052-.657 0 .858-.201 1.531 0 1.956 6.602 11.84 10.667 24.544 13.149 37.802 0 .048.104.08.329.232v-4.537c-.193-12.48-1.14-24.848-4.514-36.952a9.467 9.467 0 0 0-2.659-3.831c-1.518-1.507-3.398-2.645-4.956-4.12-2.313-2.188-2.53-5.17-.723-7.142 1.808-1.972 4.755-1.94 7.125.36a17.923 17.923 0 0 1 2.65 3.792c1.262 2.076 2.41 4.232 3.623 6.333 1.325 2.252.458 3.83-2.996 5.162.627 3.302 1.55 6.604 1.831 9.963.86 10.108 1.462 20.231 2.201 30.355.139.789.354 1.562.643 2.308l.908-.152c.232-4.569.586-9.13.658-13.699.113-6.813.177-13.626-.04-20.455-.137-4.345-.803-8.673-1.205-13.01-.112-1.314-.28-2.797.21-3.935s1.694-2.365 2.706-2.477c1.012-.112 2.771.962 3.044 1.868a17.65 17.65 0 0 1 .57 6.268 41.674 41.674 0 0 1-1.285 7.214 15.465 15.465 0 0 1-1.566 3.022 3.315 3.315 0 0 0-.49 1.33 5186.28 5186.28 0 0 0-.466 25.794c0 .2.064.41.466.674 1.462-8.064 3.012-16.112 4.354-24.191.955-5.772 1.726-11.575 2.41-17.386.28-2.485 0-5.018.072-7.527a33.688 33.688 0 0 1 .297-5.707 3.462 3.462 0 0 1 1.27-2.19 3.475 3.475 0 0 1 2.425-.744 3.034 3.034 0 0 1 2.911 1.978c.145.393.207.811.181 1.229a25.771 25.771 0 0 1-.675 5.61 51.783 51.783 0 0 1-1.606 5.74c-.241.737-.627 1.771-1.197 1.98-1.719.609-1.606 1.996-1.864 3.318l-7.068 38.643c-.056.273-.056.561-.128 1.33.441-.8.803-1.145.803-1.514.128-4.008 3.269-6.95 3.968-10.75.225-1.217.064-2.492.2-3.726.015-.64.24-1.257.643-1.756 2.587-2.404 2.804-5.61 2.996-8.777 0-.647.07-1.292.21-1.924.73-2.62 1.493-5.242 2.312-7.839.426-1.33.723-2.83 1.559-3.863.682-.802 2.216-1.66 3.14-1.451.924.208 2.522 1.603 2.522 2.533a11.786 11.786 0 0 1-1.374 5.843c-1.734 2.942-4.345 5.395-6 8.376-1.3 2.341-1.726 5.163-2.497 7.784-.281.93-.458 1.891-.635 2.653 3.317-.177 5.044-2.702 6.803-5.435 3.6-5.61 7.398-11.093 11.173-16.592a6.243 6.243 0 0 0 .956-3.952c0-2.573.98-5.194 1.791-7.71a8.33 8.33 0 0 1 2.21-3.712 4.339 4.339 0 0 1 3.533-.69c1.542.466 1.856 2.189 1.293 3.56-.714 1.755-1.903 3.31-2.77 5.017a34.253 34.253 0 0 0-1.286 3.335 6.996 6.996 0 0 1-.683 1.603c-4.016 5.467-8.104 10.901-12.136 16.368a62.52 62.52 0 0 0-3.213 4.81c-.996 1.65-2.217 3.117-2.008 5.554.136 1.547-1.51 3.791-2.988 4.81-2.715 1.843-4.402 4.304-5.968 6.989a79.774 79.774 0 0 0-4.29 8.088c.434-.41.892-.802 1.31-1.235 7.363-7.524 14.723-15.056 22.08-22.596 2.161-2.22 4.217-4.537 6.362-6.773a16.113 16.113 0 0 1 2.787-2.509c1.695-1.098 3.478-.994 4.82.593a3.556 3.556 0 0 1-.04 4.722 9.566 9.566 0 0 1-2.932 2.292 55.043 55.043 0 0 1-6.209 2.958c-.916.352-2.04.168-3.31.24l-20.803 20.28c.145.168.29.328.426.497 12.441-9.427 26.072-16.833 39.558-24.103.442-.986.643-2.349 1.406-2.854.546-.36 1.847.585 2.82.601a2.902 2.902 0 0 0 1.823-.986c.674-.705 1.076-1.659 1.727-2.404a74.93 74.93 0 0 1 3.662-3.84 31.592 31.592 0 0 1 4.41-4.007c1.783-1.17 3.767-.802 5.277.801a3.684 3.684 0 0 1 .426 4.914 13.832 13.832 0 0 1-4.064 3.583 74.127 74.127 0 0 1-7.18 3.486c-.579.265-1.51.626-1.865.37-1.719-1.227-2.939 0-4.257.664-4.77 2.205-9.357 4.61-14.056 7.014 3.044 2.22 3.084 2.5.875 6.901 1.936-.85 3.631-1.739 5.422-2.324a3.97 3.97 0 0 1 2.62.272 2.123 2.123 0 0 1 .168 1.868 6.86 6.86 0 0 1-2.45.641 8.62 8.62 0 0 0-1.687.249 9022.39 9022.39 0 0 0-32.202 14.107 5.676 5.676 0 0 1-1.662.73l46.257-7.671a15.183 15.183 0 0 1-.329-3.102 3.686 3.686 0 0 1 2.016-.417 18.14 18.14 0 0 1 1.012 3.358l5.245-1.226c.282-.064.804-.176.804-.289.176-3.206 3.132-2.845 4.98-3.887 1.23-.69 2.474-1.363 3.751-1.964 3.253-1.539 5.373-.922 6.426 1.82 1.188 3.142-.37 6.5-3.478 7.214a10.404 10.404 0 0 1-3.31.088c-2.77-.265-5.534-.922-8.289-.866-2.562.048-5.1.802-7.655 1.275-13.815 2.404-27.639 4.697-41.438 7.214-3.213.585-6.426 1.723-10.04 2.717l23.67-1.483c.073-.57-.056-1.419.298-1.948a4.203 4.203 0 0 1 2.08-1.907 49.89 49.89 0 0 1 5.72-.586c4.208-.44 5.252.361 5.943 4.73 3.31.945 6.241-.89 9.325-1.491 2.241-.441 4.37-1.427 6.603-1.948 2.851-.657 5.173.697 5.775 3.142.602 2.445-1.036 4.81-3.855 5.298a26.873 26.873 0 0 1-5.085.08c-2.193 0-4.394 0-6.594-.104a2.228 2.228 0 0 1-1.607-.545c-1.92-2.669-4.466-1.378-6.835-1.194-1.22.096-2.53.593-3.655.32-7.229-1.755-14.458-.569-21.687-.256-.442 0-.851.802-1.606 1.523 5.268 1.106 10 1.948 14.658 3.102 6.547 1.603 13.045 3.47 19.56 5.266 1.164.32 2.144.682 3.212-.433.466-.489 1.671-.553 2.466-.408 3.213.609 6.426 1.426 9.638 2.076 2.001.4 4.09.577 4.675 3.038a4.514 4.514 0 0 1-1.791 4.705c-1.663 1.362-3.944 1.338-6.024 0-2.08-1.339-3.848-3.207-6.073-4.008-7.229-2.637-14.546-5.106-21.96-7.214-5.478-1.555-11.157-2.405-16.747-3.583a13.86 13.86 0 0 0-1.831-.112c-.064.2-.129.4-.201.593.49.296.972.617 1.478.882 7.654 3.927 15.301 7.87 22.988 11.726.911.302 1.868.44 2.827.41.362.04.755-.161 1.101-.09 3.213.682 6.361 1.356 9.526 2.125 1.912.473 3.15 1.667 3.133 3.767a4.595 4.595 0 0 1-3.583 4.288c-2.209.49-4.08-.264-5.807-1.603-1.607-1.218-2.86-2.966-5.358-2.597-.457.064-1.196-1.522-1.75-2.404-.362-.561-.483-1.467-.973-1.723-7.606-4.008-15.26-7.936-22.907-11.871-.445-.11-.9-.172-1.358-.185.53 1.37.627 2.782 1.366 3.335 11.124 8.36 20.377 18.587 29.406 29.048.698.801 1.18 1.41 2.514.986 1.606-.52 2.514.537 2.691 2.3a3.062 3.062 0 0 0 1.148 1.9c.948.69 2.121 1.058 3.141 1.66 2.072 1.225 2.522 3.125 1.285 5.073-1.39 2.18-4.072 3.054-5.67 1.386-1.905-1.995-3.302-4.48-4.909-6.765-.08-.112-.16-.32-.104-.416 1.414-2.614-.85-3.856-2.096-5.363-7.96-9.619-16.354-18.82-26.274-26.507-.73-.577-1.502-1.106-2.257-1.66l-.474.354c.214.626.483 1.232.804 1.811 4.128 5.875 8.232 11.774 12.49 17.562.682.93 2.064 1.346 3.116 1.996h-1.735c1.783 3.708 3.523 7.34 5.221 10.893l1.775-.473c-1.606-3.35-3.165-6.653-4.739-9.955 1.815 2.228 3.88 4.304 5.35 6.733a12.113 12.113 0 0 1 1.333 5.498c.04.93-1.02 1.908-1.607 2.87-.907-.537-2.136-.866-2.642-1.65a44.485 44.485 0 0 1-3.117-6.133 103.953 103.953 0 0 0-15.968-25.457 6.689 6.689 0 0 0-.851-.762l-2 2.405c7.23 12.736 10.506 26.7 11.871 41.416 2.065-.144 2.836.906 3.326 2.781.53 2.036 1.727 3.896 2.618 5.844 1.02 2.204.803 4.28-.94 5.082a7.932 7.932 0 0 1-4.586.472c-1.727-.36-1.904-2.156-1.775-3.67.731-8.225-.643-16.272-2.12-24.28a84.986 84.986 0 0 0-8.932-25.505 3.417 3.417 0 0 0-1.173-1.315c1.012 3.831 2.257 7.607 2.988 11.486 1.06 5.675 1.743 11.415 2.595 17.13.088.577 0 1.563.297 1.683 2.61 1.09 1.703 2.781 1.213 4.721-.338 1.363.24 2.926.289 4.41.048 1.482-.33 2.996-1.96 3.646-1.63.65-3.599.633-4.715-.802-.803-1.026-1.478-3.014-.996-3.943 1.31-2.517 1.606-5.684 4.345-7.439.314-.2.33-1.066.282-1.603-.884-9.466-2.338-18.829-5.583-27.814a19.679 19.679 0 0 0-1.462-2.356c-.803-1.443-2.152-2.942-2.104-4.377.136-4.2-2.306-6.997-4.555-10.348-22.321 23.47-43.494 47.524-59.567 76.148l-2.667 5.178zm88.13-105.565l-17.952 12.937c4.82-1.723 9.326-3.927 13.896-5.971s9.165-3.896 14.008-5.94c-3.373-1.162-6.675 1.37-9.952-1.026zm-60.097-4.489c4.169.858 8.29 1.684 12.394 2.565 2.466.537 4.016.08 4.313-1.41.297-1.491-.924-2.525-3.566-2.718-4.458-.328-8.932-.489-13.141-.705v2.268zM79.006 55.468a91.431 91.431 0 0 0 8.321 4.89c1.213.56 3.743.569 4.265-.169 1.14-1.603-.755-2.445-2.016-3.206a8.739 8.739 0 0 0-1.606-.69c-2.82-.993-5.623-1.971-8.29-2.893-.248.777-.53 1.62-.674 2.068zm127.873 43.436c-.2-.857-.425-1.763-.538-2.244-2.747.208-5.47.297-8.144.705a3.324 3.324 0 0 0-2.314 1.715c-.626 1.908.9 3.207 3.036 2.566 2.683-.778 5.302-1.812 7.96-2.742zm-19.044-20.552l9.422-8.2-1.679-1.522-10.265 6.516.37.521c2.208-.304 2.473-.072 2.152 2.685zm-6.297 37.369l9.59-1.916c-.209-.801-.418-1.65-.546-2.172-3.63 0-5.06 1.074-8.892 1.074.74 1.483-.875 1.563-.152 3.014zm-77.375-49.88c-.53.496-.9.688-.988.969a1.102 1.102 0 0 0 .185.954c1.735 1.603 3.462 3.206 5.341 4.593a2.149 2.149 0 0 0 2.073-.329c.377-.44.433-1.875.104-2.108-2.153-1.467-4.442-2.733-6.715-4.08zm70.58 94.27c.441 3.767 4.754 3.783 6.465 6.412l1.318-1.947c-1.229-1.363-2.266-2.614-3.406-3.736a3.472 3.472 0 0 0-1.759-.865 13.582 13.582 0 0 0-2.619.136zm-3.96-25.65c-.089.185-.185.37-.274.562a27.577 27.577 0 0 0 2.932 2.364 10.356 10.356 0 0 0 4.064 1.723c.988.257 1.936.681 2.892 1.034l.723-2.268c-3.22-1.635-7.213-1.811-10.338-3.415zm-15.142 43.79c-3.566 1.177-3.534 1.17-2.409 4.4.37 1.106.538 2.276.803 3.374h2.305c-.273-2.669-.482-5.17-.699-7.775zm-32.98-127.953l-.41.248c.539 1.964 1.013 3.952 1.655 5.892a3.27 3.27 0 0 0 1.35 1.948 2.148 2.148 0 0 0 1.887-.994 3.2 3.2 0 0 0-.329-2.573 59.591 59.591 0 0 0-4.153-4.521zm45.262 23.646l-7.615 7.054.506.705c4.137-.289 5.623-4.81 8.555-6.052l-1.446-1.707zm-19.205-14.428a15.58 15.58 0 0 0-2.33 11.222 3699.47 3699.47 0 0 1 4.09-10.79l-1.76-.432zm-14.16 4.008c-.153-3.527-.306-6.926-.459-10.356l-1.96.256c.74 9.402.74 9.402 2.418 10.052v.048zm33.734 48.261c-.168-.649-.168-1.37-.4-1.45a42.256 42.256 0 0 0-6.122-1.836c-.377-.072-1.14 1.267-1.47 2.06-.08.184.868 1.138 1.374 1.17 2.104.089 4.241.008 6.602.008l.016.048zM156.798 94c3.64 1.731 6.522-1.507 10.105-1.603-1.51-2.02-6.595-1.219-10.12 1.555l.015.048zm-14.28-40.751c2.698-2.742 1.324-6.14 1.357-9.459a3.764 3.764 0 0 0-1.72 1.483c-1.654 2.621.715 5.202.346 7.928l.016.048zm.336 112.474l-1.052-.048c-.33 2.805-.65 5.611-.996 8.56h2.94c-.305-2.9-.57-5.69-.892-8.512zm23.157-118.43l-3.454 6.276 2.306.521 2.49-5.94-1.342-.857zm-47.583 58.017l4.916.385c-.594-3.207-3.213-2.83-5.261-3.207.104.922.193 1.788.345 2.846v-.024zm19.02-12.16l.748.561c1.483-2.378 2.974-4.753 4.474-7.126l-.683-.44-4.538 7.005zm56.845 39.822c.385-1.604.586-2.477.803-3.415l-3.26-.681 2.457 4.096zm-3.446-4.369l.337-.513-4.53-2.525-.514.954c1.036 1.691 3.173 1.347 4.707 2.108v-.024zm-48.997-7.214l-3.044-1.002-.377.641 2.562 2.229c.337-.73.578-1.179.86-1.868zM258.595 10.444c-.61 1.395-1.686 4.104-2.972 6.71-1.285 2.605-2.739 4.873-4.056 7.35-.803 1.483-1.687 2.645-3.606 2.164a3.661 3.661 0 0 1-1.931-1.57 3.649 3.649 0 0 1-.48-2.438c.989-4.81 2.073-9.619 3.125-14.468.065-.288.17-.569.258-.85 1.1-3.206 3.052-4.809 5.51-4.464 2.458.344 4.104 2.87 4.152 7.566zm-6.249-1.539c-.658 1.82-1.253 3.8-2.096 5.667-1.028 2.293-2.313 4.465-3.398 6.734-.867 1.811-.41 3.735 1.012 4.256 1.992.73 2.603-.802 3.213-2.188.44-1.016.803-2.064 1.084-3.135.98-3.615 1.904-7.214 2.812-10.692l-2.627-.642zm33.734 34.98c.44 0 .971-.16 1.316 0 1.165.625 2.908 1.17 3.213 2.132.305.962-.482 2.894-1.405 3.527-2.908 1.988-6.105 3.567-9.19 5.307-2.562 1.442-5.06 3.03-7.718 4.272-1.028.48-2.812.697-3.535.128-.722-.569-1.084-2.485-.698-3.439 2.024-5.057 12.618-11.927 18.016-11.927zm-2.66 3.463c-2.217.962-4.715 1.892-7.06 3.118a37.129 37.129 0 0 0-6.12 3.896c-1.985 1.603-2.314 3.422-1.077 4.296 1.84 1.306 2.972-.184 4.145-1.299.048-.048.112-.096.16-.152 2.996-3.59 6.539-6.412 10.956-7.438l-1.004-2.421z"/><path fill-rule="evenodd" clip-rule="evenodd" d="M94.42 37.313c1.413 0 3.108 1.394 4.61 3.118a370.172 370.172 0 0 0 5.623 6.276 3.275 3.275 0 0 1-.04 4.585c-1.286 1.354-2.61 1.603-4.33.529-1.719-1.074-3.695-1.788-5.534-2.701a34.754 34.754 0 0 1-4.82-2.598c-1.815-1.306-2.224-3.647-1.397-5.819.827-2.172 2.61-3.447 5.888-3.39zm.554 7.422c1.662 1.795 3.446 3.76 5.277 5.691 1.084 1.13 2.321 1.74 3.647.369 1.325-1.37 1.068-2.79-.386-3.784-2.249-1.523-4.626-2.853-6.827-4.2l-1.711 1.924zm37.858-13.298c.16 2.06.313 4.112.49 6.172.144 1.603 0 3.158-1.655 4.008a2.904 2.904 0 0 1-4.016-1.675c-1.149-3.335-2.41-6.63-3.382-10.012-.556-1.961-.784-4-.674-6.036.128-1.9 1.558-3.206 3.502-3.494a4.16 4.16 0 0 1 4.345 2.044c1.904 2.757 1.751 5.867 1.39 8.993zm-3.085-3.663c-2.136.377-2.37 1.531-1.911 3.254.177 1.165.252 2.342.225 3.52.027 1.616.207 3.226.538 4.808a2.567 2.567 0 0 0 2.016 1.443c.659-.056 1.438-1.018 1.8-1.755a3.424 3.424 0 0 0-.057-2.172c-.835-3.086-1.751-6.148-2.61-9.098zM94.18 107.473c3.91.344 7.823.617 11.718 1.082a2.607 2.607 0 0 1 2.386 1.836c.105.342.137.702.096 1.057.011.675-.23 1.33-.675 1.838a2.733 2.733 0 0 1-1.734.912c-3.462.737-6.916 1.523-10.442 2.14-1.588.303-3.21.379-4.82.224a4.301 4.301 0 0 1-2.726-1.199 4.285 4.285 0 0 1-1.29-2.68c-.265-2.18 1.004-3.711 2.956-4.473a34.97 34.97 0 0 1 4.49-1.114l.04.377zm1.148 5.418c3.381.177 6.562.385 9.751.497 1.317.04 2.41-.537 2.41-2.02a1.937 1.937 0 0 0-1.447-2.04 1.948 1.948 0 0 0-.899-.02c-3.502.305-6.988.746-10.57 1.139l.755 2.444zm167.674-74.448a7.716 7.716 0 0 1-3.47 5.69 44.195 44.195 0 0 1-4.82 2.646c-2.096 1.098-4.216 2.132-6.28 3.278-2.065 1.146-3.647 1.002-4.539-.4-.891-1.403-.313-3.103 1.19-4.457 2.521-2.277 4.818-4.77 7.365-7.03a18.475 18.475 0 0 1 4.674-3.278c2.956-1.29 5.896.625 5.88 3.55zm-5.96.513c-2.9 1.771-5.847 3.559-8.78 5.37a14.564 14.564 0 0 0-3.268 2.22 2.666 2.666 0 0 0-.29 2.541 2.603 2.603 0 0 0 2.475.577 20.761 20.761 0 0 0 4.184-2.877c2.506-2.06 4.924-4.232 7.23-6.204l-1.55-1.627zm-29.528-25.353c5.18 0 7.35 3.639 4.892 8.183-1.157 2.133-2.201 4.329-3.213 6.517-.804 1.74-2.868 2.485-5.197 1.796-1.888-.562-2.346-1.66-2.024-3.712.32-2.052-.217-4.104-.418-6.164-.466-4.304 1.622-6.604 5.96-6.62zm-1.189 4.368c-1.036 2.805-2.008 5.547-3.052 8.264-.844 2.212.273 3.68 2.626 3.367 1.864-.249 2.764-1.604 2.9-4.353.137-2.557.265-5.114.386-7.502l-2.86.224zM76.35 64.46a31.433 31.433 0 0 1 4.096 1.997c2.41 1.547 4.69 3.342 7.052 5.001a2.862 2.862 0 0 1 1.044 3.888c-.69 1.443-2.008 1.884-3.582 1.419-2.827-.802-5.67-1.603-8.49-2.501a18.497 18.497 0 0 1-3.494-1.363 4.368 4.368 0 0 1-2.233-5.074c.618-2.204 2.2-3.35 5.606-3.366zm.867 6.365c2.538 1.603 4.876 3.158 7.229 4.657 1.18.746 2.41.978 3.285-.384.876-1.363.201-2.51-1.068-3.062-2.86-1.243-5.8-2.3-8.731-3.447-.321 1.01-.514 1.627-.715 2.236zm87.357-33.288c-.948 1.78-1.662 3.743-2.891 5.306-2.049 2.606-4.41 4.97-6.683 7.399-1.02 1.09-2.25 1.844-3.711.802-1.462-1.043-1.31-2.341-.69-3.76 1.397-3.206 2.77-6.484 4.152-9.73.313-.754.538-1.54.883-2.27 1.133-2.404 3.012-3.51 5.053-3.053 2.04.457 3.462 2.42 3.887 5.306zM159 37.201c-2.346 3.158-4.65 6.276-6.964 9.378-.884 1.186-1.719 2.5-.209 3.639 1.51 1.138 2.538-.112 3.213-1.267 2.072-3.607 4.016-7.294 5.976-10.86L159 37.2zm-40.964-20.16c.16 1.755.313 3.519.49 5.274a2.665 2.665 0 0 1-1.164 2.761 2.678 2.678 0 0 1-.98.39c-1.51.392-2.82 0-3.495-1.547-1.156-2.63-2.265-5.283-3.39-7.92l-.264-.61c-.916-2.14-1.422-4.295.401-6.203a4.356 4.356 0 0 1 4.916-1.09c2.41.905 3.382 2.982 3.639 5.386.064 1.18.064 2.363 0 3.543l-.153.016zm-5.028-.801a51.4 51.4 0 0 0 .578 6.693 3 3 0 0 0 2.281 1.715 1.826 1.826 0 0 0 1.861-1.624 1.8 1.8 0 0 0-.126-.885c-.706-2.405-1.526-4.81-2.329-7.334l-2.265 1.435zM91.204 33.57a14.62 14.62 0 0 1-2.12-.875c-2.763-1.699-5.535-3.406-8.241-5.194a20.517 20.517 0 0 1-3.655-2.87c-1.607-1.715-1.856-3.959-.691-5.474 1.398-1.803 3.39-1.9 5.237-1.13a12.902 12.902 0 0 1 4.177 2.821 97.634 97.634 0 0 1 6.787 7.888 3.853 3.853 0 0 1 .659 2.982c-.217.769-1.414 1.258-2.153 1.851zm-10.78-10.31c1.326 1.13 2.796 2.252 4.105 3.527 1.607 1.547 2.908 3.39 4.603 4.81a3.282 3.282 0 0 0 3.052.24c1.173-.738.578-1.972-.33-2.798a42.337 42.337 0 0 0-3.397-2.83c-2.313-1.682-4.69-3.286-6.996-4.889l-1.036 1.94zm1.805 100.172l5.085-.312c1.775-.12 2.94.705 3.092 2.404.152 1.7-.803 2.605-2.41 2.91-2.048.377-4.016.73-4.715 3.262-.16.545-1.815.882-2.803.93-1.108.056-2.241-.457-3.374-.473-2.104 0-3.638-.93-4.225-2.91-.586-1.98 0-4.063 2.065-4.809 2.28-.857 4.82-1.114 7.229-1.643-.04.216.016.449.056.641zm-4.755 5.258l8.94-.913c1.534-.16 3.534 0 3.165-2.333-.354-2.172-2.225-1.82-3.752-1.395-3.044.85-6.056 1.812-9.028 2.71.265.77.514 1.547.675 1.931zm83.628-59.604c-.33-.705-1.076-1.563-.932-2.22a5.892 5.892 0 0 1 1.703-2.477c1.96-1.996 4.016-3.92 6.008-5.835a37.722 37.722 0 0 1 4.972-4.393c.924-.6 2.852-.801 3.59-.24.74.56.924 2.404.708 3.55-.675 3.704-3.173 6.125-6.426 7.728-2.53 1.242-5.14 2.308-7.727 3.422-.62.2-1.254.355-1.896.465zm10.892-10.773a48.87 48.87 0 0 1-4.29 3.671c-1.517 1.042-3.389 1.604-4.819 2.678-.843.633-1.197 1.931-1.767 2.925 1.02-.072 2.297.233 3.004-.264 3.406-2.405 6.651-5.01 10.04-7.615a290.46 290.46 0 0 1-2.168-1.395zm28.405-15.229c-1.285 2.076-2.153 4.56-3.888 6.035-2.891 2.47-6.297 4.36-9.574 6.357a2.413 2.413 0 0 1-3.526-.802c-.9-1.45 0-2.356 1.1-3.366 3.318-3.15 6.506-6.413 9.767-9.66a4.57 4.57 0 0 1 1.607-1.201c.932-.289 2.145-.674 2.884-.305.739.369.94 1.643 1.63 2.942zm-5.992 1.362c-1.912 3.263-5.004 5.315-8.506 6.862-.402.176-.916.376-1.093.713-.327.723-.596 1.47-.803 2.236.803.217 1.607.746 2.338.585A5.77 5.77 0 0 0 189 53.344c2.522-2.517 4.932-5.146 7.318-7.655l-1.912-1.243zm30.169 34.043c-.803 1.154-1.39 2.613-2.41 3.254a14.116 14.116 0 0 1-5.148 1.811 59.19 59.19 0 0 1-9.06.73c-1.013 0-2.603-.874-2.86-1.683-.257-.81.642-2.55 1.47-2.918 3.558-1.603 7.229-2.95 10.948-4.256 1.855-.658 3.831-.89 5.47.577a13.018 13.018 0 0 1 1.59 2.485zm-5.687-.169c-3.823.57-7.566 1.018-11.245 1.772-.803.16-1.341 1.41-2.008 2.156.79.488 1.617.914 2.474 1.274a2.8 2.8 0 0 0 1.502-.264c3.381-1.042 6.755-2.1 10.088-3.15l-.81-1.788zm-7.44 31.637c-.603 4.088-2.755 6.685-5.583 8.705a73.202 73.202 0 0 1-7.028 4.232c-1.397.802-2.94.954-3.903-.65-.964-1.602.289-2.444 1.373-3.446 2.056-1.9 3.912-4.008 5.92-5.963a52.253 52.253 0 0 1 5.277-4.714 3.306 3.306 0 0 1 2.86-.192c.666.313.875 1.54 1.084 2.028zm-4.892 2.46c-2.747 2.02-5.365 3.969-8.032 5.868-.65.465-1.607.633-2.072 1.219a8.005 8.005 0 0 0-.956 2.404 12.31 12.31 0 0 0 2.57.561 2.58 2.58 0 0 0 1.542-.801c2.796-2.685 5.55-5.427 8.346-8.176l-1.398-1.074zm100.605-92.442c0-1.964 1.277-3.64 3.213-3.535a11.89 11.89 0 0 1 4.948 1.475 32.337 32.337 0 0 1 5.912 4.24 3.453 3.453 0 0 1 .867 2.982c-.209.673-1.767 1.483-2.554 1.33a85.595 85.595 0 0 1-8.731-2.348c-2.016-.617-3.655-1.707-3.655-4.144zm3.872.914l5.847 3.374a9.764 9.764 0 0 0 2.506 1.347c.627.136 1.864-.24 1.992-.657a2.486 2.486 0 0 0-.562-2.205 8.946 8.946 0 0 0-2.924-1.466c-2.128-.802-4.297-1.443-6.386-2.133-.16.578-.345 1.267-.457 1.74h-.016zm-34.359-5.347a3.63 3.63 0 0 1-2.736-1.018 3.615 3.615 0 0 1-1.095-2.701 3.8 3.8 0 0 1 2.336-3.542 3.83 3.83 0 0 1 1.463-.298 4.068 4.068 0 0 1 2.592 1.142 4.052 4.052 0 0 1 1.215 2.554 3.86 3.86 0 0 1-1.1 2.698 3.875 3.875 0 0 1-2.675 1.165zM221.67 36.319a3.685 3.685 0 0 1 2.694 1.13 3.67 3.67 0 0 1 1.018 2.733 3.876 3.876 0 0 1-1.234 2.648 3.892 3.892 0 0 1-2.734 1.04 3.963 3.963 0 0 1-2.547-1.23 3.947 3.947 0 0 1-1.076-2.61 3.785 3.785 0 0 1 2.42-3.454c.464-.18.96-.268 1.46-.257zM327.022 59.21a3.344 3.344 0 0 1 2.195 1.17 3.33 3.33 0 0 1 .777 2.358 3.265 3.265 0 0 1-1.2 2.284 3.28 3.28 0 0 1-2.487.705 3.319 3.319 0 0 1-2.156-1.215 3.306 3.306 0 0 1-.711-2.367 3.37 3.37 0 0 1 1.208-2.176 3.386 3.386 0 0 1 2.374-.758zm-100.438 1.075a3.202 3.202 0 0 1-.855 2.295 3.22 3.22 0 0 1-2.23 1.024 3.307 3.307 0 0 1-3.164-1.98 3.289 3.289 0 0 1-.273-1.283c.01-.858.361-1.677.975-2.278a3.257 3.257 0 0 1 2.302-.928 3.17 3.17 0 0 1 2.995 1.925c.164.388.25.804.25 1.225zM189.37 86.144c.804.673 2.04 1.242 2.185 2.02a3.201 3.201 0 0 1-1.245 2.685 12.592 12.592 0 0 1-4.209 1.098 25.168 25.168 0 0 1-4.385.36 2.414 2.414 0 0 1-1.76-.921 1.776 1.776 0 0 1 .442-1.7c2.82-1.226 5.72-2.284 8.972-3.542zm-.072 3.607c-.69-.594-1.245-1.25-1.398-1.163-2.361 1.307-5.678-.152-8.08 2.59 3.71 1.394 6.16-1.187 9.478-1.427zM141.572 3.27a2.897 2.897 0 0 1-1.877 2.675c-.362.137-.748.2-1.135.187a3.033 3.033 0 0 1-2.787-2.01 3.016 3.016 0 0 1-.17-1.196A3.128 3.128 0 0 1 138.656 0a3.065 3.065 0 0 1 2.762 2.068c.131.387.184.795.155 1.202zM70.299 97.405a2.913 2.913 0 0 1 2.71 1.828c.143.36.213.743.205 1.13a2.848 2.848 0 0 1-1.836 2.857c-.38.144-.786.205-1.192.18a2.929 2.929 0 0 1-2.666-1.908 2.912 2.912 0 0 1-.177-1.137 2.963 2.963 0 0 1 .87-2.081 2.975 2.975 0 0 1 2.086-.869zm40.059-60.845c-.233 2.324-1.06 3.205-2.675 3.077-1.614-.128-2.466-.978-2.41-2.557.057-1.579 1.093-2.629 2.57-2.316 1.061.216 1.897 1.322 2.515 1.795zm-5.146 97.252c-.659.465-1.534 1.539-2.53 1.659-1.462.184-2.498-.89-2.45-2.485a2.2 2.2 0 0 1 1.469-2.224c.301-.107.622-.146.94-.116 1.631 0 2.37.961 2.57 3.166zM280.461 32.607c-.891.65-1.791 1.812-2.675 1.804-.883-.008-1.984-1.203-2.24-2.092a1.904 1.904 0 0 1 1.16-2.296c.296-.112.615-.15.928-.11.972.081 1.871 1.091 2.803 1.676l.024 1.018zM114.412 55.66c-1.43 1.018-2.273 2.06-2.875 1.94-.803-.168-1.486-1.226-2.217-1.9.699-.681 1.341-1.795 2.12-1.907.78-.113 1.55.913 2.972 1.867zm94.631-.721c-.803.52-1.679 1.467-2.474 1.427a2.603 2.603 0 0 1-1.751-1.916 2.571 2.571 0 0 1 1.775-1.884c.803-.04 1.607.914 2.458 1.435-.008.305-.008.625-.008.938zM163.26 73.92c-1.173.945-1.856 1.923-2.498 1.9-.643-.025-1.293-1.019-1.944-1.604.57-.641 1.068-1.683 1.727-1.803.659-.12 1.462.753 2.715 1.507zm11.542 79.386c-.666-.801-1.413-1.306-1.35-1.691.081-.57.764-1.034 1.182-1.547.474.393 1.3.802 1.317 1.186.016.561-.594 1.13-1.149 2.052zm-14.945 14.933c-.803.593-1.26 1.218-1.702 1.202-.442-.016-.924-.665-1.382-1.034.442-.473.803-1.178 1.341-1.339.322-.104.924.594 1.743 1.17z"/><path d="M49.914 191.099a56.782 56.782 0 0 0-10.305.914 32.242 32.242 0 0 0-8.836 2.893 22.1 22.1 0 0 0-6.642 5.098 17.397 17.397 0 0 0-3.848 7.399 16.256 16.256 0 0 0-.305 4.496 12.494 12.494 0 0 0 1.293 4.721 16.435 16.435 0 0 0 3.285 4.497 17.557 17.557 0 0 0 5.8 3.655c.545.22 1.106.4 1.679.537.305.048.41.177.305.377-.105.2-.41.28-.916.232-.67-.081-1.332-.21-1.984-.384-4.578-1.603-7.834-4.192-9.767-7.767a18.174 18.174 0 0 1 .988-19.35 22.656 22.656 0 0 1 6.795-6.324A36.444 36.444 0 0 1 37.61 187.9a52.225 52.225 0 0 1 13.052-1.523 66.07 66.07 0 0 1 11.832 1.298 172.52 172.52 0 0 1 14.12 3.279l7.712 2.132 7.864 2.132a36.577 36.577 0 0 1 7.63-2.974 33.729 33.729 0 0 1 9.165-1.29 18.079 18.079 0 0 1 6.787 1.138c1.888.761 2.771 1.956 2.675 3.583-.104 1.322-.94 2.356-2.522 3.118a14.276 14.276 0 0 1-6.177 1.146c-3.159 0-6.035-.128-8.627-.385-2.594-.248-5.373-.633-8.321-1.138-.99.64-1.91 1.382-2.747 2.212a181.842 181.842 0 0 0-3.213 3.118 101.646 101.646 0 0 0-3.285 3.431 74.482 74.482 0 0 0-2.828 3.27 348.674 348.674 0 0 0-6.177 8.016 232.613 232.613 0 0 1-5.88 7.543h3.053c1.117 0 2.29-.049 3.51-.153a68.498 68.498 0 0 0 3.51-.376 13.55 13.55 0 0 0 2.9-.69c.305-.4.739-.938 1.301-1.603a19.07 19.07 0 0 1 1.751-1.835 9.783 9.783 0 0 1 1.912-1.371 3.283 3.283 0 0 1 2.064-.377c1.221.305 1.446.914.683 1.828a46.535 46.535 0 0 1-3.743 3.807c-1.606 1.427-2.945 2.672-4.016 3.735a42.398 42.398 0 0 0-2.98 3.279 4.738 4.738 0 0 0-.988 1.298c-.153.361-.337.481-.538.377-.201-.104-.354-.48-.153-1.138.2-.656.456-1.294.763-1.908a21.16 21.16 0 0 1 1.454-2.405 69.38 69.38 0 0 1 1.293-1.827 27.66 27.66 0 0 1-5.622.841c-2.346.15-4.838.225-7.478.225a21.397 21.397 0 0 1-1.68 2.06c-.61.657-1.22 1.346-1.83 2.052a86.6 86.6 0 0 1-20.997 16.76A49.182 49.182 0 0 1 18.331 255c-2.174 0-4.343-.2-6.481-.593a22.976 22.976 0 0 1-5.88-1.828 11.355 11.355 0 0 1-4.201-3.286 8.75 8.75 0 0 1-1.751-5.106 7.32 7.32 0 0 1 1.791-5.33 6.77 6.77 0 0 1 5.494-2.357 4.763 4.763 0 0 1 3.51 1.37 3.694 3.694 0 0 1 1.069 3.351 6.667 6.667 0 0 1-.916 2.132 11.154 11.154 0 0 1-1.374 1.676c-1.322 1.32-1.984 2.487-1.984 3.502a2.792 2.792 0 0 0 .996 2.132 8.108 8.108 0 0 0 2.41 1.523 14.33 14.33 0 0 0 3.325.906c1.21.205 2.436.307 3.663.305a36.206 36.206 0 0 0 16.49-4.008 48.721 48.721 0 0 0 14.049-10.685c1.928-2.02 3.607-3.911 5.036-5.675a152.902 152.902 0 0 0 4.273-5.53h-4.819a35.42 35.42 0 0 0-3.59.152c-1.08.03-2.156.16-3.213.384-.514.153-.804 0-.804-.536.097-.305.53-.554 1.294-.762a31.688 31.688 0 0 1 3.895-.61 35.47 35.47 0 0 1 3.816-.151h4.425l3.438-4.345c1.168-1.47 2.619-3.169 4.354-5.098a163.768 163.768 0 0 1 5.871-5.867 111.833 111.833 0 0 1 6.185-5.483 238.398 238.398 0 0 1 5.623-4.497 45.212 45.212 0 0 1 4.434-3.046l-5.824-1.362-7.229-1.7a716.382 716.382 0 0 0-5.422-1.066 152.91 152.91 0 0 0-6.642-1.146 184.132 184.132 0 0 0-7.093-.914 64.753 64.753 0 0 0-6.635-.352zm58.925 1.37a25.546 25.546 0 0 0-7.172 1.018 24.819 24.819 0 0 0-6.105 2.638 71.217 71.217 0 0 0 8.321 1.715 49.35 49.35 0 0 0 6.491.569c1.53.033 3.054-.212 4.498-.721 1.277-.49 1.96-1.21 2.064-2.18.104-.97-.586-1.708-2.064-2.245a18.443 18.443 0 0 0-6.033-.794z"/><path d="M87.31 233.446a159.387 159.387 0 0 1-3.358 2.973 51.315 51.315 0 0 0-2.9 2.67c-.81.817-1.373.865-1.678.456-.097-.304.152-.801.803-1.37.105-.105.538-.481 1.301-1.147l2.747-2.356a306.338 306.338 0 0 0 3.43-2.974c1.221-1.066 2.41-2.108 3.67-3.126a252.007 252.007 0 0 0 3.583-4.416l4.426-5.563c1.607-1.98 3.213-4.008 4.964-6.012 1.751-2.004 3.406-3.968 5.036-5.795a445.02 445.02 0 0 1 8.555-9.443 150.18 150.18 0 0 1 9.639-9.45c1.938-1.726 3.77-2.589 5.494-2.589 1.526 0 2.289.36 2.289 1.066-.707.713-2.008 2.084-3.888 4.12a783.783 783.783 0 0 0-6.185 6.773 1044.075 1044.075 0 0 0-6.795 7.623 436.05 436.05 0 0 0-5.88 6.773 625.74 625.74 0 0 0-7.703 9.45 338.266 338.266 0 0 0-7.18 9.29c-2.185 2.95-4.118 5.718-5.8 8.305a59.21 59.21 0 0 0-3.743 6.476c-.2.513-.434 1.195-.683 2.06a1.928 1.928 0 0 0 .378 2.052 2.316 2.316 0 0 0 2.217.153 12.953 12.953 0 0 0 2.522-1.066 20.2 20.2 0 0 0 3.052-1.9c1.012-.802 2.08-1.547 3.213-2.365a117.01 117.01 0 0 0 3.663-2.973c1.02-.858 2.032-1.748 3.052-2.662a9.96 9.96 0 0 1 1.221-.994c.506-.352.867-.432 1.068-.224.201.208-.152.914-1.068 1.828-.916.913-2.241 2.108-3.968 3.574a153.15 153.15 0 0 1-5.341 4.345 86.416 86.416 0 0 1-2.747 1.98 26.434 26.434 0 0 1-3.358 1.98 24.35 24.35 0 0 1-3.823 1.523c-1.234.393-2.52.599-3.816.609a5.784 5.784 0 0 1-3.582-.986 3.359 3.359 0 0 1-1.149-3.126c.102-1.828.967-4.112 2.595-6.854a77.5 77.5 0 0 1 5.952-8.528l-.225-.16z"/><path d="M107.774 238.175c-.486.374-.945.78-1.374 1.219-1.012.914-1.678 1.218-1.984.914-.305-.305-.152-.481.153-.842.305-.36.61-.681.916-.986.506-.513 1.22-1.146 2.136-1.908a23.683 23.683 0 0 1 2.627-1.915 90.405 90.405 0 0 1 3.213-2.14c1.124-.717 2.498-1.478 4.12-2.285a53.88 53.88 0 0 1 6.715-2.813 23.183 23.183 0 0 1 5.952-1.299c.51-.001 1.02.025 1.526.08.514.048.763.225.763.53 0 .103-.554.408-1.678.913a23.381 23.381 0 0 0-5.262 3.278c-1.686 1.368-3.595 3.07-5.726 5.106a46.808 46.808 0 0 0-5.952 7.214c-1.735 2.597-2.7 4.65-2.908 6.172-.2 1.732.514 2.59 2.145 2.59 1.63 0 3.935-.882 6.634-2.662a38.3 38.3 0 0 0 7.559-6.629c.137-.96.368-1.905.69-2.821a12.452 12.452 0 0 1 2.057-3.575 11.096 11.096 0 0 1 2.674-2.67 13.657 13.657 0 0 1 2.21-1.298 6.057 6.057 0 0 0 .385-1.827c.048-.706.08-1.267.08-1.676a4.168 4.168 0 0 0-.233-1.675.609.609 0 0 1 .072-.761.941.941 0 0 1 1.077.08 5.96 5.96 0 0 1 1.068.801 7.549 7.549 0 0 1 1.526 2.269c.408.952.515 2.007.305 3.022a12.318 12.318 0 0 1-2.747 5.891 48.987 48.987 0 0 1-5.96 6.34c.447.233.957.315 1.454.233a6.709 6.709 0 0 0 1.446-.233 13.818 13.818 0 0 0 5.197-2.54 67.5 67.5 0 0 0 2.594-1.868 26.254 26.254 0 0 0 2.29-2.02c1.424-1.299 2.289-1.796 2.594-1.491.305.305-.361 1.218-1.984 2.741l-2.217 1.9a33.108 33.108 0 0 1-2.667 2.06 22.091 22.091 0 0 1-3.213 1.828 15.39 15.39 0 0 1-2.602.913 6.348 6.348 0 0 1-2.209.233 4.328 4.328 0 0 1-1.911-.537 49.352 49.352 0 0 1-3.51 2.517 35.504 35.504 0 0 1-9.093 4.184c-1.56.492-3.184.749-4.82.761a8.534 8.534 0 0 1-5.566-1.675c-1.37-1.112-2.008-2.787-1.912-5.026.21-3.249 1.837-6.498 4.884-9.747l-.153-.152c-.428.46-.89.889-1.381 1.282z"/><path d="M170.064 230.247c0 1.018-.739 2.284-2.217 3.815a120.747 120.747 0 0 0-4.82 5.33 35.913 35.913 0 0 0-5.196 7.159c-.809 1.427-.86 2.391-.153 2.893.61.513 1.735.305 3.366-.609a252.38 252.38 0 0 1 3.124-1.9 29.778 29.778 0 0 0 3.743-2.669 124.658 124.658 0 0 0 4.121-3.278 129.48 129.48 0 0 0 3.052-2.661c1.117-1.122 1.88-1.523 2.29-1.219.2.2.104.53-.306.986-.41.457-.915.994-1.526 1.603-.916.807-2.11 1.876-3.582 3.207-1.478 1.322-3.213 2.693-5.117 4.112a64.199 64.199 0 0 1-6.104 3.96 14.77 14.77 0 0 1-7.487 2.131 5.18 5.18 0 0 1-3.662-1.138 3.246 3.246 0 0 1-1.069-2.821 9.977 9.977 0 0 1 2.41-5.483 49.303 49.303 0 0 1 4.884-5.33 41.277 41.277 0 0 1 3.052-2.742c1.12-.913 2.163-1.752 3.133-2.516a88.984 88.984 0 0 0 2.522-2.06 4.3 4.3 0 0 0 1.22-1.371c.306-.802-.152-1.218-1.373-1.218h-6.73a3.177 3.177 0 0 1-1.455-.305c-1.317 1.427-3.25 3.356-5.799 5.787a203.77 203.77 0 0 1-3.438 3.126 55.23 55.23 0 0 0-2.667 2.517c-1.22 1.114-1.984 1.523-2.289 1.219-.305-.305.25-1.123 1.679-2.405.916-.802 1.775-1.603 2.594-2.365.82-.761 1.928-1.803 3.358-3.126 2.244-2.137 4.024-3.914 5.341-5.33a2.646 2.646 0 0 1-1.14-2.132 3.793 3.793 0 0 1 1.14-2.742 7.13 7.13 0 0 1 5.808-2.589c.603 0 1.2.13 1.75.377a1.606 1.606 0 0 1 .997 1.146l-1.302.986c-.459.35-.89.733-1.293 1.146-1.933 2.036-1.78 3.153.458 3.35 2.142.102 4.126.281 5.952.538 1.831.248 2.747 1.09 2.747 2.509l-.016.112z"/><path d="M205.172 231.923a33.913 33.913 0 0 1 4.82-4.337 6.844 6.844 0 0 1 3.895-1.45c1.607-.097 2.57.055 2.82.456.249.401 0 1.066-.804 1.98a206.102 206.102 0 0 0-3.815 4.344 205.278 205.278 0 0 0-4.731 5.716 65.345 65.345 0 0 0-2.908 3.727 39.731 39.731 0 0 0-2.41 3.735c-1.017 1.828-1.17 2.995-.457 3.503a1.705 1.705 0 0 0 1.606.152c.655-.2 1.292-.455 1.904-.761 1.083-.566 2.13-1.2 3.132-1.9a48.644 48.644 0 0 0 3.744-2.822c1.606-1.322 3.052-2.484 4.273-3.502 1.22-1.018 2.24-1.932 3.052-2.742.506-.408.94-.737 1.301-.993.362-.257.635-.281.803-.073.17.209-.353 1.219-1.983 2.742a569.73 569.73 0 0 1-3.968 3.502 106.45 106.45 0 0 1-4.579 3.808 55.311 55.311 0 0 1-5.807 3.96 13.917 13.917 0 0 1-7.326 2.132 4.826 4.826 0 0 1-3.213-.914 3.377 3.377 0 0 1-1.22-2.285 5.505 5.505 0 0 1 .457-2.74 9.44 9.44 0 0 1 1.68-2.742l-.154-.153a45.11 45.11 0 0 1-3.51 2.822 48.107 48.107 0 0 1-4.2 2.741 31.573 31.573 0 0 1-4.579 2.205c-1.44.58-2.959.939-4.506 1.066a7.732 7.732 0 0 1-4.659-1.138c-1.37-.866-1.906-2.517-1.606-4.954a14.232 14.232 0 0 1 1.22-3.583 20.213 20.213 0 0 1 3.053-4.337l-.153-.152-.763.802c-.387.377-.794.733-1.22 1.066-.708.505-1.173.657-1.374.457-.305-.406.407-1.371 2.136-2.894.21-.208.804-.737 1.832-1.603a24.724 24.724 0 0 1 2.747-2.052l3.052-1.908a125.089 125.089 0 0 1 3.976-2.364 52.865 52.865 0 0 1 8.314-3.503 15.693 15.693 0 0 1 6.947-.762 3.756 3.756 0 0 1 3.133 2.06 4.522 4.522 0 0 1 .048 3.688zm-3.815-4.265c-1.526 0-3.561.914-6.105 2.742a65.443 65.443 0 0 0-7.936 6.86 55.149 55.149 0 0 0-6.795 7.536c-1.373 1.98-1.96 3.486-1.759 4.496.2 1.01.763 1.523 1.984 1.523 1.43 0 3.414-.705 5.96-2.132a34.225 34.225 0 0 0 6.868-5.026 38.892 38.892 0 0 0 3.662-3.502 109.34 109.34 0 0 0 3.358-3.808 30.981 30.981 0 0 0 2.522-3.43 5.37 5.37 0 0 0 .988-2.517c.08-1.828-.836-2.742-2.747-2.742z"/><path d="M231.581 230.4a18.943 18.943 0 0 0-2.82 1.755 62.908 62.908 0 0 0-3.742 2.822l-2.98 2.404a97.39 97.39 0 0 0-2.515 2.132c-1.22 1.018-1.983 1.42-2.289 1.219-.305-.2-.176-.457.073-.762.249-.304.803-.865 1.606-1.675.402-.409 1.044-.97 1.904-1.675a319.38 319.38 0 0 1 2.827-2.293c1.02-.817 2.064-1.603 3.133-2.404a66.022 66.022 0 0 1 2.972-2.133 21.172 21.172 0 0 1 4.891-2.74 12.628 12.628 0 0 1 3.968-.61c1.607 0 2.522.152 2.747.457.201.304-.152.97-1.068 1.98-2.544 2.843-5.293 6.094-8.25 9.755a60.936 60.936 0 0 0-3.276 4.344 102.851 102.851 0 0 0-2.065 3.118c-.915 1.603-1.068 2.72-.458 3.35.713.61 1.934.458 3.663-.456a29.743 29.743 0 0 0 2.98-1.748 38.205 38.205 0 0 0 3.743-2.821c1.607-1.315 2.9-2.405 3.816-3.206.915-.802 1.984-1.78 3.212-2.894 1.23-1.114 2.137-1.675 2.41-1.37.273.304 0 .609-.53 1.218s-.948 1.01-1.149 1.218c-.915.914-2.214 2.108-3.895 3.583a111.03 111.03 0 0 1-4.82 4.008 62.21 62.21 0 0 1-5.88 4.008 13.99 13.99 0 0 1-7.405 2.204c-3.052 0-4.578-1.315-4.578-3.96a6.841 6.841 0 0 1 .682-2.965 21.929 21.929 0 0 1 1.607-2.822 26.847 26.847 0 0 1 2.666-3.735 120.99 120.99 0 0 1 3.286-3.727 278.844 278.844 0 0 1 3.132-3.36 31.736 31.736 0 0 1 2.402-2.22zm21.374-24.528a1.907 1.907 0 0 1 1.984 1.146c.305.764 0 1.702-.916 2.814a10.165 10.165 0 0 1-3.663 2.973 8.848 8.848 0 0 1-3.51 1.147 3.77 3.77 0 0 1-.682-2.213 6.856 6.856 0 0 1 .53-2.973 4.184 4.184 0 0 1 2.37-2.285 10.606 10.606 0 0 1 3.734-.609h.153z"/><path d="M275.55 253.092a5.535 5.535 0 0 1-3.438-.986 3.207 3.207 0 0 1-1.14-2.973 9.896 9.896 0 0 1 2.208-5.33 166.246 166.246 0 0 1 4.201-5.331 66.636 66.636 0 0 1 3.358-3.96 92.402 92.402 0 0 0 3.052-3.51c.286-.36.494-.775.61-1.219a.736.736 0 0 0-.458-.914c-.541-.2-1.137-.2-1.678 0-.788.24-1.553.546-2.29.914-1.421.713-3.156 1.707-5.188 2.974a75.192 75.192 0 0 0-6.716 4.81c-1.734 1.322-3.26 2.532-4.578 3.654a132.269 132.269 0 0 1-4.016 3.279l-4.016 3.27a703.026 703.026 0 0 1-4.506 3.655 6.49 6.49 0 0 1-3.968 1.37 4.829 4.829 0 0 1-2.29-.376c-.41-.256-.305-.938.306-2.06a51.47 51.47 0 0 1 2.82-4.649 107.49 107.49 0 0 1 3.895-5.555c.803-1.122 1.831-2.404 3.052-3.96 1.221-1.554 2.241-2.845 3.052-3.967 1.02-1.315 1.374-2.18 1.069-2.59-.306-.408-1.173-.456-2.29.153a48.24 48.24 0 0 0-2.972 1.828 27.81 27.81 0 0 0-2.98 2.284 73.872 73.872 0 0 0-3.212 2.75 951.917 951.917 0 0 0-3.358 3.045c-1.43 1.219-2.29 1.676-2.594 1.371-.306-.305.554-1.266 2.289-2.894.916-.801 2.104-1.907 3.582-3.278a69.743 69.743 0 0 1 4.354-3.735 36.15 36.15 0 0 1 5.526-3.72 10.346 10.346 0 0 1 4.884-1.298c1.43 0 2.41.36 2.98 1.066.536.642.834 1.449.843 2.285a5.978 5.978 0 0 1-.843 2.893 38.684 38.684 0 0 1-2.37 3.663 195.983 195.983 0 0 1-3.815 5.026c-1.422 1.828-2.547 3.35-3.358 4.569l.153.152 6.426-5.33a267.42 267.42 0 0 1 7.638-6.1 73.91 73.91 0 0 1 8.547-5.61c3.052-1.727 5.75-2.59 8.096-2.59 3.454 0 5.031 1.37 4.731 4.112a9.754 9.754 0 0 1-2.289 4.577c-1.325 1.603-2.594 3.206-3.823 4.721-1.23 1.515-2.265 2.741-3.125 3.96a176.592 176.592 0 0 0-1.911 2.741c-1.117 1.731-1.326 2.846-.611 3.35a1.842 1.842 0 0 0 1.679.153 11.19 11.19 0 0 0 1.984-.762c.915-.505 1.936-1.09 3.06-1.747a47.773 47.773 0 0 0 4.273-2.974 96.308 96.308 0 0 0 4.016-3.278c1.374-1.162 2.466-2.156 3.286-2.966 1.02-.914 1.678-1.218 1.984-.914.305.305-.201.962-1.221 1.98-.715.714-2.008 1.9-3.896 3.575-1.888 1.675-3.639 3.126-5.261 4.345a54.971 54.971 0 0 1-2.827 1.98 31.55 31.55 0 0 1-3.438 1.98 25.74 25.74 0 0 1-3.735 1.522 12.22 12.22 0 0 1-3.743.57z"/></g></svg>