<svg viewBox="0 0 31 32" xmlns="http://www.w3.org/2000/svg"><g fill="#4F4F4F"><path d="M21.313.404H9.688C4.338.404 0 4.825 0 10.278v11.848C0 27.578 4.338 32 9.688 32h11.624C26.663 32 31 27.578 31 22.126V10.278C31 4.825 26.662.404 21.312.404zm6.78 21.722c0 3.811-3.041 6.912-6.78 6.912H9.688c-3.74 0-6.782-3.1-6.782-6.912V10.278c0-3.812 3.042-6.912 6.781-6.912h11.626c3.739 0 6.78 3.1 6.78 6.912v11.848z"/><path d="M15.5 8.303c-4.28 0-7.75 3.537-7.75 7.899S11.22 24.1 15.5 24.1c4.28 0 7.75-3.537 7.75-7.9 0-4.361-3.47-7.898-7.75-7.898zm0 12.836c-2.67 0-4.844-2.216-4.844-4.937 0-2.723 2.174-4.937 4.844-4.937 2.67 0 4.844 2.214 4.844 4.937 0 2.721-2.174 4.937-4.844 4.937zm8.331-12.376c.57 0 1.033-.471 1.033-1.053 0-.581-.462-1.052-1.033-1.052-.57 0-1.032.471-1.032 1.052 0 .582.462 1.053 1.032 1.053z"/></g></svg>