<svg viewBox="0 0 158 122" xmlns="http://www.w3.org/2000/svg"><path fill-rule="evenodd" clip-rule="evenodd" d="M67.666 2.102c.075-.17.114-.352.116-.538a1.469 1.469 0 0 0-.365-1.076 1.49 1.49 0 0 0-.465-.348 1.483 1.483 0 0 0-.565-.14 1.498 1.498 0 0 0-1.463 1.4c-.012.194.016.389.082.572.065.184.166.352.299.495a1.464 1.464 0 0 0 1.578.377 1.395 1.395 0 0 0 .783-.742zm55.889 3.5l.258-.605c-.024-2.247-.811-3.455-1.988-3.62-1.176-.166-2.112.602-2.639 2.136l-.041.13a2.705 2.705 0 0 0-.082.276l-.483 2.208c-.345 1.576-.689 3.145-1.011 4.714a1.74 1.74 0 0 0 1.152 1.917c.92.23 1.342-.325 1.727-1.035.252-.473.513-.93.777-1.389l.031-.053c.387-.671.776-1.345 1.135-2.074.461-.936.867-1.9 1.164-2.604zm-3.002-.574l.268-.768 1.257.307-.234.902-.037.142c-.348 1.336-.703 2.702-1.074 4.072a10.467 10.467 0 0 1-.52 1.5l-.021.047c-.283.65-.586 1.34-1.516 1-.682-.25-.9-1.17-.484-2.037.215-.452.447-.896.681-1.339l.045-.086c.313-.593.625-1.185.899-1.796.287-.637.515-1.3.736-1.944zm-93.92 101.09l.076-.153.032-.062c1.875-3.76 5.08-10.185 5.43-10.376l1.277-2.477.257-.457c.836.16 1.577.307 2.225.436l.09.018.228.045 3.461.813 2.787.652a21.62 21.62 0 0 0-2.123 1.458 116.65 116.65 0 0 0-2.691 2.151c-.977.8-1.965 1.674-2.96 2.623a75.879 75.879 0 0 0-2.812 2.807 52.66 52.66 0 0 0-2.085 2.439l-1.645 2.079h-2.12a16.11 16.11 0 0 0-.905.007 2.51 2.51 0 0 0 1.039-1.12l.44-.883zm-2.851 2.117c1.789-3.769 4.859-10.42 4.832-10.46l2.25-3.732c.326-.6.66-1.195.996-1.788a59.881 59.881 0 0 0-1.389-.221 88.385 88.385 0 0 0-3.396-.437 31.078 31.078 0 0 0-3.176-.17 27.22 27.22 0 0 0-4.934.438c-1.47.255-2.894.721-4.23 1.385a10.58 10.58 0 0 0-3.182 2.439 8.35 8.35 0 0 0-1.842 3.539 7.799 7.799 0 0 0-.146 2.151 5.97 5.97 0 0 0 .619 2.259 7.86 7.86 0 0 0 1.574 2.152 8.422 8.422 0 0 0 2.776 1.749c.261.105.53.19.804.256.147.023.196.085.147.181-.051.095-.197.134-.44.111a6.983 6.983 0 0 1-.949-.184c-2.191-.767-3.752-2.006-4.676-3.716a8.692 8.692 0 0 1 .473-9.258 10.836 10.836 0 0 1 3.254-3.026 17.463 17.463 0 0 1 4.86-2.005 25.034 25.034 0 0 1 6.25-.729 31.82 31.82 0 0 1 5.665.621c.994.186 1.994.394 3.004.624 5.861-9.92 13.014-18.904 20.678-27.517a532.72 532.72 0 0 1 3.414-3.801l.103-.115.176-.194.291-.322c.836-.923 1.67-1.845 2.502-2.77a18.1 18.1 0 0 0 .627-.737c-.244-.696-.47-1.315-.7-1.938l-.01-.032-.39-1.063c-.273 0-.57.012-.882.024-.793.032-1.688.068-2.551-.078a3.49 3.49 0 0 1-1.955-1.258c-.68-.874-.108-2.232 1.023-2.684a14.31 14.31 0 0 1 1.924-.491l-2.957-4.012c-.639 1.151-1.492 1.262-2.635 1.151-1-.09-2.008-.033-3.02.025-.589.033-1.179.067-1.769.07a9.109 9.109 0 0 1-2.21-.214c-1.215-.295-1.922-1.15-1.866-2.128a2.022 2.022 0 0 1 1.96-1.917 17.078 17.078 0 0 1 3.87.314c.572.097 1.127.302 1.684.507.316.118.633.235.955.332.392.094.79.165 1.191.211l.127-.257-.986-.836-.227-.194c-.931-.797-1.863-1.593-2.84-2.34a50.726 50.726 0 0 0-1.398-1.006c-.9-.633-1.8-1.266-2.617-2.005 6.039 2.73 10.396 7.333 13.98 12.89.082-.132.143-.22.186-.282l.014-.022c.044-.066.064-.093.054-.107-1.812-4.44-3.761-8.82-7.158-12.326a8.578 8.578 0 0 0-2.275-1.457c-.451-.234-.92-.433-1.391-.632l-.04-.017-.015-.006c-.49-.206-.978-.412-1.447-.656a1.623 1.623 0 0 1-.818-.932c-.196-1.034-1.01-1.27-1.739-1.48l-.185-.054a53.082 53.082 0 0 0-2.803-.776l-.025-.006a69.83 69.83 0 0 1-2.172-.583 8.12 8.12 0 0 1-2.041-.863c-.9-.56-1.074-1.503-.8-2.447.097-.444.358-.835.735-1.091a1.79 1.79 0 0 1 1.288-.29c.93.15 1.824.468 2.638.94.77.453 1.489.995 2.207 1.537.358.27.715.54 1.08.799.686.487.817.935.575 2.197l.933.422c1.393-1.247 2.549-1.357 4.072-.203 1.381 1.047 2.694 2.201 3.977 3.363.77.706.523 1.534-.658 2.235 3.297 3.835 5.238 8.414 7.162 13.009l.385-.142c-.221-.841-.424-1.689-.625-2.536-.452-1.896-.903-3.79-1.573-5.606-.78-2.132-1.728-4.202-2.675-6.273a164.181 164.181 0 0 1-1.508-3.364 3.327 3.327 0 0 1-.172-1.476c0-.134.453-.277.719-.35a1.98 1.98 0 0 1 .691-.026c.258.008.51.077.734.2a.593.593 0 0 1 0 .551 1.51 1.51 0 0 1-.738.135c-.07 0-.142-.055-.258-.14a3.757 3.757 0 0 0-.246-.175c0 .112-.008.218-.015.317l-.002.034-.006.062c-.022.217-.037.394.023.523 3.162 5.664 5.108 11.742 6.297 18.086 0 .014.02.025.059.049l.097.061v-2.17c-.092-5.971-.545-11.888-2.16-17.679a4.548 4.548 0 0 0-1.273-1.833c-.383-.38-.813-.71-1.242-1.04a13.94 13.94 0 0 1-1.131-.93c-1.108-1.048-1.211-2.474-.346-3.418.865-.943 2.275-.928 3.41.172.5.548.928 1.158 1.27 1.815.379.622.736 1.259 1.091 1.895.213.38.426.759.643 1.134.635 1.078.219 1.833-1.433 2.47.082.437.175.873.27 1.311l.04.182.004.022c.236 1.077.47 2.158.562 3.252.268 3.16.485 6.325.702 9.49l.058.86.004.047c.094 1.375.19 2.75.29 4.126.066.377.17.747.308 1.104l.433-.073c.033-.663.073-1.326.112-1.989.09-1.521.18-3.042.205-4.565.052-3.26.084-6.52-.02-9.787-.045-1.389-.201-2.775-.357-4.16-.078-.688-.157-1.376-.22-2.064l-.01-.12c-.053-.598-.108-1.253.11-1.763.235-.544.811-1.13 1.296-1.185.484-.053 1.328.46 1.457.894.271.975.363 1.99.273 2.999a19.905 19.905 0 0 1-.615 3.451 7.36 7.36 0 0 1-.75 1.446 1.59 1.59 0 0 0-.235.637c-.084 4.116-.158 8.23-.222 12.34 0 .096.031.196.222.322l.616-3.343.052-.287c.489-2.645.977-5.29 1.416-7.943.46-2.762.829-5.538 1.155-8.318.082-.73.064-1.467.045-2.205a25.588 25.588 0 0 1-.01-1.396c-.031-.913.017-1.826.142-2.73a1.664 1.664 0 0 1 1.768-1.403 1.45 1.45 0 0 1 1.395.945c.07.188.1.388.085.587a12.3 12.3 0 0 1-.322 2.685 24.78 24.78 0 0 1-.77 2.746c-.115.353-.298.847-.572.947-.689.244-.763.75-.841 1.279l-.002.015-.05.294-3.384 18.488c-.016.078-.021.158-.031.288l-.03.348c.079-.14.15-.252.212-.345.103-.16.173-.267.173-.38.034-1.059.508-1.963.983-2.866.383-.731.765-1.462.916-2.276.062-.329.064-.667.066-1.005 0-.26.002-.521.031-.778a1.39 1.39 0 0 1 .307-.84c1.238-1.15 1.342-2.684 1.436-4.2 0-.309.033-.617.1-.92.349-1.253.714-2.508 1.107-3.75l.12-.402c.153-.522.307-1.054.626-1.447.326-.383 1.06-.793 1.504-.693.441.1 1.207.766 1.207 1.211a5.642 5.642 0 0 1-.659 2.796c-.398.674-.892 1.295-1.386 1.916a25.62 25.62 0 0 0-.971 1.273 2023.78 2023.78 0 0 1 1.908-5.034l-.842-.207a7.442 7.442 0 0 0-1.123 5.322 9.72 9.72 0 0 0-.459.737c-.445.802-.675 1.721-.906 2.639-.092.364-.183.728-.289 1.085-.082.268-.142.542-.2.797l-.005.023-.014.062-.004.02-.01.046-.07.321c1.588-.084 2.414-1.292 3.256-2.6 1.516-2.363 3.108-4.678 4.7-6.993l.65-.945c.36-.562.521-1.227.459-1.89 0-1.082.361-2.182.713-3.25l.144-.44a3.984 3.984 0 0 1 1.057-1.775 2.077 2.077 0 0 1 1.693-.33c.739.222.887 1.047.62 1.702-.204.496-.485.958-.766 1.421l-.028.044-.023.038c-.178.295-.355.592-.512.898-.232.52-.437 1.053-.615 1.596a3.322 3.322 0 0 1-.326.767 882.708 882.708 0 0 1-3.096 4.172l-.431.58-.393.528-.338.455-1.553 2.096c-.547.74-1.062 1.51-1.539 2.3l-.209.336c-.42.665-.838 1.323-.752 2.322.065.74-.722 1.814-1.431 2.3-1.3.883-2.108 2.06-2.858 3.345a38.154 38.154 0 0 0-2.052 3.87l.212-.198a9.19 9.19 0 0 0 .414-.393c3.526-3.6 7.05-7.204 10.573-10.81a99.755 99.755 0 0 0 1.636-1.74c.467-.503.934-1.006 1.409-1.501a7.69 7.69 0 0 1 1.334-1.2c.812-.526 1.666-.476 2.308.283a1.702 1.702 0 0 1-.02 2.259 4.58 4.58 0 0 1-1.404 1.097 26.207 26.207 0 0 1-2.972 1.415c-.295.113-.637.11-1.014.107a8.352 8.352 0 0 0-.57.008l-9.961 9.702.035.04c.059.066.115.13.168.198 5.959-4.51 12.484-8.053 18.941-11.532.063-.142.117-.3.17-.458.123-.368.246-.738.504-.907.145-.096.403.002.684.11.222.084.459.174.666.178.338-.045.65-.213.873-.472.09-.095.17-.199.246-.307l.176.25c1.058-.146 1.185-.035 1.03 1.284l4.513-3.923-.805-.729-4.914 3.118c.045-.062.086-.126.125-.19l.03-.044.04-.065c.12-.188.239-.377.385-.545a36.666 36.666 0 0 1 1.754-1.836 15.014 15.014 0 0 1 2.111-1.918c.854-.56 1.803-.383 2.528.384a1.76 1.76 0 0 1 .203 2.35 6.647 6.647 0 0 1-1.946 1.715 35.421 35.421 0 0 1-3.44 1.668c-.276.126-.722.299-.892.177-.67-.48-1.183-.177-1.691.123-.115.068-.23.136-.346.194-1.912.883-3.763 1.833-5.634 2.794l-1.096.562c1.457 1.062 1.476 1.197.42 3.302.267-.118.525-.236.777-.353l.03-.013c.609-.282 1.189-.55 1.788-.746.42-.1.864-.055 1.254.13a1.022 1.022 0 0 1 .08.894 3.27 3.27 0 0 1-1.173.306 4.132 4.132 0 0 0-.807.12 4310.15 4310.15 0 0 0-15.418 6.749 2.713 2.713 0 0 1-.795.349l22.147-3.67a7.292 7.292 0 0 1-.159-1.484c.297-.157.633-.226.967-.2.213.52.375 1.057.485 1.607l2.511-.586.028-.007c.136-.031.355-.081.355-.132.063-1.1.807-1.322 1.549-1.544.293-.087.586-.174.836-.316a28.91 28.91 0 0 1 1.797-.939c1.556-.736 2.572-.441 3.076.87.568 1.504-.178 3.11-1.666 3.452a4.97 4.97 0 0 1-1.584.042A27.308 27.308 0 0 1 96.164 49l-.017-.002-.018-.003-.017-.002-.018-.003-.017-.002-.018-.003-.018-.002-.017-.003-.018-.002-.017-.002-.034-.005-.015-.003c-.852-.124-1.703-.248-2.553-.231-.877.016-1.748.205-2.621.394l-.043.01-.037.007c-.32.07-.64.14-.963.199-2.195.382-4.393.758-6.59 1.133-4.418.757-8.838 1.514-13.252 2.318-1.04.19-2.082.5-3.181.828-.526.157-1.067.318-1.625.472l11.334-.71c.01-.08.011-.174.013-.272v-.014c.006-.226.012-.472.13-.645.216-.41.567-.732.995-.913.907-.146 1.82-.24 2.739-.28 2.013-.21 2.513.172 2.845 2.262 1.098.314 2.112-.012 3.121-.337.446-.144.89-.287 1.344-.375.578-.114 1.14-.303 1.703-.493.483-.162.965-.324 1.457-.44 1.365-.314 2.477.334 2.766 1.504.289 1.17-.496 2.3-1.846 2.534-.808.09-1.623.103-2.433.039-1.051 0-2.106 0-3.159-.05a1.071 1.071 0 0 1-.77-.26c-.716-1-1.618-.84-2.52-.68a7.858 7.858 0 0 1-.753.108 5.915 5.915 0 0 0-.611.092c-.393.074-.783.147-1.137.062-2.67-.648-5.338-.459-8.008-.27-.79.056-1.584.112-2.376.146-.133 0-.26.153-.428.352-.098.117-.21.25-.342.377.766.161 1.51.31 2.234.455l.133.027c1.614.323 3.14.628 4.653 1.002 2.447.599 4.878 1.275 7.31 1.951l.049.013 2.004.556.097.027c.516.144.96.268 1.442-.234.223-.234.8-.265 1.181-.196.852.162 1.706.354 2.56.546l.054.013.047.01c.652.147 1.3.293 1.953.425l.246.047c.879.166 1.736.33 1.992 1.406a2.153 2.153 0 0 1-.857 2.25c-.795.653-1.889.641-2.883 0-.352-.225-.684-.482-1.014-.736-.605-.47-1.205-.932-1.894-1.18-3.461-1.262-6.965-2.444-10.514-3.452-1.785-.506-3.615-.856-5.447-1.206l-.016-.003c-.853-.163-1.707-.327-2.556-.505a6.667 6.667 0 0 0-.877-.054l-.02.058-.076.226.201.123c.166.104.332.208.506.299l1.793.92.35.18c2.95 1.513 5.9 3.025 8.865 4.51.435.145.894.21 1.353.196a.849.849 0 0 0 .25-.024c.094-.018.19-.037.278-.018 1.537.325 3.044.648 4.56 1.016.914.226 1.508.798 1.5 1.802a2.202 2.202 0 0 1-1.715 2.052c-1.058.234-1.955-.127-2.781-.767a8.986 8.986 0 0 1-.453-.374l-.012-.01c-.58-.502-1.152-.998-2.1-.858-.165.023-.408-.402-.63-.793a8.12 8.12 0 0 0-.21-.358 1.955 1.955 0 0 1-.16-.346c-.08-.203-.158-.402-.304-.478-3.246-1.71-6.51-3.388-9.774-5.066l-.117-.06-1.078-.554a3.1 3.1 0 0 0-.648-.088c.076.195.132.392.183.58l.008.024.014.048c.113.411.213.767.447.943 5.326 4 9.758 8.893 14.08 13.898l.027.031c.32.368.555.639 1.176.44.77-.249 1.205.258 1.29 1.101.062.361.259.685.548.91.266.191.567.332.867.472.217.1.434.2.637.321.992.586 1.209 1.496.615 2.427-.664 1.043-1.949 1.462-2.715.664-.638-.671-1.16-1.457-1.68-2.244l-.013-.02a35.977 35.977 0 0 0-.656-.973c-.037-.054-.076-.153-.05-.2.54-.996-.04-1.576-.599-2.135a6.427 6.427 0 0 1-.404-.43c-3.813-4.602-7.83-9.004-12.58-12.682a17.918 17.918 0 0 0-.736-.545l-.344-.249-.227.17c.102.298.23.589.383.866l.996 1.416.022.03c1.636 2.331 3.275 4.662 4.963 6.956.224.305.605.494.984.683.176.087.35.174.508.272h-.83c.853 1.774 1.687 3.512 2.5 5.212l.85-.227-.848-1.774-.239-.502-.3-.632-.883-1.855c.26.318.527.629.797.94.636.733 1.271 1.466 1.765 2.282.418.814.637 1.715.637 2.63.014.31-.228.63-.47.953l-.022.027-.026.034c-.09.12-.177.24-.25.36a4.818 4.818 0 0 0-.4-.205l-.033-.016c-.334-.155-.664-.31-.832-.57a21.174 21.174 0 0 1-1.492-2.933 49.699 49.699 0 0 0-7.647-12.18 3.158 3.158 0 0 0-.406-.364l-.96 1.15c3.464 6.094 5.032 12.774 5.686 19.815.989-.069 1.358.434 1.592 1.33.174.668.498 1.296.823 1.925.148.29.296.578.431.871.488 1.055.385 2.048-.451 2.431a3.8 3.8 0 0 1-2.195.227c-.826-.173-.912-1.032-.85-1.756.35-3.935-.309-7.785-1.016-11.617a40.652 40.652 0 0 0-4.275-12.202 1.645 1.645 0 0 0-.563-.629c.153.578.317 1.153.481 1.728.355 1.249.71 2.497.951 3.768.342 1.835.604 3.686.863 5.537l.016.115c.117.848.236 1.696.363 2.543.014.086.018.191.022.297.012.233.021.469.119.508 1.092.455.898 1.13.678 1.911-.034.114-.067.23-.096.348-.102.411-.03.861.043 1.315l.006.038c.04.253.082.507.09.756.021.71-.158 1.434-.94 1.745-.781.31-1.722.303-2.258-.383-.384-.492-.707-1.442-.476-1.887.185-.358.33-.743.474-1.13l.014-.037c.268-.717.535-1.436 1.092-1.993l-.477 4.095h1.409l-.15-1.453-.016-.159a194.79 194.79 0 0 0-.262-2.46l-.504-.023c.144-.145.312-.28.5-.4.15-.095.158-.509.135-.766-.422-4.53-1.12-9.008-2.672-13.308a9.513 9.513 0 0 0-.701-1.127c-.102-.183-.223-.368-.344-.554l-.012-.02c-.332-.508-.668-1.022-.65-1.52.055-1.727-.801-2.958-1.727-4.288l-.101-.147-.354-.515c-10.107 10.62-19.722 21.49-27.246 34.223.65.163 1.305.336 1.961.517l3.691 1.02 3.766 1.02a17.505 17.505 0 0 1 3.654-1.422 16.144 16.144 0 0 1 4.387-.618 8.662 8.662 0 0 1 3.25.544c.904.365 1.326.936 1.281 1.715-.05.633-.45 1.127-1.207 1.491-.933.4-1.943.588-2.959.549a42.14 42.14 0 0 1-4.129-.184 54.276 54.276 0 0 1-3.984-.545 8.128 8.128 0 0 0-1.316 1.059c-.487.46-1 .957-1.538 1.492a48.298 48.298 0 0 0-1.574 1.64 35.97 35.97 0 0 0-1.353 1.566 166 166 0 0 0-2.957 3.835 113.099 113.099 0 0 1-2.815 3.608h1.461c.535 0 1.096-.023 1.68-.073a32.74 32.74 0 0 0 1.681-.18c.473-.059.94-.169 1.39-.33.146-.192.353-.449.622-.767.26-.311.54-.604.838-.878.277-.255.584-.475.916-.656.3-.166.647-.23.988-.18.584.145.692.437.327.874a22.29 22.29 0 0 1-1.793 1.822 47.972 47.972 0 0 0-1.922 1.787 20.535 20.535 0 0 0-1.428 1.568 2.296 2.296 0 0 0-.473.622c-.072.172-.162.23-.257.18-.096-.05-.168-.23-.073-.544.096-.314.219-.62.366-.914.205-.398.439-.782.695-1.15.266-.383.473-.679.619-.874-.88.226-1.783.361-2.691.402a56.081 56.081 0 0 1-3.58.108c-.249.345-.516.674-.805.985-.291.315-.584.645-.877.982a41.45 41.45 0 0 1-10.053 8.019A23.565 23.565 0 0 1 8.778 122c-1.041 0-2.08-.096-3.104-.284a11.036 11.036 0 0 1-2.816-.874 5.451 5.451 0 0 1-2.01-1.572 4.19 4.19 0 0 1-.84-2.443 3.535 3.535 0 0 1 .174-1.361 3.54 3.54 0 0 1 .684-1.19 3.262 3.262 0 0 1 2.63-1.127 2.272 2.272 0 0 1 1.682.656 1.76 1.76 0 0 1 .512 1.603 3.197 3.197 0 0 1-.44 1.02 5.212 5.212 0 0 1-.658.801c-.633.632-.95 1.19-.95 1.676a1.325 1.325 0 0 0 .477 1.02c.34.309.731.556 1.155.729a6.859 6.859 0 0 0 1.592.433c.58.098 1.166.147 1.753.146a17.335 17.335 0 0 0 7.895-1.918 23.295 23.295 0 0 0 6.727-5.111 45.51 45.51 0 0 0 2.412-2.716 71.183 71.183 0 0 0 2.045-2.646H25.39c-.574-.005-1.148.02-1.719.073a8.651 8.651 0 0 0-1.539.184c-.246.073-.385 0-.385-.257.047-.145.254-.264.62-.364.466-.103.939-.184 1.414-.243zm46.3-74.439l.057-.08-.049.127-.004-.023-.004-.024zm-4.31 17.415l8.594-6.189c.896.654 1.794.54 2.703.425.681-.086 1.369-.173 2.062.066l-1.705.713-.404.169c-1.563.65-3.084 1.282-4.598 1.96-.47.21-.94.424-1.408.638l-.12.054c-1.673.765-3.355 1.532-5.124 2.164zm-18.533-8l-1.647-.337v-1.085l1.77.085c1.48.07 3.004.14 4.521.252 1.266.092 1.85.587 1.71 1.3-.143.714-.886.932-2.067.676-1.352-.291-2.71-.568-4.073-.847l-.095-.02-.12-.024zM41.81 28.877a43.937 43.937 0 0 1-3.983-2.34l.323-.989c1.277.441 2.619.909 3.968 1.385.268.084.526.194.77.33l.193.113c.582.337 1.262.732.772 1.42-.25.353-1.461.35-2.043.081zm56.984 17.368l.258 1.074c-.379.133-.758.27-1.135.407-.888.322-1.775.643-2.677.904-1.024.307-1.754-.314-1.454-1.227a1.594 1.594 0 0 1 1.108-.82c.94-.143 1.889-.205 2.848-.266l.029-.002.031-.002.992-.068zm-7.285 8.203l-4.592.917c-.172-.346-.066-.529.04-.713.105-.186.212-.373.035-.73.93 0 1.562-.131 2.189-.262.607-.126 1.209-.251 2.066-.251l.053.21.21.829zM49.635 31.706c.069-.056.149-.122.238-.206l.791.463c.825.48 1.643.957 2.424 1.489.157.111.131.797-.05 1.008a1.03 1.03 0 0 1-.993.158c-.879-.648-1.687-1.395-2.498-2.144l-.058-.054a.532.532 0 0 1-.09-.456c.027-.087.111-.156.236-.258zm35.713 46.843c-.781-.441-1.557-.88-1.684-1.947a6.576 6.576 0 0 1 1.254-.065c.317.054.608.198.844.414.346.34.67.706 1.014 1.094l.068.076.035.041.512.576-.63.932c-.335-.513-.874-.817-1.413-1.121zM81.725 64.42l.045-.09c.746.382 1.596.595 2.451.81.86.215 1.725.431 2.498.823l-.346 1.085-.408-.156c-.322-.126-.644-.252-.976-.338a4.965 4.965 0 0 1-1.948-.825 13.273 13.273 0 0 1-1.402-1.13l.086-.18zm-8.373 22.924c-.523-1.505-.523-1.506 1.168-2.064.103 1.246.203 2.443.334 3.72H73.75c-.043-.18-.082-.364-.119-.549l-.006-.025-.004-.023-.013-.06a7.799 7.799 0 0 0-.242-.958l-.014-.04zM58.534 24.183l.195-.119a28.53 28.53 0 0 1 1.988 2.163 1.521 1.521 0 0 1 .158 1.231 1.03 1.03 0 0 1-.904.476 1.57 1.57 0 0 1-.646-.933 34.339 34.339 0 0 1-.577-2.013 56.1 56.1 0 0 0-.214-.805zm18.22 14.569l3.647-3.375.691.817c-.568.24-1.025.74-1.496 1.257-.693.758-1.422 1.556-2.6 1.638l-.242-.337zM64.205 25.437l.22 4.932c-.173-.067-.307-.119-.417-.204-.402-.312-.463-1.068-.74-4.605l.937-.123zM80.514 53.16a3.3 3.3 0 0 0 .063.321l-.008-.023-.912.007h-.09l-.086.002c-.715.008-1.397.016-2.072-.012-.243-.015-.698-.472-.659-.56.159-.38.524-1.02.704-.986.998.219 1.978.512 2.931.879.072.025.098.18.129.372zm-2.516-8.438c-.945.38-1.867.752-2.923.25l-.008-.023c1.687-1.327 4.12-1.71 4.846-.744-.676.018-1.3.27-1.915.517zM68.963 22.18c.117 1.175.23 2.322-.726 3.295l-.008-.023c.072-.531-.074-1.051-.219-1.566-.21-.747-.418-1.484.053-2.226a1.81 1.81 0 0 1 .822-.71c-.004.41.037.822.078 1.23zm8.867 3.448l1.655-3.002.642.41-1.191 2.842-1.106-.25zM59.057 50.567l-2.354-.184c-.06-.41-.101-.769-.142-1.132l-.006-.059-.017-.159c.173.032.355.052.539.073.853.097 1.746.198 1.98 1.46zm7.11-5.733l-.358-.269 2.174-3.351.326.21a826.537 826.537 0 0 0-2.143 3.41zm27.222 17.245c-.096.415-.191.826-.363 1.538l-1.176-1.96 1.56.326-.021.096zm-1.852-.797l-.162.245c-.257-.117-.552-.18-.847-.242-.543-.115-1.084-.23-1.407-.755l.247-.456 2.17 1.208zM66.46 57.596l1.457.48a10.73 10.73 0 0 1-.254.563l-.156.33-1.228-1.066.181-.307zm70.512-36.6c.07 0 .147-.008.221-.017.15-.017.299-.034.41.017.135.073.287.144.443.215.481.223.985.457 1.094.805.147.46-.23 1.384-.672 1.688-1 .683-2.072 1.265-3.144 1.847l-.069.037-.174.096c-.339.184-.677.369-1.013.558-.36.202-.715.41-1.071.618-.861.503-1.724 1.006-2.625 1.426-.492.23-1.345.334-1.691.062-.348-.273-.519-1.19-.336-1.646.971-2.42 6.043-5.706 8.627-5.706zm-2.129 2.017l-.107.045c-.793.328-1.625.672-2.418 1.087a17.827 17.827 0 0 0-2.93 1.863c-.949.767-1.107 1.637-.516 2.056.788.559 1.305.047 1.807-.448l.178-.174.029-.026a.359.359 0 0 0 .049-.046c1.434-1.719 3.129-3.068 5.244-3.559l-.48-1.158c-.278.12-.565.24-.856.36zm-87.428-3.67c-.718-.824-1.53-1.491-2.207-1.491-1.57-.027-2.423.583-2.82 1.622-.396 1.039-.2 2.159.67 2.784a16.6 16.6 0 0 0 2.307 1.242c.312.155.632.298.953.441.584.26 1.166.52 1.697.852.822.514 1.457.395 2.072-.253a1.565 1.565 0 0 0 .02-2.194 178.45 178.45 0 0 1-2.692-3.003zm-1.177 2.89l-.766-.83.82-.92c.329.2.664.4 1.006.602l.055.034a44.66 44.66 0 0 1 2.207 1.373c.697.475.82 1.154.186 1.81-.635.655-1.227.364-1.747-.177a145.089 145.089 0 0 1-1.546-1.66l-.215-.232zm17.361-7.193l.035.447.031.41.034.417c.043.56.086 1.119.134 1.68.069.766 0 1.51-.793 1.917a1.383 1.383 0 0 1-1.142.032 1.392 1.392 0 0 1-.78-.834l-.468-1.332c-.408-1.146-.815-2.29-1.15-3.458a8.846 8.846 0 0 1-.323-2.887c.06-.91.746-1.534 1.676-1.672a1.993 1.993 0 0 1 2.08.978c.912 1.319.84 2.807.666 4.303zm-1.477-1.752c-1.023.18-1.134.732-.916 1.557.086.557.122 1.12.108 1.683.014.774.1 1.544.258 2.301a1.223 1.223 0 0 0 .965.69c.316-.026.689-.486.863-.84.103-.34.093-.704-.028-1.038a164.92 164.92 0 0 0-.927-3.254l-.02-.066-.303-1.033zm-15.496 38.26l-1.533-.13-.02-.18a16.59 16.59 0 0 0-2.15.534c-.933.364-1.54 1.096-1.414 2.14a2.054 2.054 0 0 0 1.922 1.856c.77.073 1.547.037 2.307-.108a99.868 99.868 0 0 0 3.941-.796l1.059-.228a1.308 1.308 0 0 0 1.154-1.315 1.22 1.22 0 0 0-.047-.506 1.229 1.229 0 0 0-.648-.755 1.247 1.247 0 0 0-.492-.124c-1.348-.16-2.7-.273-4.051-.385l-.028-.003zm.487 2.543l-1.471-.08-.361-1.17 1.523-.172c1.188-.136 2.361-.27 3.537-.372a.933.933 0 0 1 1.06.56c.053.135.077.28.063.425 0 .71-.521.986-1.152.967a152.443 152.443 0 0 1-3.2-.158zm78.81-35.698a3.7 3.7 0 0 1-1.662 2.722 21.07 21.07 0 0 1-2.307 1.266l-.962.495-.1.052-.064.032-.034.017-.064.033-.033.018c-.588.3-1.176.601-1.75.921-.989.549-1.746.48-2.172-.192-.428-.67-.151-1.484.568-2.132a54.03 54.03 0 0 0 1.676-1.602l.027-.026a46.91 46.91 0 0 1 1.824-1.735 8.82 8.82 0 0 1 2.239-1.569c1.414-.617 2.822.3 2.814 1.7zm-2.853.245l-1.182.72-.238.145-.047.028-.049.03c-.894.545-1.793 1.093-2.687 1.646a6.974 6.974 0 0 0-1.567 1.063 1.286 1.286 0 0 0-.138 1.215 1.253 1.253 0 0 0 1.185.276 9.999 9.999 0 0 0 2.004-1.376c.777-.64 1.539-1.302 2.279-1.946l.045-.04.11-.095.109-.095.16-.14.758-.652-.742-.78zm-11.795-8.215c1.176-2.174.138-3.915-2.342-3.915-2.078.008-3.078 1.108-2.854 3.167.028.28.067.558.108.837.101.705.203 1.408.092 2.112-.155.982.066 1.508.968 1.776 1.116.33 2.104-.027 2.489-.859a53.365 53.365 0 0 1 1.539-3.118zm-3.406-.474l.494-1.351 1.369-.108-.184 3.59c-.066 1.316-.496 1.963-1.388 2.082-1.127.15-1.663-.552-1.258-1.61.33-.861.646-1.727.967-2.603zM36.555 30.84c.676.27 1.332.59 1.961.955a43.54 43.54 0 0 1 2.14 1.5l.014.01.143.104c.357.262.717.524 1.08.779a1.369 1.369 0 0 1 .5 1.86c-.332.69-.961.901-1.715.68l-.21-.061c-1.286-.364-2.575-.73-3.856-1.137a8.83 8.83 0 0 1-1.672-.652 2.097 2.097 0 0 1-1.07-2.427c.296-1.055 1.054-1.603 2.685-1.61zm2.201 4.193l.182.117c.502.326.998.647 1.494.963.564.357 1.152.468 1.572-.184.42-.652.096-1.2-.511-1.465a70.445 70.445 0 0 0-2.915-1.162c-.421-.16-.843-.322-1.265-.487l-.121.38-.223.69c.617.389 1.207.772 1.787 1.148zM78.395 18.77l.006-.014.011-.026c.125-.26.25-.52.385-.771-.203-1.38-.885-2.32-1.861-2.539-.977-.218-1.877.311-2.42 1.461-.094.202-.17.413-.246.623l-.027.077c-.047.129-.094.258-.149.386l-.592 1.394-.183.43c-.403.95-.807 1.896-1.213 2.832-.297.678-.37 1.3.33 1.798.701.498 1.289.138 1.777-.383l.715-.757.018-.017c.851-.898 1.705-1.798 2.466-2.766.405-.516.696-1.122.983-1.728zm-2.697-.393l.43-.58.966.427a221.4 221.4 0 0 0-.928 1.703l-.037.067-.011.022a156.981 156.981 0 0 1-1.885 3.404c-.324.552-.817 1.15-1.54.606-.722-.545-.322-1.174.1-1.741l2.905-3.908zM56.516 8.153l.043.468c.06.685.123 1.372.191 2.056.034.166.034.337 0 .503a1.304 1.304 0 0 1-.556.818 1.289 1.289 0 0 1-.471.186c-.723.188-1.35 0-1.672-.74-.42-.955-.828-1.916-1.234-2.875l-.389-.914-.127-.292c-.44-1.024-.681-2.055.191-2.968a2.086 2.086 0 0 1 2.354-.521C56 4.307 56.466 5.3 56.588 6.45c.032.564.032 1.13 0 1.695l-.072.007zm-2.408-.383c.021 1.072.115 2.142.277 3.202a1.446 1.446 0 0 0 1.092.82.868.868 0 0 0 .742-.376.872.872 0 0 0 .088-.824c-.229-.775-.48-1.55-.738-2.342l-.377-1.167-1.084.687zm-11.455 7.872c.326.166.666.306 1.015.419.108-.087.237-.169.366-.251.293-.188.591-.38.664-.636.048-.246.044-.5-.01-.745a1.862 1.862 0 0 0-.305-.681 46.765 46.765 0 0 0-3.25-3.774 6.164 6.164 0 0 0-2-1.35c-.885-.368-1.838-.322-2.508.541-.556.725-.437 1.799.332 2.62a9.84 9.84 0 0 0 1.75 1.372c1.295.856 2.623 1.672 3.946 2.485zM39.11 11.63l-.03-.024-.027-.022c-.185-.152-.37-.304-.547-.456l.496-.927.967.667.066.046c.772.532 1.551 1.07 2.317 1.626.566.422 1.11.875 1.627 1.354.435.395.719.985.158 1.338a1.573 1.573 0 0 1-1.46-.115c-.468-.39-.874-.849-1.28-1.308-.299-.34-.6-.68-.926-.993-.424-.413-.883-.791-1.33-1.16l-.031-.026zm.261 47.424l2.434-.15c.85-.057 1.408.338 1.48 1.15.075.814-.384 1.247-1.152 1.393-.982.18-1.924.349-2.258 1.56-.078.262-.869.423-1.343.446-.282.014-.567-.049-.854-.112a3.85 3.85 0 0 0-.762-.115c-1.005 0-1.74-.445-2.021-1.392-.281-.947 0-1.944.988-2.3.75-.282 1.559-.429 2.365-.575.368-.066.735-.133 1.096-.212a.737.737 0 0 0 .023.286l.004.02zm-2.277 2.515l4.281-.437.266-.023c.678-.052 1.404-.108 1.248-1.092-.168-1.04-1.064-.871-1.795-.668-1.031.288-2.056.603-3.072.915l-1.25.381.113.334c.082.245.156.463.21.59zm39.863-28.83c.067.108.131.214.178.314.307-.052.611-.127.908-.222l.797-.34.04-.017c.96-.41 1.923-.82 2.863-1.28 1.556-.768 2.753-1.926 3.076-3.697.103-.55.015-1.431-.338-1.7-.354-.268-1.277-.172-1.719.116a17.935 17.935 0 0 0-2.38 2.101l-.675.643-.029.029c-.728.695-1.465 1.398-2.174 2.12-.369.318-.65.726-.816 1.185-.049.22.115.49.27.747zm3.338-3.084A23.325 23.325 0 0 0 82.35 27.9l1.039.667-1.238.957-.02.015c-1.18.917-2.344 1.82-3.55 2.671-.231.162-.587.146-.946.13-.168-.006-.336-.014-.492-.003.084-.148.16-.31.234-.471.166-.36.332-.72.612-.928.361-.271.78-.474 1.203-.678.379-.183.76-.368 1.103-.604zm15.137-8.11l-.018.032c-.379.723-.754 1.438-1.326 1.923-1.146.979-2.463 1.768-3.773 2.553l-.81.488a1.16 1.16 0 0 1-1.69-.383c-.43-.694 0-1.128.527-1.61a182.543 182.543 0 0 0 3.451-3.397l1.225-1.225c.21-.246.475-.443.77-.575l.015-.005c.443-.137 1.016-.315 1.365-.14.23.114.352.413.5.78.078.195.166.41.282.627-.182.293-.346.604-.51.915l-.008.016zm-2.352-.28c-.916 1.56-2.396 2.542-4.072 3.282l-.047.02c-.183.08-.398.173-.476.322a6.951 6.951 0 0 0-.385 1.07c.123.033.248.082.37.13.259.101.51.202.75.15.48-.121.919-.369 1.273-.718.85-.848 1.673-1.722 2.486-2.585l.012-.012.011-.013.032-.034.96-1.018-.914-.594zm14.116 16.812l.017-.03.01-.015c.096-.164.193-.328.301-.48a6.254 6.254 0 0 0-.762-1.19c-.785-.701-1.73-.59-2.619-.276-1.781.625-3.537 1.27-5.242 2.037-.397.176-.826 1.008-.703 1.396.123.387.884.805 1.369.805a28.449 28.449 0 0 0 4.338-.349 6.753 6.753 0 0 0 2.464-.867c.34-.213.581-.618.827-1.031zm-3.809-.403l1.414-.203.389.855a845.243 845.243 0 0 1-4.83 1.507 1.346 1.346 0 0 1-.721.127 8.635 8.635 0 0 1-1.184-.61 3.47 3.47 0 0 0 .291-.39c.206-.294.409-.59.67-.642 1.307-.267 2.629-.454 3.971-.644zm-2.146 14.933c-.289 1.956-1.32 3.198-2.674 4.165a34.918 34.918 0 0 1-3.365 2.025c-.668.383-1.407.456-1.87-.311-.414-.69.028-1.084.498-1.505l.16-.144a38.622 38.622 0 0 0 1.631-1.63c.397-.412.793-.824 1.204-1.223a25.107 25.107 0 0 1 2.527-2.255 1.587 1.587 0 0 1 1.369-.092c.244.114.359.484.445.756l.01.03.012.035c.017.058.035.108.053.149zm-2.342 1.177l-.865.636a228.012 228.012 0 0 1-2.98 2.172c-.128.09-.276.156-.425.223-.22.097-.435.193-.568.36-.215.356-.37.744-.46 1.15.401.133.813.223 1.231.268.284-.038.545-.174.739-.383.941-.901 1.869-1.816 2.8-2.735l.043-.042.184-.18.969-.955-.668-.514zm49.707-45.918c-.928-.05-1.539.751-1.539 1.69 0 1.167.785 1.688 1.75 1.984 1.373.447 2.767.822 4.179 1.123.377.073 1.123-.314 1.223-.637a1.65 1.65 0 0 0-.414-1.427 15.556 15.556 0 0 0-2.83-2.028 5.692 5.692 0 0 0-2.369-.705zm3.115 3.742l-2.801-1.614.227-.832.916.295c.711.227 1.431.457 2.142.725.506.146.981.384 1.399.702a1.18 1.18 0 0 1 .269 1.054c-.06.2-.654.38-.953.314a4.646 4.646 0 0 1-1.199-.644zm-19.252-4.172a1.735 1.735 0 0 1-1.836-1.78 1.829 1.829 0 0 1 1.119-1.695 1.88 1.88 0 0 1 .701-.142c.465.028.907.222 1.241.546.336.325.541.759.582 1.222a1.854 1.854 0 0 1-1.807 1.849zm-25.635 10.077a1.772 1.772 0 0 0-.701-.137 1.823 1.823 0 0 0-1.705 1.084 1.829 1.829 0 0 0-.152.691 1.888 1.888 0 0 0 1.734 1.837 1.865 1.865 0 0 0 1.901-1.764 1.777 1.777 0 0 0-.489-1.307 1.764 1.764 0 0 0-.588-.404zm49.741 10.816a1.6 1.6 0 0 1 1.05.559c.264.314.399.718.371 1.128a1.566 1.566 0 0 1-.173.605 1.574 1.574 0 0 1-2.623.244 1.584 1.584 0 0 1-.342-1.133 1.62 1.62 0 0 1 1.717-1.403zm-48.498 1.61c.277-.296.423-.691.41-1.097a1.53 1.53 0 0 0-.459-1.08 1.529 1.529 0 0 0-1.096-.427 1.555 1.555 0 0 0-1.568 1.534 1.565 1.565 0 0 0 .492 1.128 1.567 1.567 0 0 0 1.154.433 1.543 1.543 0 0 0 1.067-.49zm-17.06 11.533l.028.019c.313.215.621.427.67.69a1.531 1.531 0 0 1-.596 1.284 6.04 6.04 0 0 1-2.015.525c-.694.119-1.397.177-2.1.173a1.16 1.16 0 0 1-.844-.441l-.017-.08c1.086.387 1.953.066 2.826-.26l.016-.006c.527-.197 1.058-.394 1.648-.436a9.319 9.319 0 0 1-.281-.258l-.037-.035c-.174-.168-.303-.291-.35-.264-.451.25-.976.289-1.515.328-.8.06-1.631.118-2.315.862a.844.844 0 0 1 .238-.664c1.014-.44 2.047-.835 3.159-1.26l1.136-.435c.1.083.215.164.33.245l.02.013zm-4.882 2.101c0 .023.004.046.008.068l-.047-.019.04-.049zM33.66 46.602a1.4 1.4 0 0 1 .998.414 1.383 1.383 0 0 1 .398 1 1.374 1.374 0 0 1-.395 1.054 1.388 1.388 0 0 1-1.054.4 1.412 1.412 0 0 1-.989-.444 1.397 1.397 0 0 1-.372-1.013 1.42 1.42 0 0 1 1.414-1.411zm17.898-27.639c.773.062 1.17-.36 1.281-1.472a2.909 2.909 0 0 1-.25-.224l-.023-.021c-.256-.244-.565-.54-.93-.614-.709-.15-1.205.353-1.23 1.108-.028.756.38 1.162 1.152 1.223zM50.373 64.02a3.758 3.758 0 0 0-.289.24c-.265.236-.58.512-.922.553-.7.089-1.197-.425-1.173-1.188a1.062 1.062 0 0 1 .318-.826 1.051 1.051 0 0 1 .836-.294c.781 0 1.135.46 1.23 1.515zm83.52-48.091a5.02 5.02 0 0 1 .389-.328l-.012-.488a5.033 5.033 0 0 1-.414-.302c-.305-.236-.608-.473-.928-.499a.912.912 0 0 0-.81.307.908.908 0 0 0-.19.843c.123.426.65.997 1.074 1.001.293.003.592-.266.891-.534zM54.182 27.1l-.022.017c-.331.279-.568.477-.757.44-.268-.057-.51-.322-.75-.586l-.024-.026-.017-.018-.01-.012a4.252 4.252 0 0 0-.26-.267c.1-.098.197-.213.295-.33.229-.272.46-.546.72-.583.245-.035.487.163.817.432.174.142.371.304.606.461a9.384 9.384 0 0 0-.598.472zm45.57-.57a5.37 5.37 0 0 1 .336-.246c0-.15 0-.304.004-.45-.12-.073-.24-.166-.36-.258l-.028-.023c-.268-.212-.528-.417-.79-.405a1.232 1.232 0 0 0-.85.901c.048.213.15.41.298.57.146.162.334.281.54.347.272.014.565-.214.85-.435zM77.69 35.79l-.026.025c-.279.266-.49.466-.691.458-.217-.008-.436-.246-.654-.483l-.032-.033a3.91 3.91 0 0 0-.246-.25c.084-.094.164-.206.245-.318.181-.253.363-.505.582-.545.21-.039.453.135.77.362.155.113.331.239.53.358-.175.14-.328.284-.465.412l-.013.014zm5.672 37.201c.103.104.22.22.332.355a5.75 5.75 0 0 1 .26-.387l.01-.014c.16-.226.284-.405.279-.581-.006-.13-.204-.265-.399-.4a3.595 3.595 0 0 1-.232-.168 2.69 2.69 0 0 1-.21.223c-.163.165-.327.33-.355.518-.02.12.123.263.315.454zm-7.176 7.79c-.186.165-.326.289-.463.284-.148-.005-.307-.159-.463-.311a2.727 2.727 0 0 0-.2-.184c.063-.068.124-.146.184-.224.14-.181.28-.363.46-.416.101-.033.257.098.464.27.11.091.233.194.37.29-.135.1-.25.2-.352.29zM48.676 92.57a12.25 12.25 0 0 1 3.436-.487 8.834 8.834 0 0 1 2.888.38c.707.256 1.038.61.989 1.073-.051.464-.377.81-.989 1.043a6.085 6.085 0 0 1-2.154.345 23.665 23.665 0 0 1-3.107-.272 34.135 34.135 0 0 1-3.985-.82 11.85 11.85 0 0 1 2.922-1.262zm-6.873 19.117c-.533.487-1.072.962-1.607 1.422-.533.461-1 .886-1.387 1.278-.389.391-.658.414-.805.218-.047-.146.073-.383.385-.656.049-.047.238-.213.572-.504l.051-.044 1.315-1.128c.513-.437 1.06-.911 1.642-1.422l.03-.027.048-.043.051-.044c.541-.47 1.07-.931 1.629-1.382a126.1 126.1 0 0 0 1.715-2.113l2.119-2.661.445-.55a77.61 77.61 0 0 1 1.932-2.326l.957-1.105c.494-.574.976-1.133 1.455-1.668a209.097 209.097 0 0 1 4.096-4.518 71.942 71.942 0 0 1 4.613-4.521c.93-.826 1.805-1.239 2.63-1.239.731 0 1.096.173 1.096.51-.337.342-.96.998-1.86 1.971-.9.974-1.887 2.052-2.962 3.241a563.587 563.587 0 0 0-3.254 3.647 209.787 209.787 0 0 0-2.814 3.241 287.04 287.04 0 0 0-3.688 4.521 161.588 161.588 0 0 0-3.44 4.444 80.359 80.359 0 0 0-2.775 3.974 28.243 28.243 0 0 0-1.792 3.098c-.096.245-.208.572-.327.986a.918.918 0 0 0 .18.982 1.11 1.11 0 0 0 1.063.072c.42-.127.824-.298 1.207-.51a9.623 9.623 0 0 0 1.46-.909 30.4 30.4 0 0 1 1.145-.848l.06-.043.335-.24a56.215 56.215 0 0 0 1.754-1.423 55.62 55.62 0 0 0 1.218-1.057l.211-.216c.242-.245.584-.548 1.022-.912.398-.334.818-.641 1.258-.917.488-.34 1-.682 1.539-1.024a21.655 21.655 0 0 1 1.972-1.093 25.77 25.77 0 0 1 3.215-1.346c.918-.331 1.877-.54 2.85-.621.244-.001.488.012.73.038.246.023.365.107.365.253 0 .05-.263.196-.802.437-.907.409-1.754.937-2.52 1.569a46.9 46.9 0 0 0-2.742 2.442 22.468 22.468 0 0 0-2.85 3.452c-.83 1.243-1.29 2.224-1.392 2.953-.096.828.246 1.238 1.027 1.238.781 0 1.885-.421 3.178-1.273a18.333 18.333 0 0 0 3.617-3.171 7.12 7.12 0 0 1 .332-1.35 5.92 5.92 0 0 1 .984-1.71c.35-.496.784-.928 1.28-1.277.334-.24.687-.448 1.058-.621a2.92 2.92 0 0 0 .184-.875c.023-.337.039-.606.039-.802a1.997 1.997 0 0 0-.111-.801.292.292 0 0 1 .035-.364.442.442 0 0 1 .263-.062c.092.007.18.042.252.1.184.108.356.237.512.384.307.314.555.682.73 1.085.196.456.247.96.145 1.445a5.886 5.886 0 0 1-1.314 2.819 23.421 23.421 0 0 1-2.854 3.033c.213.112.46.151.695.112a3.2 3.2 0 0 0 .694-.112 6.613 6.613 0 0 0 2.488-1.215c.484-.334.9-.633 1.242-.893.383-.301.75-.624 1.096-.967.262-.238.484-.42.666-.545l.64-.594 1.608-1.495a61.32 61.32 0 0 0 2.559-2.551 1.263 1.263 0 0 1-.547-1.02 1.813 1.813 0 0 1 .547-1.311 3.417 3.417 0 0 1 2.78-1.239c.29 0 .575.061.839.18a.77.77 0 0 1 .476.548l-.623.472a5.57 5.57 0 0 0-.619.549c-.926.974-.853 1.508.219 1.602a31.18 31.18 0 0 1 2.85.258c.877.118 1.316.521 1.316 1.2l-.008.054c0 .487-.353 1.092-1.062 1.825a57.644 57.644 0 0 0-2.307 2.55 17.075 17.075 0 0 0-2.488 3.425c-.387.683-.412 1.144-.075 1.384.293.246.832.146 1.612-.291.389-.24.887-.544 1.496-.909a14.36 14.36 0 0 0 1.793-1.277 58.948 58.948 0 0 0 1.973-1.569c.488-.41.972-.836 1.46-1.273.247-.247.457-.421.631-.523l.266-.225c.414-.357.854-.685 1.314-.981l1.461-.913a58.73 58.73 0 0 1 1.905-1.131 25.21 25.21 0 0 1 3.98-1.676 7.526 7.526 0 0 1 3.326-.365 1.806 1.806 0 0 1 1.5.986 2.175 2.175 0 0 1 .024 1.764 16.247 16.247 0 0 1 2.306-2.074 3.29 3.29 0 0 1 1.866-.695c.769-.045 1.23.027 1.349.219s0 .51-.385.947a99.732 99.732 0 0 0-1.826 2.079c-.73.851-1.488 1.76-2.265 2.734a31.498 31.498 0 0 0-1.391 1.783 18.76 18.76 0 0 0-1.154 1.787c-.489.875-.56 1.433-.219 1.676.111.075.24.121.375.133a.797.797 0 0 0 .393-.06c.314-.096.619-.217.912-.364.52-.271 1.02-.575 1.5-.909a23.622 23.622 0 0 0 1.793-1.35l.959-.785c.392-.32.755-.616 1.086-.891.275-.23.529-.448.761-.655l.518-.526c.193-.196.5-.465.912-.802.412-.337.865-.706 1.353-1.097.489-.391.989-.767 1.5-1.15.512-.384.985-.729 1.422-1.02.721-.539 1.508-.98 2.344-1.312a6.054 6.054 0 0 1 1.899-.291c.769 0 1.209.073 1.316.218.096.146-.074.465-.512.947a119.912 119.912 0 0 0-3.949 4.668 29.488 29.488 0 0 0-1.57 2.078 54.52 54.52 0 0 0-.989 1.492c-.437.767-.511 1.302-.218 1.603.341.291.925.219 1.754-.218.49-.251.966-.531 1.425-.836a18.15 18.15 0 0 0 1.793-1.35 69.75 69.75 0 0 0 1.826-1.535c.321-.278.678-.602 1.075-.962l.154-.139c.111-.109.234-.226.367-.351.406-.354.92-.832 1.553-1.418l.162-.151a33.91 33.91 0 0 1 2.084-1.787 17.358 17.358 0 0 1 2.647-1.78 4.957 4.957 0 0 1 2.337-.621c.686 0 1.155.173 1.428.511.256.307.399.692.404 1.092a2.879 2.879 0 0 1-.404 1.385c-.346.605-.724 1.19-1.135 1.752a94.804 94.804 0 0 1-1.826 2.405c-.681.874-1.221 1.603-1.607 2.185l.072.074 3.076-2.551c1.174-.97 2.389-1.944 3.658-2.918a35.24 35.24 0 0 1 4.092-2.685c1.461-.825 2.754-1.238 3.877-1.238 1.653 0 2.408.656 2.264 1.967a4.644 4.644 0 0 1-1.096 2.19c-.414.499-.814.999-1.207 1.487l-.623.772-.357.438c-.434.532-.813.995-1.139 1.456-.412.583-.719 1.02-.916 1.312-.533.828-.635 1.361-.291 1.603a.864.864 0 0 0 .393.133.869.869 0 0 0 .41-.061 5.24 5.24 0 0 0 .951-.364c.437-.242.926-.521 1.465-.836.707-.437 1.39-.911 2.045-1.423a46.396 46.396 0 0 0 1.923-1.568 28.06 28.06 0 0 0 1.573-1.419c.488-.437.804-.583.951-.437.144.146-.098.46-.586.947-.342.341-.961.909-1.865 1.71a40.277 40.277 0 0 1-2.518 2.079c-.385.291-.844.61-1.355.947-.528.35-1.077.667-1.645.947-.576.289-1.174.533-1.789.729a5.855 5.855 0 0 1-1.791.272 2.655 2.655 0 0 1-1.646-.471 1.54 1.54 0 0 1-.547-1.423 4.725 4.725 0 0 1 1.058-2.55 79.077 79.077 0 0 1 2.01-2.551 32.114 32.114 0 0 1 1.609-1.894 45.534 45.534 0 0 0 1.461-1.68c.137-.171.237-.37.291-.582a.348.348 0 0 0-.021-.263.347.347 0 0 0-.197-.175 1.155 1.155 0 0 0-.803 0 7.059 7.059 0 0 0-1.098.438c-.679.341-1.51.816-2.484 1.422a36.496 36.496 0 0 0-3.215 2.301 52.496 52.496 0 0 0-2.191 1.749 65.958 65.958 0 0 1-1.922 1.568l-1.924 1.565c-.656.537-1.375 1.12-2.158 1.749a3.11 3.11 0 0 1-1.899.655 2.304 2.304 0 0 1-1.097-.18c-.196-.122-.145-.449.146-.985.41-.765.861-1.508 1.35-2.225a52.016 52.016 0 0 1 1.865-2.657c.324-.452.723-.958 1.191-1.55l.272-.345.17-.215c.51-.649.941-1.199 1.291-1.683.488-.629.658-1.043.511-1.239-.146-.195-.562-.218-1.095.073-.44.246-.912.537-1.424.874-.5.333-.977.698-1.426 1.094-.488.391-1 .829-1.539 1.315l-1.379 1.223-.082.084-.146.15-.041.036c-.422.409-.983.918-1.678 1.528a53.292 53.292 0 0 1-2.307 1.918 30.018 30.018 0 0 1-2.816 1.917 6.7 6.7 0 0 1-3.545 1.055c-1.461 0-2.191-.629-2.191-1.895 0-.491.111-.976.326-1.419.222-.468.478-.919.769-1.349.373-.631.801-1.229 1.276-1.787a56.812 56.812 0 0 1 1.574-1.784 124.01 124.01 0 0 1 1.5-1.607c.363-.373.748-.728 1.148-1.062-.472.24-.924.521-1.349.84-.657.46-1.258.913-1.791 1.35l-1.428 1.15c-.305.251-.606.503-.898.756-.104.11-.223.228-.358.353-.49.437-1.123.996-1.9 1.676a52.576 52.576 0 0 1-2.192 1.822 26.568 26.568 0 0 1-2.781 1.894 6.674 6.674 0 0 1-3.508 1.02 2.31 2.31 0 0 1-1.537-.437 1.614 1.614 0 0 1-.584-1.093c-.04-.449.033-.9.219-1.311.19-.48.463-.924.803-1.312l-.073-.073a21.67 21.67 0 0 1-1.681 1.35c-.633.463-1.303.9-2.01 1.311-.701.41-1.436.763-2.193 1.055a7.417 7.417 0 0 1-2.157.51 3.704 3.704 0 0 1-2.23-.545c-.656-.414-.914-1.204-.77-2.369a6.829 6.829 0 0 1 .584-1.715 9.698 9.698 0 0 1 1.461-2.074l-.072-.073-.365.383a7.226 7.226 0 0 1-.584.51l-.131.088-1.02.917a35.48 35.48 0 0 1-2.449 1.967 30.994 30.994 0 0 1-2.922 1.895 7.083 7.083 0 0 1-3.586 1.02 2.478 2.478 0 0 1-1.752-.545 1.553 1.553 0 0 1-.423-.612c-.088-.235-.12-.488-.088-.738a4.763 4.763 0 0 1 1.152-2.623 23.632 23.632 0 0 1 2.34-2.55c.437-.437.924-.874 1.46-1.312.536-.437 1.036-.838 1.5-1.204.462-.364.866-.694 1.208-.985.24-.174.44-.398.584-.656.146-.384-.072-.583-.656-.583h-3.223c-.24.007-.48-.042-.697-.145-.631.682-1.557 1.605-2.776 2.768a98.22 98.22 0 0 1-1.646 1.496c-.465.41-.889.813-1.278 1.204a5.383 5.383 0 0 1-.51.42l-.616.527c-.409.35-.834.679-1.278.986a10.64 10.64 0 0 1-1.537.874 7.353 7.353 0 0 1-1.246.437 3.027 3.027 0 0 1-1.059.111 2.055 2.055 0 0 1-.914-.257c-.488.384-1.047.791-1.681 1.205a17.09 17.09 0 0 1-4.353 2.002 7.879 7.879 0 0 1-2.308.364 4.092 4.092 0 0 1-2.666-.801c-.656-.532-.96-1.334-.914-2.405.1-1.554.88-3.109 2.338-4.663l-.072-.073c-.207.22-.428.425-.662.613-.102.078-.2.158-.295.241a3.728 3.728 0 0 1-.186.197c-.437.437-1.072 1.008-1.898 1.71-.828.702-1.682 1.4-2.559 2.078-.384.292-.83.61-1.314.948-.512.355-1.049.671-1.608.947-.587.294-1.2.537-1.83.728a6.167 6.167 0 0 1-1.828.292 2.777 2.777 0 0 1-1.715-.472 1.606 1.606 0 0 1-.474-.675 1.605 1.605 0 0 1-.074-.82c.047-.875.46-1.968 1.242-3.279a36.646 36.646 0 0 1 2.85-4.08l-.11-.077zm51.682-1.458c1.219-.874 2.191-1.311 2.922-1.311.916 0 1.355.437 1.316 1.311-.053.436-.215.85-.473 1.205a14.767 14.767 0 0 1-1.209 1.641 49.626 49.626 0 0 1-1.607 1.821 18.364 18.364 0 0 1-1.754 1.677 16.403 16.403 0 0 1-3.287 2.404c-1.219.683-2.17 1.02-2.854 1.02-.584 0-.853-.246-.949-.728-.097-.484.184-1.205.842-2.152a26.378 26.378 0 0 1 3.254-3.605 31.285 31.285 0 0 1 3.799-3.283zm27.627-11.734a.91.91 0 0 1 .949.548c.146.366 0 .814-.438 1.346a4.858 4.858 0 0 1-1.754 1.422 4.237 4.237 0 0 1-1.679.549 1.798 1.798 0 0 1-.328-1.058 3.275 3.275 0 0 1 .254-1.423 1.995 1.995 0 0 1 1.134-1.093 5.088 5.088 0 0 1 1.789-.291h.073z" fill="#363333"/></svg>