<svg viewBox="0 0 181 140" xmlns="http://www.w3.org/2000/svg"><g fill="#fff"><path fill-rule="evenodd" clip-rule="evenodd" d="M36.853 109.622c-.44.242-4.89 9.241-6.846 13.166-.555 1.123-1.48 1.607-2.956 1.822 2.013-4.233 5.758-12.361 5.727-12.41l2.577-4.281c7.111-13.057 16.213-24.666 26.05-35.743 2.46-2.768 4.957-5.505 7.433-8.265.322-.356.626-.73.718-.844-.44-1.259-.833-2.298-1.26-3.481-1.11 0-2.555.171-3.934-.062-.89-.21-1.68-.72-2.238-1.443-.78-1.004-.124-2.562 1.172-3.08.72-.24 1.456-.428 2.203-.564l-3.388-4.603c-.732 1.32-1.71 1.447-3.018 1.32-1.81-.163-3.653.097-5.485.11a10.367 10.367 0 0 1-2.533-.247c-1.393-.338-2.203-1.32-2.137-2.442a2.309 2.309 0 0 1 2.247-2.2 19.534 19.534 0 0 1 4.432.36c1.03.177 2.009.656 3.022.964.45.108.906.189 1.366.242l.145-.295c-1.542-1.293-3.04-2.64-4.643-3.868-1.534-1.157-3.177-2.165-4.6-3.454 6.917 3.133 11.908 8.414 16.015 14.79.22-.352.308-.44.29-.47-2.075-5.096-4.308-10.122-8.199-14.144a9.828 9.828 0 0 0-2.608-1.672c-1.075-.56-2.238-.947-3.313-1.506a1.866 1.866 0 0 1-.938-1.069c-.242-1.29-1.322-1.496-2.203-1.76-1.885-.599-3.833-1.012-5.727-1.567a9.3 9.3 0 0 1-2.34-.99c-1.03-.642-1.229-1.725-.916-2.808a2.042 2.042 0 0 1 2.317-1.584c1.066.17 2.09.536 3.023 1.078 1.321.78 2.51 1.787 3.766 2.68.785.56.934 1.074.657 2.522l1.07.484c1.595-1.43 2.921-1.558 4.666-.233 1.582 1.201 3.084 2.526 4.555 3.86.882.809.6 1.76-.753 2.565 3.776 4.4 6 9.655 8.203 14.927l.44-.163c-.819-3.124-1.405-6.328-2.515-9.343-1.379-3.767-3.207-7.366-4.793-11.059a3.842 3.842 0 0 1-.198-1.694c0-.154.52-.317.824-.4a2.28 2.28 0 0 1 .793-.031c.294.01.582.088.841.229a.687.687 0 0 1 0 .633 1.733 1.733 0 0 1-.846.155c-.128 0-.26-.155-.577-.361 0 .47-.11.84 0 1.073 3.621 6.5 5.85 13.475 7.212 20.754 0 .026.057.044.18.128v-2.491c-.105-6.852-.625-13.642-2.475-20.287a5.198 5.198 0 0 0-1.459-2.104c-.832-.827-1.863-1.452-2.718-2.262-1.269-1.201-1.388-2.838-.396-3.92.991-1.083 2.608-1.066 3.907.197a9.84 9.84 0 0 1 1.454 2.082c.692 1.14 1.322 2.323 1.987 3.476.727 1.237.251 2.104-1.643 2.834.344 1.813.85 3.626 1.004 5.47.472 5.55.802 11.108 1.208 16.666.075.433.193.857.352 1.267l.498-.083c.128-2.509.321-5.013.361-7.521.062-3.74.097-7.481-.022-11.23-.075-2.386-.44-4.762-.66-7.143-.062-.722-.155-1.536.114-2.16.268-.626.93-1.3 1.484-1.36.556-.062 1.52.527 1.67 1.025a9.696 9.696 0 0 1 .313 3.441 22.898 22.898 0 0 1-.705 3.96 8.492 8.492 0 0 1-.859 1.66 1.82 1.82 0 0 0-.269.73c-.097 4.724-.182 9.444-.255 14.162 0 .11.035.224.255.37.802-4.428 1.652-8.846 2.388-13.282.524-3.168.947-6.354 1.322-9.545.154-1.364 0-2.755.04-4.132-.035-1.047.02-2.096.162-3.134a1.9 1.9 0 0 1 2.027-1.61 1.662 1.662 0 0 1 1.696 1.76 14.165 14.165 0 0 1-.37 3.08 28.451 28.451 0 0 1-.881 3.151c-.132.405-.344.973-.656 1.087-.943.335-.882 1.096-1.023 1.822L73.807 52.54c-.03.15-.03.308-.07.73.242-.44.44-.629.44-.831.071-2.2 1.794-3.815 2.177-5.901.123-.67.035-1.37.11-2.047.008-.351.132-.69.353-.964 1.418-1.32 1.537-3.08 1.643-4.818 0-.355.038-.71.114-1.056.401-1.44.82-2.879 1.27-4.304.233-.73.396-1.554.854-2.121.374-.44 1.216-.911 1.723-.797.506.114 1.383.88 1.383 1.39a6.481 6.481 0 0 1-.754 3.209c-.951 1.615-2.383 2.961-3.29 4.598-.714 1.285-.948 2.835-1.37 4.274-.155.51-.252 1.038-.349 1.456 1.82-.097 2.767-1.483 3.732-2.984 1.974-3.08 4.057-6.09 6.128-9.109a3.43 3.43 0 0 0 .524-2.17c0-1.412.538-2.851.983-4.233a4.572 4.572 0 0 1 1.211-2.038 2.381 2.381 0 0 1 1.939-.378c.846.255 1.017 1.201.71 1.954-.393.964-1.045 1.817-1.52 2.755a18.697 18.697 0 0 0-.706 1.83 3.845 3.845 0 0 1-.374.88c-2.203 3.002-4.446 5.986-6.657 8.987a34.395 34.395 0 0 0-1.762 2.64c-.547.907-1.216 1.712-1.102 3.05.075.85-.828 2.082-1.639 2.64-1.489 1.013-2.414 2.364-3.273 3.838a43.814 43.814 0 0 0-2.353 4.44c.238-.224.49-.44.718-.678 4.039-4.13 8.076-8.266 12.112-12.405 1.185-1.22 2.312-2.491 3.489-3.719a8.812 8.812 0 0 1 1.529-1.377c.93-.603 1.907-.546 2.643.325a1.953 1.953 0 0 1-.022 2.592 5.25 5.25 0 0 1-1.608 1.259 30.133 30.133 0 0 1-3.406 1.624c-.502.194-1.119.092-1.815.132l-11.41 11.134c.079.092.158.18.233.273 6.824-5.176 14.3-9.242 21.698-13.233.242-.542.352-1.29.77-1.567.3-.198 1.014.321 1.547.33a1.59 1.59 0 0 0 1-.541c.37-.387.59-.911.947-1.32a41.274 41.274 0 0 1 2.01-2.108 17.317 17.317 0 0 1 2.418-2.2c.978-.643 2.066-.44 2.895.44a2.023 2.023 0 0 1 .233 2.697 7.582 7.582 0 0 1-2.23 1.967 40.67 40.67 0 0 1-3.938 1.914c-.317.146-.828.344-1.022.203-.943-.673-1.612 0-2.335.365-2.617 1.21-5.132 2.53-7.71 3.85 1.67 1.22 1.692 1.374.48 3.79 1.062-.467 1.992-.955 2.974-1.276a2.174 2.174 0 0 1 1.436.15 1.169 1.169 0 0 1 .093 1.025c-.422.2-.878.319-1.344.352-.312.014-.622.06-.925.136a5023.764 5023.764 0 0 0-17.662 7.745c-.28.182-.588.317-.912.4l25.372-4.21a8.297 8.297 0 0 1-.18-1.704 2.01 2.01 0 0 1 1.105-.229c.244.596.43 1.213.555 1.844l2.877-.673c.154-.035.44-.097.44-.159.098-1.76 1.719-1.562 2.732-2.134a32.636 32.636 0 0 1 2.058-1.078c1.784-.845 2.947-.506 3.524.999.652 1.725-.203 3.569-1.908 3.96a5.7 5.7 0 0 1-1.815.049c-1.52-.145-3.035-.506-4.546-.475-1.406.026-2.798.44-4.199.7-7.577 1.32-15.16 2.578-22.728 3.96-1.763.321-3.525.946-5.507 1.492l12.983-.814c.04-.313-.03-.78.163-1.07.248-.47.651-.84 1.141-1.047a27.338 27.338 0 0 1 3.137-.321c2.308-.242 2.881.198 3.26 2.596 1.815.52 3.423-.488 5.115-.818 1.23-.242 2.397-.784 3.621-1.07 1.564-.36 2.838.383 3.168 1.725.33 1.343-.568 2.64-2.115 2.91-.926.102-1.86.117-2.789.043-1.202 0-2.41 0-3.617-.057a1.221 1.221 0 0 1-.88-.3c-1.054-1.465-2.45-.756-3.75-.655-.67.053-1.388.326-2.004.176-3.965-.964-7.93-.312-11.896-.14-.242 0-.467.44-.88.835 2.89.608 5.484 1.07 8.04 1.703 3.59.88 7.154 1.906 10.727 2.892.64.176 1.177.374 1.763-.238.255-.268.916-.304 1.352-.224 1.762.334 3.525.783 5.287 1.14 1.097.22 2.242.316 2.564 1.667a2.476 2.476 0 0 1-.983 2.584c-.912.748-2.163.734-3.304 0-1.14-.735-2.11-1.76-3.33-2.2-3.966-1.449-7.979-2.804-12.045-3.961-3.005-.854-6.12-1.32-9.186-1.968a7.597 7.597 0 0 0-1.005-.061c-.035.11-.07.22-.11.325.27.163.533.34.81.485 4.2 2.156 8.394 4.321 12.61 6.438.5.166 1.024.242 1.55.224.199.022.415-.088.604-.048 1.762.374 3.49.744 5.225 1.166 1.049.26 1.727.915 1.718 2.068a2.52 2.52 0 0 1-1.965 2.355c-1.211.268-2.238-.146-3.185-.88-.88-.67-1.568-1.629-2.938-1.426-.251.035-.657-.836-.96-1.32-.199-.309-.265-.806-.534-.947-4.172-2.2-8.37-4.356-12.565-6.517a3.53 3.53 0 0 0-.744-.101c.29.752.343 1.527.749 1.83 6.102 4.59 11.177 10.206 16.129 15.948.383.44.647.775 1.379.542.88-.286 1.379.295 1.476 1.263.072.414.296.786.63 1.043.52.378 1.163.58 1.722.91 1.137.674 1.383 1.717.705 2.786-.762 1.197-2.234 1.677-3.11.762-1.044-1.096-1.811-2.46-2.692-3.715-.044-.061-.088-.176-.057-.228.775-1.435-.467-2.117-1.15-2.944-4.366-5.281-8.97-10.333-14.411-14.554-.4-.316-.824-.607-1.238-.91l-.26.193c.117.344.265.677.44.995 2.265 3.225 4.516 6.464 6.851 9.642.375.51 1.133.739 1.71 1.095h-.952c.978 2.036 1.933 4.03 2.864 5.981l.973-.26c-.88-1.84-1.735-3.652-2.599-5.465.996 1.223 2.128 2.363 2.934 3.696.479.935.73 1.97.732 3.02.022.51-.56 1.046-.882 1.575-.497-.295-1.171-.476-1.449-.907a24.406 24.406 0 0 1-1.71-3.367 57.083 57.083 0 0 0-8.758-13.976 3.683 3.683 0 0 0-.467-.418l-1.097 1.32c3.965 6.993 5.763 14.659 6.512 22.738 1.132-.079 1.555.498 1.824 1.527.29 1.118.947 2.14 1.436 3.209.56 1.21.44 2.35-.516 2.79a4.349 4.349 0 0 1-2.515.26c-.947-.199-1.044-1.185-.974-2.016.401-4.515-.352-8.934-1.163-13.33a46.685 46.685 0 0 0-4.899-14.003 1.876 1.876 0 0 0-.643-.722c.555 2.104 1.238 4.176 1.639 6.306.581 3.116.956 6.267 1.423 9.405.048.317 0 .858.163.924 1.432.598.934 1.527.665 2.592-.185.748.132 1.606.159 2.42.026.814-.181 1.646-1.075 2.003-.895.356-1.974.347-2.586-.44-.441-.564-.811-1.655-.547-2.166.718-1.381.881-3.12 2.384-4.083.171-.11.18-.586.154-.88-.485-5.198-1.282-10.338-3.062-15.271-.237-.45-.504-.882-.802-1.294-.44-.792-1.18-1.615-1.154-2.403.075-2.306-1.265-3.841-2.498-5.68-12.243 12.884-23.856 26.09-32.672 41.806l-1.463 2.843zm48.339-57.958l-9.847 7.103c2.644-.946 5.115-2.156 7.622-3.278 2.507-1.123 5.027-2.14 7.683-3.261-1.85-.639-3.66.752-5.458-.564zM52.229 49.2c2.286.47 4.546.924 6.798 1.408 1.352.295 2.202.044 2.365-.774.163-.819-.506-1.387-1.956-1.492-2.445-.18-4.899-.269-7.207-.388V49.2zm-8.895-18.747a50.141 50.141 0 0 0 4.564 2.684c.665.308 2.053.313 2.34-.092.625-.88-.415-1.342-1.106-1.76a4.784 4.784 0 0 0-.881-.379 790.86 790.86 0 0 0-4.547-1.588c-.137.426-.29.888-.37 1.135zM113.47 54.3c-.11-.47-.233-.968-.295-1.232-1.507.115-3 .163-4.467.387a1.821 1.821 0 0 0-1.269.942c-.344 1.048.493 1.76 1.665 1.408 1.472-.427 2.908-.994 4.366-1.505zm-10.446-11.283l5.168-4.502-.92-.836-5.63 3.578.202.286c1.211-.168 1.357-.04 1.18 1.474zM99.57 63.533l5.26-1.052c-.114-.44-.228-.906-.299-1.192-1.991 0-2.775.59-4.877.59.406.813-.48.857-.084 1.654zM57.133 36.147c-.29.273-.493.379-.542.533a.608.608 0 0 0 .102.524c.951.88 1.899 1.76 2.93 2.521a1.179 1.179 0 0 0 1.136-.18c.207-.242.238-1.03.057-1.158-1.18-.805-2.436-1.5-3.683-2.24zm38.712 51.757c.243 2.069 2.609 2.077 3.547 3.52l.722-1.069c-.674-.748-1.242-1.434-1.868-2.05a1.904 1.904 0 0 0-.964-.476 7.469 7.469 0 0 0-1.437.075zm-2.172-14.082c-.048.101-.1.202-.15.308a15.07 15.07 0 0 0 1.609 1.298 5.673 5.673 0 0 0 2.229.946c.542.141 1.062.374 1.586.568l.396-1.245c-1.766-.898-3.956-.995-5.67-1.875zm-8.304 24.041c-1.956.647-1.939.642-1.322 2.416.203.607.295 1.25.44 1.853h1.265c-.15-1.466-.264-2.839-.383-4.269zm-18.09-70.249l-.224.137c.295 1.078.555 2.17.907 3.234.105.437.369.818.74 1.07a1.177 1.177 0 0 0 1.036-.546 1.758 1.758 0 0 0-.18-1.413 32.693 32.693 0 0 0-2.279-2.482zm24.826 12.983l-4.177 3.872.278.387c2.269-.158 3.084-2.64 4.692-3.322l-.793-.937zM81.57 32.675a8.56 8.56 0 0 0-1.277 6.161c.743-1.971 1.49-3.946 2.242-5.923l-.965-.238zm-7.767 2.2c-.084-1.936-.167-3.802-.251-5.685l-1.075.14c.405 5.163.405 5.163 1.326 5.52v.026zm18.504 26.497c-.093-.356-.093-.752-.22-.796a23.166 23.166 0 0 0-3.358-1.008c-.207-.04-.625.695-.806 1.131-.044.101.476.625.753.642 1.155.049 2.327.005 3.622.005l.009.026zm-6.305-9.765c1.996.95 3.578-.827 5.542-.88-.828-1.109-3.617-.669-5.55.854l.008.026zM78.17 29.234c1.48-1.505.727-3.371.745-5.193-.391.168-.72.452-.943.814-.908 1.44.392 2.856.19 4.353l.008.026zm.185 61.75l-.577-.026c-.18 1.54-.357 3.08-.546 4.7h1.612c-.167-1.593-.313-3.124-.489-4.673zm12.701-65.02l-1.894 3.446 1.264.286 1.366-3.26-.735-.472zM64.957 57.816l2.696.212c-.326-1.76-1.762-1.554-2.886-1.76.057.506.106.98.19 1.562v-.014zm10.432-6.675l.41.308a706.48 706.48 0 0 1 2.454-3.913l-.375-.242-2.489 3.847zm31.179 21.862c.211-.88.321-1.36.44-1.874l-1.788-.374 1.348 2.248zm-1.89-2.398l.185-.282-2.485-1.386-.282.524c.568.928 1.74.74 2.582 1.157v-.013zm-26.875-3.96l-1.67-.55-.206.351 1.405 1.224c.185-.4.317-.647.471-1.026zm64.033-60.911c-.335.766-.925 2.253-1.63 3.684-.705 1.43-1.502 2.675-2.225 4.035-.44.814-.925 1.452-1.978 1.188a2.008 2.008 0 0 1-1.321-2.2c.541-2.64 1.136-5.281 1.713-7.943.036-.159.093-.313.141-.467.604-1.76 1.674-2.64 3.023-2.451 1.348.19 2.25 1.575 2.277 4.154zm-3.427-.845c-.362 1-.688 2.086-1.15 3.112-.564 1.258-1.269 2.45-1.864 3.696-.476.995-.224 2.05.555 2.337 1.093.4 1.428-.44 1.763-1.201.241-.558.44-1.133.594-1.721.538-1.985 1.044-3.96 1.542-5.87l-1.44-.353zm18.501 19.205c.243 0 .534-.088.723 0 .639.343 1.595.642 1.763 1.17.167.529-.265 1.59-.771 1.937-1.595 1.091-3.349 1.958-5.04 2.913-1.406.792-2.776 1.664-4.234 2.346-.564.264-1.542.383-1.939.07-.396-.312-.595-1.364-.383-1.888 1.11-2.777 6.921-6.548 9.882-6.548zm-1.458 1.901c-1.216.528-2.586 1.039-3.872 1.712a20.36 20.36 0 0 0-3.357 2.139c-1.088.88-1.269 1.879-.59 2.358 1.008.718 1.63-.1 2.273-.712.026-.027.061-.053.088-.084 1.643-1.972 3.586-3.52 6.01-4.084l-.552-1.329z"/><path fill-rule="evenodd" clip-rule="evenodd" d="M51.788 20.485c.775 0 1.705.766 2.528 1.712a203.3 203.3 0 0 0 3.084 3.446 1.799 1.799 0 0 1-.022 2.517c-.705.744-1.432.88-2.374.29-.943-.59-2.027-.98-3.036-1.482a19.063 19.063 0 0 1-2.643-1.426c-.996-.718-1.22-2.003-.767-3.195.454-1.193 1.432-1.893 3.23-1.862zm.304 4.075c.912.986 1.89 2.064 2.894 3.125.595.62 1.273.955 2 .202.727-.752.586-1.531-.211-2.077-1.234-.836-2.538-1.567-3.745-2.306l-.938 1.056zm20.764-7.3c.089 1.13.172 2.257.27 3.388.079.88 0 1.734-.908 2.2a1.592 1.592 0 0 1-2.203-.92c-.63-1.83-1.322-3.639-1.855-5.496a10.16 10.16 0 0 1-.37-3.313c.07-1.043.855-1.76 1.92-1.92a2.28 2.28 0 0 1 2.384 1.123c1.044 1.514.96 3.221.762 4.938zm-1.691-2.011c-1.172.206-1.3.84-1.049 1.786.097.64.138 1.286.124 1.932.014.888.113 1.772.295 2.64a1.408 1.408 0 0 0 1.106.793c.36-.031.788-.56.986-.964.12-.39.109-.809-.03-1.193-.459-1.694-.96-3.375-1.432-4.994zM51.656 59.005c2.146.189 4.291.339 6.428.594a1.428 1.428 0 0 1 1.361 1.588 1.496 1.496 0 0 1-1.321 1.51c-1.899.405-3.793.836-5.727 1.175a9.34 9.34 0 0 1-2.644.123 2.358 2.358 0 0 1-2.203-2.13c-.145-1.197.551-2.037 1.622-2.455a19.126 19.126 0 0 1 2.462-.612l.022.207zm.63 2.975c1.855.096 3.6.21 5.349.272.722.022 1.322-.294 1.322-1.109a1.064 1.064 0 0 0-1.287-1.13c-1.92.167-3.833.409-5.798.624l.414 1.343zm91.968-40.874a4.24 4.24 0 0 1-1.904 3.124 24.239 24.239 0 0 1-2.643 1.453c-1.15.602-2.313 1.17-3.445 1.8-1.132.629-2 .55-2.49-.22-.488-.77-.171-1.704.653-2.447 1.383-1.25 2.643-2.619 4.04-3.86a10.133 10.133 0 0 1 2.564-1.8c1.62-.708 3.233.344 3.225 1.95zm-3.27.281c-1.59.973-3.207 1.954-4.815 2.949a7.988 7.988 0 0 0-1.793 1.219 1.464 1.464 0 0 0-.158 1.395 1.428 1.428 0 0 0 1.357.317c.827-.43 1.597-.962 2.295-1.58 1.374-1.131 2.7-2.324 3.965-3.406l-.85-.894zM124.788 7.468c2.842 0 4.031 1.998 2.683 4.493-.634 1.17-1.207 2.376-1.762 3.578-.44.955-1.573 1.364-2.85.986-1.036-.308-1.287-.911-1.11-2.038.175-1.126-.12-2.253-.23-3.384-.255-2.363.89-3.626 3.269-3.635zm-.652 2.398c-.568 1.54-1.101 3.046-1.674 4.537-.463 1.215.15 2.02 1.44 1.849 1.023-.137 1.516-.88 1.59-2.39.076-1.404.146-2.807.212-4.119l-1.568.123zM41.876 35.39c.775.31 1.526.677 2.247 1.096 1.322.85 2.573 1.835 3.868 2.746a1.571 1.571 0 0 1 .573 2.135c-.379.792-1.101 1.034-1.965.779-1.55-.44-3.11-.88-4.657-1.373a10.14 10.14 0 0 1-1.916-.749A2.404 2.404 0 0 1 38.8 37.24c.34-1.21 1.207-1.84 3.075-1.849zm.476 3.495c1.392.88 2.674 1.734 3.965 2.556.648.41 1.322.537 1.802-.21.48-.749.11-1.378-.586-1.682-1.568-.682-3.18-1.263-4.789-1.892-.176.554-.282.893-.392 1.228zm47.915-18.276c-.52.976-.912 2.055-1.586 2.913-1.123 1.43-2.419 2.728-3.665 4.062-.56.598-1.234 1.012-2.036.44-.802-.572-.718-1.285-.379-2.064.767-1.76 1.52-3.56 2.278-5.343.172-.413.295-.845.485-1.245.62-1.32 1.652-1.928 2.77-1.677 1.12.251 1.9 1.33 2.133 2.914zm-3.057-.185c-1.287 1.734-2.551 3.445-3.82 5.149-.485.65-.943 1.373-.115 1.997.829.625 1.393-.061 1.763-.695 1.136-1.98 2.202-4.005 3.277-5.963l-1.105-.488zM64.741 9.356c.088.964.172 1.932.269 2.896a1.464 1.464 0 0 1-1.177 1.729c-.828.216-1.546 0-1.916-.85-.634-1.443-1.242-2.9-1.86-4.347l-.145-.335c-.502-1.175-.78-2.358.22-3.406a2.388 2.388 0 0 1 2.697-.598c1.322.497 1.855 1.637 1.996 2.957.035.648.035 1.297 0 1.945l-.084.009zm-2.758-.44c.026 1.23.132 2.458.317 3.674a1.646 1.646 0 0 0 1.251.942 1 1 0 0 0 .952-1.377c-.388-1.32-.837-2.64-1.278-4.027l-1.242.788zM50.024 18.43a7.97 7.97 0 0 1-1.163-.48 164.19 164.19 0 0 1-4.52-2.851 11.254 11.254 0 0 1-2.005-1.576c-.88-.941-1.017-2.174-.379-3.005.767-.99 1.86-1.043 2.873-.62.858.36 1.637.886 2.29 1.548a53.587 53.587 0 0 1 3.724 4.33 2.116 2.116 0 0 1 .36 1.638c-.118.422-.775.69-1.18 1.016zm-5.912-5.66c.727.621 1.533 1.237 2.251 1.937.881.85 1.595 1.862 2.524 2.64a1.799 1.799 0 0 0 1.675.133c.643-.405.317-1.083-.181-1.536a23.22 23.22 0 0 0-1.864-1.554c-1.268-.924-2.573-1.804-3.837-2.684l-.568 1.065zm.99 54.996l2.788-.171c.974-.066 1.613.387 1.697 1.32.083.933-.44 1.43-1.322 1.597-1.123.207-2.203.401-2.586 1.792-.088.299-.996.484-1.538.51-.608.03-1.229-.25-1.85-.26-1.154 0-1.996-.51-2.317-1.597-.322-1.087 0-2.231 1.132-2.64 1.251-.471 2.643-.612 3.965-.903-.022.12.009.247.03.352zm-2.608 2.887l4.903-.501c.842-.088 1.939 0 1.736-1.281-.194-1.193-1.22-.999-2.058-.766-1.67.467-3.321.995-4.951 1.488.145.422.281.85.37 1.06zM88.363 37.93c-.18-.388-.59-.858-.511-1.22.188-.526.51-.994.934-1.36 1.075-1.095 2.203-2.151 3.295-3.203a20.7 20.7 0 0 1 2.727-2.411c.507-.33 1.564-.44 1.97-.132.405.308.506 1.32.387 1.949-.37 2.033-1.74 3.362-3.524 4.242-1.388.682-2.82 1.268-4.238 1.88-.34.109-.688.194-1.04.255zm5.974-5.915c-.745.717-1.53 1.39-2.353 2.016-.832.572-1.859.88-2.643 1.47-.463.347-.656 1.06-.97 1.606.56-.04 1.26.127 1.648-.145 1.868-1.32 3.648-2.75 5.507-4.181-.625-.4-.947-.607-1.19-.766zm15.579-8.361c-.705 1.14-1.181 2.504-2.133 3.314-1.586 1.355-3.454 2.394-5.251 3.49a1.323 1.323 0 0 1-1.934-.44c-.494-.797 0-1.295.603-1.85 1.82-1.729 3.569-3.52 5.357-5.302.242-.282.543-.508.882-.66.51-.158 1.176-.37 1.581-.167.406.202.516.902.895 1.615zm-3.287.748c-1.049 1.791-2.745 2.918-4.666 3.767-.22.097-.502.207-.599.392-.18.396-.327.807-.44 1.227.44.12.88.41 1.282.322a3.164 3.164 0 0 0 1.458-.823c1.383-1.382 2.705-2.826 4.014-4.203l-1.049-.682zm16.548 18.69c-.44.633-.762 1.434-1.322 1.786a7.737 7.737 0 0 1-2.824.995c-1.643.26-3.305.395-4.97.4-.554 0-1.427-.48-1.567-.924-.141-.444.352-1.4.806-1.602 1.951-.88 3.965-1.62 6.005-2.336 1.017-.361 2.101-.489 3 .316.341.42.634.879.872 1.365zm-3.12-.093c-2.096.313-4.15.56-6.167.973-.44.088-.736.774-1.101 1.184.433.267.887.501 1.357.7.282.028.568-.022.823-.146a927.105 927.105 0 0 0 5.534-1.73l-.445-.98zm-4.08 17.37c-.33 2.244-1.511 3.67-3.062 4.78a40.14 40.14 0 0 1-3.855 2.323c-.766.44-1.612.523-2.141-.357-.529-.88.159-1.342.753-1.892 1.128-1.043 2.146-2.2 3.247-3.274a28.67 28.67 0 0 1 2.895-2.588 1.812 1.812 0 0 1 1.568-.105c.366.171.48.844.595 1.113zm-2.683 1.351c-1.507 1.109-2.943 2.178-4.406 3.221-.357.256-.88.348-1.136.67a4.398 4.398 0 0 0-.525 1.32c.458.152.93.255 1.41.307.325-.044.624-.2.846-.44 1.533-1.474 3.044-2.979 4.577-4.488l-.766-.59zm55.181-50.753c0-1.079.7-1.998 1.762-1.941.953.068 1.88.344 2.714.81a17.736 17.736 0 0 1 3.243 2.328 1.896 1.896 0 0 1 .475 1.637c-.114.37-.969.814-1.4.73a46.912 46.912 0 0 1-4.79-1.29c-1.105-.338-2.004-.937-2.004-2.274zm2.124.501l3.207 1.853c.42.312.882.561 1.374.74.344.074 1.022-.133 1.093-.362a1.367 1.367 0 0 0-.308-1.21 4.906 4.906 0 0 0-1.604-.805c-1.168-.44-2.357-.792-3.503-1.17-.088.316-.189.695-.25.954h-.01zm-18.847-2.935a1.99 1.99 0 0 1-2.101-2.042 2.088 2.088 0 0 1 2.084-2.108 2.23 2.23 0 0 1 2.088 2.029 2.12 2.12 0 0 1-2.07 2.121zM121.583 19.94a2.02 2.02 0 0 1 2.035 2.12 2.129 2.129 0 0 1-2.176 2.025 2.173 2.173 0 0 1-1.987-2.108 2.08 2.08 0 0 1 2.128-2.037zm57.784 12.568a1.833 1.833 0 0 1 1.63 1.936 1.794 1.794 0 0 1-2.022 1.642 1.82 1.82 0 0 1-1.572-1.967 1.852 1.852 0 0 1 1.964-1.611zm-55.089.59a1.76 1.76 0 0 1-1.691 1.822 1.813 1.813 0 0 1-1.886-1.791 1.781 1.781 0 0 1 1.797-1.76 1.738 1.738 0 0 1 1.78 1.729zm-20.411 14.196c.44.37 1.12.683 1.198 1.11a1.759 1.759 0 0 1-.682 1.474 6.9 6.9 0 0 1-2.309.603c-.794.136-1.6.202-2.405.198a1.323 1.323 0 0 1-.965-.507.976.976 0 0 1 .242-.932c1.546-.674 3.137-1.255 4.921-1.946zm-.04 1.98c-.378-.325-.682-.686-.766-.637-1.295.717-3.115-.084-4.432 1.421 2.035.766 3.379-.651 5.199-.783zM77.65 1.795a1.592 1.592 0 0 1-1.653 1.572 1.663 1.663 0 0 1-1.62-1.76A1.711 1.711 0 0 1 76.05 0a1.68 1.68 0 0 1 1.6 1.795zM38.558 53.477a1.596 1.596 0 0 1 1.6 1.624 1.565 1.565 0 0 1-1.661 1.668 1.605 1.605 0 0 1-1.56-1.672 1.627 1.627 0 0 1 1.621-1.62zM60.53 20.072c-.127 1.276-.581 1.76-1.467 1.69-.885-.07-1.352-.537-1.321-1.404.03-.867.599-1.444 1.41-1.272.581.119 1.04.726 1.378.986zm-2.823 53.393c-.361.256-.842.845-1.388.911-.802.102-1.37-.488-1.344-1.364a1.209 1.209 0 0 1 1.322-1.285c.894 0 1.3.528 1.41 1.738zm96.122-55.563c-.49.356-.983.995-1.467.99-.485-.004-1.088-.66-1.23-1.148a1.046 1.046 0 0 1 1.146-1.32c.533.043 1.027.598 1.538.92l.013.558zM62.754 30.559c-.784.558-1.247 1.13-1.577 1.064-.44-.092-.815-.673-1.216-1.042.383-.375.736-.986 1.163-1.048.427-.061.85.502 1.63 1.025zm51.903-.397c-.44.287-.92.806-1.357.784a1.428 1.428 0 0 1-.96-1.052 1.412 1.412 0 0 1 .974-1.034c.44-.022.88.502 1.348.788-.005.167-.005.343-.005.514zM89.546 40.583c-.644.52-1.018 1.056-1.37 1.043-.353-.013-.71-.559-1.067-.88.313-.352.586-.924.948-.99.36-.066.801.414 1.489.827zm6.331 43.585c-.366-.44-.775-.717-.74-.929.044-.312.418-.567.648-.849.26.216.713.44.722.651.009.308-.326.62-.63 1.127zm-8.197 8.198c-.44.326-.692.67-.934.66-.242-.008-.507-.365-.758-.567.243-.26.44-.647.736-.735.176-.057.507.326.956.642z"/><path d="M27.378 104.917a31.115 31.115 0 0 0-5.653.502 17.671 17.671 0 0 0-4.846 1.589 12.123 12.123 0 0 0-3.644 2.799 9.554 9.554 0 0 0-2.11 4.062 8.932 8.932 0 0 0-.167 2.468c.063.903.304 1.783.71 2.592a9.022 9.022 0 0 0 1.8 2.47 9.628 9.628 0 0 0 3.182 2.006c.299.12.607.22.92.295.168.026.225.097.168.207-.057.11-.225.154-.502.127a7.922 7.922 0 0 1-1.088-.211c-2.512-.88-4.297-2.302-5.358-4.264a9.985 9.985 0 0 1 .542-10.624 12.432 12.432 0 0 1 3.727-3.472 19.978 19.978 0 0 1 5.57-2.301c2.34-.58 4.746-.86 7.158-.837 2.18.042 4.352.28 6.49.713a94.542 94.542 0 0 1 7.745 1.8l4.23 1.17 4.312 1.171a20.03 20.03 0 0 1 4.185-1.632 18.483 18.483 0 0 1 5.027-.709 9.91 9.91 0 0 1 3.723.625c1.035.418 1.52 1.074 1.467 1.967-.057.726-.515 1.294-1.383 1.712a7.823 7.823 0 0 1-3.388.63c-1.733 0-3.31-.071-4.732-.212a62.43 62.43 0 0 1-4.564-.625 9.374 9.374 0 0 0-1.507 1.215 99.88 99.88 0 0 0-1.762 1.712 55.948 55.948 0 0 0-1.802 1.883 40.758 40.758 0 0 0-1.55 1.796 195.077 195.077 0 0 0-3.389 4.4 127.779 127.779 0 0 1-3.224 4.141h1.674c.612 0 1.255-.026 1.925-.083.67-.057 1.322-.123 1.925-.207a7.404 7.404 0 0 0 1.59-.378c.168-.22.406-.515.714-.88.298-.357.619-.694.96-1.008a5.38 5.38 0 0 1 1.05-.753 1.8 1.8 0 0 1 1.132-.207c.67.168.793.502.374 1.004a25.536 25.536 0 0 1-2.053 2.09 55.388 55.388 0 0 0-2.203 2.05 23.253 23.253 0 0 0-1.634 1.8 2.61 2.61 0 0 0-.542.714c-.084.198-.185.264-.295.206-.11-.057-.194-.264-.084-.625.11-.36.25-.71.419-1.047.236-.457.502-.898.797-1.32.304-.44.542-.779.71-1.003a15.16 15.16 0 0 1-3.085.462 64.545 64.545 0 0 1-4.101.123 11.76 11.76 0 0 1-.921 1.13c-.335.362-.67.74-1.005 1.127a47.505 47.505 0 0 1-11.516 9.202A26.955 26.955 0 0 1 10.055 140c-1.193 0-2.383-.109-3.556-.325a12.591 12.591 0 0 1-3.225-1.003 6.23 6.23 0 0 1-2.304-1.804 4.807 4.807 0 0 1-.96-2.804 4.023 4.023 0 0 1 .982-2.926 3.712 3.712 0 0 1 3.014-1.294 2.61 2.61 0 0 1 1.925.753 2.028 2.028 0 0 1 .586 1.84 3.664 3.664 0 0 1-.502 1.17c-.221.33-.473.638-.754.92-.725.724-1.088 1.365-1.088 1.922a1.535 1.535 0 0 0 .546 1.171c.388.355.836.638 1.322.836a7.852 7.852 0 0 0 1.824.497c.664.113 1.336.169 2.009.168a19.842 19.842 0 0 0 9.045-2.2 26.724 26.724 0 0 0 7.705-5.867 51.973 51.973 0 0 0 2.762-3.115 84.009 84.009 0 0 0 2.344-3.037h-2.643a19.411 19.411 0 0 0-1.97.084 9.79 9.79 0 0 0-1.762.21c-.282.084-.44 0-.44-.294.053-.167.29-.304.709-.418a17.363 17.363 0 0 1 2.137-.335 19.469 19.469 0 0 1 2.092-.083h2.428l1.886-2.385c.64-.807 1.436-1.74 2.387-2.8a89.944 89.944 0 0 1 3.22-3.22 61.368 61.368 0 0 1 3.393-3.01 130.87 130.87 0 0 1 3.084-2.47 24.8 24.8 0 0 1 2.432-1.672l-3.194-.748-3.965-.933c-.837-.167-1.828-.365-2.974-.585a83.78 83.78 0 0 0-3.643-.63 100.88 100.88 0 0 0-3.89-.5 35.483 35.483 0 0 0-3.64-.195zm32.319.753a14.002 14.002 0 0 0-3.934.559 13.61 13.61 0 0 0-3.349 1.448c1.502.404 3.026.719 4.565.941 1.178.183 2.367.287 3.56.313a6.954 6.954 0 0 0 2.467-.396c.7-.269 1.075-.665 1.132-1.197.057-.533-.322-.938-1.132-1.232a10.104 10.104 0 0 0-3.309-.436z"/><path d="M47.889 128.167a87.606 87.606 0 0 1-1.842 1.632 28.187 28.187 0 0 0-1.59 1.466c-.445.449-.754.475-.921.25-.053-.167.084-.44.44-.752.058-.057.296-.264.714-.63l1.507-1.293c.587-.502 1.214-1.046 1.881-1.633.67-.585 1.322-1.157 2.014-1.716a136.51 136.51 0 0 0 1.964-2.425l2.428-3.054c.881-1.087 1.762-2.2 2.723-3.3.96-1.1 1.868-2.179 2.762-3.182 1.469-1.672 3.033-3.4 4.692-5.184a82.639 82.639 0 0 1 5.287-5.189c1.063-.947 2.067-1.421 3.013-1.421.837 0 1.256.198 1.256.585-.388.392-1.102 1.144-2.133 2.262a428.467 428.467 0 0 0-7.12 7.904 239.234 239.234 0 0 0-3.224 3.718 342.82 342.82 0 0 0-4.225 5.189 185.716 185.716 0 0 0-3.939 5.1 91.551 91.551 0 0 0-3.18 4.56 32.509 32.509 0 0 0-2.053 3.555c-.11.282-.238.656-.375 1.131a1.06 1.06 0 0 0 .207 1.127 1.27 1.27 0 0 0 1.216.083c.48-.145.944-.341 1.383-.585a11.078 11.078 0 0 0 1.675-1.043c.555-.44 1.14-.85 1.762-1.298a64.209 64.209 0 0 0 2.009-1.633c.56-.47 1.114-.959 1.674-1.46.208-.2.432-.383.67-.546.277-.194.475-.238.585-.124.11.115-.083.502-.586 1.004-.502.501-1.229 1.157-2.176 1.962a84.107 84.107 0 0 1-2.93 2.386c-.44.334-.951.7-1.506 1.087-.586.407-1.202.77-1.842 1.087a13.36 13.36 0 0 1-2.097.836 7.056 7.056 0 0 1-2.093.334 3.17 3.17 0 0 1-1.964-.541 1.844 1.844 0 0 1-.63-1.716c.055-1.004.53-2.258 1.423-3.763a42.542 42.542 0 0 1 3.264-4.682l-.123-.088z"/><path d="M59.112 130.763a7.13 7.13 0 0 0-.753.669c-.555.501-.92.669-1.088.501-.167-.167-.084-.264.084-.462.167-.198.334-.374.502-.541a16.9 16.9 0 0 1 1.172-1.047 12.99 12.99 0 0 1 1.44-1.052 49.59 49.59 0 0 1 1.763-1.175c.616-.393 1.37-.811 2.26-1.254a29.537 29.537 0 0 1 3.683-1.545c1.052-.38 2.15-.62 3.264-.713.28 0 .56.014.837.044.282.026.419.123.419.29 0 .058-.304.225-.92.502a12.825 12.825 0 0 0-2.887 1.8 52.827 52.827 0 0 0-3.14 2.803 25.694 25.694 0 0 0-3.265 3.96c-.952 1.427-1.48 2.553-1.595 3.39-.11.95.282 1.42 1.176 1.42.895 0 2.159-.483 3.64-1.46a21.015 21.015 0 0 0 4.145-3.64 8.165 8.165 0 0 1 .379-1.549 6.838 6.838 0 0 1 1.128-1.962 6.089 6.089 0 0 1 1.467-1.466 7.49 7.49 0 0 1 1.211-.713 3.33 3.33 0 0 0 .212-1.003c.026-.387.044-.695.044-.92a2.29 2.29 0 0 0-.128-.92.334.334 0 0 1 .04-.418.516.516 0 0 1 .59.044c.211.125.408.272.586.44.352.361.636.783.837 1.246.224.523.282 1.102.167 1.659a6.765 6.765 0 0 1-1.506 3.235 26.886 26.886 0 0 1-3.27 3.48c.246.128.526.173.798.128.268-.013.534-.056.793-.127a7.578 7.578 0 0 0 2.85-1.396 35.862 35.862 0 0 0 1.424-1.025c.44-.345.859-.715 1.255-1.109.781-.713 1.256-.986 1.423-.818.168.167-.198.668-1.088 1.505l-1.216 1.043c-.468.401-.956.779-1.463 1.13-.558.384-1.147.72-1.762 1.004-.46.21-.937.378-1.427.502a3.477 3.477 0 0 1-1.212.127 2.372 2.372 0 0 1-1.048-.295c-.56.44-1.199.907-1.926 1.382a19.467 19.467 0 0 1-4.987 2.297 8.995 8.995 0 0 1-2.643.419 4.678 4.678 0 0 1-3.053-.92c-.752-.61-1.102-1.53-1.049-2.76.115-1.783 1.008-3.567 2.679-5.35l-.084-.084a7.129 7.129 0 0 1-.758.704z"/><path d="M93.278 126.41c0 .56-.405 1.255-1.216 2.095a66.3 66.3 0 0 0-2.643 2.927 19.714 19.714 0 0 0-2.85 3.93c-.444.783-.472 1.313-.084 1.588.334.282.951.168 1.845-.334.444-.276 1.015-.624 1.714-1.043a16.329 16.329 0 0 0 2.053-1.466c.946-.727 1.7-1.327 2.26-1.8.56-.47 1.115-.959 1.675-1.46.612-.617 1.03-.837 1.255-.67.11.11.057.291-.167.542-.225.25-.503.546-.837.88-.503.443-1.158 1.03-1.965 1.76-.81.726-1.763 1.479-2.807 2.258a35.198 35.198 0 0 1-3.348 2.174 8.096 8.096 0 0 1-4.106 1.17 2.84 2.84 0 0 1-2.009-.624 1.782 1.782 0 0 1-.586-1.55 5.48 5.48 0 0 1 1.322-3.01 27.06 27.06 0 0 1 2.678-2.926 22.627 22.627 0 0 1 1.675-1.505 129.85 129.85 0 0 1 1.718-1.382 48.77 48.77 0 0 0 1.383-1.131c.275-.2.503-.456.67-.753.167-.44-.084-.668-.754-.668h-3.691a1.733 1.733 0 0 1-.798-.168c-.722.784-1.783 1.843-3.18 3.178-.728.673-1.353 1.245-1.886 1.716-.533.47-1.018.933-1.463 1.382-.67.612-1.088.836-1.256.669-.167-.168.137-.616.921-1.32.502-.44.974-.88 1.423-1.299.45-.418 1.058-.99 1.842-1.716 1.23-1.174 2.207-2.149 2.93-2.926a1.453 1.453 0 0 1-.626-1.171 2.084 2.084 0 0 1 .626-1.505 3.912 3.912 0 0 1 3.185-1.422c.33 0 .658.071.96.207a.88.88 0 0 1 .546.63l-.713.54a6.356 6.356 0 0 0-.71.63c-1.06 1.118-.976 1.731.252 1.84 1.174.055 2.263.154 3.264.295 1.005.136 1.507.598 1.507 1.377l-.009.062z"/><path d="M112.534 127.33a18.605 18.605 0 0 1 2.644-2.381 3.751 3.751 0 0 1 2.136-.797c.881-.053 1.41.031 1.547.251.136.22 0 .585-.441 1.087-.56.616-1.256 1.408-2.093 2.385a112.76 112.76 0 0 0-2.595 3.138 35.844 35.844 0 0 0-1.594 2.046 21.796 21.796 0 0 0-1.322 2.051c-.558 1.003-.642 1.645-.251 1.923a.935.935 0 0 0 .88.084 6.7 6.7 0 0 0 1.045-.418c.594-.311 1.168-.66 1.718-1.043a26.24 26.24 0 0 0 2.053-1.55c.881-.725 1.674-1.364 2.344-1.922a25.78 25.78 0 0 0 1.674-1.505c.278-.225.516-.405.714-.546.198-.141.348-.154.44-.04.093.115-.193.67-1.088 1.505-.56.502-1.286 1.143-2.176 1.923a58.43 58.43 0 0 1-2.511 2.09 30.333 30.333 0 0 1-3.186 2.175 7.627 7.627 0 0 1-4.017 1.17 2.645 2.645 0 0 1-1.763-.501 1.853 1.853 0 0 1-.67-1.255 3.025 3.025 0 0 1 .252-1.505c.218-.55.53-1.06.92-1.505l-.083-.083a26.38 26.38 0 0 1-4.23 3.054c-.803.47-1.643.875-2.51 1.21a8.47 8.47 0 0 1-2.472.585 4.238 4.238 0 0 1-2.556-.625c-.751-.475-1.045-1.381-.88-2.72.134-.682.36-1.343.669-1.966a11.099 11.099 0 0 1 1.674-2.381l-.084-.084-.418.44a8.08 8.08 0 0 1-.67.586c-.388.277-.643.36-.753.25-.168-.223.223-.752 1.172-1.588.114-.115.44-.405 1.004-.88.476-.41.98-.787 1.507-1.127l1.674-1.047c.67-.417 1.397-.85 2.18-1.299a28.98 28.98 0 0 1 4.56-1.923 8.6 8.6 0 0 1 3.812-.418 2.059 2.059 0 0 1 1.718 1.131 2.485 2.485 0 0 1 .026 2.025zm-2.093-2.342c-.837 0-1.953.502-3.348 1.505a35.898 35.898 0 0 0-4.353 3.767 30.264 30.264 0 0 0-3.727 4.137c-.753 1.087-1.075 1.915-.965 2.469.11.554.419.836 1.089.836.784 0 1.872-.387 3.269-1.17a18.77 18.77 0 0 0 3.766-2.76 21.346 21.346 0 0 0 2.01-1.923 59.989 59.989 0 0 0 1.84-2.09c.505-.596.967-1.225 1.384-1.884.296-.407.482-.882.542-1.382.044-1.003-.458-1.505-1.507-1.505z"/><path d="M127.02 126.494c-.543.275-1.06.598-1.547.964a34.54 34.54 0 0 0-2.053 1.549l-1.635 1.32a53.29 53.29 0 0 0-1.379 1.17c-.67.56-1.088.78-1.255.67-.168-.11-.097-.251.04-.419.136-.167.44-.475.88-.92.22-.224.573-.532 1.045-.92.471-.387.99-.809 1.55-1.258a68.16 68.16 0 0 1 1.719-1.32c.586-.44 1.127-.836 1.63-1.17a11.61 11.61 0 0 1 2.683-1.506 6.92 6.92 0 0 1 2.176-.334c.881 0 1.384.083 1.507.25.11.168-.084.533-.586 1.088a139.77 139.77 0 0 0-4.525 5.355 33.424 33.424 0 0 0-1.797 2.386c-.476.7-.855 1.267-1.132 1.711-.503.88-.586 1.494-.252 1.84.391.334 1.06.25 2.01-.25a16.315 16.315 0 0 0 1.634-.96 20.95 20.95 0 0 0 2.053-1.55c.881-.721 1.59-1.32 2.093-1.76.502-.44 1.088-.977 1.762-1.588.674-.612 1.172-.92 1.322-.753.15.167 0 .335-.291.67-.291.334-.52.554-.63.668a47.74 47.74 0 0 1-2.137 1.967 60.887 60.887 0 0 1-2.643 2.2 34.127 34.127 0 0 1-3.225 2.2 7.668 7.668 0 0 1-4.062 1.211c-1.674 0-2.511-.722-2.511-2.174a3.76 3.76 0 0 1 .374-1.628c.255-.537.55-1.055.881-1.55.428-.723.918-1.41 1.463-2.05a66.347 66.347 0 0 1 1.802-2.046c.614-.67 1.186-1.284 1.718-1.844.418-.429.857-.836 1.317-1.22zm11.723-13.466a1.045 1.045 0 0 1 1.088.629c.167.42 0 .934-.502 1.545a5.575 5.575 0 0 1-2.01 1.632 4.85 4.85 0 0 1-1.925.63 2.07 2.07 0 0 1-.374-1.215 3.768 3.768 0 0 1 .29-1.633 2.296 2.296 0 0 1 1.3-1.254 5.812 5.812 0 0 1 2.049-.334h.083z"/><path d="M151.136 138.952a3.034 3.034 0 0 1-1.886-.541 1.76 1.76 0 0 1-.626-1.633 5.436 5.436 0 0 1 1.212-2.926 91.418 91.418 0 0 1 2.304-2.927 36.584 36.584 0 0 1 1.842-2.174 50.708 50.708 0 0 0 1.674-1.927c.157-.197.27-.425.334-.67a.404.404 0 0 0-.25-.5 1.323 1.323 0 0 0-.921 0 8.094 8.094 0 0 0-1.256.5c-.78.393-1.731.938-2.846 1.634a41.245 41.245 0 0 0-3.683 2.64 60.227 60.227 0 0 0-2.511 2.007 72.496 72.496 0 0 1-2.203 1.8l-2.203 1.795c-.752.616-1.576 1.285-2.472 2.007a3.558 3.558 0 0 1-2.176.752 2.622 2.622 0 0 1-1.255-.207c-.225-.14-.168-.514.167-1.13.47-.878.986-1.73 1.546-2.553a59.024 59.024 0 0 1 2.137-3.05c.44-.616 1.004-1.32 1.674-2.174.67-.853 1.23-1.562 1.674-2.178.56-.722.754-1.197.586-1.421-.167-.225-.643-.251-1.255.083-.503.282-1.045.616-1.63 1.004-.573.38-1.119.8-1.635 1.254-.558.449-1.145.952-1.762 1.51a503.01 503.01 0 0 0-1.842 1.672c-.784.669-1.255.92-1.423.752-.167-.167.304-.695 1.256-1.589.502-.44 1.154-1.047 1.965-1.8a38.27 38.27 0 0 1 2.388-2.05 19.827 19.827 0 0 1 3.03-2.042 5.67 5.67 0 0 1 2.68-.713c.783 0 1.321.198 1.634.585.294.353.457.796.462 1.254a3.286 3.286 0 0 1-.462 1.59 21.26 21.26 0 0 1-1.3 2.01 107.78 107.78 0 0 1-2.093 2.76c-.78 1.003-1.396 1.839-1.841 2.508l.084.083 3.524-2.926a146.83 146.83 0 0 1 4.19-3.349 40.534 40.534 0 0 1 4.687-3.08c1.674-.948 3.155-1.422 4.441-1.422 1.895 0 2.76.753 2.595 2.258a5.36 5.36 0 0 1-1.255 2.513c-.727.88-1.424 1.76-2.098 2.592-.674.831-1.242 1.505-1.713 2.174-.472.668-.824 1.17-1.049 1.505-.612.95-.727 1.562-.335 1.84a1.01 1.01 0 0 0 .921.083c.375-.105.74-.245 1.088-.418a78.783 78.783 0 0 0 1.679-.96 26.197 26.197 0 0 0 2.344-1.632 52.864 52.864 0 0 0 2.202-1.8 32.305 32.305 0 0 0 1.802-1.629c.56-.501.921-.668 1.088-.501.168.167-.11.528-.67 1.087-.391.391-1.1 1.043-2.136 1.962a46.311 46.311 0 0 1-2.886 2.386c-.44.334-.964.7-1.55 1.087a17.46 17.46 0 0 1-1.886 1.087c-.66.331-1.345.611-2.049.836a6.697 6.697 0 0 1-2.053.312z"/></g></svg>