<svg viewBox="0 0 57 30" version="1.1" xmlns="http://www.w3.org/2000/svg" xmlns:xlink="http://www.w3.org/1999/xlink">
<g id="Canvas" fill="none">
<g id="Group">
<g id="Group_2">
<g id="Vector">
<path d="M 36.45 0.631994C 30.45 1.13199 24.35 1.03199 18.35 1.03199C 12.25 1.03199 6.25 1.032 0.15 0.732C -0.05 0.732 -0.05 0.332006 0.15 0.332006C 6.25 0.0320061 12.25 0.0319878 18.35 0.0319878C 24.35 0.0319878 30.45 -0.167988 36.45 0.432012C 36.65 0.432012 36.65 0.631994 36.45 0.631994Z" transform="translate(0.324219 13.5594)" fill="#A4AB61"/>
</g>
</g>
<g id="Group_3">
<g id="Vector_2">
<path d="M 0.224997 2.04146C 5.025 1.44146 8.825 5.44143 13.725 4.64143C 15.925 4.24143 17.925 3.04145 19.825 1.94145C 21.325 1.14145 22.625 -0.258541 24.425 0.0414592C 24.525 0.0414592 24.525 0.141441 24.425 0.241441C 20.925 2.24144 17.425 5.04143 13.325 5.64143C 8.625 6.34143 4.825 2.84145 0.224997 2.44145C -0.0750031 2.44145 -0.0750031 2.04146 0.224997 2.04146Z" transform="translate(32.4492 11.95)" fill="#A4AB61"/>
</g>
</g>
<g id="Group_4">
<g id="Vector_3">
<path d="M 25.4 4.34079C 23.5 4.44079 21.7 3.54077 20.1 2.64077C 17.6 1.34077 15.3 0.640769 12.5 1.54077C 10.1 2.24077 8.09999 4.04078 5.89999 5.24078C 3.89999 6.24078 2.1 6.24079 0 5.94079L 0 5.84079C 2.6 5.44079 4.8 4.74079 7 3.34079C 9.1 2.04079 11 0.640775 13.5 0.140775C 15.4 -0.259225 17.3 0.240769 19 1.04077C 21.2 2.04077 23.4 2.94079 25.5 3.94079C 25.6 4.04079 25.5 4.34079 25.4 4.34079Z" transform="translate(30.9746 8.05066)" fill="#A4AB61"/>
</g>
</g>
<g id="Group_5">
<g id="Vector_4">
<path d="M 22.775 0.430687C 19.075 0.930687 15.275 1.03069 11.475 1.43069C 9.475 1.63069 7.47499 1.9307 5.37499 2.1307C 3.57499 2.3307 1.775 2.73069 0.0749985 2.03069C -0.0250015 2.03069 -0.0250015 1.83068 0.0749985 1.83068C 3.575 1.63068 7.07501 1.23068 10.575 0.830681C 14.575 0.330681 18.675 -0.269301 22.675 0.130699C 22.875 0.230699 22.975 0.430687 22.775 0.430687Z" transform="translate(33 11.8607)" fill="#A4AB61"/>
</g>
</g>
<g id="Group_6">
<g id="Vector_5">
<path d="M 0.149998 0.160051C 3.65 0.0600511 7.35 -0.439924 10.65 1.06008C 14.05 2.66008 15.55 6.26005 18.05 8.66005C 18.05 8.66005 18.05 8.76006 17.95 8.76006C 15.55 6.86006 14.05 3.96006 11.45 2.26006C 8.25 0.0600572 3.85 0.460063 0.149998 0.360063C -0.0500015 0.360063 -0.0500015 0.160051 0.149998 0.160051Z" transform="translate(17.4238 13.9313)" fill="#A4AB61"/>
</g>
</g>
<g id="Group_7">
<g id="Vector_6">
<path d="M 0.2 0.0157403C 7.6 -0.38426 11.9 6.91575 13.1 13.2158C 13.1 13.4158 13 13.7158 12.7 13.7158C 9.3 13.3158 6.3 12.4157 3.9 9.91573C 1.5 7.41573 0.500002 3.61573 0.100002 0.315728C 0.100002 0.215728 0.2 0.215753 0.2 0.215753C 1.1 1.11575 1.2 2.41575 1.5 3.61575C 1.9 5.21575 2.6 6.71575 3.5 8.11575C 5.5 11.1157 9.09999 12.7157 12.6 12.9157C 12.5 13.1157 12.4 13.2157 12.2 13.4157C 11.4 10.3157 10.6 7.41573 8.7 4.81573C 6.5 1.81573 3.5 0.815753 3.05176e-06 0.215753C 3.05176e-06 0.215753 0.1 0.0157403 0.2 0.0157403Z" transform="translate(28.2734 15.2756)" fill="#A4AB61"/>
</g>
</g>
<g id="Group_8">
<g id="Vector_7">
<path d="M 10.4 11.2445C 8.3 10.9445 6.79999 8.24445 5.49999 6.74445C 3.59999 4.54445 1.8 2.34444 1.52588e-06 0.0444383C 1.52588e-06 0.0444383 0 -0.0555617 0.1 0.0444383C 1.8 2.04444 3.8 3.64445 5.4 5.74445C 7 7.64445 8.79999 9.34444 10.5 11.1444C 10.6 11.1444 10.5 11.2445 10.4 11.2445Z" transform="translate(30.375 17.147)" fill="#A4AB61"/>
</g>
</g>
<g id="Group_9">
<g id="Vector_8">
<path d="M 0.085574 6.42801C 2.08557 5.32801 4.28558 5.12799 6.28558 4.02799C 8.18558 2.92799 9.78557 1.32799 11.5856 0.0279878C 11.6856 -0.0720122 11.7856 0.127994 11.6856 0.127994C 8.58557 3.92799 4.88557 5.728 0.185572 6.728C 0.0855725 6.828 -0.114426 6.52801 0.085574 6.42801Z" transform="translate(18.4883 7.56342)" fill="#A4AB61"/>
</g>
</g>
<g id="Group_10">
<g id="Vector_9">
<path d="M 0.754505 10.6365C 2.25451 10.4365 3.75451 10.4365 5.15451 10.2365C 7.25451 9.83652 9.15451 8.53654 10.5545 7.03654C 11.6545 5.83654 12.4545 4.43651 13.2545 3.13651C 13.6545 2.53651 14.0545 1.93653 14.5545 1.43653C 14.7545 1.23653 15.7545 0.536511 15.3545 0.636511C 11.2545 1.03651 7.35451 0.636535 4.25451 4.03654C 3.15451 5.33654 2.55451 7.03654 1.95451 8.53654C 1.55451 9.53654 1.35451 10.5365 0.45451 11.1365C 0.25451 11.2365 -0.145492 10.9365 0.0545085 10.7365C 0.954508 9.43652 1.25451 7.53651 1.95451 6.13651C 2.65451 4.63651 3.55451 3.33652 4.85451 2.23652C 8.05451 -0.463483 12.3545 0.0365352 16.2545 0.0365352C 16.4545 0.0365352 16.5545 0.336529 16.4545 0.436529C 14.0545 3.13653 12.7545 6.63654 9.95451 9.03654C 7.35451 11.2365 4.05451 11.6365 0.854512 11.2365C 0.554512 11.0365 0.554505 10.6365 0.754505 10.6365Z" transform="translate(23.4199 1.4549)" fill="#A4AB61"/>
</g>
</g>
<g id="Group_11">
<g id="Vector_10">
<path d="M 0.075 11.3C 3.875 9.89999 6.475 6.9 9.575 4.5C 11.975 2.7 14.875 0.1 17.975 0L 17.975 0.100006C 11.075 2.50001 6.875 8.9 0.075 11.5C -0.025 11.6 -0.025 11.3 0.075 11.3Z" transform="translate(21.3984 1.79138)" fill="#A4AB61"/>
</g>
</g>
<g id="Group_12">
<g id="Vector_11">
<path d="M 0.150002 -6.10352e-06C 4.15 0.0999939 7.45 4.09999 9.55 6.99999C 9.55 7.09999 9.55 7.2 9.45 7.1C 7.95 6.1 6.95 4.69999 5.65 3.39999C 4.05 1.79999 2.25 0.900006 0.150002 0.200006C -0.0499985 0.200006 -0.0499985 -6.10352e-06 0.150002 -6.10352e-06Z" transform="translate(9.72461 13.6914)" fill="#A4AB61"/>
</g>
</g>
<g id="Group_13">
<g id="Vector_12">
<path d="M 0.34463 0.175012C 8.04463 -0.624988 11.7446 8.27501 11.9446 14.675C 11.9446 14.875 11.7446 14.975 11.6446 14.975C 8.34462 14.675 5.14462 13.075 2.64462 10.875C -0.555375 7.97499 0.0446266 3.87501 0.0446266 0.0750061C 0.0446266 -0.0249939 0.144631 -0.0249939 0.244631 0.0750061C 0.944631 1.07501 0.844631 2.07499 0.744631 3.27499C 0.644631 5.77499 1.34463 8.075 2.84463 9.975C 3.74463 11.175 5.24463 11.975 6.64463 12.675C 7.54463 13.175 8.54463 13.575 9.54463 13.875C 10.2446 14.075 11.3446 14.675 11.2446 13.575C 11.0446 10.575 10.1446 7.57501 8.54463 5.07501C 6.64463 2.07501 3.74463 0.775 0.34463 0.475C 0.14463 0.475 0.14463 0.175012 0.34463 0.175012Z" transform="translate(13.5293 14.8164)" fill="#A4AB61"/>
</g>
</g>
<g id="Group_14">
<g id="Vector_13">
<path d="M 8.5 12.2C 7 10.3 5.8 8.00001 4.5 5.90001C 3.2 3.80001 1.4 2.19999 1.52588e-06 0.0999878C 1.52588e-06 -1.22115e-05 0.1 1.2207e-05 0.1 1.2207e-05C 1.6 1.60001 3.3 3.00001 4.7 4.90001C 6.3 7.10001 7.6 9.60001 8.7 12C 8.7 12.2 8.6 12.3 8.5 12.2Z" transform="translate(16.375 17.4915)" fill="#A4AB61"/>
</g>
</g>
<g id="Group_15">
<g id="Vector_14">
<path d="M 0.109015 4.39999C 2.90902 3.09999 5.40901 1.39999 8.20901 -6.10352e-06C 8.30901 -6.10352e-06 8.40902 0.1 8.30902 0.1C 5.90902 2 3.30901 4.1 0.209014 4.6C 0.00901394 4.6 -0.0909845 4.39999 0.109015 4.39999Z" transform="translate(4.96484 9.69141)" fill="#A4AB61"/>
</g>
</g>
<g id="Group_16">
<g id="Vector_15">
<path d="M 0.800002 12.4914C 4.3 11.9914 7.5 11.1914 10.2 8.7914C 12.8 6.5914 14 3.39141 16.1 0.891411C 16 1.09141 11.6 0.791405 11 0.791405C 8.2 0.991405 5.6 1.9914 3.9 4.2914C 2.2 6.6914 2.6 10.8914 0.200003 12.7914C 0.100003 12.8914 -1.52588e-06 12.7914 -1.52588e-06 12.6914C 1.3 9.1914 1.4 5.19142 4.2 2.49142C 7.3 -0.508583 12.8 -0.208589 16.7 0.391411C 16.8 0.391411 16.9 0.591398 16.8 0.691398C 14.8 3.7914 13.2 7.2914 10.4 9.7914C 7.8 12.0914 4.2 13.0914 0.800002 12.6914C 0.800002 12.6914 0.700002 12.4914 0.800002 12.4914Z" transform="translate(8.07422 0)" fill="#A4AB61"/>
</g>
</g>
<g id="Group_17">
<g id="Vector_16">
<path d="M 0.039232 12.2C 3.13923 10 6.23923 8 9.13923 5.5C 11.3392 3.6 13.8392 0.8 16.6392 0C 16.7392 0 16.7392 0.100006 16.7392 0.100006C 14.3392 2.40001 11.4392 4.4 8.93923 6.5C 7.63923 7.6 6.33923 8.70001 5.03923 9.70001C 3.53923 10.8 1.83923 11.4 0.239229 12.4C 0.039229 12.5 -0.060768 12.3 0.039232 12.2Z" transform="translate(7.83594 0.791382)" fill="#A4AB61"/>
</g>
</g>
</g>
</g>
</svg>

