<svg viewBox="0 0 57 30" version="1.1" xmlns="http://www.w3.org/2000/svg" xmlns:xlink="http://www.w3.org/1999/xlink">
<g id="Canvas" fill="none">
<g id="Group">
<g id="Group_2">
<g id="Vector">
<path d="M 0.150001 0.631994C 6.15 1.13199 12.25 1.03199 18.25 1.03199C 24.35 1.03199 30.35 1.032 36.45 0.732C 36.65 0.732 36.65 0.332006 36.45 0.332006C 30.35 0.0320061 24.35 0.0319878 18.25 0.0319878C 12.25 0.0319878 6.15 -0.167988 0.150001 0.432012C -0.0499992 0.432012 -0.0499992 0.631994 0.150001 0.631994Z" transform="translate(20.0254 13.5594)" fill="#A4AB61"/>
</g>
</g>
<g id="Group_3">
<g id="Vector_2">
<path d="M 24.275 2.04146C 19.475 1.44146 15.675 5.44143 10.775 4.64143C 8.575 4.24143 6.575 3.04145 4.675 1.94145C 3.175 1.14145 1.875 -0.258541 0.0750004 0.0414592C -0.0249996 0.0414592 -0.0249996 0.141441 0.0750004 0.241441C 3.575 2.24144 7.075 5.04143 11.175 5.64143C 15.875 6.34143 19.675 2.84145 24.275 2.44145C 24.575 2.44145 24.575 2.04146 24.275 2.04146Z" transform="translate(0 11.95)" fill="#A4AB61"/>
</g>
</g>
<g id="Group_4">
<g id="Vector_3">
<path d="M 0.141422 4.34079C 2.04142 4.44079 3.84142 3.54077 5.44142 2.64077C 7.94142 1.34077 10.2414 0.640769 13.0414 1.54077C 15.4414 2.24077 17.4414 4.04078 19.6414 5.24078C 21.6414 6.24078 23.4414 6.24079 25.5414 5.94079L 25.5414 5.84079C 22.9414 5.44079 20.7414 4.74079 18.5414 3.34079C 16.4414 2.04079 14.5414 0.640775 12.0414 0.140775C 10.1414 -0.259225 8.24142 0.240769 6.54142 1.04077C 4.34142 2.04077 2.14142 2.94079 0.0414214 3.94079C -0.0585786 4.04079 0.0414217 4.34079 0.141422 4.34079Z" transform="translate(0.433594 8.05066)" fill="#A4AB61"/>
</g>
</g>
<g id="Group_5">
<g id="Vector_4">
<path d="M 0.109018 0.430687C 3.80902 0.930687 7.60902 1.03069 11.409 1.43069C 13.409 1.63069 15.409 1.9307 17.509 2.1307C 19.309 2.3307 21.109 2.73069 22.809 2.03069C 22.909 2.03069 22.909 1.83068 22.809 1.83068C 19.309 1.63068 15.809 1.23068 12.309 0.830681C 8.30902 0.330681 4.20902 -0.269301 0.209016 0.130699C 0.00901623 0.230699 -0.0909822 0.430687 0.109018 0.430687Z" transform="translate(1.06641 11.8607)" fill="#A4AB61"/>
</g>
</g>
<g id="Group_6">
<g id="Vector_5">
<path d="M 17.9 0.160051C 14.4 0.0600511 10.7 -0.439924 7.4 1.06008C 4 2.66008 2.5 6.26005 0 8.66005C 0 8.66005 -1.52737e-06 8.76006 0.0999985 8.76006C 2.5 6.86006 4 3.96006 6.6 2.26006C 9.8 0.0600572 14.2 0.460063 17.9 0.360063C 18.1 0.360063 18.1 0.160051 17.9 0.160051Z" transform="translate(21.4746 13.9313)" fill="#A4AB61"/>
</g>
</g>
<g id="Group_7">
<g id="Vector_6">
<path d="M 12.9 0.0157403C 5.5 -0.38426 1.2 6.91575 -1.52588e-06 13.2158C -1.52588e-06 13.4158 0.1 13.7158 0.4 13.7158C 3.8 13.3158 6.8 12.4157 9.2 9.91573C 11.6 7.41573 12.6 3.61573 13 0.315728C 13 0.215728 12.9 0.215753 12.9 0.215753C 12 1.11575 11.9 2.41575 11.6 3.61575C 11.2 5.21575 10.5 6.71575 9.6 8.11575C 7.6 11.1157 4 12.7157 0.499998 12.9157C 0.599998 13.1157 0.8 13.2157 0.9 13.4157C 1.7 10.3157 2.5 7.41573 4.4 4.81573C 6.6 1.81573 9.6 0.815753 13.1 0.215753C 13.1 0.215753 13.1 0.0157403 12.9 0.0157403Z" transform="translate(15.5742 15.2756)" fill="#A4AB61"/>
</g>
</g>
<g id="Group_8">
<g id="Vector_7">
<path d="M 0.141422 11.2445C 2.24142 10.9445 3.74142 8.24445 5.04142 6.74445C 6.94142 4.54445 8.74142 2.34444 10.5414 0.0444383C 10.5414 0.0444383 10.5414 -0.0555617 10.4414 0.0444383C 8.74142 2.04444 6.74142 3.64445 5.14142 5.74445C 3.54142 7.64445 1.74142 9.34444 0.0414198 11.1444C -0.0585802 11.1444 0.0414221 11.2445 0.141422 11.2445Z" transform="translate(16.0332 17.147)" fill="#A4AB61"/>
</g>
</g>
<g id="Group_9">
<g id="Vector_8">
<path d="M 11.6414 6.42801C 9.64142 5.32801 7.44142 5.12799 5.44142 4.02799C 3.54142 2.92799 1.94142 1.32799 0.141423 0.0279878C 0.0414229 -0.0720122 -0.0585794 0.127994 0.0414206 0.127994C 3.14142 3.92799 6.84142 5.728 11.5414 6.728C 11.7414 6.828 11.8414 6.52801 11.6414 6.42801Z" transform="translate(26.7344 7.56342)" fill="#A4AB61"/>
</g>
</g>
<g id="Group_10">
<g id="Vector_9">
<path d="M 15.7392 10.6365C 14.2392 10.4365 12.7392 10.4365 11.3392 10.2365C 9.23923 9.83652 7.33923 8.53654 5.93923 7.03654C 4.83923 5.83654 4.03923 4.43651 3.23923 3.13651C 2.83923 2.53651 2.43923 1.93653 1.93923 1.43653C 1.73923 1.23653 0.739231 0.536511 1.13923 0.636511C 5.23923 1.03651 9.13923 0.636535 12.2392 4.03654C 13.3392 5.33654 13.9392 7.03654 14.5392 8.53654C 14.9392 9.53654 15.1392 10.5365 16.0392 11.1365C 16.2392 11.2365 16.6392 10.9365 16.4392 10.7365C 15.5392 9.43652 15.2392 7.53651 14.5392 6.13651C 13.8392 4.63651 12.9392 3.33652 11.6392 2.23652C 8.43923 -0.463483 4.13923 0.0365352 0.23923 0.0365352C 0.0392297 0.0365352 -0.060771 0.336529 0.039229 0.436529C 2.43923 3.13653 3.73923 6.63654 6.53923 9.03654C 9.13923 11.2365 12.4392 11.6365 15.6392 11.2365C 15.9392 11.0365 15.9392 10.6365 15.7392 10.6365Z" transform="translate(17.0352 1.4549)" fill="#A4AB61"/>
</g>
</g>
<g id="Group_11">
<g id="Vector_10">
<path d="M 17.9 11.3C 14.1 9.89999 11.5 6.9 8.4 4.5C 6 2.7 3.1 0.1 -1.52588e-06 0L -1.52588e-06 0.100006C 6.9 2.50001 11.1 8.9 17.9 11.5C 18 11.6 18 11.3 17.9 11.3Z" transform="translate(17.5742 1.79138)" fill="#A4AB61"/>
</g>
</g>
<g id="Group_12">
<g id="Vector_11">
<path d="M 9.4 -6.10352e-06C 5.4 0.0999939 2.1 4.09999 3.05176e-06 6.99999C 3.05176e-06 7.09999 1.52737e-06 7.2 0.100002 7.1C 1.6 6.1 2.6 4.69999 3.9 3.39999C 5.5 1.79999 7.3 0.900006 9.4 0.200006C 9.5 0.200006 9.5 -6.10352e-06 9.4 -6.10352e-06Z" transform="translate(37.7754 13.6914)" fill="#A4AB61"/>
</g>
</g>
<g id="Group_13">
<g id="Vector_12">
<path d="M 11.6 0.175012C 3.9 -0.624988 0.2 8.27501 0 14.675C 0 14.875 0.199999 14.975 0.299999 14.975C 3.6 14.675 6.8 13.075 9.3 10.875C 12.5 7.97499 11.9 3.87501 11.9 0.0750061C 11.9 -0.0249939 11.8 -0.0249939 11.7 0.0750061C 11 1.07501 11.1 2.07499 11.2 3.27499C 11.3 5.77499 10.6 8.075 9.1 9.975C 8.2 11.175 6.7 11.975 5.3 12.675C 4.4 13.175 3.4 13.575 2.4 13.875C 1.7 14.075 0.600001 14.675 0.700001 13.575C 0.900001 10.575 1.8 7.57501 3.4 5.07501C 5.3 2.07501 8.2 0.775 11.6 0.475C 11.8 0.475 11.8 0.175012 11.6 0.175012Z" transform="translate(31.4746 14.8164)" fill="#A4AB61"/>
</g>
</g>
<g id="Group_14">
<g id="Vector_13">
<path d="M 0.199998 12.2C 1.7 10.3 2.9 8.00001 4.2 5.90001C 5.5 3.80001 7.3 2.19999 8.7 0.0999878C 8.7 -1.22115e-05 8.6 1.2207e-05 8.6 1.2207e-05C 7.1 1.60001 5.4 3.00001 4 4.90001C 2.4 7.10001 1.1 9.60001 1.52588e-06 12C 1.52588e-06 12.2 0.199998 12.3 0.199998 12.2Z" transform="translate(31.875 17.4915)" fill="#A4AB61"/>
</g>
</g>
<g id="Group_15">
<g id="Vector_14">
<path d="M 8.24142 4.39999C 5.44142 3.09999 2.94142 1.39999 0.141423 -6.10352e-06C 0.0414229 -6.10352e-06 -0.0585756 0.1 0.0414244 0.1C 2.44142 2 5.04142 4.1 8.14142 4.6C 8.24142 4.6 8.34142 4.39999 8.24142 4.39999Z" transform="translate(43.7344 9.69141)" fill="#A4AB61"/>
</g>
</g>
<g id="Group_16">
<g id="Vector_15">
<path d="M 16.0414 12.4914C 12.5414 11.9914 9.34142 11.1914 6.64142 8.7914C 4.04142 6.5914 2.84142 3.39141 0.741421 0.891411C 0.841421 1.09141 5.24142 0.791405 5.84142 0.791405C 8.64142 0.991405 11.2414 1.9914 12.9414 4.2914C 14.6414 6.6914 14.2414 10.8914 16.6414 12.7914C 16.7414 12.8914 16.8414 12.7914 16.8414 12.6914C 15.5414 9.1914 15.4414 5.19142 12.6414 2.49142C 9.54142 -0.508583 4.04142 -0.208589 0.141422 0.391411C 0.0414221 0.391411 -0.0585802 0.591398 0.0414198 0.691398C 2.04142 3.7914 3.64142 7.2914 6.44142 9.7914C 9.04142 12.0914 12.6414 13.0914 16.0414 12.6914C 16.1414 12.6914 16.1414 12.4914 16.0414 12.4914Z" transform="translate(32.0332 0)" fill="#A4AB61"/>
</g>
</g>
<g id="Group_17">
<g id="Vector_16">
<path d="M 16.7 12.2C 13.6 10 10.5 8 7.6 5.5C 5.4 3.6 2.9 0.8 0.1 0C 0 0 1.52588e-06 0.100006 1.52588e-06 0.100006C 2.4 2.40001 5.3 4.4 7.8 6.5C 9.1 7.6 10.4 8.70001 11.7 9.70001C 13.2 10.8 14.9 11.4 16.5 12.4C 16.7 12.5 16.8 12.3 16.7 12.2Z" transform="translate(32.375 0.791382)" fill="#A4AB61"/>
</g>
</g>
</g>
</g>
</svg>

