<svg viewBox="0 0 16 32" version="1.1" xmlns="http://www.w3.org/2000/svg" xmlns:xlink="http://www.w3.org/1999/xlink">
<g id="Canvas" fill="none">
<g id="Vector">
<path d="M 13.8249 0.00657415L 10.3792 0C 6.50802 0 4.00632 3.05205 4.00632 7.7759L 4.00632 11.3611L 0.541805 11.3611C 0.24243 11.3611 -9.27961e-08 11.6497 -9.27961e-08 12.0057L -9.27961e-08 17.2003C -9.27961e-08 17.5563 0.242707 17.8445 0.541805 17.8445L 4.00632 17.8445L 4.00632 30.9521C 4.00632 31.3081 4.24875 31.5963 4.54812 31.5963L 9.06833 31.5963C 9.3677 31.5963 9.61013 31.3077 9.61013 30.9521L 9.61013 17.8445L 13.661 17.8445C 13.9603 17.8445 14.2028 17.5563 14.2028 17.2003L 14.2044 12.0057C 14.2044 11.8348 14.1472 11.6711 14.0457 11.5501C 13.9443 11.4292 13.8061 11.3611 13.6623 11.3611L 9.61013 11.3611L 9.61013 8.32188C 9.61013 6.86111 9.90287 6.11954 11.5031 6.11954L 13.8243 6.11856C 14.1234 6.11856 14.3659 5.82995 14.3659 5.47429L 14.3659 0.65084C 14.3659 0.295508 14.1237 0.00723156 13.8249 0.00657415Z" transform="translate(0.830078 0)" fill="#4F4F4F"/>
</g>
</g>
</svg>

