<svg width="330" height="255" viewBox="0 0 330 255" version="1.1" xmlns="http://www.w3.org/2000/svg" xmlns:xlink="http://www.w3.org/1999/xlink">
<g id="Canvas" fill="none">
<g id="&#208;&#186;&#209;&#128;&#208;&#184;&#208;&#178;&#209;&#139;&#208;&#181;2 &#208;&#189;&#208;&#190;&#208;&#178;">
<g id="Vector">
<path fill-rule="evenodd" clip-rule="evenodd" d="M 17.8718 162.478C 17.0686 162.919 8.95601 179.31 5.38967 186.46C 4.3776 188.504 2.69081 189.386 -4.90252e-06 189.779C 3.67075 182.068 10.4982 167.263 10.442 167.175L 15.1409 159.376C 28.105 135.594 44.6997 114.448 62.6358 94.2732C 67.1179 89.2314 71.6722 84.2457 76.1863 79.22C 76.7727 78.5707 77.3269 77.8894 77.4956 77.681C 76.6923 75.3885 75.9775 73.4968 75.1983 71.3407C 73.1742 71.3407 70.5396 71.6533 68.0255 71.2284C 66.4038 70.8443 64.9634 69.9162 63.9451 68.5993C 62.5234 66.7718 63.7202 63.9343 66.0817 62.9884C 67.3951 62.5543 68.737 62.2115 70.0978 61.9624L 63.921 53.5781C 62.5876 55.9828 60.8045 56.2153 58.4189 55.9828C 55.1176 55.6862 51.7601 56.1592 48.4187 56.1832C 46.8665 56.2231 45.3154 56.0723 43.8001 55.7343C 41.2619 55.1171 39.784 53.3297 39.9044 51.2857C 39.9547 50.2252 40.4048 49.2228 41.1645 48.4795C 41.9242 47.7363 42.9374 47.3071 44.0009 47.2779C 46.7107 47.1891 49.4218 47.4096 52.0814 47.9352C 53.961 48.2558 55.7441 49.1295 57.5916 49.6906C 58.412 49.8868 59.2435 50.034 60.0816 50.1314L 60.3466 49.5944C 57.5353 47.2378 54.8043 44.7851 51.8806 42.5487C 49.0854 40.4406 46.0893 38.6051 43.4949 36.2565C 56.1056 41.9636 65.2062 51.5823 72.6923 63.1968C 73.0939 62.5556 73.2545 62.3953 73.2224 62.3392C 69.4392 53.0571 65.3668 43.9033 58.2743 36.5771C 56.8607 35.3171 55.2557 34.289 53.5192 33.5312C 51.5593 32.5132 49.4388 31.8078 47.4789 30.7899C 46.6733 30.3914 46.0583 29.6913 45.768 28.8421C 45.3262 26.4935 43.3583 26.1168 41.7519 25.6359C 38.314 24.5457 34.7638 23.7923 31.3099 22.7823C 29.8122 22.3788 28.377 21.7719 27.0447 20.9788C 25.1652 19.8085 24.8037 17.8367 25.374 15.8649C 25.5757 14.9364 26.1258 14.1201 26.9114 13.5835C 27.6971 13.047 28.6587 12.8307 29.599 12.9792C 31.5411 13.2903 33.409 13.956 35.1092 14.9431C 37.5188 16.3618 39.6876 18.1974 41.9768 19.8246C 43.4065 20.8425 43.6796 21.7804 43.1736 24.4175L 45.1254 25.2992C 48.0331 22.6941 50.4508 22.4617 53.6316 24.8744C 56.5152 27.0626 59.2542 29.4753 61.937 31.904C 63.5435 33.3789 63.0294 35.1103 60.5635 36.5771C 67.4472 44.5927 71.5035 54.1633 75.5196 63.7659L 76.3229 63.4694C 74.8288 57.7783 73.7606 51.943 71.7364 46.4523C 69.2223 39.591 65.8889 33.0342 62.9973 26.3092C 62.6469 25.3205 62.5233 24.2659 62.6358 23.2232C 62.6358 22.9426 63.5836 22.646 64.1379 22.4937C 64.6128 22.3908 65.1022 22.3718 65.5837 22.4376C 66.1207 22.4547 66.6462 22.5975 67.1179 22.8544C 67.2108 23.0327 67.2593 23.2306 67.2593 23.4316C 67.2593 23.6325 67.2108 23.8305 67.1179 24.0087C 66.6356 24.2301 66.1052 24.3266 65.5756 24.2892C 65.3427 24.2892 65.1017 24.0087 64.5234 23.632C 64.5234 24.4896 64.3226 25.1629 64.5234 25.5878C 71.126 37.4268 75.1903 50.1314 77.6723 63.3892C 77.6723 63.4373 77.7767 63.4694 78.0016 63.6217C 78.0016 62.0185 78.0016 60.5597 78.0016 59.0848C 77.8088 46.6046 76.861 34.2366 73.4875 22.133C 72.935 20.6547 72.0211 19.3377 70.8288 18.3016C 69.3107 16.7947 67.4311 15.6565 65.8728 14.1816C 63.5595 11.9933 63.3427 9.01154 65.1499 7.0397C 66.9572 5.06787 69.9051 5.09994 72.2746 7.40041C 73.3184 8.54472 74.2094 9.8191 74.9252 11.1918C 76.1863 13.2678 77.3349 15.424 78.5478 17.5241C 79.8731 19.7765 79.0056 21.3555 75.5518 22.6861C 76.1783 25.9885 77.102 29.291 77.3831 32.6495C 78.2426 42.7571 78.845 52.8808 79.584 63.0045C 79.7221 63.7931 79.9373 64.5663 80.2265 65.313L 81.1342 65.1607C 81.3671 60.5918 81.7206 56.0309 81.7929 51.462C 81.9053 44.6488 81.9696 37.8356 81.7527 31.0063C 81.6161 26.6618 80.9495 22.3334 80.5478 17.997C 80.4354 16.6825 80.2667 15.1996 80.7567 14.0614C 81.2467 12.9231 82.4515 11.6968 83.4636 11.5845C 84.4756 11.4723 86.2347 12.5464 86.5078 13.4522C 87.0718 15.4907 87.265 17.6137 87.0781 19.7204C 86.8624 22.158 86.4323 24.5719 85.7929 26.9344C 85.3837 27.996 84.8584 29.0094 84.2266 29.9562C 83.9692 30.3594 83.802 30.8133 83.7367 31.2868C 83.56 39.8902 83.4047 48.4883 83.2708 57.081C 83.2708 57.2813 83.335 57.4897 83.7367 57.7543C 85.1985 49.6906 86.7488 41.643 88.0902 33.5633C 89.046 27.792 89.8171 21.9888 90.4999 16.1775C 90.781 13.6926 90.4999 11.1597 90.5722 8.65084C 90.5094 6.74352 90.6088 4.83432 90.8693 2.94376C 91.0006 2.07973 91.4544 1.29717 92.1396 0.753062C 92.8249 0.208955 93.691 -0.0564596 94.5642 0.0100531C 94.9833 0.000390411 95.3998 0.077662 95.7874 0.236971C 96.175 0.39628 96.5252 0.634156 96.8159 0.935545C 97.1066 1.23693 97.3314 1.59527 97.4761 1.98786C 97.6208 2.38045 97.6823 2.79876 97.6566 3.21628C 97.6381 5.10558 97.4118 6.98714 96.9819 8.82719C 96.5571 10.7694 96.0207 12.6856 95.3755 14.5663C 95.1345 15.3038 94.7489 16.3378 94.1786 16.5462C 92.4597 17.1554 92.5722 18.5421 92.3151 19.8646C 89.959 32.743 87.6029 45.624 85.2467 58.5077C 85.1905 58.7803 85.1905 59.0688 85.1182 59.8383C 85.56 59.0368 85.9214 58.6921 85.9214 58.3234C 86.05 54.3156 89.1906 51.3739 89.8894 47.5745C 90.1143 46.3561 89.9537 45.0816 90.0902 43.8472C 90.1045 43.2074 90.3305 42.5902 90.7328 42.0918C 93.3192 39.6872 93.5361 36.4809 93.7288 33.3148C 93.7286 32.6679 93.7986 32.0229 93.9377 31.391C 94.6686 28.7699 95.4317 26.1488 96.251 23.5518C 96.6767 22.2212 96.9739 20.7223 97.8092 19.6883C 98.492 18.8867 100.026 18.0291 100.95 18.2375C 101.874 18.4459 103.472 19.8406 103.472 20.7704C 103.526 22.8037 103.053 24.8164 102.098 26.6138C 100.364 29.5555 97.753 32.0082 96.0984 34.99C 94.7971 37.3306 94.3714 40.1521 93.6003 42.7731C 93.3192 43.7029 93.1425 44.6648 92.9658 45.4263C 96.2831 45.25 98.01 42.725 99.7691 39.9917C 103.368 34.3808 107.167 28.8982 110.942 23.3995C 111.693 22.2253 112.029 20.8345 111.898 19.4478C 111.898 16.8748 112.878 14.2537 113.689 11.7368C 114.086 10.3275 114.848 9.04748 115.898 8.02563C 116.403 7.66484 116.98 7.41658 117.59 7.29765C 118.2 7.17872 118.828 7.1919 119.432 7.33629C 120.974 7.80119 121.288 9.52454 120.725 10.8952C 120.011 12.6506 118.822 14.2056 117.954 15.913C 117.468 17.0013 117.039 18.1143 116.669 19.2474C 116.509 19.8081 116.28 20.3466 115.986 20.8505C 111.97 26.3172 107.882 31.7517 103.85 37.2184C 102.709 38.7654 101.633 40.3765 100.637 42.0277C 99.6406 43.6789 98.4197 45.1458 98.6285 47.5825C 98.7651 49.1295 97.1185 51.3739 95.6405 52.3918C 92.9256 54.2354 91.2388 56.6962 89.6725 59.3814C 88.089 61.9932 86.6569 64.6936 85.3833 67.4691C 85.817 67.0603 86.2749 66.6676 86.6925 66.2347C 94.0555 58.7108 101.416 51.1788 108.773 43.6388C 110.934 41.4185 112.99 39.102 115.135 36.8657C 115.963 35.9241 116.898 35.0821 117.922 34.3568C 119.617 33.2587 121.4 33.3629 122.741 34.9499C 123.314 35.6058 123.626 36.4483 123.619 37.3181C 123.611 38.188 123.285 39.0251 122.701 39.6711C 121.884 40.6194 120.888 41.3983 119.77 41.9636C 117.764 43.078 115.69 44.0659 113.561 44.9213C 112.645 45.274 111.52 45.0897 110.251 45.1618L 89.4476 65.4412C 89.5922 65.6095 89.7368 65.7698 89.8733 65.9382C 102.315 56.5118 115.946 49.1054 129.432 41.8353C 129.874 40.8494 130.075 39.4868 130.838 38.9818C 131.384 38.6211 132.685 39.5669 133.657 39.5829C 134.366 39.4898 135.016 39.1387 135.481 38.597C 136.155 37.8917 136.557 36.9378 137.208 36.1924C 138.372 34.8698 139.617 33.5873 140.87 32.3529C 142.21 30.8812 143.687 29.5393 145.28 28.3451C 147.063 27.1748 149.047 27.5435 150.557 29.1467C 151.224 29.7687 151.636 30.6148 151.715 31.522C 151.793 32.4292 151.533 33.3333 150.983 34.0602C 149.878 35.5105 148.497 36.7282 146.919 37.6432C 144.59 38.9334 142.193 40.0974 139.738 41.13C 139.16 41.3945 138.228 41.7552 137.874 41.4987C 136.155 40.2723 134.935 41.4987 133.617 42.164C 128.846 44.3682 124.26 46.7729 119.561 49.1776C 122.605 51.3979 122.645 51.6785 120.436 56.079C 122.372 55.2294 124.067 54.3396 125.858 53.7545C 126.736 53.5447 127.66 53.6408 128.477 54.027C 128.645 54.3049 128.748 54.6176 128.778 54.9413C 128.807 55.265 128.762 55.5911 128.645 55.8946C 127.876 56.2585 127.045 56.4759 126.195 56.5359C 125.626 56.5629 125.061 56.6461 124.509 56.7844C 113.767 61.4655 103.033 66.1679 92.3071 70.8918C 91.7958 71.2225 91.2343 71.4688 90.6444 71.6212L 136.902 63.9503C 136.686 62.9304 136.576 61.8908 136.573 60.8483C 137.192 60.5207 137.891 60.3761 138.589 60.4315C 139.034 61.5157 139.373 62.6405 139.601 63.79L 144.846 62.5636C 145.128 62.4995 145.65 62.3873 145.65 62.275C 145.826 59.0688 148.782 59.4295 150.63 58.3875C 151.859 57.6982 153.104 57.0248 154.381 56.4237C 157.634 54.8847 159.754 55.5019 160.807 58.2432C 161.995 61.3853 160.437 64.7438 157.329 65.4572C 156.237 65.6631 155.12 65.6929 154.019 65.5454C 151.248 65.2809 148.485 64.6236 145.73 64.6797C 143.168 64.7278 140.629 65.4813 138.075 65.9542C 124.26 68.3589 110.436 70.6513 96.6365 73.1682C 93.4236 73.7533 90.2107 74.8916 86.5962 75.8855L 110.267 74.4026C 110.34 73.8335 110.211 72.9839 110.565 72.4548C 111.017 71.5987 111.752 70.9248 112.645 70.5471C 114.538 70.2423 116.448 70.047 118.364 69.962C 122.573 69.5211 123.617 70.3227 124.308 74.6912C 127.617 75.637 130.549 73.8014 133.633 73.2003C 135.874 72.7594 138.003 71.7735 140.236 71.2525C 143.087 70.5952 145.409 71.9498 146.011 74.3946C 146.613 76.8393 144.975 79.2039 142.156 79.6929C 140.467 79.8803 138.765 79.9072 137.071 79.7731C 134.878 79.7731 132.677 79.773 130.477 79.6688C 129.89 79.7061 129.312 79.5101 128.87 79.1238C 126.95 76.4546 124.404 77.7451 122.035 77.9295C 120.814 78.0256 119.504 78.5226 118.38 78.2501C 111.151 76.4947 103.922 77.681 96.6927 77.9936C 96.251 77.9936 95.8413 78.7952 95.0863 79.5165C 100.355 80.6227 105.087 81.4643 109.745 82.6186C 116.292 84.2217 122.79 86.0893 129.304 87.8848C 130.469 88.2054 131.449 88.5661 132.517 87.452C 132.983 86.963 134.188 86.8989 134.983 87.0432C 138.196 87.6524 141.409 88.4699 144.621 89.1192C 146.622 89.52 148.71 89.6963 149.296 92.1571C 149.5 93.0302 149.438 93.944 149.119 94.782C 148.8 95.62 148.238 96.3442 147.505 96.8622C 145.842 98.2249 143.561 98.2008 141.481 96.8622C 139.4 95.5236 137.633 93.656 135.408 92.8545C 128.179 90.2173 120.862 87.7485 113.448 85.6404C 107.97 84.0854 102.291 83.2358 96.7008 82.0575C 96.0935 81.9797 95.4817 81.9422 94.8694 81.9453C 94.8052 82.1457 94.7409 82.346 94.6686 82.5384C 95.1586 82.835 95.6405 83.1556 96.1466 83.4201C 103.801 87.3478 111.448 91.2914 119.135 95.1469C 120.046 95.4489 121.003 95.5872 121.962 95.5557C 122.324 95.5958 122.717 95.3954 123.063 95.4675C 126.276 96.1489 129.424 96.8222 132.589 97.5917C 134.501 98.0646 135.738 99.2589 135.722 101.359C 135.68 102.367 135.306 103.334 134.658 104.109C 134.011 104.884 133.126 105.425 132.139 105.647C 129.93 106.136 128.059 105.383 126.332 104.044C 124.725 102.826 123.472 101.078 120.974 101.447C 120.517 101.511 119.778 99.9242 119.223 99.0425C 118.862 98.4814 118.741 97.5756 118.251 97.3191C 110.645 93.3113 102.99 89.3837 95.3433 85.4481C 94.8987 85.3385 94.4436 85.2767 93.9859 85.2637C 94.516 86.6344 94.6124 88.0451 95.3513 88.5982C 106.476 96.9584 115.729 107.186 124.758 117.647C 125.456 118.448 125.938 119.057 127.272 118.633C 128.878 118.112 129.786 119.17 129.963 120.933C 130.094 121.687 130.504 122.365 131.111 122.833C 132.059 123.522 133.232 123.891 134.252 124.492C 136.324 125.718 136.774 127.618 135.537 129.566C 134.147 131.746 131.465 132.62 129.866 130.952C 127.962 128.957 126.565 126.472 124.958 124.187C 124.878 124.075 124.798 123.867 124.854 123.771C 126.268 121.157 124.003 119.915 122.758 118.408C 114.798 108.789 106.404 99.5875 96.4839 91.9006C 95.753 91.3235 94.9819 90.7945 94.2268 90.2414L 93.7529 90.5941C 93.9666 91.2204 94.2354 91.8266 94.5562 92.4056C 98.6848 98.281 102.789 104.18 107.046 109.968C 107.729 110.898 109.111 111.314 110.163 111.964L 108.428 111.964C 110.211 115.672 111.951 119.303 113.649 122.857L 115.424 122.384C 113.818 119.033 112.259 115.731 110.685 112.429C 112.5 114.657 114.565 116.733 116.035 119.162C 116.907 120.864 117.364 122.748 117.368 124.66C 117.408 125.59 116.348 126.568 115.761 127.53C 114.854 126.993 113.625 126.664 113.119 125.879C 111.923 123.918 110.881 121.868 110.002 119.747C 105.942 110.535 100.563 101.959 94.0341 94.2893C 93.7725 94.0117 93.4877 93.7569 93.1826 93.5278L 91.1826 95.9324C 98.4117 108.669 101.689 122.632 103.054 137.349C 105.119 137.205 105.89 138.255 106.38 140.13C 106.91 142.166 108.107 144.026 108.998 145.974C 110.018 148.178 109.801 150.254 108.058 151.056C 106.61 151.664 105.014 151.828 103.472 151.528C 101.745 151.168 101.568 149.372 101.697 147.857C 102.428 139.633 101.054 131.586 99.5763 123.578C 97.9791 114.656 94.9638 106.046 90.6444 98.0726C 90.3754 97.5397 89.971 97.0864 89.4717 96.758C 90.4838 100.589 91.7288 104.365 92.4597 108.244C 93.52 113.919 94.2027 119.659 95.0542 125.374C 95.1425 125.951 95.0542 126.937 95.3513 127.057C 97.9618 128.147 97.0542 129.838 96.5642 131.778C 96.2269 133.141 96.8052 134.704 96.8534 136.187C 96.9016 137.67 96.5241 139.184 94.8935 139.834C 93.263 140.483 91.2951 140.467 90.1786 139.032C 89.3753 138.006 88.7006 136.018 89.1826 135.089C 90.4918 132.572 90.789 129.405 93.528 127.65C 93.8413 127.45 93.8574 126.584 93.8092 126.047C 92.9256 116.581 91.4718 107.218 88.2267 98.2329C 87.7955 97.4141 87.307 96.6266 86.7648 95.8763C 85.9616 94.4335 84.6122 92.9346 84.6604 91.4998C 84.7969 87.2997 82.3551 84.5022 80.1061 81.1517C 57.7843 104.621 36.6112 128.676 20.5386 157.3L 17.8718 162.478ZM 106.002 56.9126L 88.05 69.8498C 92.8694 68.1264 97.3755 65.9221 101.946 63.8782C 106.516 61.8342 111.111 59.9826 115.954 57.9386C 112.581 56.7764 109.279 59.3093 106.002 56.9126ZM 45.9046 52.4239C 50.0733 53.2816 54.1939 54.1072 58.2984 54.9889C 60.7643 55.5259 62.3145 55.069 62.6117 53.5781C 62.9089 52.0872 61.688 51.0532 59.0454 50.8609C 54.5875 50.5322 50.1135 50.3719 45.9046 50.1555L 45.9046 52.4239ZM 29.6874 18.2775C 32.3729 20.0526 35.1506 21.6847 38.0088 23.1671C 39.2217 23.7281 41.7519 23.7362 42.274 22.9987C 43.4145 21.3956 41.5189 20.554 40.2579 19.7925C 39.7469 19.5096 39.2087 19.2787 38.6514 19.1031C 35.8321 18.1092 33.0288 17.1313 30.3621 16.2095C 30.1131 16.987 29.8319 17.8287 29.6874 18.2775ZM 157.561 61.714C 157.361 60.8563 157.136 59.9505 157.023 59.4696C 154.276 59.678 151.553 59.7662 148.879 60.175C 148.389 60.2689 147.926 60.4719 147.525 60.7688C 147.125 61.0658 146.797 61.4492 146.565 61.8903C 145.939 63.798 147.465 65.0965 149.601 64.4553C 152.284 63.6778 154.903 62.6438 157.561 61.714ZM 138.517 41.162L 147.939 32.9621L 146.26 31.4391L 135.995 37.9558L 136.364 38.4768C 138.573 38.1722 138.838 38.4047 138.517 41.162ZM 132.22 78.5306L 141.81 76.6149C 141.601 75.8134 141.392 74.9637 141.264 74.4427C 137.633 74.4427 136.204 75.5168 132.372 75.5168C 133.111 76.9996 131.497 77.0798 132.22 78.5306ZM 54.8445 28.6497C 54.3144 29.1467 53.9449 29.339 53.8565 29.6196C 53.8125 29.7821 53.8063 29.9525 53.8384 30.1178C 53.8704 30.2831 53.9398 30.439 54.0413 30.5734C 55.7762 32.1766 57.5032 33.7797 59.3828 35.1664C 59.7275 35.2933 60.0991 35.3298 60.4619 35.2722C 60.8248 35.2147 61.1668 35.0651 61.4551 34.8377C 61.8326 34.3969 61.8888 32.9621 61.5595 32.7296C 59.4068 31.2628 57.1176 29.9963 54.8445 28.6497ZM 125.424 122.921C 125.866 126.688 130.179 126.704 131.89 129.333L 133.208 127.386C 131.979 126.023 130.942 124.772 129.802 123.65C 129.311 123.199 128.7 122.898 128.043 122.785C 127.168 122.746 126.291 122.791 125.424 122.921ZM 121.464 97.271C 121.376 97.4554 121.28 97.6398 121.191 97.8321C 122.113 98.6863 123.093 99.4763 124.123 100.197C 125.338 101.057 126.724 101.644 128.187 101.92C 129.175 102.177 130.123 102.601 131.079 102.954L 131.802 100.686C 128.581 99.0505 124.589 98.8742 121.464 97.271ZM 106.323 141.06C 102.757 142.238 102.789 142.23 103.914 145.461C 104.283 146.567 104.452 147.737 104.717 148.835L 107.022 148.835C 106.749 146.166 106.54 143.665 106.323 141.06ZM 73.3429 13.1075L 72.9332 13.356C 73.4714 15.3198 73.9453 17.3077 74.5879 19.2474C 74.7781 20.0421 75.2595 20.737 75.9373 21.1952C 76.3115 21.2084 76.6826 21.1236 77.0138 20.9492C 77.3449 20.7748 77.6246 20.517 77.8249 20.2013C 77.9526 19.7732 77.9893 19.3232 77.9326 18.8801C 77.8759 18.437 77.727 18.0106 77.4956 17.6283C 76.1901 16.0512 74.804 14.5422 73.3429 13.1075ZM 118.605 36.7534L 110.99 43.8072L 111.496 44.5125C 115.633 44.224 117.119 39.7032 120.051 38.4608L 118.605 36.7534ZM 99.3996 22.3254C 97.2252 25.6359 96.3926 29.6472 97.0703 33.5472C 98.425 29.9562 99.7879 26.3599 101.159 22.7582L 99.3996 22.3254ZM 85.2387 26.3332C 85.0861 22.8063 84.9335 19.4077 84.7809 15.9771L 82.821 16.2336C 83.56 25.6358 83.5599 25.6358 85.2387 26.2851L 85.2387 26.3332ZM 118.974 74.595C 118.806 73.9457 118.806 73.2243 118.573 73.1442C 116.582 72.3788 114.536 71.7651 112.452 71.3086C 112.075 71.2364 111.312 72.5751 110.982 73.3686C 110.902 73.553 111.85 74.5068 112.356 74.5389C 114.46 74.6271 116.597 74.5469 118.958 74.5469L 118.974 74.595ZM 107.48 56.8084C 111.119 58.5398 114.002 55.3015 117.585 55.2053C 116.075 53.1854 110.99 53.9869 107.464 56.7603L 107.48 56.8084ZM 93.1987 16.0572C 95.8976 13.3159 94.524 9.9173 94.5562 6.59886C 93.8439 6.90482 93.2436 7.42267 92.8373 8.08173C 91.1826 10.7028 93.5521 13.2838 93.1826 16.0091L 93.1987 16.0572ZM 93.5361 128.532L 92.4838 128.484C 92.1545 131.289 91.8332 134.095 91.4878 137.044L 94.4276 137.044C 94.1224 134.143 93.8574 131.353 93.5361 128.532ZM 116.693 10.1017L 113.239 16.3779L 115.545 16.8989L 118.035 10.9593L 116.693 10.1017ZM 69.1099 68.1184L 74.0256 68.5031C 73.4312 65.2969 70.8127 65.6736 68.7645 65.2969C 68.8689 66.2187 68.9572 67.0844 69.1099 68.1424L 69.1099 68.1184ZM 88.1303 55.9588L 88.8773 56.5199C 90.3606 54.1419 91.852 51.7666 93.3513 49.394L 92.6686 48.9532L 88.1303 55.9588ZM 144.975 95.7802C 145.36 94.177 145.561 93.3033 145.778 92.3655L 142.517 91.6842L 144.975 95.7802ZM 141.529 91.4117L 141.866 90.8987L 137.336 88.3737L 136.822 89.3276C 137.858 91.0189 139.995 90.6742 141.529 91.4357L 141.529 91.4117ZM 92.532 84.1976L 89.4878 83.1957L 89.1103 83.8369L 91.6726 86.0653C 92.0099 85.3358 92.2509 84.887 92.532 84.1976Z" transform="translate(49.3184 37.1904)" fill="white"/>
</g>
<g id="Vector_2">
<path fill-rule="evenodd" clip-rule="evenodd" d="M 13.0874 7.61269C 12.4769 9.0074 11.4006 11.7167 10.1154 14.3217C 8.83025 16.9268 7.37642 19.1952 6.05912 21.672C 5.25589 23.1549 4.37235 24.3172 2.45263 23.8362C 1.64517 23.5542 0.962114 22.9989 0.521966 22.2669C 0.0818184 21.5348 -0.0876466 20.6721 0.0429406 19.8284C 1.03091 15.0191 2.11526 10.2097 3.16749 5.36031C 3.23175 5.07175 3.33617 4.79121 3.42453 4.51066C 4.52495 1.30443 6.47679 -0.298688 8.93467 0.0459818C 11.3926 0.390652 13.0392 2.91556 13.0874 7.61269ZM 6.83825 6.0737C 6.17961 7.89323 5.5852 9.87307 4.74181 11.7407C 3.71368 14.0332 2.42853 16.2054 1.34417 18.4738C 0.47668 20.2853 0.934505 22.209 2.35622 22.7301C 4.34823 23.4595 4.95868 21.9285 5.56914 20.5418C 6.00927 19.5259 6.37176 18.4782 6.6535 17.4077C 7.63344 13.7927 8.55716 10.1937 9.4648 6.71495L 6.83825 6.0737Z" transform="translate(245.508 2.83179)" fill="white"/>
</g>
<g id="Vector_3">
<path fill-rule="evenodd" clip-rule="evenodd" d="M 18.1731 0.0712496C 18.6149 0.0712496 19.145 -0.0890619 19.4904 0.0712496C 20.655 0.696464 22.398 1.24153 22.7033 2.2034C 23.0085 3.16526 22.2213 5.09701 21.2976 5.73024C 18.3899 7.71811 15.1931 9.29717 12.1087 11.0366C 9.54638 12.4794 7.04835 14.0664 4.38966 15.3089C 3.36152 15.7898 1.57836 16.0062 0.855452 15.4371C 0.132546 14.868 -0.228903 12.9523 0.156647 11.9984C 2.18078 6.9406 12.7754 0.0712496 18.1731 0.0712496ZM 15.5144 3.53398C 13.2975 4.49585 10.7994 5.42566 8.45399 6.65204C 6.29114 7.74787 4.24114 9.05263 2.33339 10.5476C 0.349415 12.1507 0.020094 13.9703 1.25707 14.8439C 3.09646 16.1505 4.22902 14.6596 5.40173 13.5454C 5.44993 13.4973 5.51417 13.4492 5.56236 13.3931C 8.55841 9.80215 12.1007 6.98067 16.5184 5.95468L 15.5144 3.53398Z" transform="translate(267.906 43.814)" fill="white"/>
</g>
<g id="Vector_4">
<path fill-rule="evenodd" clip-rule="evenodd" d="M 6.29658 0.00178106C 7.71026 0.00178106 9.40507 1.39649 10.9071 3.11984C 12.7545 5.22794 14.618 7.31199 16.5297 9.39604C 17.1249 10.0139 17.4539 10.8397 17.4464 11.6967C 17.4389 12.5536 17.0954 13.3736 16.4896 13.9809C 15.2044 15.3356 13.8791 15.5841 12.1602 14.51C 10.4412 13.4359 8.4653 12.7225 6.62591 11.8087C 4.95346 11.071 3.34199 10.2026 1.80653 9.21167C -0.00876958 7.90513 -0.418421 5.56459 0.408905 3.39237C 1.23623 1.22015 3.0194 -0.054328 6.29658 0.00178106ZM 6.85081 7.4242C 8.51349 9.21969 10.2967 11.1835 12.128 13.1153C 13.2124 14.2455 14.4494 14.8546 15.7747 13.484C 17.1 12.1133 16.843 10.6946 15.3891 9.70062C 13.1401 8.17766 10.7625 6.84708 8.56168 5.50047L 6.85081 7.4242Z" transform="translate(88.123 37.3108)" fill="white"/>
</g>
<g id="Vector_5">
<path fill-rule="evenodd" clip-rule="evenodd" d="M 9.26377 11.1017C 9.42441 13.1617 9.57704 15.2137 9.75375 17.2737C 9.89833 18.8768 9.75375 20.4318 8.0991 21.2815C 7.72882 21.4614 7.32437 21.5605 6.91271 21.5722C 6.50106 21.5839 6.09164 21.508 5.71167 21.3495C 5.3317 21.191 4.98991 20.9536 4.70908 20.653C 4.42825 20.3524 4.2148 19.9956 4.08294 19.6062C 2.93432 16.2717 1.67326 12.9773 0.701353 9.59477C 0.145235 7.6336 -0.0827414 5.5943 0.0266308 3.55904C 0.155148 1.65935 1.5849 0.352814 3.52871 0.0642537C 4.37598 -0.0863932 5.24922 0.0293701 6.02769 0.395537C 6.80616 0.761704 7.45141 1.36019 7.8742 2.10823C 9.77785 4.86559 9.62522 7.97563 9.26377 11.1017ZM 6.17937 7.43858C 4.04278 7.81531 3.80984 8.96956 4.26768 10.6929C 4.44456 11.8572 4.51981 13.0345 4.49258 14.2117C 4.51969 15.8282 4.69989 17.4385 5.03076 19.0211C 5.2175 19.4118 5.50029 19.749 5.85281 20.0013C 6.20533 20.2536 6.61609 20.4127 7.04685 20.4639C 7.7055 20.4078 8.48464 19.4459 8.8461 18.7085C 9.06371 17.9975 9.04397 17.2351 8.78987 16.5363C 7.95451 13.4503 7.03883 10.3883 6.17937 7.43858Z" transform="translate(123.568 20.3354)" fill="white"/>
</g>
<g id="Vector_6">
<path fill-rule="evenodd" clip-rule="evenodd" d="M 7.52102 0.376721C 11.4327 0.721391 15.3445 0.993925 19.2401 1.45883C 19.5982 1.47301 19.9494 1.56084 20.2719 1.71678C 20.5943 1.87271 20.881 2.09341 21.114 2.36506C 21.347 2.6367 21.5213 2.95342 21.6259 3.2954C 21.7306 3.63739 21.7633 3.99727 21.7221 4.35246C 21.7328 5.02711 21.4922 5.6817 21.0471 6.18958C 20.602 6.69746 19.9839 7.0225 19.3124 7.1018C 15.8505 7.83923 12.3966 8.62477 8.87043 9.24197C 7.28287 9.54531 5.66003 9.62088 4.05106 9.4664C 3.028 9.40397 2.06101 8.97867 1.32456 8.26727C 0.588107 7.55587 0.130707 6.6052 0.0349113 5.58684C -0.230154 3.40661 1.03895 1.87564 2.9908 1.11416C 4.46116 0.644142 5.96113 0.271926 7.48085 -1.17416e-05L 7.52102 0.376721ZM 8.66963 5.79526C 12.0512 5.9716 15.232 6.18 18.4208 6.29222C 19.7381 6.3323 20.8305 5.75518 20.8305 4.2723C 20.8561 3.97022 20.8104 3.66634 20.6971 3.38506C 20.5838 3.10378 20.4059 2.85293 20.1779 2.65263C 19.9498 2.45233 19.6779 2.30816 19.3839 2.23169C 19.09 2.15522 18.7821 2.14858 18.4851 2.21229C 14.983 2.51689 11.497 2.95775 7.9146 3.35052L 8.66963 5.79526Z" transform="translate(86.6582 107.096)" fill="white"/>
</g>
<g id="Vector_7">
<path fill-rule="evenodd" clip-rule="evenodd" d="M 19.5311 3.96053C 19.4147 5.10736 19.0427 6.21365 18.4423 7.19838C 17.8419 8.18311 17.0283 9.02132 16.0612 9.65159C 14.5113 10.6323 12.9017 11.5158 11.2418 12.2967C 9.14535 13.3949 7.02484 14.4289 4.96054 15.5751C 2.89624 16.7213 1.31389 16.577 0.422301 15.1743C -0.469284 13.7716 0.109026 12.0723 1.61106 10.7177C 4.1332 8.44124 6.43045 5.94839 8.97669 3.688C 10.3552 2.3599 11.9323 1.25388 13.6515 0.409629C 16.6073 -0.880879 19.5472 1.03485 19.5311 3.96053ZM 13.5712 4.47353C 10.6715 6.24497 7.72363 8.03244 4.79185 9.84396C 3.60604 10.4323 2.5062 11.1793 1.52272 12.0643C 1.26527 12.4298 1.10387 12.854 1.05335 13.2979C 1.00283 13.7419 1.06479 14.1914 1.23355 14.6052C 1.56213 14.9044 1.96205 15.1145 2.39515 15.2155C 2.82825 15.3165 3.28009 15.3051 3.70751 15.1823C 5.21526 14.3978 6.62072 13.4313 7.89232 12.3047C 10.3984 10.2447 12.8161 8.07252 15.1214 6.10069L 13.5712 4.47353Z" transform="translate(243.471 34.4822)" fill="white"/>
</g>
<g id="Vector_8">
<path fill-rule="evenodd" clip-rule="evenodd" d="M 6.02392 9.78464e-07C 11.2048 9.78464e-07 13.3735 3.63906 10.9156 8.1839C 9.75894 10.316 8.71474 12.5123 7.70267 14.7006C 6.89944 16.4399 4.83514 17.1854 2.50577 16.4961C 0.618186 15.935 0.160354 14.8368 0.481645 12.7848C 0.802937 10.7329 0.264758 8.68086 0.0639505 6.62086C -0.401922 2.3165 1.68648 0.0160321 6.02392 9.78464e-07ZM 4.83513 4.36849C 3.79897 7.17394 2.82707 9.91526 1.78287 12.6325C 0.939482 14.8448 2.05596 16.3117 4.40942 15.9991C 6.27292 15.7506 7.17255 14.396 7.30909 11.6466C 7.44564 9.08966 7.57414 6.53269 7.69463 4.14405L 4.83513 4.36849Z" transform="translate(221.49 13.6025)" fill="white"/>
</g>
<g id="Vector_9">
<path fill-rule="evenodd" clip-rule="evenodd" d="M 5.76748 -1.4677e-06C 7.17962 0.565388 8.54871 1.23244 9.86394 1.99588C 12.2736 3.54289 14.5548 5.33837 16.9163 6.99759C 17.5682 7.37785 18.0435 7.99937 18.239 8.72722C 18.4345 9.45507 18.3344 10.2305 17.9605 10.8852C 17.2697 12.328 15.9524 12.7688 14.3781 12.3039C 11.5507 11.5024 8.7073 10.7008 5.88796 9.80304C 4.67996 9.46831 3.50925 9.01175 2.39392 8.4404C 1.49218 7.98169 0.777174 7.22586 0.370184 6.30108C -0.0368064 5.37631 -0.110728 4.33951 0.160944 3.36654C 0.779431 1.16225 2.36179 0.0160297 5.76748 -1.4677e-06ZM 6.63497 6.36437C 9.17318 7.96748 11.5106 9.5225 13.864 11.0214C 15.0448 11.7669 16.2737 11.9993 17.1492 10.6367C 18.0248 9.27402 17.35 8.12779 16.0809 7.57471C 13.2214 6.3323 10.2816 5.27425 7.34984 4.12803C 7.02855 5.13799 6.83578 5.75518 6.63497 6.36437Z" transform="translate(70.582 64.4609)" fill="white"/>
</g>
<g id="Vector_10">
<path fill-rule="evenodd" clip-rule="evenodd" d="M 14.4243 5.40732C 13.4765 7.18678 12.7616 9.15059 11.5327 10.7136C 9.48447 13.3187 7.12296 15.6833 4.84983 18.112C 3.82972 19.2021 2.60079 19.9556 1.13891 18.9136C -0.322967 17.8715 -0.170366 16.573 0.44812 15.1543C 1.84574 11.948 3.21927 8.66966 4.60083 5.42335C 4.91409 4.66989 5.139 3.88436 5.48438 3.15494C 6.61694 0.75027 8.49648 -0.355877 10.5367 0.101011C 12.5769 0.557899 13.9986 2.52171 14.4243 5.40732ZM 8.84992 5.07066C 6.50449 8.2288 4.19921 11.3469 1.88591 14.4489C 1.00236 15.6352 0.166989 16.9497 1.67706 18.088C 3.18713 19.2262 4.21526 17.9757 4.88998 16.8215C 6.96231 13.2145 8.90613 9.52733 10.866 5.96039L 8.84992 5.07066Z" transform="translate(150.15 32.1299)" fill="white"/>
</g>
<g id="Vector_11">
<path fill-rule="evenodd" clip-rule="evenodd" d="M 9.63009 9.28501C 9.79073 11.0404 9.94335 12.8038 10.1201 14.5593C 10.1898 14.9069 10.1894 15.2649 10.119 15.6124C 10.0485 15.9599 9.90944 16.2899 9.70979 16.5832C 9.51014 16.8764 9.25394 17.1271 8.95616 17.3204C 8.65838 17.5138 8.32499 17.646 7.97544 17.7094C 6.46536 18.1021 5.1561 17.7094 4.48138 16.1624C 3.32473 13.5333 2.21629 10.8801 1.09177 8.24299L 0.826698 7.6338C -0.0889833 5.49364 -0.595018 3.33746 1.22831 1.42975C 1.83353 0.762198 2.63161 0.298741 3.51223 0.103456C 4.39284 -0.0918288 5.3125 -0.00929744 6.14407 0.339633C 8.55376 1.24539 9.52567 3.32143 9.7827 5.7261C 9.84701 6.90619 9.84701 8.08889 9.7827 9.26898L 9.63009 9.28501ZM 4.60187 8.48345C 4.64836 10.7246 4.84155 12.9604 5.1802 15.1765C 5.3879 15.6288 5.70518 16.0225 6.10342 16.322C 6.50166 16.6214 6.96835 16.8173 7.46137 16.8918C 7.76458 16.8997 8.06498 16.8321 8.33537 16.6949C 8.60576 16.5578 8.83759 16.3555 9.00987 16.1063C 9.18214 15.8572 9.28943 15.5691 9.32199 15.2682C 9.35455 14.9673 9.31136 14.663 9.19635 14.3829C 8.48951 11.9782 7.6702 9.57357 6.86697 7.04867L 4.60187 8.48345Z" transform="translate(108.406 7.7561)" fill="white"/>
</g>
<g id="Vector_12">
<path fill-rule="evenodd" clip-rule="evenodd" d="M 15.4308 15.9983C 14.7021 15.763 13.993 15.4709 13.3102 15.1246C 10.5471 13.4253 7.77599 11.718 5.0691 9.9305C 3.74586 9.11524 2.51976 8.15254 1.41441 7.06092C -0.19205 5.34559 -0.441052 3.10123 0.723631 1.58628C 2.12125 -0.217222 4.11326 -0.313399 5.96069 0.456096C 7.52543 1.11317 8.94482 2.07197 10.1375 3.27757C 12.5388 5.78445 14.8044 8.4173 16.9248 11.1649C 17.2322 11.591 17.4492 12.0752 17.5625 12.588C 17.6758 13.1007 17.6829 13.6311 17.5834 14.1467C 17.3665 14.9162 16.1697 15.4051 15.4308 15.9983ZM 4.65142 5.69027C 5.97675 6.82046 7.44666 7.94264 8.75592 9.21711C 10.3624 10.7641 11.6636 12.6077 13.3584 14.0265C 13.8091 14.3115 14.3228 14.4824 14.8547 14.5243C 15.3866 14.5662 15.9208 14.4778 16.4107 14.2669C 17.5834 13.5295 16.989 12.2951 16.0814 11.4695C 14.999 10.4679 13.8649 9.52342 12.6837 8.63999C 10.3704 6.95672 7.99286 5.35361 5.68759 3.7505L 4.65142 5.69027Z" transform="translate(75.7734 17.5708)" fill="white"/>
</g>
<g id="Vector_13">
<path fill-rule="evenodd" clip-rule="evenodd" d="M 9.56492 0.641238L 14.6494 0.328643C 16.4245 0.20841 17.5892 1.03401 17.7418 2.73332C 17.8944 4.43262 16.9386 5.33838 15.3321 5.64297C 13.2839 6.01971 11.316 6.37237 10.6171 8.90529C 10.4565 9.45035 8.80186 9.78701 7.81389 9.8351C 6.70543 9.89121 5.57288 9.37822 4.44032 9.36219C 2.33586 9.36219 0.801688 8.43238 0.21533 6.45253C -0.371027 4.47268 0.215336 2.38863 2.27964 1.64319C 4.56081 0.785518 7.09901 0.52903 9.5087 1.95693e-06C 9.46854 0.216422 9.52476 0.448864 9.56492 0.641238ZM 4.8098 5.89945L 13.7498 4.98569C 15.2839 4.82538 17.284 4.98569 16.9145 2.65316C 16.5611 0.480934 14.6895 0.833628 13.1634 1.25845C 10.1192 2.1081 7.10704 3.06998 4.13509 3.96772C 4.40016 4.73722 4.64916 5.51471 4.8098 5.89945Z" transform="translate(72.6641 122.791)" fill="white"/>
</g>
<g id="Vector_14">
<path fill-rule="evenodd" clip-rule="evenodd" d="M 0.950105 15.4965C 0.620781 14.7911 -0.126225 13.9334 0.018356 13.2761C 0.361993 12.3176 0.948672 11.4643 1.7212 10.7993C 3.68108 8.80346 5.73735 6.87972 7.72936 4.964C 9.25418 3.35693 10.9179 1.88707 12.7014 0.571469C 13.6251 -0.0296995 15.5528 -0.230091 16.2918 0.330999C 17.0308 0.892089 17.2155 2.73567 16.9986 3.88189C 16.3239 7.58509 13.8259 10.0058 10.5728 11.6089C 8.0426 12.8513 5.43211 13.9174 2.84571 15.0316C 2.22563 15.231 1.59218 15.3863 0.950105 15.4965ZM 11.8419 4.72353C 10.4843 6.02872 9.05211 7.25448 7.55265 8.39467C 6.03455 9.43669 4.16302 9.99778 2.73327 11.0719C 1.88988 11.7051 1.53645 13.0036 0.966161 13.9976C 1.98626 13.9254 3.26339 14.23 3.97023 13.733C 7.37592 11.3284 10.621 8.72331 14.0106 6.11825C 12.87 5.38883 12.2837 5.01209 11.8419 4.72353Z" transform="translate(160.152 53.5898)" fill="white"/>
</g>
<g id="Vector_15">
<path fill-rule="evenodd" clip-rule="evenodd" d="M 17.356 3.09314C 16.0709 5.16917 15.2034 7.654 13.4684 9.12886C 10.5768 11.5977 7.17112 13.4893 3.89394 15.4852C 3.61643 15.6849 3.29948 15.8233 2.9642 15.8913C 2.62892 15.9592 2.28299 15.9552 1.9494 15.8793C 1.61582 15.8035 1.30223 15.6576 1.02952 15.4515C 0.756807 15.2453 0.53122 14.9836 0.367752 14.6837C -0.531865 13.2328 0.367748 12.3271 1.46817 11.3171C 4.78551 8.16699 7.97433 4.90466 11.2354 1.65835C 11.675 1.14369 12.2237 0.732997 12.8419 0.456019C 13.7736 0.167458 14.9865 -0.217294 15.7255 0.151423C 16.4645 0.520139 16.6653 1.79461 17.356 3.09314ZM 11.364 4.45578C 9.45228 7.71812 6.35985 9.77011 2.85777 11.3171C 2.45615 11.4935 1.94207 11.6938 1.76536 12.0305C 1.43773 12.7532 1.16911 13.501 0.962134 14.2669C 1.76536 14.4833 2.5686 15.0123 3.29953 14.852C 4.30463 14.5998 5.22305 14.082 5.95822 13.3531C 8.48036 10.8362 10.8901 8.20707 13.2757 5.6982L 11.364 4.45578Z" transform="translate(183.043 39.9905)" fill="white"/>
</g>
<g id="Vector_16">
<path fill-rule="evenodd" clip-rule="evenodd" d="M 19.523 3.57527C 18.7198 4.72951 18.1334 6.18834 17.1133 6.82959C 15.5318 7.76247 13.7827 8.37785 11.9646 8.64112C 8.96773 9.11613 5.93862 9.35998 2.90419 9.37052C 1.89212 9.37052 0.301725 8.49683 0.0446915 7.68726C -0.212342 6.87769 0.687289 5.13831 1.51461 4.76959C 5.07292 3.16648 8.74366 1.81986 12.4626 0.513323C 14.3181 -0.143954 16.294 -0.376404 17.9326 1.09045C 18.555 1.85615 19.0886 2.68973 19.523 3.57527ZM 13.8362 3.40695C 10.0128 3.97605 6.26973 4.42492 2.59094 5.17838C 1.78771 5.33869 1.24955 6.58912 0.582866 7.33457C 1.37339 7.82236 2.20049 8.24845 3.0568 8.60905C 3.57237 8.66153 4.09241 8.56995 4.55884 8.34453C 7.94043 7.30251 11.314 6.24446 14.6474 5.19442L 13.8362 3.40695Z" transform="translate(205.053 74.9133)" fill="white"/>
</g>
<g id="Vector_17">
<path fill-rule="evenodd" clip-rule="evenodd" d="M 16.8589 2.26502C 16.2565 6.35296 14.1038 8.95002 11.2765 10.9699C 9.01492 12.5108 6.66848 13.9238 4.2482 15.2022C 2.85059 16.0037 1.3084 16.156 0.344521 14.5529C -0.619354 12.9498 0.633677 12.1081 1.71804 11.1062C 3.7743 9.2065 5.62976 7.09841 7.63783 5.14261C 9.28815 3.45435 11.0513 1.87971 12.9151 0.429469C 13.3466 0.185019 13.8277 0.0407633 14.3228 0.00745777C 14.8179 -0.0258478 15.3141 0.0526369 15.7746 0.237079C 16.4412 0.549686 16.6501 1.77607 16.8589 2.26502ZM 11.9673 4.72581C 9.22021 6.74573 6.60168 8.69352 3.93496 10.5932C 3.28434 11.0581 2.32849 11.2264 1.86261 11.8116C 1.41563 12.5562 1.09283 13.3683 0.906792 14.2162C 1.74098 14.4945 2.60268 14.6826 3.47711 14.7773C 4.06868 14.6964 4.61377 14.4131 5.01932 13.9758C 7.81456 11.2906 10.5696 8.54923 13.3649 5.79989L 11.9673 4.72581Z" transform="translate(194.59 107.692)" fill="white"/>
</g>
<g id="Vector_18">
<path fill-rule="evenodd" clip-rule="evenodd" d="M 2.94151e-06 3.53948C 2.94151e-06 1.57567 1.27714 -0.0995923 3.21292 0.00461019C 4.95068 0.127986 6.63994 0.631527 8.16082 1.47949C 10.2851 2.66633 12.2682 4.08875 14.0726 5.71972C 14.4403 6.11472 14.7103 6.59012 14.8609 7.10789C 15.0116 7.62566 15.0387 8.17142 14.9401 8.70151C 14.7312 9.37482 13.1729 10.1844 12.3858 10.0321C 9.43592 9.40357 6.52148 8.61961 3.65469 7.68353C 1.63858 7.06633 2.94151e-06 5.97622 2.94151e-06 3.53948ZM 3.87157 4.45326L 9.71908 7.82782C 10.484 8.3965 11.3283 8.85019 12.2252 9.17443C 12.8517 9.31069 14.0886 8.93397 14.2171 8.51716C 14.3054 8.13158 14.3004 7.73057 14.2026 7.34728C 14.1049 6.964 13.9171 6.60944 13.6549 6.31288C 12.7791 5.64857 11.7879 5.15129 10.7311 4.84602C 8.60258 4.04447 6.43387 3.40322 4.34548 2.71388C 4.18483 3.291 4.00008 3.98034 3.88763 4.45326L 3.87157 4.45326Z" transform="translate(307.162 16.4355)" fill="white"/>
</g>
<g id="Vector_19">
<path fill-rule="evenodd" clip-rule="evenodd" d="M 3.8331 7.55869C 3.33119 7.58784 2.82868 7.51242 2.35756 7.33722C 1.88645 7.16202 1.45704 6.89088 1.09666 6.54105C 0.736275 6.19121 0.452798 5.77035 0.264285 5.30524C 0.075772 4.84012 -0.0136606 4.34094 0.00168123 3.83946C -0.00255392 3.33812 0.0924839 2.84088 0.281321 2.37629C 0.470158 1.9117 0.74907 1.48889 1.10208 1.13215C 1.45508 0.775408 1.87522 0.491756 2.33837 0.297471C 2.80152 0.103185 3.29857 0.00209855 3.80097 5.38155e-06C 4.7742 0.0578313 5.69418 0.462842 6.3931 1.14118C 7.09202 1.81951 7.52328 2.72596 7.60826 3.69519C 7.60858 4.7034 7.21395 5.6718 6.5086 6.39364C 5.80326 7.11549 4.84311 7.53359 3.8331 7.55869Z" transform="translate(272.842 7.9834)" fill="white"/>
</g>
<g id="Vector_20">
<path fill-rule="evenodd" clip-rule="evenodd" d="M 3.8796 0.000863133C 4.38206 -0.00420654 4.88023 0.0935017 5.34339 0.287957C 5.80656 0.482412 6.2249 0.769487 6.5726 1.13149C 6.92031 1.49349 7.19 1.92274 7.36507 2.39277C 7.54014 2.86279 7.61687 3.36363 7.59051 3.86438C 7.54055 4.8736 7.09798 5.82354 6.35694 6.51214C 5.61591 7.20073 4.63488 7.57364 3.62256 7.55153C 2.65096 7.46893 1.74408 7.0315 1.07563 6.32302C 0.407175 5.61455 0.0241833 4.68487 1.17661e-05 3.71208C 0.0104491 3.21416 0.119067 2.72316 0.319705 2.26714C 0.520344 1.81113 0.80906 1.39904 1.16934 1.0544C 1.52961 0.70976 1.9544 0.439335 2.41943 0.258566C 2.88447 0.0777974 3.38064 -0.00977501 3.8796 0.000863133Z" transform="translate(217.791 36.3179)" fill="white"/>
</g>
<g id="Vector_21">
<path fill-rule="evenodd" clip-rule="evenodd" d="M 3.59618 0.00773303C 4.45121 0.100906 5.2373 0.519522 5.79087 1.17645C 6.34443 1.83337 6.62282 2.67801 6.56811 3.53459C 6.53365 3.97669 6.40945 4.40718 6.20307 4.79988C 5.99669 5.19258 5.71243 5.5393 5.36758 5.81895C 5.02273 6.09861 4.6245 6.30535 4.19708 6.42663C 3.76967 6.5479 3.322 6.58116 2.88129 6.5244C 2.03228 6.41206 1.25971 5.9764 0.725237 5.30858C 0.190769 4.64077 -0.0641539 3.79255 0.0137833 2.94144C 0.124314 2.08917 0.556497 1.31109 1.22221 0.765932C 1.88792 0.22077 2.73698 -0.0504068 3.59618 0.00773303Z" transform="translate(323.426 59.2031)" fill="white"/>
</g>
<g id="Vector_22">
<path fill-rule="evenodd" clip-rule="evenodd" d="M 6.52222 3.15114C 6.55263 3.99895 6.24509 4.82423 5.66697 5.44622C 5.08885 6.0682 4.28728 6.4362 3.43782 6.46959C 2.99563 6.48788 2.55427 6.41724 2.13998 6.2619C 1.72569 6.10656 1.34693 5.86967 1.02622 5.56533C 0.705509 5.26099 0.44939 4.8954 0.273096 4.49031C 0.0968019 4.08521 0.00392876 3.64888 9.80505e-07 3.20725C 0.0105947 2.34906 0.361321 1.52998 0.975456 0.929138C 1.58959 0.328298 2.41714 -0.00540591 3.27717 0.00101665C 3.6988 -0.00966687 4.11833 0.0638632 4.51108 0.217282C 4.90383 0.3707 5.2619 0.600912 5.56422 0.894391C 5.86654 1.18787 6.10701 1.53869 6.27153 1.92624C 6.43605 2.31379 6.52128 2.73025 6.52222 3.15114Z" transform="translate(220.062 57.134)" fill="white"/>
</g>
<g id="Vector_23">
<path fill-rule="evenodd" clip-rule="evenodd" d="M 9.55041 9.78464e-07C 10.3536 0.673309 11.5906 1.24242 11.7352 2.01993C 11.759 2.53439 11.6583 3.04701 11.4416 3.51441C 11.2249 3.98182 10.8985 4.39025 10.4902 4.70514C 9.16181 5.31251 7.73752 5.68412 6.28126 5.80328C 4.83277 6.05132 3.36527 6.17202 1.89563 6.16398C 1.55361 6.14396 1.21978 6.05137 0.916449 5.89242C 0.613116 5.73347 0.347245 5.51179 0.136556 5.24218C 0.0566863 4.94499 0.0554009 4.63222 0.13283 4.33439C 0.210259 4.03656 0.363747 3.76384 0.578322 3.54288C 3.39766 2.3165 6.29733 1.25845 9.55041 9.78464e-07ZM 9.47812 3.60701C 8.78734 3.01386 8.2331 2.35658 8.08048 2.44475C 5.71899 3.75129 2.40165 2.29245 -3.92202e-06 5.03378C 3.71092 6.42849 6.16078 3.84748 9.47812 3.60701Z" transform="translate(179.82 86.1436)" fill="white"/>
</g>
<g id="Vector_24">
<path fill-rule="evenodd" clip-rule="evenodd" d="M 5.97368 3.27036C 5.96858 3.65695 5.88612 4.03862 5.73113 4.39296C 5.57613 4.7473 5.35173 5.06716 5.07113 5.33374C 4.79052 5.60032 4.45936 5.80826 4.09709 5.94533C 3.73482 6.0824 3.34875 6.14583 2.96157 6.13191C 2.55399 6.12296 2.15241 6.03198 1.78092 5.86441C 1.40943 5.69684 1.07568 5.45615 0.799655 5.15675C 0.523633 4.85735 0.311038 4.50542 0.174608 4.12205C 0.0381782 3.73867 -0.0192787 3.33175 0.00569159 2.92568C 0.0538833 2.14482 0.394469 1.41057 0.95987 0.868619C 1.52527 0.326667 2.27416 0.016621 3.05795 0C 3.46645 0.018223 3.86715 0.117957 4.23637 0.293307C 4.6056 0.468656 4.93586 0.716065 5.20766 1.02092C 5.47946 1.32578 5.68729 1.68191 5.81886 2.06826C 5.95043 2.45461 6.00307 2.86336 5.97368 3.27036Z" transform="translate(135.598 0)" fill="white"/>
</g>
<g id="Vector_25">
<path fill-rule="evenodd" clip-rule="evenodd" d="M 2.95876 1.60472e-05C 3.34606 -0.00112391 3.72967 0.0749504 4.0871 0.223791C 4.44453 0.372631 4.76855 0.59123 5.04016 0.866751C 5.31177 1.14227 5.52548 1.46918 5.66875 1.82825C 5.81202 2.18733 5.88196 2.57135 5.87447 2.95777C 5.90148 3.3623 5.84181 3.76794 5.6994 4.14765C 5.557 4.52737 5.33514 4.87244 5.04862 5.15988C 4.7621 5.44733 4.41748 5.67054 4.03773 5.81466C 3.65798 5.95877 3.25183 6.02048 2.84631 5.99566C 2.4581 5.9854 2.07584 5.89806 1.72183 5.73875C 1.36782 5.57944 1.04916 5.35135 0.784453 5.0678C 0.519749 4.78424 0.314301 4.4509 0.180107 4.08724C 0.0459127 3.72358 -0.0143377 3.33689 0.00286842 2.94974C 0.00708764 2.16872 0.319863 1.42089 0.873287 0.868623C 1.42671 0.316351 2.17611 0.00422648 2.95876 1.60472e-05Z" transform="translate(67.3398 97.405)" fill="white"/>
</g>
<g id="Vector_26">
<path fill-rule="evenodd" clip-rule="evenodd" d="M 5.08706 1.85061C 4.85412 4.17512 4.02679 5.05683 2.4123 4.92858C 0.797812 4.80033 -0.0536114 3.95068 0.00261462 2.37161C 0.0588407 0.792545 1.095 -0.257495 2.57295 0.0551124C 3.63321 0.271533 4.46857 1.37769 5.08706 1.85061Z" transform="translate(105.271 34.7085)" fill="white"/>
</g>
<g id="Vector_27">
<path fill-rule="evenodd" clip-rule="evenodd" d="M 4.98486 3.17573C 4.32621 3.64063 3.4507 4.71472 2.45469 4.83496C 0.992814 5.01932 -0.0433547 3.94522 0.00483906 2.35012C -0.0163153 2.03175 0.0320495 1.71259 0.146583 1.41469C 0.261117 1.11679 0.439088 0.847251 0.668212 0.624702C 0.897335 0.402152 1.17214 0.231889 1.47365 0.125685C 1.77515 0.0194816 2.09618 -0.0201396 2.41453 0.00956619C 4.04508 0.00956619 4.78405 0.971445 4.98486 3.17573Z" transform="translate(100.227 130.636)" fill="white"/>
</g>
<g id="Vector_28">
<path fill-rule="evenodd" clip-rule="evenodd" d="M 4.98618 2.70923C 4.09459 3.3585 3.19496 4.52075 2.31141 4.51274C 1.42786 4.50472 0.327448 3.31041 0.070415 2.42069C -0.0145188 2.11709 -0.0227489 1.79722 0.0464661 1.48968C 0.115681 1.18213 0.260185 0.896486 0.467054 0.658288C 0.673922 0.420091 0.936701 0.236765 1.23192 0.124683C 1.52714 0.0126014 1.8456 -0.0247333 2.15882 0.0160124C 3.13072 0.0961682 4.03033 1.10613 4.96208 1.69126L 4.98618 2.70923Z" transform="translate(275.475 29.8979)" fill="white"/>
</g>
<g id="Vector_29">
<path fill-rule="evenodd" clip-rule="evenodd" d="M 5.09248 1.87608C 3.66273 2.89406 2.81934 3.93608 2.21691 3.81585C 1.41368 3.64752 0.730944 2.58947 4.90252e-06 1.91616C 0.698814 1.23484 1.3414 0.120667 2.12053 0.00844931C 2.89966 -0.103769 3.67076 0.922226 5.09248 1.87608Z" transform="translate(109.32 53.7842)" fill="white"/>
</g>
<g id="Vector_30">
<path fill-rule="evenodd" clip-rule="evenodd" d="M 4.22499 2.37383C 3.42176 2.89484 2.54625 3.84069 1.75105 3.80061C 1.31657 3.66238 0.926104 3.41264 0.618789 3.07643C 0.311473 2.74021 0.0980813 2.3293 -7.84404e-06 1.88488C 0.102966 1.4425 0.321446 1.0352 0.633226 0.704362C 0.945007 0.37352 1.339 0.130929 1.77515 0.00122545C 2.57838 -0.0388524 3.3816 0.914996 4.23303 1.43601C 4.22499 1.7406 4.22499 2.06122 4.22499 2.37383Z" transform="translate(204.818 52.5649)" fill="white"/>
</g>
<g id="Vector_31">
<path fill-rule="evenodd" clip-rule="evenodd" d="M 4.44186 1.5181C 3.26914 2.46394 2.58641 3.44183 1.94383 3.41778C 1.30124 3.39374 0.650617 2.39981 9.80505e-07 1.81467C 0.570294 1.17342 1.06829 0.131399 1.72694 0.0111653C 2.38559 -0.109068 3.18882 0.764633 4.44186 1.5181Z" transform="translate(158.818 72.4014)" fill="white"/>
</g>
<g id="Vector_32">
<path fill-rule="evenodd" clip-rule="evenodd" d="M 1.3533 3.2383C 0.686616 2.43674 -0.0603818 1.93175 0.00387656 1.547C 0.0841995 0.977895 0.766945 0.512998 1.18462 9.78464e-07C 1.65853 0.392764 2.48584 0.801567 2.50191 1.18631C 2.51797 1.74741 1.90752 2.31651 1.3533 3.2383Z" transform="translate(173.449 150.068)" fill="white"/>
</g>
<g id="Vector_33">
<path fill-rule="evenodd" clip-rule="evenodd" d="M 3.08439 1.18071C 2.28116 1.77387 1.82333 2.39908 1.38155 2.38305C 0.939774 2.36702 0.457835 1.71775 -5.88303e-06 1.34903C 0.44177 0.876115 0.803234 0.170734 1.3414 0.0104224C 1.66269 -0.0937801 2.2651 0.603593 3.08439 1.18071Z" transform="translate(156.773 167.058)" fill="white"/>
</g>
<g id="Vector_34">
<path d="M 49.9145 4.72378C 46.4586 4.71415 43.0091 5.02 39.6091 5.63754C 36.5391 6.17029 33.5629 7.14501 30.7735 8.53118C 28.2538 9.79227 25.9991 11.5227 24.1308 13.6291C 22.267 15.7479 20.9466 18.2868 20.2834 21.0275C 19.9733 22.505 19.8706 24.0184 19.9781 25.5242C 20.0936 27.1675 20.533 28.7719 21.2713 30.2454C 22.1023 31.9198 23.2132 33.4405 24.5565 34.7421C 26.2299 36.3292 28.2007 37.5713 30.3559 38.3972C 30.9013 38.6176 31.4624 38.7971 32.0346 38.9342C 32.3398 38.9823 32.4443 39.1106 32.3398 39.311C 32.2354 39.5114 31.9302 39.5915 31.4242 39.5434C 30.7546 39.4615 30.0917 39.333 29.4402 39.1587C 24.8618 37.5556 21.606 34.9665 19.6729 31.3916C 17.9954 28.4006 17.1982 24.9978 17.3729 21.5747C 17.5477 18.1516 18.6874 14.8473 20.6609 12.042C 22.4642 9.48841 24.7779 7.3351 27.4562 5.7177C 30.6084 3.81575 34.0317 2.40228 37.609 1.52557C 41.878 0.470417 46.2637 -0.0413215 50.6615 0.0025953C 54.6365 0.0787698 58.5965 0.5134 62.4931 1.30114C 67.1197 2.16682 71.8266 3.25961 76.6138 4.57951L 84.3248 6.71165L 92.1885 8.84377C 94.6123 7.57015 97.1719 6.57263 99.8191 5.87C 102.8 5.02078 105.884 4.58652 108.984 4.57951C 111.299 4.52094 113.603 4.90736 115.771 5.7177C 117.659 6.47918 118.542 7.6735 118.446 9.30067C 118.342 10.6232 117.506 11.6573 115.924 12.4187C 113.976 13.2547 111.866 13.6462 109.747 13.565C 106.588 13.565 103.712 13.4367 101.12 13.1802C 98.5259 12.9317 95.7468 12.547 92.7989 12.042C 91.8092 12.6829 90.8886 13.4242 90.0519 14.2543C 89.0344 15.2162 87.9635 16.2555 86.839 17.3724C 85.7144 18.4945 84.622 19.6327 83.5537 20.803C 82.4855 21.9733 81.5457 23.0634 80.7264 24.0734C 78.3917 27.0231 76.3327 29.695 74.5495 32.0889C 72.7664 34.4829 70.8065 36.9971 68.6699 39.6316L 71.7222 39.6316C 72.8387 39.6316 74.0114 39.5835 75.2323 39.4793C 76.4532 39.3751 77.642 39.2549 78.7424 39.1026C 79.7315 38.9804 80.704 38.7492 81.6421 38.4132C 81.9473 38.0125 82.381 37.4754 82.9433 36.8101C 83.4855 36.1602 84.0705 35.5469 84.6943 34.9746C 85.274 34.4426 85.9158 33.9823 86.606 33.6039C 87.2341 33.2559 87.9594 33.1236 88.6703 33.2272C 89.8912 33.5318 90.1161 34.1409 89.3531 35.0547C 88.1794 36.3943 86.9297 37.6655 85.61 38.8621C 84.0036 40.2889 82.6648 41.534 81.5939 42.5974C 80.5229 43.6608 79.5296 44.7536 78.6139 45.8757C 78.2118 46.2483 77.8776 46.6877 77.6259 47.1743C 77.4733 47.535 77.2886 47.6552 77.0878 47.551C 76.8869 47.4468 76.7343 47.0701 76.9351 46.4128C 77.1357 45.7568 77.391 45.1186 77.6982 44.5051C 78.1289 43.6723 78.6146 42.869 79.152 42.1004C 79.7063 41.2989 80.14 40.6817 80.4452 40.2729C 78.6051 40.7458 76.7209 41.0278 74.8226 41.1145C 72.4772 41.2641 69.9845 41.3389 67.3446 41.3389C 66.8283 42.0596 66.2676 42.7476 65.6658 43.3989C 65.0554 44.0562 64.4449 44.7455 63.8345 45.4509C 57.7524 52.0942 50.6683 57.7492 42.8381 62.2115C 35.372 66.4514 26.9218 68.6625 18.3315 68.6239C 16.1573 68.6232 13.9876 68.4247 11.8495 68.0308C 9.81618 67.6881 7.83848 67.0733 5.96982 66.2032C 4.32778 65.4563 2.88772 64.3298 1.76893 62.9169C 0.661414 61.4411 0.048654 59.6544 0.017887 57.8109C -0.0495234 56.8486 0.0739959 55.8823 0.38136 54.9677C 0.688724 54.053 1.1739 53.2078 1.80909 52.4806C 2.48295 51.6942 3.32876 51.0728 4.28132 50.6642C 5.23387 50.2557 6.26773 50.0708 7.30318 50.124C 7.95098 50.1016 8.59652 50.2117 9.20014 50.4474C 9.80376 50.6831 10.3527 51.0395 10.8133 51.4947C 11.2562 51.9206 11.5859 52.45 11.7724 53.035C 11.9589 53.62 11.9964 54.2421 11.8816 54.8452C 11.7034 55.6038 11.3935 56.3254 10.9659 56.9773C 10.5636 57.5789 10.1036 58.1399 9.59239 58.6526C 8.26974 59.9725 7.60841 61.1401 7.60841 62.1554C 7.60933 62.5616 7.6989 62.9628 7.87091 63.331C 8.04291 63.6992 8.29321 64.0256 8.60441 64.2875C 9.3111 64.9333 10.127 65.449 11.0141 65.8105C 12.0819 66.245 13.1985 66.5492 14.3395 66.7162C 15.5495 66.921 16.7749 67.0229 18.0022 67.0208C 23.7398 67.0099 29.3924 65.6361 34.4925 63.013C 39.7884 60.3352 44.5495 56.7141 48.541 52.3283C 50.4687 50.3083 52.1475 48.4167 53.5772 46.6533C 55.007 44.8898 56.4314 43.0462 57.8504 41.1225L 53.031 41.1225C 51.8324 41.1125 50.634 41.1633 49.4406 41.2748C 48.3602 41.3057 47.2848 41.4344 46.2277 41.6595C 45.7136 41.8118 45.4244 41.6596 45.4244 41.1225C 45.5208 40.8179 45.9546 40.5694 46.7177 40.361C 48.0022 40.0773 49.3033 39.8738 50.6133 39.7518C 51.8814 39.6326 53.155 39.5818 54.4286 39.5996L 58.8544 39.5996L 62.2923 35.2551C 63.4596 33.7856 64.9108 32.0863 66.6458 30.1572C 68.4771 28.2281 70.4343 26.2723 72.5174 24.2898C 74.6004 22.3073 76.662 20.4797 78.7022 18.8072C 80.7424 17.1292 82.6166 15.6303 84.3248 14.3104C 85.7409 13.2081 87.2214 12.191 88.7587 11.2645L 82.9353 9.90183L 75.7062 8.20254C 74.1801 7.89794 72.3728 7.53725 70.2844 7.13648C 68.196 6.7357 65.9871 6.3349 63.6417 5.99023C 61.2963 5.64556 58.9348 5.33297 56.5492 5.07647C 54.3451 4.84545 52.1307 4.72773 49.9145 4.72378ZM 108.839 6.09444C 106.412 6.09139 103.997 6.43419 101.667 7.11243C 99.5223 7.71387 97.4689 8.60087 95.562 9.74954C 98.2991 10.4864 101.078 11.0593 103.883 11.4649C 106.032 11.7974 108.2 11.9875 110.374 12.034C 111.904 12.0668 113.428 11.8224 114.872 11.3126C 116.149 10.8236 116.832 10.1022 116.936 9.13235C 117.04 8.16246 116.35 7.42501 114.872 6.88797C 112.919 6.29127 110.88 6.02309 108.839 6.09444Z" transform="translate(0 186.375)" fill="white"/>
</g>
<g id="Vector_35">
<path d="M 8.36838 48.1415C 7.25189 49.1595 6.12738 50.1535 5.01089 51.1153C 3.8944 52.0772 2.92249 52.9669 2.11123 53.7845C 1.29997 54.6021 0.73771 54.6502 0.432483 54.2414C 0.336096 53.9368 0.585097 53.4398 1.23571 52.8707C 1.34013 52.7665 1.77387 52.3898 2.53694 51.7245L 5.28398 49.3679C 6.35496 48.4541 7.49822 47.4629 8.71378 46.3941C 9.93468 45.3281 11.1235 44.2861 12.3845 43.2681C 13.3966 42.0497 14.5934 40.5829 15.9669 38.8515L 20.3927 33.2887C 21.9992 31.3088 23.6056 29.2809 25.3567 27.277C 27.1077 25.2731 28.7624 23.3093 30.3929 21.4817C 33.0704 18.4358 35.9218 15.2884 38.9473 12.0394C 41.9728 8.79042 45.1857 5.6403 48.5861 2.58903C 50.5245 0.863013 52.3559 -5.87078e-06 54.0802 -5.87078e-06C 55.6063 -5.87078e-06 56.3694 0.360709 56.3694 1.06608C 55.6625 1.77947 54.3613 3.15012 52.4817 5.18607C 50.6022 7.22203 48.5379 9.47441 46.2969 11.9592C 44.0559 14.4441 41.7908 16.993 39.5016 19.582C 37.2124 22.1711 35.2525 24.4315 33.6219 26.3552C 31.0837 29.4065 28.5161 32.5566 25.9189 35.8056C 23.3218 39.0546 20.9282 42.1512 18.7381 45.0956C 16.5533 48.0454 14.6202 50.8134 12.9388 53.3997C 11.5557 55.4778 10.3055 57.641 9.19571 59.8764C 8.9949 60.3893 8.76197 61.0707 8.51297 61.9364C 8.37246 62.2786 8.33334 62.6538 8.40026 63.0176C 8.46718 63.3813 8.63733 63.7183 8.89049 63.9883C 9.2175 64.1974 9.59198 64.3209 9.97941 64.3475C 10.3668 64.3741 10.7548 64.303 11.1074 64.1406C 11.9835 63.8753 12.829 63.518 13.6295 63.0746C 14.7016 62.5332 15.723 61.8975 16.6818 61.1749C 17.6939 60.3733 18.7622 59.6279 19.8947 58.8103C 21.3138 57.6988 22.5347 56.7075 23.5575 55.8365C 24.5776 54.9788 25.5896 54.0891 26.6097 53.1753C 26.9895 52.812 27.3977 52.4797 27.8306 52.1814C 28.3367 51.8287 28.6981 51.7486 28.8989 51.957C 29.0997 52.1654 28.7463 52.8707 27.8306 53.7845C 26.9149 54.6983 25.5896 55.8926 23.8627 57.3594C 22.1357 58.8263 20.3526 60.2851 18.5212 61.7039C 17.718 62.3131 16.7862 62.9784 15.7742 63.6837C 14.7054 64.4253 13.5832 65.0871 12.4167 65.6636C 11.1876 66.2782 9.90858 66.7876 8.59328 67.1865C 7.35953 67.5803 6.07322 67.7857 4.77794 67.7957C 3.50757 67.8699 2.24822 67.5233 1.19555 66.8098C 0.748306 66.4333 0.407142 65.947 0.205717 65.3988C 0.00429134 64.8506 -0.0504429 64.2595 0.0469242 63.6837C 0.148667 61.8562 1.01349 59.5717 2.64136 56.8304C 4.43188 53.8579 6.42032 51.0086 8.59328 48.3019L 8.36838 48.1415Z" transform="translate(78.9414 185.304)" fill="white"/>
</g>
<g id="Vector_36">
<path d="M 3.52387 12.0555C 3.03781 12.4288 2.57883 12.8359 2.15036 13.2739C 1.13829 14.1876 0.471606 14.4922 0.166379 14.1876C -0.138848 13.883 0.0137553 13.7067 0.318982 13.346C 0.62421 12.9853 0.929448 12.6647 1.23468 12.3601C 1.74071 11.8471 2.45557 11.2139 3.37126 10.4524C 4.20175 9.75449 5.07934 9.1144 5.99782 8.53665C 7.01524 7.82593 8.08622 7.11253 9.21074 6.39648C 10.3353 5.68042 11.7088 4.91896 13.3313 4.11206C 15.5034 3.024 17.7469 2.08402 20.0463 1.29858C 21.9643 0.60587 23.9656 0.169249 25.9982 6.3324e-05C 26.508 -0.00142002 27.0175 0.0253446 27.5244 0.080224C 28.0384 0.128317 28.2874 0.304639 28.2874 0.60923C 28.2874 0.713433 27.7332 1.01804 26.6087 1.52302C 24.7168 2.37772 22.9475 3.48021 21.3475 4.80139C 19.6608 6.16938 17.7517 7.87135 15.6205 9.9073C 13.4003 12.1077 11.4063 14.5245 9.66858 17.1213C 7.93361 19.7184 6.96972 21.7704 6.76088 23.2933C 6.56008 25.0247 7.27495 25.8824 8.90551 25.8824C 10.5361 25.8824 12.8413 25.0006 15.5402 23.2212C 18.3407 21.3527 20.882 19.1238 23.0986 16.5923C 23.2361 15.6316 23.4674 14.6866 23.7893 13.7708C 24.2711 12.4735 24.966 11.2653 25.8456 10.1959C 26.5777 9.16009 27.4824 8.25727 28.5204 7.52668C 29.2142 7.02567 29.9538 6.59091 30.7293 6.22816C 30.9515 5.64248 31.0816 5.026 31.1148 4.40061C 31.163 3.69524 31.1951 3.13415 31.1951 2.72535C 31.2328 2.15693 31.1535 1.58682 30.9622 1.0501C 30.8853 0.934026 30.8505 0.795177 30.8636 0.656637C 30.8768 0.518097 30.9371 0.388209 31.0345 0.288612C 31.2004 0.189993 31.3927 0.144795 31.5853 0.159137C 31.7779 0.173479 31.9614 0.24667 32.1108 0.368773C 32.4961 0.594914 32.8544 0.863809 33.1791 1.17033C 33.8218 1.82756 34.339 2.5963 34.7052 3.43875C 35.1133 4.39144 35.2198 5.44583 35.0105 6.46062C 34.6392 8.63425 33.6906 10.6687 32.2634 12.3521C 30.4692 14.6377 28.4746 16.7596 26.3035 18.6924C 26.75 18.9253 27.2602 19.0068 27.7573 18.9248C 28.2463 18.9003 28.7311 18.8224 29.2031 18.6924C 31.0958 18.2213 32.867 17.3553 34.4 16.1514C 35.4121 15.4541 36.2796 14.8289 36.9944 14.2838C 37.7961 13.6554 38.5605 12.9809 39.2836 12.2639C 40.708 10.9654 41.5729 10.4684 41.8781 10.773C 42.1833 11.0776 41.5166 11.9914 39.8941 13.5143L 37.6772 15.414C 36.8239 16.1454 35.9339 16.833 35.0105 17.474C 33.9926 18.1718 32.9179 18.7831 31.7975 19.3016C 30.9592 19.6834 30.0883 19.9892 29.1951 20.2153C 28.4782 20.422 27.7305 20.5007 26.9862 20.4478C 26.3158 20.4193 25.6613 20.2354 25.0745 19.9107C 24.0544 20.7123 22.8897 21.5619 21.5644 22.4276C 20.1976 23.3129 18.7696 24.1004 17.2912 24.7842C 15.7313 25.5093 14.1206 26.1201 12.4718 26.6118C 10.9125 27.1043 9.28802 27.361 7.65247 27.3732C 5.65759 27.4832 3.68742 26.8903 2.0861 25.698C 0.715252 24.5865 0.0780195 22.9113 0.174407 20.6722C 0.383247 17.4233 2.01113 14.1743 5.05804 10.9253L 4.90543 10.773C 4.47664 11.2333 4.0149 11.6619 3.52387 12.0555Z" transform="translate(104.25 226.12)" fill="white"/>
</g>
<g id="Vector_37">
<path d="M 28.1541 10.17C 28.1541 11.188 27.4151 12.4545 25.9372 13.9854C 24.4592 15.5164 22.8608 17.2798 21.1178 19.3158C 19.0967 21.4791 17.3512 23.8833 15.9209 26.4737C 15.1123 27.9005 15.0614 28.865 15.7683 29.3673C 16.3787 29.8803 17.5032 29.6719 19.1338 28.7581C 19.9424 28.2558 20.9839 27.6226 22.2584 26.8585C 23.5732 26.0664 24.8246 25.174 26.0014 24.1893C 27.7257 22.864 29.0992 21.7712 30.122 20.9109C 31.1421 20.0532 32.1542 19.1635 33.1743 18.2497C 34.2907 17.1275 35.0538 16.7268 35.4635 17.0314C 35.6643 17.2317 35.5679 17.5604 35.1582 18.0173C 34.7486 18.4742 34.2426 19.0112 33.6321 19.6204C 32.7164 20.4273 31.5223 21.496 30.0497 22.8266C 28.5717 24.1492 26.8368 25.5199 24.9331 26.9386C 22.975 28.3727 20.9369 29.6947 18.8286 30.8983C 16.5696 32.2653 13.9842 33.0017 11.3425 33.0304C 10.0205 33.1335 8.70936 32.7261 7.67977 31.8922C 7.28621 31.5433 6.98339 31.1043 6.79731 30.6128C 6.61124 30.1214 6.54746 29.5922 6.61146 29.0707C 6.83398 27.0403 7.67501 25.1268 9.02115 23.5881C 10.5161 21.6945 12.1484 19.9129 13.9048 18.2577C 14.8205 17.344 15.8379 16.4302 16.9571 15.5164C 18.0762 14.6026 19.1204 13.7637 20.0896 12.9995C 21.0535 12.238 21.8969 11.5487 22.6118 10.9395C 23.1129 10.5756 23.5293 10.1081 23.8327 9.56886C 24.1379 8.7673 23.6801 8.3505 22.4592 8.3505L 15.7281 8.3505C 15.2261 8.36583 14.7277 8.2614 14.2743 8.0459C 12.957 9.47268 11.0239 11.4018 8.47496 13.8331C 7.14963 15.0595 6.00904 16.1016 5.03714 16.9592C 4.06523 17.8169 3.18167 18.6585 2.37041 19.4761C 1.1495 20.5903 0.386427 20.9991 0.0812003 20.6945C -0.224027 20.3899 0.330198 19.5723 1.75995 18.2898C 2.67563 17.4882 3.53509 16.6867 4.35439 15.9252C 5.17368 15.1637 6.28213 14.1217 7.71188 12.7991C 9.95557 10.6616 11.7361 8.88487 13.0534 7.46878C 12.7072 7.22938 12.4231 6.91111 12.2248 6.54032C 12.0264 6.16953 11.9195 5.7569 11.9128 5.33664C 11.9088 4.8267 12.0078 4.32119 12.2037 3.85023C 12.3997 3.37926 12.6886 2.95246 13.0534 2.5953C 13.7546 1.74479 14.6441 1.0683 15.6518 0.619047C 16.6595 0.169789 17.758 -0.039963 18.8607 0.0062839C 19.4645 0.00675495 20.0614 0.135165 20.6117 0.383017C 20.8597 0.477152 21.0804 0.631092 21.2542 0.831104C 21.428 1.03112 21.5495 1.27097 21.6078 1.52924C 21.0723 1.93536 20.6385 2.26401 20.3065 2.51516C 19.8475 2.86459 19.4152 3.24772 19.0133 3.66138C 17.0802 5.69734 17.2328 6.81417 19.4712 7.01189C 21.6131 7.11342 23.5971 7.29244 25.4231 7.54894C 27.2545 7.79742 28.1701 8.63904 28.1701 10.0578L 28.1541 10.17Z" transform="translate(141.91 220.077)" fill="white"/>
</g>
<g id="Vector_38">
<path d="M 33.0292 5.85155C 34.4932 4.25577 36.107 2.80366 37.8486 1.51512C 38.9646 0.639544 40.3262 0.132471 41.7442 0.0643035C 43.3507 -0.0318834 44.3146 0.120418 44.5636 0.521197C 44.8126 0.921976 44.5636 1.58727 43.7604 2.50105C 42.7403 3.62323 41.4712 5.06602 39.945 6.84547C 38.4189 8.62493 36.8365 10.5246 35.214 12.5606C 34.1912 13.7789 33.222 15.0214 32.3063 16.2878C 31.3906 17.5543 30.5874 18.7994 29.8966 20.0231C 28.8792 21.8506 28.7266 23.0183 29.4388 23.5259C 29.673 23.6819 29.9424 23.7774 30.2228 23.804C 30.5031 23.8306 30.7857 23.7873 31.0452 23.6782C 31.7 23.478 32.3368 23.2233 32.9489 22.9167C 34.0325 22.3507 35.0789 21.7162 36.0815 21.017C 37.3506 20.1513 38.6036 19.2135 39.8245 18.1955C 41.431 16.873 42.8768 15.7107 44.0977 14.6927C 45.3186 13.6747 46.3387 12.761 47.15 11.9514C 47.656 11.5426 48.0898 11.214 48.4512 10.9575C 48.8127 10.701 49.0858 10.6769 49.2544 10.8853C 49.4231 11.0937 48.901 12.1037 47.2705 13.6267C 46.2477 14.5404 44.925 15.708 43.3025 17.1295C 41.68 18.5509 40.1538 19.82 38.7241 20.9369C 36.8745 22.3784 34.9348 23.701 32.9168 24.8966C 30.7222 26.2755 28.1847 27.0141 25.5913 27.0287C 24.4454 27.1161 23.3059 26.7921 22.3784 26.1149C 22.0342 25.8331 21.7492 25.4862 21.5396 25.0942C 21.3301 24.7022 21.2003 24.2727 21.1575 23.8305C 21.0731 22.8927 21.2307 21.949 21.6153 21.0892C 22.0139 20.0864 22.5817 19.1592 23.2941 18.3478L 23.1414 18.1955C 22.124 19.1093 20.954 20.0498 19.6313 21.017C 18.3087 21.9842 16.9084 22.898 15.4304 23.7583C 13.9662 24.6148 12.4351 25.3519 10.852 25.9626C 9.4123 26.5422 7.89315 26.9016 6.34592 27.0287C 4.71129 27.1526 3.07959 26.7539 1.6872 25.8905C 0.316352 25.0248 -0.219135 23.3736 0.0807378 20.9369C 0.326288 19.6937 0.736868 18.4888 1.30164 17.3539C 2.12398 15.781 3.15023 14.323 4.35392 13.0175L 4.20131 12.8652L 3.43823 13.6667C 3.05119 14.0442 2.64361 14.4001 2.21733 14.7328C 1.51049 15.2378 1.0446 15.3901 0.843791 15.1897C 0.538564 14.7836 1.25076 13.819 2.98038 12.2961C 3.18922 12.0877 3.78361 11.5586 4.81175 10.693C 5.67872 9.94633 6.59662 9.26068 7.5588 8.64098L 10.6111 6.73327C 11.832 5.97446 13.1573 5.18625 14.5871 4.36866C 17.253 2.96647 20.0343 1.79459 22.9005 0.865861C 25.1294 0.0930064 27.5045 -0.167286 29.8484 0.104396C 30.5058 0.143134 31.1414 0.353884 31.6913 0.715496C 32.2412 1.07711 32.686 1.57682 32.981 2.16438C 33.2477 2.74122 33.3899 3.36763 33.3982 4.00286C 33.4065 4.6381 33.2808 5.26796 33.0292 5.85155ZM 29.2139 1.58726C 27.6877 1.58726 25.6529 2.50104 23.1093 4.3286C 20.2842 6.40002 17.6304 8.6945 15.1734 11.1899C 12.6812 13.4878 10.4064 16.01 8.37809 18.7246C 7.00456 20.7044 6.4182 22.2113 6.61901 23.2213C 6.81982 24.2313 7.38208 24.7443 8.60299 24.7443C 10.0327 24.7443 12.0167 24.0389 14.563 22.6121C 17.0529 21.2287 19.36 19.5404 21.4306 17.5864C 22.7265 16.4995 23.95 15.3294 25.0933 14.0835C 26.3142 12.7583 27.4334 11.4892 28.4508 10.2761C 29.3693 9.19158 30.212 8.04533 30.9729 6.84547C 31.5119 6.10429 31.852 5.2379 31.9609 4.3286C 32.0412 2.50104 31.1255 1.58726 29.2139 1.58726Z" transform="translate(172.143 226.071)" fill="white"/>
</g>
<g id="Vector_39">
<path d="M 14.524 24.5416C 13.5346 25.0435 12.5912 25.6309 11.7046 26.2971C 10.3311 27.2589 9.07809 28.2048 7.9616 29.1185L 4.9816 31.5232C 4.12215 32.2286 3.27875 32.942 2.46749 33.6553C 1.24658 34.6733 0.483532 35.0741 0.178304 34.8737C -0.126923 34.6733 0.00159102 34.4168 0.250592 34.1122C 0.499593 33.8076 1.05382 33.2466 1.85705 32.437C 2.25867 32.0282 2.90125 31.4671 3.7607 30.7617C 4.62016 30.0564 5.56796 29.2869 6.58806 28.4693C 7.60816 27.6517 8.65235 26.8662 9.72065 26.0646C 10.7889 25.263 11.7769 24.5416 12.6926 23.9324C 14.194 22.806 15.839 21.8842 17.5843 21.1911C 18.8658 20.7778 20.2055 20.5721 21.5522 20.5819C 23.1587 20.5819 24.0744 20.7342 24.2993 21.0388C 24.5001 21.3434 24.1467 22.0087 23.231 23.0187C 20.6874 25.8615 17.9377 29.1132 14.9818 32.7736C 13.6645 34.3767 12.5721 35.8436 11.7046 37.1181C 10.8371 38.3926 10.1464 39.4266 9.64035 40.2361C 8.72466 41.8392 8.57205 42.9561 9.1825 43.5867C 9.8947 44.1958 11.1156 44.0435 12.8452 43.1298C 13.8717 42.6055 14.8667 42.022 15.8252 41.3824C 17.1296 40.5193 18.3797 39.577 19.5683 38.5609C 21.1747 37.2463 22.4679 36.1562 23.3836 35.3546C 24.2993 34.5531 25.3676 33.5752 26.5965 32.461C 27.8254 31.3469 28.7331 30.7858 29.0062 31.0904C 29.2793 31.3949 29.0062 31.6996 28.4761 32.3087C 27.9459 32.9179 27.5283 33.3187 27.3274 33.5271C 26.4118 34.4409 25.1132 35.6352 23.4318 37.1101C 21.7504 38.5849 20.1439 39.9209 18.6124 41.1178C 16.7308 42.5647 14.7677 43.9028 12.7328 45.1256C 10.521 46.5408 7.95419 47.3048 5.32698 47.3299C 2.27471 47.3299 0.74859 46.0154 0.74859 43.3702C 0.750583 42.3431 0.983921 41.3295 1.43134 40.4045C 1.89632 39.4257 2.43327 38.4826 3.0378 37.583C 3.8183 36.2643 4.71045 35.0146 5.7045 33.8477C 6.77548 32.5812 7.87057 31.3388 8.98973 30.1205C 10.1089 28.9021 11.1531 27.7826 12.1223 26.7619C 12.8841 25.9811 13.6857 25.24 14.524 24.5416ZM 35.8979 0.0139736C 36.3085 -0.036 36.7242 0.048843 37.0822 0.255654C 37.4401 0.462465 37.7209 0.779985 37.8819 1.16019C 38.1871 1.92435 37.8819 2.86218 36.9662 3.97367C 35.996 5.23799 34.7413 6.2567 33.3035 6.94744C 32.2274 7.57201 31.0313 7.96263 29.7934 8.09369C 29.3393 7.44579 29.1004 6.67196 29.1106 5.88138C 29.0641 4.86315 29.2451 3.84734 29.6408 2.90761C 29.8607 2.38689 30.184 1.91602 30.5912 1.5234C 30.9985 1.13078 31.4812 0.824541 32.0103 0.623165C 33.2085 0.197875 34.4737 -0.00849057 35.7453 0.0139736L 35.8979 0.0139736Z" transform="translate(217.057 205.858)" fill="white"/>
</g>
<g id="Vector_40">
<path d="M 34.1256 26.9484C 32.9018 27.0091 31.6925 26.6623 30.6878 25.9624C 30.2546 25.6088 29.9215 25.1484 29.7214 24.6268C 29.5214 24.1052 29.4613 23.5405 29.5472 22.9887C 29.7374 21.0326 30.5063 19.1771 31.7561 17.6583C 33.1376 15.8308 34.5379 14.054 35.957 12.328C 37.0735 10.9012 38.198 9.58663 39.3145 8.36827C 40.431 7.1499 41.4511 5.96359 42.3667 4.85744C 42.6533 4.49832 42.8612 4.08329 42.9772 3.63908C 43.0339 3.45725 43.0179 3.26056 42.9325 3.09024C 42.8472 2.91991 42.6991 2.78915 42.5194 2.72529C 41.9779 2.52449 41.3821 2.52449 40.8406 2.72529C 40.0533 2.96559 39.2876 3.27126 38.5514 3.63908C 37.1297 4.35247 35.3947 5.34639 33.3626 6.61285C 31.0376 8.09189 28.7958 9.69743 26.6475 11.4222C 24.9126 12.7448 23.3864 13.9551 22.0692 15.0773C 20.7519 16.1995 19.4185 17.2816 18.053 18.3557L 14.0369 21.626C 12.666 22.7482 11.164 23.9666 9.53073 25.2811C 8.39711 26.1647 7.00119 26.6469 5.56277 26.6518C 4.78035 26.7141 3.99453 26.5848 3.27359 26.2751C 2.86394 26.0186 2.96834 25.3372 3.5788 24.215C 4.43591 22.6169 5.37701 21.0651 6.39814 19.566C 7.76898 17.4873 9.06754 15.6357 10.2938 14.0112C 11.097 12.889 12.1252 11.6066 13.3461 10.0515C 14.567 8.49652 15.5871 7.206 16.3984 6.08382C 17.4185 4.76927 17.7719 3.90358 17.4666 3.49478C 17.1614 3.08599 16.2939 3.0379 15.1774 3.64708C 14.2617 4.16008 13.2738 4.76926 12.2055 5.47463C 11.1617 6.16821 10.1661 6.93143 9.2255 7.75907C 8.20807 8.57666 7.1371 9.4931 6.01258 10.5084C 4.88806 11.5237 3.7689 12.539 2.65509 13.5543C 1.22534 14.7727 0.365899 15.2296 0.0606717 14.925C -0.244555 14.6204 0.61488 13.6586 2.34986 12.0314C 3.26554 11.2298 4.45433 10.1237 5.93228 8.753C 7.41022 7.38233 8.85602 6.13994 10.2858 5.01776C 12.0091 3.61081 13.8591 2.36576 15.812 1.29852C 17.307 0.468815 18.9851 0.0226223 20.6956 3.91385e-06C 22.1254 3.91385e-06 23.1053 0.360694 23.6756 1.06606C 24.2118 1.708 24.5097 2.51487 24.519 3.35051C 24.4897 4.37103 24.1994 5.36713 23.6756 6.24414C 22.9554 7.50864 22.1643 8.7316 21.3061 9.90724C 20.1923 11.4302 18.9205 13.1055 17.4907 14.933C 16.069 16.7606 14.9445 18.2835 14.1332 19.5019L 14.2859 19.6542L 20.7117 14.3238C 23.1615 12.2959 25.6997 10.2599 28.3504 8.22399C 31.0659 6.15892 33.9215 4.28413 36.8968 2.61309C 39.949 0.887069 42.6479 0.0240497 44.9933 0.0240497C 48.4472 0.0240497 50.0242 1.39472 49.7243 4.13604C 49.3825 5.83759 48.5923 7.41745 47.4351 8.71293C 46.1098 10.316 44.8407 11.9192 43.6117 13.4341C 42.3828 14.9491 41.3467 16.1754 40.4872 17.3938C 39.6277 18.6122 38.9852 19.5259 38.5755 20.1351C 37.459 21.8665 37.2502 22.9806 37.965 23.4856C 38.2124 23.6427 38.4939 23.7385 38.7859 23.765C 39.0779 23.7915 39.3721 23.7479 39.6438 23.6379C 40.3279 23.4476 40.9922 23.1926 41.6278 22.8765C 42.5435 22.3715 43.5636 21.7863 44.6881 21.129C 46.1656 20.2161 47.5921 19.2234 48.9613 18.1553C 50.2786 17.14 51.6173 16.0472 52.9774 14.8769C 54.3509 13.7147 55.4433 12.7207 56.2626 11.9111C 57.2827 10.9974 57.9414 10.6928 58.2466 10.9974C 58.5518 11.302 58.0458 11.9592 57.0257 12.9772C 56.3108 13.6906 55.0176 14.8769 53.13 16.5522C 51.2424 18.2274 49.4914 19.6782 47.8689 20.8966C 47.0656 21.5058 46.1098 22.1711 45.0415 22.8765C 43.9384 23.6078 42.7901 24.2691 41.6037 24.8563C 40.4006 25.4608 39.1517 25.9701 37.8687 26.3793C 36.6583 26.7623 35.3954 26.9543 34.1256 26.9484Z" transform="translate(241.424 226.144)" fill="white"/>
</g>
</g>
</g>
</svg>

