<svg viewBox="0 0 31 32" version="1.1" xmlns="http://www.w3.org/2000/svg" xmlns:xlink="http://www.w3.org/1999/xlink">
<g id="Canvas" fill="none">
<g id="instagram">
<g id="Group">
<g id="Group_2">
<g id="Vector">
<path d="M 21.3125 0L 9.6875 0C 4.33806 0 0 4.42151 0 9.87385L 0 21.7225C 0 27.1748 4.33806 31.5963 9.6875 31.5963L 21.3125 31.5963C 26.6619 31.5963 31 27.1748 31 21.7225L 31 9.87385C 31 4.42151 26.6619 0 21.3125 0ZM 28.0938 21.7225C 28.0938 25.5338 25.0519 28.6342 21.3125 28.6342L 9.6875 28.6342C 5.94812 28.6342 2.90625 25.5338 2.90625 21.7225L 2.90625 9.87385C 2.90625 6.06255 5.94812 2.96216 9.6875 2.96216L 21.3125 2.96216C 25.0519 2.96216 28.0938 6.06255 28.0938 9.87385L 28.0938 21.7225Z" transform="translate(0 0.403687)" fill="#4F4F4F"/>
</g>
</g>
</g>
<g id="Group_3">
<g id="Group_4">
<g id="Vector_2">
<path d="M 7.75 0C 3.47006 0 0 3.53681 0 7.89908C 0 12.2614 3.47006 15.7982 7.75 15.7982C 12.0299 15.7982 15.5 12.2614 15.5 7.89908C 15.5 3.53681 12.0299 0 7.75 0ZM 7.75 12.836C 5.08012 12.836 2.90625 10.6203 2.90625 7.89908C 2.90625 5.17587 5.08012 2.96216 7.75 2.96216C 10.4199 2.96216 12.5938 5.17587 12.5938 7.89908C 12.5938 10.6203 10.4199 12.836 7.75 12.836Z" transform="translate(7.75 8.30275)" fill="#4F4F4F"/>
</g>
</g>
</g>
<g id="Group_5">
<g id="Group_6">
<g id="Vector_3">
<path d="M 1.03269 2.10511C 1.60303 2.10511 2.06538 1.63386 2.06538 1.05255C 2.06538 0.471244 1.60303 0 1.03269 0C 0.46235 0 0 0.471244 0 1.05255C 0 1.63386 0.46235 2.10511 1.03269 2.10511Z" transform="translate(22.7988 6.65776)" fill="#4F4F4F"/>
</g>
</g>
</g>
</g>
</g>
</svg>

