<svg viewBox="0 0 158 122" version="1.1" xmlns="http://www.w3.org/2000/svg" xmlns:xlink="http://www.w3.org/1999/xlink">
<g id="Canvas" fill="none">
<g id="Union">
<g id="Union_2">
<path fill-rule="evenodd" clip-rule="evenodd" d="M 67.6664 2.10156C 67.7406 1.93213 67.7796 1.74951 67.7816 1.56445C 67.7972 1.37012 67.7718 1.17432 67.7074 0.989746C 67.6449 0.804688 67.5453 0.634277 67.4164 0.488281C 67.2855 0.342773 67.1273 0.224121 66.9515 0.140137C 66.7738 0.0566406 66.5824 0.00878906 66.3871 0C 66.0101 0.0078125 65.6527 0.15625 65.3812 0.415527C 65.1117 0.674805 64.9476 1.02637 64.9242 1.3999C 64.9125 1.59424 64.9398 1.78857 65.0062 1.97217C 65.0707 2.15576 65.1722 2.32373 65.305 2.46729C 65.4379 2.61035 65.598 2.72559 65.7757 2.80566C 65.9535 2.88574 66.1449 2.9292 66.3402 2.93359C 66.5257 2.94043 66.7113 2.91016 66.8832 2.84424C 67.057 2.77881 67.2152 2.6792 67.35 2.55176C 67.4847 2.42432 67.5921 2.27148 67.6664 2.10156ZM 123.555 5.60254L 123.813 4.99658C 123.789 2.74951 123.002 1.5415 121.825 1.37646C 120.649 1.21143 119.713 1.97852 119.186 3.5127L 119.145 3.64209C 119.114 3.7334 119.084 3.8252 119.063 3.91895L 118.58 6.12744C 118.235 7.70264 117.891 9.27197 117.569 10.8408C 117.506 11.2446 117.586 11.6572 117.797 12.0078C 118.008 12.3579 118.334 12.6235 118.721 12.7583C 119.641 12.9888 120.063 12.4326 120.448 11.7231C 120.7 11.25 120.961 10.7925 121.225 10.3345L 121.256 10.2808C 121.643 9.60986 122.032 8.93555 122.391 8.20654C 122.852 7.271 123.258 6.30713 123.555 5.60254ZM 120.553 5.02783L 120.821 4.26025L 122.078 4.56689L 121.844 5.46875L 121.807 5.61133C 121.459 6.94727 121.104 8.3125 120.733 9.68311C 120.598 10.1948 120.424 10.6963 120.213 11.1821L 120.192 11.2305C 119.909 11.8804 119.606 12.5698 118.676 12.2295C 117.994 11.98 117.776 11.0596 118.192 10.1929C 118.407 9.74121 118.639 9.29736 118.873 8.85449L 118.918 8.76807C 119.231 8.17529 119.543 7.58252 119.817 6.97168C 120.104 6.33545 120.332 5.67139 120.553 5.02783ZM 26.6332 106.118L 26.7093 105.965L 26.7406 105.903C 28.6156 102.143 31.8207 95.7183 32.1703 95.5273L 33.4476 93.0503L 33.7054 92.5933C 34.5414 92.7539 35.2816 92.9004 35.93 93.0288L 36.0199 93.0469L 36.2484 93.0923L 39.7093 93.9053L 42.4964 94.5571C 41.7601 95.0005 41.0511 95.4873 40.3734 96.0146C 39.557 96.646 38.6586 97.3633 37.682 98.166C 36.7054 98.9663 35.7171 99.8403 34.7211 100.789C 33.723 101.737 32.7855 102.673 31.9105 103.596C 31.0785 104.519 30.3832 105.332 29.8246 106.035L 28.18 108.114L 26.0609 108.114C 25.7601 108.109 25.4554 108.109 25.1546 108.121C 25.6019 107.868 25.9418 107.51 26.1937 107.001L 26.6332 106.118ZM 23.7816 108.235C 25.5707 104.466 28.641 97.8154 28.6136 97.7749L 30.8636 94.0435C 31.1898 93.4438 31.5238 92.8477 31.8597 92.2549C 31.4086 92.1777 30.9457 92.1035 30.4711 92.0337C 29.348 91.8691 28.2171 91.7192 27.0746 91.5967C 26.0199 91.4863 24.9593 91.4297 23.8988 91.4277C 22.2445 91.4233 20.5921 91.5698 18.9652 91.8652C 17.4945 92.1201 16.0707 92.5864 14.7347 93.2495C 13.5277 93.853 12.4476 94.6807 11.5531 95.6885C 10.6625 96.7021 10.0296 97.917 9.71129 99.228C 9.56285 99.9351 9.51402 100.659 9.5648 101.379C 9.62144 102.166 9.83043 102.934 10.1839 103.638C 10.5824 104.439 11.1136 105.167 11.7582 105.79C 12.5589 106.549 13.5023 107.143 14.5336 107.539C 14.7953 107.644 15.0648 107.729 15.3382 107.795C 15.4847 107.818 15.5336 107.88 15.4847 107.976C 15.4339 108.071 15.2875 108.11 15.0453 108.087C 14.725 108.048 14.4086 107.986 14.0961 107.903C 11.9046 107.136 10.3441 105.897 9.42027 104.187C 8.61558 102.756 8.23472 101.128 8.31871 99.4902C 8.40269 97.8521 8.94762 96.2715 9.89293 94.9292C 10.7562 93.7075 11.8636 92.6772 13.1468 91.9033C 14.6546 90.9937 16.2953 90.3174 18.0062 89.8979C 20.0511 89.3931 22.1507 89.1484 24.2562 89.1694C 26.1605 89.2056 28.055 89.4136 29.9222 89.7905C 30.9164 89.9761 31.9164 90.1841 32.9261 90.4136C 38.7875 80.4937 45.9398 71.5103 53.6039 62.8965C 54.7328 61.624 55.8754 60.3589 57.0179 59.0957L 57.1214 58.9805L 57.2972 58.7871L 57.5882 58.4653C 58.4242 57.5425 59.2582 56.6201 60.0902 55.6943C 60.3714 55.3838 60.6371 55.0576 60.7171 54.958C 60.473 54.2617 60.2464 53.6426 60.0179 53.0195L 60.0062 52.9883L 59.6175 51.9248C 59.3441 51.9248 59.0472 51.9365 58.7347 51.9492C 57.9418 51.981 57.0472 52.0171 56.1839 51.8711C 55.4066 51.687 54.7171 51.2432 54.2289 50.6133C 53.5492 49.7388 54.1214 48.3813 55.2523 47.9287C 55.8812 47.7207 56.5238 47.5571 57.1761 47.438L 54.2191 43.4263C 53.5804 44.5771 52.7269 44.688 51.5843 44.5771C 50.5843 44.4873 49.5765 44.5444 48.5648 44.6016C 47.975 44.6353 47.3851 44.6685 46.7953 44.6729C 46.0531 44.6919 45.3109 44.6196 44.5843 44.458C 43.3695 44.1626 42.6625 43.3076 42.7191 42.3296C 42.7425 41.8223 42.9593 41.3428 43.3226 40.9873C 43.6859 40.6313 44.1722 40.4263 44.68 40.4121C 45.9789 40.3696 47.2757 40.4751 48.5492 40.7266C 49.1214 40.8242 49.6761 41.0288 50.2328 41.2344C 50.5492 41.3516 50.8656 41.4688 51.1879 41.5664C 51.5804 41.6602 51.9789 41.731 52.3793 41.7773L 52.5062 41.5205L 51.5199 40.6836L 51.2933 40.4902C 50.3617 39.6934 49.43 38.8965 48.4535 38.1494C 47.9945 37.8042 47.5257 37.4736 47.055 37.144C 46.1546 36.5107 45.2543 35.8779 44.4379 35.1392C 50.4769 37.8696 54.8343 42.4717 58.4183 48.0283C 58.5004 47.897 58.5609 47.8081 58.6039 47.7466L 58.6175 47.7251C 58.6625 47.6592 58.682 47.6318 58.6722 47.6182C 56.8597 43.1772 54.9105 38.7979 51.514 35.2925C 50.8382 34.6899 50.0687 34.1978 49.2386 33.8354C 48.7875 33.6011 48.3187 33.4019 47.848 33.2031L 47.8089 33.1865L 47.7933 33.1802C 47.3031 32.9736 46.8148 32.7676 46.3461 32.5239C 45.9593 32.333 45.6664 31.998 45.5277 31.5918C 45.3324 30.5576 44.5179 30.3228 43.7894 30.1123L 43.6039 30.0581C 42.68 29.7656 41.7406 29.5239 40.8011 29.2822L 40.7757 29.2759C 40.0492 29.0894 39.3226 28.9023 38.6039 28.6929C 37.8871 28.4995 37.1996 28.2095 36.5629 27.8301C 35.6625 27.27 35.4886 26.3267 35.7621 25.3833C 35.8597 24.939 36.1214 24.5483 36.4984 24.292C 36.8754 24.0352 37.3343 23.9316 37.7855 24.0024C 38.7152 24.1514 39.6097 24.4702 40.4242 24.9424C 41.1937 25.3955 41.9125 25.937 42.6312 26.479C 42.9886 26.749 43.3461 27.019 43.7113 27.2778C 44.3968 27.7646 44.5277 28.2134 44.2855 29.4751L 45.2191 29.897C 46.6117 28.6504 47.7679 28.5396 49.2914 29.6938C 50.6722 30.7407 51.9847 31.895 53.2679 33.0566C 54.0375 33.7627 53.7914 34.5908 52.6097 35.2925C 55.9066 39.1274 57.848 43.7065 59.7718 48.3008L 60.1566 48.1587C 59.9359 47.3179 59.7328 46.4702 59.5316 45.623C 59.0804 43.7271 58.6293 41.8325 57.9593 40.0171C 57.1781 37.8853 56.2308 35.8149 55.2836 33.7441C 54.7718 32.6265 54.2621 31.5083 53.7757 30.3799C 53.6078 29.9072 53.5492 29.4023 53.6039 28.9038C 53.6039 28.7695 54.057 28.6274 54.3226 28.5547C 54.5492 28.5054 54.7836 28.4961 55.014 28.5278C 55.2718 28.5361 55.5238 28.6045 55.7484 28.7271C 55.7933 28.8125 55.8168 28.9072 55.8168 29.0034C 55.8168 29.0996 55.7933 29.1943 55.7484 29.2793C 55.5179 29.3853 55.264 29.4316 55.0101 29.4136C 54.9398 29.4136 54.8675 29.3594 54.7523 29.2739C 54.6879 29.2246 54.6078 29.165 54.5062 29.0991C 54.5062 29.2114 54.4984 29.3169 54.4906 29.4155L 54.4886 29.4502L 54.4828 29.5122C 54.4613 29.729 54.4457 29.9058 54.5062 30.0352C 57.6683 35.6992 59.6136 41.7773 60.8031 48.1206C 60.8031 48.1348 60.8226 48.146 60.8617 48.1699L 60.9593 48.2314L 60.9593 46.061C 60.8675 40.0898 60.4144 34.1729 58.7992 28.3823C 58.5336 27.6748 58.0961 27.0449 57.5257 26.5488C 57.1429 26.1699 56.7132 25.8398 56.2836 25.5098C 55.8949 25.2114 55.5062 24.9131 55.1527 24.5781C 54.0453 23.5308 53.9418 22.1045 54.807 21.1611C 55.6722 20.2178 57.0824 20.2329 58.2171 21.3335C 58.7171 21.8809 59.1449 22.4907 59.4867 23.1475C 59.8656 23.7695 60.223 24.4067 60.5785 25.043C 60.7914 25.4229 61.0043 25.8018 61.2211 26.1772C 61.8558 27.2549 61.4398 28.0103 59.7875 28.6465C 59.8695 29.0835 59.9632 29.5205 60.0589 29.958L 60.098 30.1401L 60.1019 30.1616C 60.3382 31.2388 60.5726 32.3198 60.6644 33.4136C 60.932 36.5747 61.1488 39.7393 61.3656 42.9048L 61.4242 43.7646L 61.4281 43.8115C 61.5218 45.186 61.6175 46.5615 61.7171 47.9365C 61.7836 48.3135 61.8871 48.6836 62.0257 49.0405L 62.4593 48.9678C 62.4925 48.3047 62.5316 47.6421 62.5707 46.9795C 62.6605 45.458 62.7504 43.937 62.7757 42.4141C 62.8285 39.1543 62.8597 35.8945 62.7562 32.6274C 62.7113 31.2383 62.555 29.8521 62.3988 28.4663C 62.3207 27.7788 62.2425 27.0913 62.1781 26.4033L 62.1683 26.2822C 62.1156 25.6846 62.0609 25.0303 62.2796 24.5205C 62.514 23.9756 63.0902 23.3892 63.5746 23.3354C 64.0589 23.2817 64.9027 23.7954 65.0316 24.229C 65.3031 25.2041 65.3949 26.2197 65.305 27.228C 65.2015 28.394 64.9964 29.5488 64.6898 30.6792C 64.4945 31.187 64.2425 31.6719 63.9398 32.125C 63.8168 32.3179 63.7367 32.5352 63.7054 32.7617C 63.6214 36.8779 63.5472 40.9912 63.4828 45.1025C 63.4828 45.1982 63.514 45.2979 63.7054 45.4243L 64.3207 42.0806L 64.3734 41.7944C 64.8617 39.1489 65.35 36.5034 65.7894 33.8506C 66.2484 31.0894 66.6175 28.313 66.9437 25.5327C 67.0257 24.8037 67.0082 24.0659 66.9886 23.3276C 66.9769 22.8623 66.9652 22.396 66.9789 21.9316C 66.9476 21.019 66.9964 20.106 67.1214 19.2012C 67.1839 18.7881 67.4007 18.4136 67.7289 18.1533C 68.057 17.8931 68.4711 17.7661 68.889 17.7979C 69.0902 17.793 69.2894 17.8301 69.475 17.9062C 69.6605 17.9824 69.8285 18.0962 69.9671 18.2407C 70.1078 18.3848 70.2152 18.5562 70.2836 18.7441C 70.3539 18.9316 70.3832 19.1318 70.3695 19.3315C 70.3617 20.2358 70.2523 21.1357 70.0472 22.0161C 69.8441 22.9453 69.5863 23.8623 69.2777 24.7622C 69.1625 25.1147 68.9789 25.6094 68.7054 25.709C 68.016 25.9531 67.9418 26.4585 67.8636 26.9878L 67.8617 27.0034L 67.8129 27.2969L 64.4281 45.7852C 64.4125 45.8628 64.4066 45.9429 64.3968 46.0732L 64.3675 46.4214C 64.4457 46.2808 64.5179 46.1694 64.5785 46.0762C 64.682 45.9155 64.7523 45.8086 64.7523 45.6968C 64.7855 44.6372 65.2601 43.7334 65.7347 42.8301C 66.1175 42.0986 66.5004 41.3677 66.6507 40.5542C 66.7132 40.2251 66.7152 39.8872 66.7171 39.5493C 66.7171 39.2886 66.7191 39.0278 66.7484 38.771C 66.7543 38.4648 66.8636 38.1694 67.055 37.9312C 68.2933 36.7808 68.3968 35.2466 68.4906 33.7319C 68.4906 33.4224 68.5238 33.1138 68.5902 32.8115C 68.9398 31.5576 69.305 30.3032 69.6976 29.061L 69.8187 28.6587C 69.9711 28.1372 70.1254 27.605 70.4437 27.2124C 70.7699 26.8291 71.5043 26.4185 71.9476 26.5186C 72.389 26.6182 73.1546 27.2852 73.1546 27.73C 73.18 28.7031 72.9535 29.666 72.4964 30.5259C 72.098 31.2002 71.6039 31.8213 71.1097 32.4419C 70.7757 32.8608 70.4437 33.2798 70.139 33.7153C 70.7718 32.0396 71.4066 30.3613 72.0472 28.6812L 71.2054 28.4741C 70.1722 30.0449 69.7718 31.9448 70.0824 33.7964C 69.9183 34.0356 69.764 34.2808 69.6234 34.5332C 69.1781 35.335 68.9476 36.2544 68.7171 37.1719C 68.6254 37.5361 68.5336 37.9004 68.4281 38.2568C 68.3461 38.5254 68.2855 38.7988 68.2289 39.0542L 68.223 39.0771L 68.2093 39.1392L 68.2054 39.1587L 68.1957 39.2046L 68.1254 39.5264C 69.7132 39.4419 70.5394 38.2339 71.3812 36.9263C 72.8968 34.563 74.4886 32.248 76.0804 29.9331L 76.7308 28.9878C 77.0902 28.4263 77.2523 27.7607 77.1898 27.0977C 77.1898 26.0156 77.5511 24.916 77.9027 23.8486L 78.0472 23.4082C 78.2367 22.7339 78.6019 22.1216 79.1039 21.6328C 79.3461 21.46 79.6214 21.3413 79.9144 21.2842C 80.2054 21.2275 80.5062 21.2339 80.7972 21.3027C 81.5355 21.5254 81.6839 22.3496 81.4164 23.0054C 81.2132 23.501 80.932 23.9629 80.6507 24.4263L 80.6234 24.4702L 80.6 24.5078C 80.4222 24.8027 80.2445 25.0996 80.0882 25.4062C 79.8558 25.9268 79.6507 26.4595 79.473 27.0015C 79.3968 27.27 79.2875 27.5273 79.1468 27.7686C 78.1214 29.1621 77.0863 30.5518 76.0511 31.9414L 75.6195 32.5215L 75.2269 33.0493L 74.889 33.5044L 73.3363 35.5996C 72.7894 36.3394 72.2738 37.1104 71.7972 37.9004L 71.5882 38.2358C 71.1683 38.9009 70.7504 39.5591 70.8363 40.5581C 70.9007 41.2979 70.1136 42.3721 69.4046 42.8589C 68.1058 43.7407 67.2972 44.9185 66.5472 46.2031C 65.7894 47.4526 65.1039 48.7446 64.4945 50.0723L 64.7074 49.875C 64.848 49.7471 64.9886 49.6187 65.1214 49.4819C 68.6468 45.8818 72.1703 42.2783 75.6937 38.6714C 76.2484 38.1006 76.7894 37.5166 77.3304 36.9326C 77.7972 36.4292 78.264 35.9258 78.7386 35.4307C 79.1351 34.98 79.5824 34.5771 80.0726 34.2305C 80.8851 33.7051 81.7386 33.7549 82.3812 34.5142C 82.6546 34.8281 82.805 35.231 82.8011 35.647C 82.7972 36.0635 82.641 36.4639 82.3617 36.7729C 81.9711 37.2266 81.4925 37.5991 80.9574 37.8696C 79.9984 38.4028 79.0043 38.8755 77.9847 39.2847C 77.6898 39.3984 77.348 39.3955 76.9711 39.3921C 76.7894 39.3901 76.598 39.3887 76.4007 39.3999L 66.4398 49.1021L 66.475 49.1421C 66.5336 49.2085 66.5902 49.2729 66.6429 49.3398C 72.6019 44.8301 79.1273 41.2866 85.5843 37.8081C 85.6468 37.6665 85.7015 37.5083 85.7543 37.3501C 85.8773 36.9819 86.0004 36.6118 86.2582 36.4429C 86.4027 36.3467 86.6605 36.4448 86.9418 36.5522C 87.1644 36.6367 87.4007 36.7271 87.6078 36.7305C 87.9457 36.686 88.2582 36.5181 88.4808 36.2588C 88.5707 36.1641 88.6507 36.0605 88.7269 35.9521L 88.9027 36.2017C 89.9613 36.0557 90.0882 36.167 89.9339 37.4863L 94.4457 33.563L 93.641 32.8345L 88.7269 35.9521C 88.7718 35.8896 88.8129 35.8262 88.8519 35.7622L 88.8812 35.7178L 88.9222 35.6533C 89.0414 35.4648 89.1605 35.2759 89.307 35.1084C 89.8656 34.4756 90.4613 33.8623 91.0609 33.2715C 91.7015 32.5674 92.4086 31.9253 93.1722 31.354C 94.0257 30.7944 94.975 30.9707 95.6996 31.7378C 96.0179 32.0352 96.2152 32.4399 96.2523 32.874C 96.2894 33.3081 96.1664 33.7407 95.9027 34.0884C 95.3734 34.7822 94.7113 35.3647 93.9574 35.8027C 92.8421 36.4199 91.6937 36.9771 90.5179 37.4707C 90.2406 37.5972 89.7953 37.77 89.6254 37.6475C 88.9554 37.1685 88.4418 37.4712 87.9339 37.7715C 87.8187 37.8394 87.7035 37.9067 87.5882 37.9653C 85.6761 38.8481 83.8246 39.7983 81.9535 40.7593L 80.8578 41.3213C 82.3148 42.3833 82.3343 42.5176 81.2777 44.623C 81.5453 44.5054 81.8031 44.3867 82.055 44.27L 82.0843 44.2568C 82.6937 43.9746 83.2738 43.707 83.8734 43.5107C 84.2933 43.4106 84.7367 43.4565 85.1273 43.6411C 85.2074 43.7739 85.2562 43.9238 85.2699 44.0786C 85.2855 44.2334 85.264 44.3896 85.2074 44.5347C 84.8382 44.709 84.4418 44.813 84.0336 44.8413C 83.7621 44.8545 83.4906 44.894 83.2269 44.9604C 78.0843 47.2002 72.9437 49.4497 67.8089 51.71C 67.5648 51.8682 67.2953 51.9858 67.014 52.0586L 89.1605 48.3887C 89.057 47.9009 89.0043 47.4033 89.0023 46.9048C 89.2992 46.748 89.6351 46.6787 89.9691 46.7051C 90.182 47.2241 90.3441 47.7622 90.4535 48.312L 92.9652 47.7256L 92.9925 47.7192C 93.1293 47.688 93.348 47.6377 93.348 47.5874C 93.4105 46.4873 94.1546 46.2646 94.8968 46.043C 95.1898 45.9556 95.4828 45.8687 95.7328 45.7275C 96.3226 45.3975 96.9183 45.0757 97.5296 44.7881C 99.0863 44.0518 100.102 44.3467 100.606 45.6582C 101.174 47.1616 100.428 48.7686 98.9398 49.1099C 98.4183 49.2085 97.8832 49.2227 97.3558 49.1519C 96.9593 49.1133 96.5629 49.0576 96.1644 49.001L 96.1468 48.9985L 96.1293 48.9961L 96.1117 48.9937L 96.0941 48.9912L 96.0765 48.9888L 96.0589 48.9863L 96.0414 48.9839L 96.0238 48.9814L 96.0062 48.979L 95.9886 48.9766L 95.9554 48.9717L 95.9398 48.9692C 95.0882 48.8447 94.2367 48.7207 93.3871 48.7378C 92.5101 48.7544 91.639 48.9429 90.766 49.1323L 90.723 49.1416L 90.6859 49.1494C 90.3656 49.2192 90.0453 49.2886 89.723 49.3477C 87.5277 49.7295 85.3304 50.1055 83.1332 50.4814C 78.7152 51.2378 74.2953 51.9946 69.8812 52.7988C 68.8402 52.9883 67.7992 53.2988 66.6996 53.6274C 66.1742 53.7842 65.6332 53.9453 65.0746 54.0991L 76.4086 53.3896C 76.4183 53.3081 76.4203 53.2148 76.4222 53.1172L 76.4222 53.1025C 76.4281 52.8774 76.4339 52.6313 76.5511 52.4575C 76.7679 52.0479 77.1195 51.7256 77.5472 51.5449C 78.4535 51.3989 79.3675 51.3057 80.2855 51.2651C 82.2992 51.0542 82.7992 51.4375 83.1312 53.5273C 84.2289 53.8413 85.2425 53.5151 86.2523 53.1899C 86.6976 53.0464 87.1429 52.9028 87.5961 52.8145C 88.1742 52.7007 88.7367 52.5117 89.2992 52.3223C 89.7816 52.1597 90.264 51.9976 90.7562 51.8823C 92.1214 51.5679 93.2328 52.2158 93.5218 53.3857C 93.8109 54.5552 93.0257 55.6865 91.6761 55.9204C 90.8675 56.0103 90.0531 56.0229 89.2425 55.959C 88.1918 55.959 87.1371 55.959 86.0843 55.9092C 85.8031 55.9268 85.5277 55.833 85.3148 55.6484C 84.598 54.6499 83.6957 54.8096 82.7933 54.9688C 82.5414 55.0132 82.2894 55.0576 82.0414 55.0767C 81.8402 55.0928 81.6351 55.1309 81.43 55.1694C 81.0375 55.2427 80.6468 55.3159 80.2933 55.2305C 77.6234 54.583 74.9554 54.772 72.2855 54.9609C 71.4945 55.0171 70.7015 55.0732 69.9086 55.1074C 69.7757 55.1074 69.6488 55.2598 69.4808 55.459C 69.3832 55.5757 69.2718 55.709 69.139 55.8364C 69.9046 55.9971 70.6488 56.146 71.3734 56.291L 71.5062 56.3179C 73.1195 56.6406 74.6468 56.9463 76.1586 57.3203C 78.6058 57.9189 81.0375 58.5947 83.4691 59.271L 83.5179 59.2842L 85.5218 59.8398L 85.6195 59.8667C 86.1351 60.0107 86.5785 60.1348 87.0609 59.6328C 87.2836 59.3989 87.8617 59.3682 88.2425 59.437C 89.0941 59.5986 89.9476 59.791 90.8011 59.9834L 90.8558 59.9956L 90.9027 60.0063C 91.555 60.1533 92.2035 60.2993 92.8558 60.4307L 93.1019 60.478C 93.9808 60.6445 94.8382 60.8071 95.0941 61.8838C 95.1918 62.3018 95.1625 62.7388 95.0101 63.1396C 94.8578 63.5405 94.5882 63.8872 94.2367 64.1348C 93.4418 64.7871 92.348 64.7754 91.3539 64.1348C 91.0023 63.9092 90.6703 63.6523 90.3402 63.3975C 89.7347 62.9287 89.1351 62.4658 88.4457 62.2173C 84.9847 60.9556 81.4808 59.7744 77.932 58.7661C 76.1468 58.2598 74.3168 57.9097 72.4847 57.5596L 72.4691 57.5566C 71.6156 57.3936 70.7621 57.2305 69.9125 57.0518C 69.6214 57.0146 69.3285 56.9966 69.0355 56.998L 69.016 57.0562L 68.9398 57.2817L 69.141 57.4053C 69.307 57.5093 69.473 57.6133 69.6468 57.7036L 71.4398 58.6235L 71.7894 58.8032C 74.7406 60.3169 77.6898 61.8291 80.6546 63.3145C 81.0902 63.4585 81.5492 63.5249 82.0082 63.5098C 82.0882 63.5186 82.1742 63.5024 82.2582 63.4858C 82.3519 63.4678 82.4476 63.4492 82.5355 63.4678C 84.0726 63.7935 85.5804 64.1157 87.0961 64.4839C 88.0101 64.71 88.6039 65.2817 88.5961 66.2861C 88.5746 66.7686 88.3968 67.231 88.0863 67.6021C 87.7757 67.9727 87.3519 68.2314 86.8812 68.3379C 85.8226 68.5718 84.9261 68.2114 84.1 67.5708C 83.9437 67.4531 83.7953 67.3252 83.6468 67.1973L 83.6351 67.1865C 83.055 66.6846 82.4828 66.189 81.5355 66.3286C 81.3695 66.3516 81.1273 65.9272 80.9046 65.5361C 80.8324 65.4077 80.7621 65.2827 80.6957 65.1782C 80.6312 65.0776 80.5824 64.9541 80.5355 64.8325C 80.4554 64.6289 80.3773 64.4302 80.2308 64.3535C 76.9847 62.6445 73.7211 60.9663 70.4574 59.2881L 70.3402 59.228L 69.2621 58.6738C 69.0492 58.6216 68.8324 58.5923 68.6136 58.5859C 68.6898 58.7812 68.7464 58.978 68.7972 59.1655L 68.805 59.1904L 68.8187 59.2383C 68.932 59.6494 69.0316 60.0054 69.266 60.1812C 74.5921 64.1812 79.0238 69.0742 83.3461 74.0791L 83.3734 74.1104C 83.6937 74.478 83.9281 74.7485 84.5492 74.5508C 85.3187 74.3013 85.7543 74.8076 85.8382 75.6514C 85.9007 76.0122 86.098 76.3364 86.3871 76.5601C 86.6527 76.752 86.9535 76.8926 87.2543 77.0327C 87.4711 77.1333 87.6879 77.2339 87.891 77.354C 88.8832 77.9404 89.1 78.8496 88.5062 79.7812C 87.8421 80.8242 86.557 81.2427 85.7914 80.4448C 85.1527 79.7739 84.6312 78.9878 84.1117 78.2007L 84.098 78.1812C 83.8832 77.854 83.6664 77.5269 83.4418 77.208C 83.4046 77.1543 83.3656 77.0547 83.3929 77.0088C 83.932 76.0117 83.3519 75.4321 82.7933 74.873C 82.6507 74.7305 82.5101 74.5894 82.389 74.4434C 78.5765 69.8413 74.5589 65.439 69.8089 61.7612C 69.5707 61.5723 69.3226 61.394 69.0726 61.2158L 68.7289 60.9673L 68.5023 61.1362C 68.6039 61.4355 68.7328 61.7256 68.8851 62.0029L 69.8812 63.4185L 69.9027 63.4497C 71.5394 65.7803 73.1781 68.1108 74.8656 70.4048C 75.0902 70.71 75.4711 70.8994 75.85 71.0884C 76.0257 71.1753 76.1996 71.2622 76.3578 71.3599L 75.5277 71.3599C 76.3812 73.1343 77.2152 74.8716 78.0277 76.5718L 78.8773 76.3452L 78.0296 74.5708L 77.7914 74.0693L 77.4906 73.437L 76.6078 71.5825C 76.8675 71.8999 77.1351 72.2109 77.4046 72.522C 78.0414 73.2549 78.6761 73.9878 79.1703 74.8037C 79.5882 75.6182 79.807 76.5195 79.807 77.4346C 79.8207 77.7441 79.5785 78.0649 79.3363 78.3867L 79.3148 78.4141L 79.2894 78.4478C 79.1996 78.5679 79.1117 78.688 79.0394 78.8071C 78.9144 78.7334 78.7777 78.6685 78.639 78.6035L 78.6058 78.5874C 78.2718 78.4316 77.9418 78.2764 77.7738 78.0171C 77.2015 77.0791 76.7015 76.0986 76.2816 75.0835C 74.3382 70.6763 71.7621 66.5737 68.6351 62.9038C 68.5101 62.771 68.3754 62.6494 68.2289 62.5396L 67.2699 63.6899C 70.7328 69.7837 72.3011 76.4644 72.9554 83.5049C 73.9437 83.436 74.3129 83.9385 74.5472 84.8359C 74.7211 85.5034 75.0453 86.1313 75.3695 86.7603C 75.5179 87.0493 75.6664 87.3384 75.8011 87.6313C 76.2894 88.686 76.1859 89.6792 75.35 90.0625C 74.6566 90.3535 73.8929 90.4326 73.1546 90.2891C 72.3285 90.1162 72.2425 89.2573 72.305 88.5327C 72.6546 84.5981 71.9964 80.7476 71.2894 76.9165C 70.5257 72.6479 69.0804 68.5283 67.014 64.7139C 66.8851 64.459 66.6898 64.2422 66.4515 64.085C 66.6039 64.6626 66.7679 65.2378 66.932 65.813C 67.2875 67.062 67.6429 68.3096 67.8832 69.5806C 68.225 71.4165 68.4867 73.2671 68.7464 75.1182L 68.7621 75.2329C 68.8793 76.0811 68.9984 76.9287 69.1254 77.7759C 69.139 77.8618 69.1429 77.9673 69.1468 78.0728C 69.1586 78.3057 69.1683 78.5415 69.266 78.5811C 70.3578 79.0361 70.1644 79.7109 69.9437 80.4922C 69.9105 80.606 69.8773 80.7222 69.848 80.8398C 69.7464 81.2515 69.8187 81.7012 69.891 82.1553L 69.8968 82.1929C 69.9379 82.4458 69.9789 82.6997 69.9867 82.9492C 70.0082 83.6582 69.8285 84.3833 69.0472 84.6938C 68.266 85.0044 67.3246 84.9971 66.7894 84.3105C 66.4046 83.8193 66.0824 82.8687 66.3129 82.4238C 66.4984 82.0659 66.6429 81.6807 66.7875 81.2939L 66.8011 81.2568C 67.0687 80.5405 67.3363 79.8208 67.8929 79.2637L 67.4164 83.3594L 68.8246 83.3594L 68.6742 81.9058L 68.6586 81.7471C 68.5746 80.9224 68.4906 80.1074 68.3968 79.2866L 67.8929 79.2637C 68.0375 79.1187 68.2054 78.9849 68.3929 78.8647C 68.5433 78.769 68.5511 78.355 68.5277 78.0977C 68.1058 73.5688 67.4086 69.0898 65.8558 64.7905C 65.6488 64.3989 65.4144 64.0225 65.1546 63.6631C 65.0531 63.48 64.932 63.2949 64.8109 63.1094L 64.7992 63.0898C 64.4671 62.5815 64.1312 62.0674 64.1488 61.5693C 64.2035 59.8423 63.348 58.6108 62.4222 57.2808L 62.3207 57.1338L 61.9671 56.6187C 51.8597 67.2388 42.2445 78.1084 34.7211 90.8423C 35.3714 91.0054 36.0257 91.1777 36.682 91.3589L 40.3734 92.3789L 44.139 93.3989C 45.2992 92.7896 46.5257 92.3125 47.7933 91.9766C 49.2191 91.5703 50.6957 91.3623 52.18 91.3589C 53.2894 91.3311 54.3929 91.5156 55.43 91.9033C 56.3343 92.2676 56.7562 92.8394 56.7113 93.6177C 56.6605 94.2505 56.2601 94.7451 55.5043 95.1094C 54.5707 95.5093 53.5609 95.6968 52.5453 95.6577C 51.0336 95.6577 49.6566 95.5967 48.4164 95.4736C 47.1742 95.355 45.8421 95.1709 44.432 94.9292C 43.9574 95.2358 43.516 95.5903 43.1156 95.9878C 42.6293 96.4478 42.1156 96.9453 41.5785 97.4795C 41.0394 98.0161 40.516 98.561 40.0043 99.1206C 39.4925 99.6807 39.0433 100.202 38.6507 100.686C 37.5336 102.097 36.5472 103.375 35.6937 104.521C 34.8402 105.666 33.9007 106.869 32.8793 108.129L 34.3402 108.129C 34.8754 108.129 35.4359 108.106 36.0199 108.056C 36.6058 108.006 37.1742 107.949 37.7015 107.876C 38.1742 107.817 38.641 107.707 39.0902 107.546C 39.2367 107.354 39.4437 107.097 39.7132 106.779C 39.973 106.468 40.2523 106.175 40.5511 105.901C 40.8285 105.646 41.1351 105.426 41.4671 105.245C 41.7679 105.079 42.1136 105.015 42.4554 105.065C 43.0394 105.21 43.1468 105.502 42.7816 105.939C 42.2191 106.58 41.6214 107.188 40.9886 107.761C 40.2211 108.443 39.5785 109.039 39.0668 109.548C 38.5531 110.057 38.0785 110.58 37.639 111.116C 37.4476 111.294 37.2875 111.505 37.1664 111.738C 37.0941 111.91 37.0043 111.968 36.9086 111.918C 36.8129 111.868 36.7406 111.688 36.8363 111.374C 36.932 111.06 37.055 110.754 37.2015 110.46C 37.4066 110.062 37.641 109.678 37.8968 109.31C 38.1625 108.927 38.3695 108.631 38.516 108.436C 37.6351 108.662 36.7328 108.797 35.8246 108.838C 34.7015 108.91 33.5082 108.946 32.2445 108.946C 31.9964 109.291 31.7289 109.62 31.4398 109.931C 31.1488 110.246 30.8558 110.576 30.5628 110.913C 27.6507 114.091 24.2601 116.797 20.5101 118.932C 16.9359 120.96 12.891 122.018 8.77769 122C 7.73668 122 6.69762 121.904 5.67418 121.716C 4.69957 121.552 3.75426 121.258 2.85777 120.842C 2.07262 120.484 1.38316 119.945 0.848006 119.27C 0.316756 118.563 0.0237875 117.708 0.00816248 116.827C -0.0230875 116.366 0.0355062 115.904 0.181991 115.466C 0.330428 115.029 0.56285 114.625 0.865584 114.276C 1.1898 113.9 1.5941 113.603 2.05113 113.407C 2.50621 113.212 3.00035 113.124 3.49644 113.149C 3.80699 113.138 4.11558 113.191 4.40465 113.304C 4.69371 113.417 4.95738 113.587 5.17808 113.805C 5.38902 114.008 5.54722 114.262 5.63707 114.542C 5.72691 114.821 5.74449 115.119 5.6898 115.408C 5.60387 115.771 5.45543 116.116 5.25035 116.428C 5.05894 116.715 4.83824 116.984 4.59215 117.229C 3.95933 117.861 3.64293 118.419 3.64293 118.905C 3.64293 119.1 3.6859 119.292 3.76793 119.467C 3.85191 119.644 3.97105 119.8 4.11949 119.925C 4.45933 120.234 4.84996 120.481 5.27379 120.654C 5.78551 120.862 6.31871 121.007 6.86558 121.087C 7.44566 121.185 8.0316 121.234 8.61949 121.233C 11.3675 121.228 14.0726 120.57 16.514 119.315C 19.0511 118.034 21.3304 116.302 23.2406 114.204C 24.1644 113.237 24.9671 112.332 25.6527 111.488C 26.3363 110.645 27.0199 109.763 27.6976 108.842L 25.391 108.842C 24.8168 108.837 24.2425 108.862 23.6722 108.915C 23.1546 108.93 22.639 108.992 22.1332 109.099C 21.8871 109.172 21.7484 109.099 21.7484 108.842C 21.7953 108.697 22.0023 108.578 22.3675 108.478C 22.8343 108.375 23.307 108.294 23.7816 108.235ZM 70.0824 33.7964L 70.139 33.7153L 70.0902 33.8433L 70.0863 33.8198L 70.0824 33.7964ZM 65.7718 51.2114L 74.3656 45.022C 75.2621 45.6763 76.1605 45.5625 77.0687 45.4473C 77.7504 45.3608 78.4379 45.2739 79.1312 45.5127L 77.4261 46.2256L 77.0218 46.3945C 75.4593 47.0444 73.9379 47.6772 72.4242 48.3545C 71.9535 48.5649 71.4847 48.7788 71.016 48.9932L 70.8968 49.0469C 69.223 49.8115 67.5414 50.5791 65.7718 51.2114ZM 47.2386 43.2114L 45.5921 42.874L 45.5921 41.7891L 47.3617 41.8745C 48.8421 41.9434 50.3656 42.0146 51.8832 42.1265C 53.1488 42.2183 53.7328 42.7134 53.5921 43.4263C 53.4496 44.1396 52.7074 44.3584 51.5257 44.1016C 50.1742 43.811 48.8168 43.5337 47.4535 43.2554L 47.3578 43.2358L 47.2386 43.2114ZM 41.8109 28.877C 40.4437 28.1675 39.1136 27.3867 37.8285 26.5376L 38.1507 25.5483C 39.4281 25.9893 40.7699 26.457 42.1195 26.9326C 42.3871 27.0166 42.6449 27.127 42.889 27.2622L 43.0824 27.376C 43.6644 27.7129 44.3441 28.1079 43.8539 28.7964C 43.6039 29.1489 42.3929 29.1455 41.8109 28.877ZM 98.7953 46.2451L 99.0531 47.3188C 98.6742 47.4517 98.2953 47.5884 97.9183 47.7256C 97.0296 48.0479 96.1429 48.3691 95.2406 48.6304C 94.2171 48.937 93.4867 48.3159 93.7875 47.4033C 93.8988 47.1924 94.055 47.0088 94.2464 46.8667C 94.4379 46.7246 94.6605 46.6274 94.8949 46.5825C 95.8343 46.4395 96.7836 46.3784 97.7425 46.3169L 97.7718 46.3149L 97.8031 46.313L 98.7953 46.2451ZM 91.5101 54.4478L 86.9183 55.3647C 86.7464 55.0195 86.8519 54.8364 86.9574 54.6523C 87.0629 54.4663 87.1703 54.2788 86.9925 53.9224C 87.9222 53.9224 88.555 53.7905 89.182 53.6602C 89.7894 53.5337 90.391 53.4087 91.2484 53.4087L 91.3011 53.6187L 91.5101 54.4478ZM 49.6351 31.7056C 49.7035 31.6499 49.7836 31.584 49.8734 31.5L 50.6644 31.9634C 51.4886 32.4434 52.307 32.9199 53.0882 33.4517C 53.2445 33.563 53.2191 34.2495 53.0375 34.4604C 52.8988 34.5693 52.7367 34.6406 52.5629 34.6685C 52.389 34.6958 52.2113 34.6782 52.0453 34.6177C 51.1664 33.9697 50.3578 33.2227 49.5472 32.4741L 49.4886 32.4204C 49.4398 32.356 49.4066 32.2812 49.391 32.2021C 49.3754 32.123 49.3793 32.0415 49.3988 31.9639C 49.4261 31.877 49.5101 31.8081 49.6351 31.7056ZM 85.348 78.5488C 84.5668 78.1079 83.7914 77.6699 83.6644 76.6021C 84.0804 76.5405 84.5004 76.5186 84.9183 76.5371C 85.2347 76.5913 85.5257 76.7354 85.7621 76.9512C 86.1078 77.2915 86.432 77.6572 86.7757 78.0449L 86.8441 78.1211L 86.8793 78.1621L 87.391 78.7383L 86.7601 79.6699C 86.4261 79.1572 85.8871 78.8525 85.348 78.5488ZM 81.725 64.4209L 81.7699 64.3306C 82.516 64.7134 83.3656 64.9258 84.2211 65.1401C 85.0804 65.3555 85.9457 65.5723 86.7191 65.9644L 86.3734 67.0493L 85.9652 66.8931C 85.6429 66.7671 85.3207 66.6406 84.9886 66.5547C 84.2875 66.4229 83.6234 66.1416 83.0414 65.7305C 82.5492 65.3857 82.0804 65.0078 81.639 64.5991L 81.725 64.4209ZM 73.3519 87.3452C 72.8285 85.8403 72.8285 85.8394 74.5199 85.2808C 74.6234 86.5269 74.723 87.7236 74.8539 89.0005L 73.7504 89.0005C 73.7074 88.8208 73.6683 88.6372 73.6312 88.4521L 73.6254 88.4268L 73.6214 88.4043L 73.6078 88.3438C 73.5414 88.0225 73.473 87.6987 73.3656 87.3857L 73.3519 87.3452ZM 58.5336 24.1831L 58.7289 24.064C 59.4281 24.7505 60.0921 25.4722 60.7171 26.2271C 60.8285 26.4097 60.8988 26.6138 60.9261 26.8257C 60.9535 27.0376 60.9359 27.2529 60.8754 27.458C 60.7796 27.6089 60.6449 27.7324 60.4867 27.8159C 60.3285 27.8989 60.1507 27.9399 59.9711 27.9336C 59.6468 27.7144 59.4164 27.3818 59.3246 27.0015C 59.1058 26.3379 58.9261 25.6626 58.7484 24.9878C 58.6781 24.7192 58.6078 24.4507 58.5336 24.1831ZM 76.7543 38.7515L 80.4007 35.377L 81.0921 36.1938C 80.5238 36.4346 80.0668 36.9336 79.5961 37.4507C 78.9027 38.209 78.1742 39.0073 76.9964 39.0894L 76.7543 38.7515ZM 64.2054 25.437L 64.4242 30.3687C 64.2523 30.3022 64.1175 30.25 64.0082 30.165C 63.6058 29.853 63.5453 29.0972 63.2679 25.5596L 64.2054 25.437ZM 80.514 53.1597C 80.5296 53.2617 80.5492 53.3735 80.5765 53.4814L 80.5687 53.4585L 79.6566 53.4648L 79.5668 53.4658L 79.4808 53.4668C 78.766 53.4751 78.0843 53.4829 77.4086 53.4546C 77.1664 53.4395 76.7113 52.9829 76.7504 52.895C 76.9086 52.5151 77.2738 51.8745 77.4535 51.9092C 78.4515 52.1279 79.432 52.4214 80.3851 52.7876C 80.4574 52.8125 80.4828 52.9683 80.514 53.1597ZM 77.9984 44.7217C 77.0531 45.1025 76.1312 45.4741 75.0746 44.9717L 75.0668 44.9487C 76.7543 43.6221 79.1879 43.2388 79.9125 44.2051C 79.2367 44.2231 78.6136 44.4741 77.9984 44.7217ZM 68.9632 22.1802C 69.0804 23.3555 69.1937 24.502 68.2367 25.4751L 68.2289 25.4521C 68.3011 24.9209 68.1546 24.4009 68.0101 23.8862C 67.7992 23.1387 67.5921 22.4023 68.0629 21.6597C 68.2582 21.3442 68.5453 21.0967 68.8851 20.9502C 68.8812 21.3599 68.9222 21.772 68.9632 22.1802ZM 77.8304 25.6284L 79.4847 22.626L 80.1273 23.0361L 78.9359 25.8779L 77.8304 25.6284ZM 59.057 50.5669L 56.7035 50.3828C 56.6429 49.9722 56.6019 49.6143 56.5609 49.2515L 56.555 49.1924L 56.5375 49.0332C 56.7113 49.0649 56.8929 49.0854 57.0765 49.1064C 57.93 49.2031 58.8226 49.3042 59.057 50.5669ZM 66.1664 44.834L 65.8089 44.5654L 67.9828 41.2139L 68.3089 41.4248C 67.5921 42.5596 66.8773 43.6963 66.1664 44.834ZM 93.389 62.0791C 93.2933 62.4937 93.1976 62.9048 93.0257 63.6172L 91.85 61.6577L 93.4105 61.9834L 93.389 62.0791ZM 91.5375 61.2817L 91.3754 61.5273C 91.1175 61.4102 90.8226 61.3477 90.5277 61.2852C 89.9847 61.1699 89.4437 61.0542 89.1214 60.5303L 89.3675 60.0737L 91.5375 61.2817ZM 66.4593 57.5962L 67.9164 58.0757C 67.8285 58.2891 67.7504 58.4541 67.6625 58.6387L 67.5062 58.9692L 66.2777 57.9033L 66.4593 57.5962ZM 136.971 20.9961C 137.041 20.9961 137.118 20.9878 137.192 20.979C 137.342 20.9619 137.491 20.9448 137.602 20.9961C 137.737 21.0688 137.889 21.1396 138.045 21.2109C 138.526 21.4336 139.03 21.668 139.139 22.0161C 139.286 22.4761 138.909 23.4004 138.467 23.7036C 137.467 24.3867 136.395 24.9692 135.323 25.5513L 135.254 25.5884L 135.08 25.6836C 134.741 25.8682 134.403 26.0527 134.067 26.2422C 133.707 26.4443 133.352 26.6519 132.996 26.8599C 132.135 27.3628 131.272 27.8657 130.371 28.2861C 129.879 28.5161 129.026 28.6196 128.68 28.3477C 128.332 28.0752 128.161 27.1587 128.344 26.7021C 129.315 24.2827 134.387 20.9961 136.971 20.9961ZM 134.842 23.0127L 134.735 23.0576C 133.942 23.3857 133.11 23.73 132.317 24.1445C 131.282 24.6689 130.301 25.293 129.387 26.0083C 128.438 26.7754 128.28 27.6455 128.871 28.064C 129.659 28.623 130.176 28.1113 130.678 27.6157L 130.856 27.4424L 130.885 27.4155C 130.903 27.4009 130.92 27.3862 130.934 27.3696C 132.368 25.6514 134.063 24.3018 136.178 23.811L 135.698 22.6528C 135.42 22.7729 135.133 22.8921 134.842 23.0127ZM 47.4144 19.3433C 46.6957 18.5186 45.8832 17.8516 45.2074 17.8516C 43.6371 17.8247 42.7836 18.4346 42.3871 19.4736C 41.9906 20.5127 42.1879 21.6328 43.057 22.2578C 43.7914 22.7319 44.5629 23.1475 45.3636 23.5005C 45.6761 23.6553 45.9964 23.7983 46.3168 23.9414C 46.9007 24.2012 47.4828 24.4609 48.014 24.7925C 48.8363 25.3066 49.4711 25.1875 50.0863 24.5396C 50.3773 24.249 50.5414 23.8564 50.5453 23.4468C 50.5492 23.0366 50.391 22.6416 50.1058 22.3462C 49.1898 21.3486 48.2992 20.3516 47.4144 19.3433ZM 46.2367 22.2329L 45.4711 21.4023L 46.2914 20.4824C 46.6195 20.6831 46.9554 20.8833 47.2972 21.0854L 47.3519 21.1187C 48.0843 21.5547 48.8363 22.0024 49.5589 22.4917C 50.2562 22.9673 50.3793 23.646 49.7445 24.3018C 49.1097 24.9575 48.5179 24.666 47.9984 24.1255C 47.4711 23.5703 46.9535 23.0098 46.4515 22.4644L 46.2367 22.2329ZM 63.598 15.0405L 63.6332 15.4868L 63.6644 15.8965L 63.6976 16.314C 63.7406 16.8735 63.7836 17.4326 63.8324 17.9932C 63.9007 18.7603 63.8324 19.5044 63.0394 19.9106C 62.8636 19.9966 62.6683 20.0444 62.473 20.0498C 62.2757 20.0557 62.0785 20.019 61.8968 19.9434C 61.7152 19.8677 61.5511 19.7539 61.4164 19.6099C 61.2836 19.4663 61.18 19.2954 61.1175 19.1094L 60.6488 17.7773C 60.2406 16.6313 59.8343 15.4863 59.4984 14.3193C 59.2328 13.3813 59.1234 12.4053 59.1761 11.4316C 59.2367 10.5229 59.9222 9.89795 60.8519 9.75977C 61.2582 9.6875 61.6761 9.74316 62.0492 9.91846C 62.4203 10.0933 62.7308 10.3799 62.932 10.7378C 63.8441 12.0566 63.7718 13.5449 63.598 15.0405ZM 62.1214 13.2881C 61.098 13.4683 60.9867 14.0205 61.2054 14.8447C 61.2914 15.4019 61.3265 15.9653 61.3129 16.5283C 61.3265 17.3018 61.4125 18.0723 61.5707 18.8291C 61.6605 19.0161 61.7953 19.1777 61.9652 19.2983C 62.1332 19.4189 62.3304 19.4951 62.5355 19.5195C 62.8519 19.4927 63.225 19.0327 63.3988 18.6797C 63.5023 18.3394 63.4925 17.9746 63.3714 17.6406C 63.0746 16.5444 62.7562 15.4541 62.4437 14.3872L 62.4242 14.3208L 62.1214 13.2881ZM 46.6254 51.5483L 45.0921 51.4185L 45.0726 51.2383C 44.3441 51.3682 43.6273 51.5464 42.9222 51.7715C 41.9886 52.1357 41.3812 52.8682 41.5082 53.9111C 41.5531 54.3984 41.7718 54.853 42.1254 55.1938C 42.4769 55.5342 42.9398 55.7373 43.43 55.7671C 44.1996 55.8413 44.9769 55.8052 45.7367 55.6602C 47.0668 55.4277 48.3734 55.1455 49.6781 54.8638L 50.7367 54.6362C 51.0589 54.5981 51.3539 54.4424 51.5668 54.1997C 51.7816 53.9565 51.8968 53.6436 51.891 53.3208C 51.9105 53.1509 51.8949 52.9785 51.8441 52.8149C 51.7953 52.6514 51.7113 52.5 51.6 52.3696C 51.4886 52.2397 51.35 52.1343 51.1957 52.0596C 51.0414 51.9849 50.8734 51.9429 50.7035 51.936C 49.3558 51.7754 48.0043 51.6631 46.6527 51.5508L 46.6254 51.5483ZM 47.1117 54.0913L 45.641 54.0107L 45.2796 52.8413L 46.8031 52.6694C 47.9906 52.5332 49.1644 52.3989 50.3402 52.2969C 50.4828 52.2661 50.6312 52.2695 50.7718 52.3062C 50.9125 52.3428 51.0414 52.4116 51.1507 52.5073C 51.2601 52.603 51.3461 52.7231 51.4007 52.8579C 51.4535 52.9922 51.4769 53.1377 51.4632 53.2822C 51.4632 53.9917 50.9418 54.2681 50.3109 54.2485C 49.2543 54.2114 48.1976 54.1523 47.1117 54.0913ZM 125.922 18.3926C 125.866 18.9409 125.688 19.4702 125.401 19.9414C 125.114 20.4126 124.723 20.8135 124.26 21.1152C 123.518 21.5845 122.748 22.0068 121.953 22.3809L 120.991 22.8765L 120.891 22.9277L 120.827 22.9604L 120.793 22.9775L 120.729 23.0103L 120.696 23.0278C 120.108 23.3281 119.52 23.6294 118.946 23.9492C 117.957 24.4976 117.2 24.4287 116.774 23.7573C 116.346 23.0864 116.623 22.2734 117.342 21.625C 117.916 21.1069 118.467 20.5649 119.018 20.0229L 119.045 19.9966C 119.641 19.4087 120.239 18.8203 120.869 18.2622C 121.528 17.6265 122.284 17.0977 123.108 16.6934C 124.522 16.0762 125.93 16.9927 125.922 18.3926ZM 123.069 18.6377L 121.887 19.3574L 121.649 19.5029L 121.602 19.5312L 121.553 19.561C 120.659 20.106 119.76 20.6538 118.866 21.207C 118.297 21.4888 117.77 21.8462 117.299 22.2695C 117.176 22.4443 117.1 22.6475 117.075 22.8599C 117.051 23.0723 117.08 23.2871 117.161 23.4854C 117.319 23.6284 117.51 23.729 117.717 23.7773C 117.924 23.8257 118.141 23.8198 118.346 23.7612C 119.067 23.3857 119.741 22.9233 120.35 22.3848C 121.127 21.7451 121.889 21.083 122.629 20.439L 122.674 20.3994L 122.784 20.3037L 122.893 20.2085L 123.053 20.0698L 123.811 19.4165L 123.069 18.6377ZM 111.274 10.4233C 112.45 8.24902 111.412 6.50781 108.932 6.50781C 106.854 6.51562 105.854 7.61621 106.078 9.67529C 106.106 9.95459 106.145 10.2329 106.186 10.5117C 106.287 11.2168 106.389 11.9204 106.278 12.6245C 106.123 13.6064 106.344 14.1318 107.246 14.3999C 108.362 14.73 109.35 14.373 109.735 13.541C 110.219 12.4941 110.719 11.4434 111.274 10.4233ZM 107.868 9.94873L 108.362 8.59766L 109.731 8.49023L 109.547 12.0801C 109.481 13.3955 109.051 14.0435 108.159 14.1621C 107.032 14.312 106.496 13.6099 106.901 12.5518C 107.231 11.6909 107.547 10.8252 107.868 9.94873ZM 36.555 30.8403C 37.2308 31.1108 37.8871 31.4302 38.516 31.7954C 39.2445 32.2632 39.9496 32.7783 40.6566 33.2949L 40.6703 33.3052L 40.8129 33.4092C 41.1703 33.6714 41.5296 33.9331 41.8929 34.188C 42.2054 34.3701 42.432 34.6675 42.5257 35.0156C 42.6195 35.3638 42.5707 35.7349 42.3929 36.0483C 42.0609 36.7383 41.432 36.9492 40.6781 36.7271L 40.4671 36.667C 39.182 36.3032 37.8929 35.9375 36.6117 35.5303C 36.0336 35.3701 35.473 35.1519 34.9398 34.8784C 34.5082 34.6592 34.1664 34.2974 33.9711 33.855C 33.7757 33.4126 33.7406 32.9165 33.8695 32.4512C 34.1664 31.3965 34.9242 30.8481 36.555 30.8403ZM 38.7562 35.0332L 38.9379 35.1504C 39.4398 35.4761 39.9359 35.7974 40.432 36.1133C 40.9964 36.4702 41.5843 36.5811 42.0043 35.9292C 42.4242 35.2773 42.1 34.729 41.4925 34.4644C 40.5355 34.0488 39.5589 33.6763 38.5785 33.3022C 38.1566 33.1416 37.7347 32.9805 37.3129 32.8154L 37.1918 33.1943L 36.9691 33.8853C 37.5863 34.2739 38.1761 34.6567 38.7562 35.0332ZM 78.3949 18.77L 78.4007 18.7563L 78.4125 18.7305C 78.5375 18.4707 78.6625 18.2109 78.7972 17.959C 78.5941 16.5786 77.9125 15.6392 76.9359 15.4204C 75.9593 15.2017 75.0589 15.731 74.516 16.8813C 74.4222 17.083 74.3461 17.2935 74.2699 17.5044L 74.2425 17.5806C 74.1957 17.71 74.1488 17.8394 74.0941 17.9668L 73.5023 19.3608L 73.3187 19.7915C 72.9164 20.7402 72.5121 21.6875 72.1058 22.6226C 71.8089 23.3013 71.7367 23.9224 72.4359 24.4209C 73.1371 24.9194 73.725 24.5591 74.2132 24.0376L 74.9281 23.2812L 74.9457 23.2637C 75.7972 22.3657 76.6507 21.4663 77.4125 20.498C 77.8168 19.9824 78.1078 19.376 78.3949 18.77ZM 75.6976 18.3774L 76.1273 17.7979L 77.0941 18.2236C 76.7836 18.7861 76.475 19.355 76.1664 19.9268L 76.1293 19.9941L 76.1175 20.0161C 75.5023 21.1494 74.8812 22.293 74.2328 23.4199C 73.9086 23.9722 73.4164 24.5703 72.6937 24.0259C 71.9711 23.4814 72.3714 22.8525 72.7933 22.2847L 75.6976 18.3774ZM 56.516 8.15332L 56.5589 8.62109C 56.6195 9.30615 56.682 9.99268 56.7504 10.6768C 56.7836 10.8428 56.7836 11.0142 56.7504 11.1802C 56.7152 11.3467 56.6488 11.5044 56.5531 11.645C 56.4574 11.7852 56.3363 11.9053 56.1937 11.9976C 56.0511 12.0898 55.891 12.1533 55.723 12.1836C 55.0004 12.3716 54.3734 12.1836 54.0511 11.4434C 53.6312 10.4888 53.223 9.52832 52.8168 8.56885L 52.4281 7.65479L 52.3011 7.36328C 51.8617 6.33936 51.6195 5.30762 52.4925 4.39502C 52.7816 4.07568 53.1644 3.854 53.5863 3.76025C 54.0082 3.66699 54.4476 3.70654 54.8461 3.87354C 56.0004 4.30664 56.4652 5.2998 56.5882 6.45068C 56.6195 7.01514 56.6195 7.58105 56.5882 8.14551L 56.516 8.15332ZM 54.1078 7.76953C 54.1293 8.8418 54.223 9.91162 54.3851 10.9717C 54.4847 11.1885 54.6371 11.3765 54.8265 11.52C 55.0179 11.6631 55.2406 11.7568 55.4769 11.7925C 55.6214 11.7964 55.766 11.7642 55.8949 11.6982C 56.0257 11.6328 56.1351 11.5361 56.2191 11.4165C 56.3011 11.2974 56.3519 11.1597 56.3675 11.0156C 56.3832 10.8716 56.3636 10.7261 56.307 10.5923C 56.0785 9.81738 55.8265 9.04199 55.5687 8.24951L 55.1918 7.08301L 54.1078 7.76953ZM 42.6527 15.6421C 42.9789 15.8081 43.3187 15.9478 43.6683 16.0605C 43.7757 15.9741 43.9046 15.8921 44.0336 15.8096C 44.3265 15.6216 44.6254 15.4302 44.6976 15.1743C 44.7464 14.9277 44.7425 14.6738 44.6879 14.4287C 44.6332 14.1836 44.5296 13.9517 44.3832 13.748C 43.3675 12.4336 42.2836 11.1738 41.1332 9.97412C 40.5629 9.39746 39.8832 8.93896 39.1332 8.62451C 38.2484 8.25635 37.2953 8.30225 36.6254 9.16504C 36.0687 9.89014 36.1879 10.9639 36.9574 11.7842C 37.4867 12.3066 38.0726 12.7671 38.7074 13.1572C 40.0023 14.0127 41.3304 14.8291 42.6527 15.6421ZM 39.1097 11.6304L 39.0804 11.606L 39.0531 11.584C 38.8675 11.4316 38.6839 11.2803 38.5062 11.1284L 39.0023 10.2007L 39.9691 10.8682L 40.0355 10.9141C 40.807 11.4463 41.5863 11.9839 42.3519 12.54C 42.9183 12.9624 43.4613 13.4146 43.9789 13.8936C 44.4144 14.2886 44.6976 14.8794 44.1371 15.2319C 43.9027 15.333 43.6468 15.375 43.391 15.355C 43.1371 15.335 42.891 15.2534 42.6761 15.1172C 42.2093 14.7261 41.8031 14.2681 41.3968 13.8086C 41.098 13.4697 40.7972 13.1299 40.4711 12.8159C 40.0472 12.4033 39.5882 12.0249 39.141 11.6558L 39.1097 11.6304ZM 39.3714 59.0537L 41.805 58.9043C 42.6546 58.8467 43.2132 59.2417 43.2855 60.0547C 43.3597 60.8677 42.9007 61.3013 42.1332 61.4468C 41.1507 61.627 40.2093 61.7959 39.8754 63.0078C 39.7972 63.2686 39.0062 63.4297 38.5316 63.4526C 38.2504 63.4668 37.9652 63.4043 37.6781 63.3413C 37.4261 63.2856 37.1703 63.23 36.9164 63.2261C 35.9105 63.2261 35.1761 62.7812 34.8949 61.834C 34.6136 60.8867 34.8949 59.8896 35.8832 59.5332C 36.6332 59.2515 37.4418 59.105 38.2484 58.959C 38.6156 58.8926 38.9828 58.8262 39.3441 58.7471C 39.3265 58.8428 39.348 58.9453 39.3675 59.0332L 39.3714 59.0537ZM 37.0941 61.5693L 41.3754 61.1323L 41.641 61.1094C 42.3187 61.0571 43.0453 61.001 42.889 60.0166C 42.7211 58.9771 41.8246 59.146 41.0941 59.3491C 40.0629 59.6372 39.0375 59.9517 38.0218 60.2637L 36.7718 60.6455L 36.8851 60.9795C 36.9671 61.2236 37.0414 61.4419 37.0941 61.5693ZM 76.9574 32.7383C 77.0238 32.8467 77.0882 32.9531 77.1351 33.0532C 77.4418 33.0005 77.7464 32.9263 78.0433 32.8306L 78.8402 32.4902L 78.8793 32.4741C 79.8402 32.0645 80.8031 31.6538 81.7425 31.1934C 83.2992 30.4263 84.4964 29.2681 84.8187 27.4966C 84.9222 26.9478 84.8343 26.0659 84.4808 25.7974C 84.1273 25.5293 83.2035 25.625 82.7621 25.9126C 81.9066 26.542 81.1117 27.2451 80.3812 28.0142L 79.7074 28.6572L 79.6781 28.686C 78.9496 29.3813 78.2132 30.084 77.5043 30.8057C 77.1351 31.124 76.8539 31.5322 76.6879 31.9907C 76.639 32.2119 76.8031 32.481 76.9574 32.7383ZM 80.2953 29.6553C 81.014 29.1099 81.6996 28.5234 82.35 27.8989L 83.389 28.5664L 82.1507 29.5234L 82.1312 29.5381C 80.9515 30.4551 79.7875 31.3584 78.5804 32.2095C 78.35 32.3711 77.9945 32.3555 77.6351 32.3398C 77.4671 32.3325 77.2992 32.3252 77.1429 32.3359C 77.2269 32.1885 77.3031 32.0264 77.3773 31.8647C 77.5433 31.5054 77.7093 31.145 77.9886 30.9365C 78.35 30.6655 78.7699 30.4629 79.1918 30.2588C 79.5707 30.0757 79.9515 29.8911 80.2953 29.6553ZM 95.432 21.5444L 95.4144 21.5771C 95.0355 22.2998 94.6605 23.0146 94.0882 23.5005C 92.9418 24.479 91.6254 25.2681 90.3148 26.0527L 89.5043 26.5415C 89.3714 26.6372 89.2191 26.7031 89.0589 26.7358C 88.8968 26.7681 88.7328 26.7661 88.5726 26.73C 88.4125 26.6938 88.2621 26.624 88.1312 26.5254C 88.0023 26.4268 87.8929 26.3013 87.8148 26.1577C 87.3851 25.4639 87.8148 25.0303 88.3421 24.5474C 89.5121 23.436 90.6507 22.2959 91.7933 21.1514L 93.0179 19.9263C 93.2289 19.6802 93.4925 19.4834 93.7875 19.3511L 93.8031 19.3462C 94.2464 19.2085 94.8187 19.0308 95.1683 19.2051C 95.3988 19.3203 95.5199 19.6191 95.6683 19.9854C 95.7464 20.1812 95.8343 20.3965 95.9496 20.6128C 95.7679 20.9062 95.6039 21.2173 95.4398 21.5278L 95.432 21.5444ZM 93.0804 21.2646C 92.1644 22.8252 90.6839 23.8071 89.0082 24.5474L 88.9613 24.5674C 88.7777 24.6475 88.5629 24.7402 88.4847 24.8887C 88.3265 25.2344 88.1996 25.5923 88.1 25.9585C 88.223 25.9917 88.348 26.0405 88.4691 26.0884C 88.7289 26.1904 88.9808 26.2905 89.2191 26.2383C 89.6996 26.1177 90.139 25.8701 90.4925 25.5215C 91.3421 24.6733 92.1664 23.7988 92.9789 22.9365L 92.9906 22.9238L 93.0023 22.9111L 93.0336 22.877L 93.9945 21.8589L 93.0804 21.2646ZM 107.196 38.0767L 107.213 38.0469L 107.223 38.0317C 107.319 37.8682 107.416 37.7041 107.524 37.5513C 107.315 37.1274 107.061 36.729 106.762 36.3623C 105.977 35.6606 105.032 35.772 104.143 36.0864C 102.362 36.7114 100.606 37.356 98.9007 38.1226C 98.5043 38.2993 98.0746 39.1313 98.1976 39.5186C 98.3207 39.9058 99.0824 40.3242 99.5668 40.3242C 101.02 40.3188 102.469 40.2021 103.905 39.9751C 104.776 39.8491 105.612 39.5547 106.369 39.1084C 106.709 38.8945 106.95 38.4897 107.196 38.0767ZM 103.387 37.6743L 104.801 37.4707L 105.19 38.3262C 103.594 38.8281 101.979 39.3345 100.36 39.833C 100.135 39.9409 99.8871 39.9849 99.639 39.9595C 99.2289 39.7871 98.8343 39.5835 98.4554 39.3501C 98.557 39.2368 98.6527 39.0986 98.7464 38.9609C 98.9515 38.6655 99.1546 38.3706 99.4164 38.3184C 100.723 38.0513 102.045 37.8643 103.387 37.6743ZM 101.241 52.6069C 100.952 54.563 99.9203 55.8052 98.5668 56.772C 97.4847 57.5088 96.3617 58.1851 95.2015 58.7969C 94.5336 59.1802 93.7953 59.2529 93.3324 58.4858C 92.9183 57.7969 93.3597 57.4019 93.8304 56.981L 93.9906 56.8369C 94.555 56.3159 95.0882 55.7617 95.6214 55.207C 96.0179 54.7949 96.4144 54.3828 96.8246 53.9839C 97.6156 53.1763 98.4593 52.4229 99.3519 51.729C 99.5589 51.6118 99.7894 51.543 100.026 51.5269C 100.262 51.5112 100.5 51.5488 100.721 51.6367C 100.965 51.7515 101.08 52.1211 101.166 52.3931L 101.176 52.4238L 101.188 52.4585C 101.205 52.5156 101.223 52.5664 101.241 52.6069ZM 98.8988 53.7842L 98.0336 54.4199C 97.0277 55.1616 96.0472 55.8833 95.0531 56.5918C 94.9261 56.6816 94.7777 56.748 94.6293 56.8145C 94.4086 56.9116 94.1937 57.0078 94.0609 57.1743C 93.8461 57.5308 93.6918 57.9194 93.6019 58.3247C 94.0023 58.458 94.4144 58.5479 94.8324 58.5933C 95.1156 58.5547 95.3773 58.4189 95.5707 58.21C 96.5121 57.3086 97.4398 56.3945 98.3714 55.4751L 98.4144 55.4331L 98.598 55.2529L 99.5668 54.2983L 98.8988 53.7842ZM 148.606 7.86572C 147.678 7.81543 147.067 8.61719 147.067 9.55664C 147.067 10.7227 147.852 11.2441 148.817 11.5396C 150.19 11.9873 151.584 12.3623 152.996 12.6631C 153.373 12.7358 154.119 12.3486 154.219 12.0264C 154.268 11.7729 154.254 11.5117 154.182 11.2642C 154.11 11.0161 153.981 10.7886 153.805 10.5996C 152.94 9.81934 151.991 9.13916 150.975 8.57129C 150.246 8.16553 149.438 7.92432 148.606 7.86572ZM 151.721 11.6084L 148.92 9.99365L 149.147 9.16162L 150.063 9.45703C 150.774 9.68408 151.494 9.91406 152.205 10.1816C 152.711 10.3276 153.186 10.5659 153.604 10.8838C 153.731 11.0254 153.821 11.1953 153.868 11.3784C 153.914 11.562 153.916 11.7539 153.873 11.938C 153.813 12.1377 153.219 12.3179 152.92 12.2524C 152.491 12.0977 152.086 11.8804 151.721 11.6084ZM 132.469 7.43555C 132.229 7.44971 131.987 7.41357 131.762 7.32959C 131.536 7.24609 131.33 7.11621 131.159 6.94873C 130.985 6.78125 130.85 6.58008 130.76 6.35742C 130.67 6.13477 130.627 5.896 130.633 5.65625C 130.631 5.4165 130.678 5.17871 130.768 4.95605C 130.858 4.73389 130.993 4.53174 131.161 4.36084C 131.33 4.19043 131.532 4.05469 131.752 3.96143C 131.975 3.86865 132.213 3.82031 132.453 3.81934C 132.918 3.84717 133.36 4.04102 133.694 4.36523C 134.03 4.68994 134.235 5.12354 134.276 5.5874C 134.276 6.06982 134.086 6.53271 133.75 6.87842C 133.412 7.22363 132.952 7.42383 132.469 7.43555ZM 106.834 17.5132C 106.612 17.4204 106.373 17.3735 106.133 17.376C 105.895 17.3706 105.657 17.4126 105.434 17.499C 105.211 17.5854 105.008 17.7148 104.836 17.8799C 104.662 18.0449 104.526 18.2422 104.428 18.46C 104.332 18.6782 104.282 18.9131 104.276 19.1514C 104.287 19.6167 104.471 20.0615 104.791 20.4004C 105.112 20.7397 105.545 20.9487 106.01 20.9883C 106.494 20.999 106.965 20.8203 107.319 20.4912C 107.674 20.1616 107.885 19.707 107.911 19.2241C 107.922 18.9849 107.885 18.7451 107.801 18.5205C 107.719 18.2954 107.588 18.0898 107.422 17.917C 107.256 17.7437 107.055 17.6064 106.834 17.5132ZM 156.575 28.3286C 156.983 28.373 157.36 28.5732 157.625 28.8877C 157.889 29.2017 158.024 29.606 157.996 30.0156C 157.981 30.2271 157.92 30.4331 157.823 30.6211C 157.723 30.8091 157.586 30.9751 157.422 31.1089C 157.256 31.2427 157.067 31.3413 156.862 31.3994C 156.657 31.4575 156.442 31.4731 156.231 31.4463C 155.825 31.3926 155.455 31.1841 155.2 30.8647C 154.944 30.5449 154.821 30.1392 154.858 29.7319C 154.911 29.3242 155.118 28.9521 155.438 28.6909C 155.756 28.4302 156.162 28.3008 156.575 28.3286ZM 108.077 29.9399C 108.354 29.6426 108.5 29.2476 108.487 28.8423C 108.487 28.6406 108.446 28.4414 108.366 28.2559C 108.287 28.0708 108.172 27.9028 108.028 27.7622C 107.883 27.6221 107.711 27.5117 107.524 27.4385C 107.336 27.3652 107.135 27.3301 106.932 27.335C 106.522 27.332 106.125 27.4917 105.83 27.7788C 105.537 28.0664 105.369 28.4585 105.364 28.8691C 105.366 29.0801 105.411 29.2891 105.494 29.4829C 105.578 29.6768 105.702 29.8516 105.856 29.9971C 106.008 30.1426 106.19 30.2559 106.389 30.3306C 106.586 30.4048 106.797 30.4385 107.01 30.4297C 107.416 30.4136 107.799 30.2378 108.077 29.9399ZM 91.0179 41.4717L 91.0453 41.4907C 91.3578 41.7056 91.6664 41.918 91.7152 42.1802C 91.7269 42.4263 91.6781 42.6719 91.5746 42.8955C 91.4711 43.1187 91.3148 43.3145 91.1195 43.4648C 90.4828 43.7554 89.8011 43.9331 89.1039 43.9902C 88.4105 44.1089 87.7074 44.167 87.0043 44.1631C 86.8402 44.1533 86.68 44.1089 86.5355 44.0332C 86.389 43.957 86.2621 43.8511 86.1605 43.7217L 86.1429 43.6411C 87.2289 44.0293 88.0961 43.7075 88.9691 43.3813L 88.9847 43.376C 89.5121 43.1792 90.0433 42.9819 90.6332 42.9395C 90.5336 42.8525 90.4379 42.7637 90.3519 42.6821L 90.3148 42.6465C 90.141 42.479 90.0121 42.356 89.9652 42.3833C 89.514 42.6333 88.9886 42.6719 88.4496 42.7114C 87.6507 42.7705 86.8187 42.8286 86.1351 43.5732C 86.1273 43.478 86.1371 43.3813 86.1605 43.2876C 86.1976 43.145 86.2699 43.0146 86.3734 42.9087C 87.3871 42.4688 88.4203 42.0737 89.5316 41.6494L 90.6683 41.2139C 90.7679 41.2974 90.8832 41.3784 90.9984 41.4585L 91.0179 41.4717ZM 86.1351 43.5732C 86.1351 43.5962 86.139 43.6187 86.1429 43.6411L 86.0961 43.6221L 86.1351 43.5732ZM 33.6586 46.6016C 33.8441 46.6011 34.0277 46.6372 34.1996 46.7085C 34.3714 46.7798 34.5257 46.8843 34.6566 47.0161C 34.7855 47.1479 34.889 47.3047 34.9574 47.4761C 35.0257 47.6479 35.0589 47.8315 35.055 48.0166C 35.0687 48.21 35.0394 48.4043 34.9711 48.5859C 34.9027 48.7676 34.7972 48.9326 34.6605 49.0703C 34.5218 49.2075 34.3578 49.3145 34.1761 49.3833C 33.9945 49.4526 33.7992 49.4819 33.6058 49.4702C 33.4203 49.4653 33.2367 49.4233 33.0668 49.3472C 32.8968 49.271 32.7445 49.1616 32.6175 49.0264C 32.4906 48.8906 32.3929 48.731 32.3285 48.5571C 32.264 48.3828 32.2347 48.1982 32.2445 48.0127C 32.2464 47.6392 32.3949 47.2812 32.6605 47.0171C 32.9261 46.7529 33.2836 46.6035 33.6586 46.6016ZM 51.557 18.9634C 52.3304 19.0249 52.7269 18.603 52.8382 17.4907C 52.7601 17.4321 52.6781 17.3535 52.5882 17.2671L 52.5648 17.2456C 52.3089 17.0015 52.0004 16.7065 51.6351 16.6318C 50.9261 16.4824 50.43 16.9849 50.4046 17.7402C 50.3773 18.4956 50.7855 18.9023 51.557 18.9634ZM 50.3734 64.02C 50.2855 64.0825 50.1879 64.1685 50.0843 64.2603C 49.8187 64.4956 49.5043 64.7725 49.1625 64.8135C 48.4613 64.9019 47.9652 64.3882 47.9886 63.625C 47.9789 63.4727 48.0023 63.3198 48.057 63.1772C 48.1117 63.0347 48.1976 62.9058 48.307 62.7993C 48.4164 62.6929 48.5472 62.6113 48.6918 62.5605C 48.8363 62.5098 48.9906 62.4907 49.1429 62.5049C 49.9242 62.5049 50.2777 62.9653 50.3734 64.02ZM 133.893 15.9287C 134.022 15.812 134.153 15.6948 134.282 15.6006L 134.27 15.1133C 134.131 15.0259 133.993 14.9185 133.856 14.811C 133.551 14.5747 133.248 14.3384 132.928 14.312C 132.778 14.2925 132.625 14.3101 132.485 14.3638C 132.344 14.4175 132.217 14.5054 132.118 14.6191C 132.02 14.7329 131.95 14.8696 131.916 15.0171C 131.883 15.1641 131.887 15.3169 131.928 15.4624C 132.051 15.8882 132.578 16.4595 133.002 16.4634C 133.295 16.4663 133.594 16.1973 133.893 15.9287ZM 54.182 27.1006L 54.1605 27.1182C 53.8285 27.3965 53.5921 27.5952 53.4027 27.5576C 53.1351 27.501 52.8929 27.2363 52.6527 26.9717L 52.6293 26.9463L 52.6117 26.9277L 52.6019 26.9165C 52.516 26.8223 52.43 26.7295 52.3421 26.6489C 52.4418 26.5513 52.5394 26.4355 52.6371 26.3193C 52.8656 26.0469 53.0961 25.7734 53.3578 25.7358C 53.6019 25.7007 53.8441 25.8989 54.1742 26.168C 54.348 26.3101 54.5453 26.4717 54.7796 26.6294C 54.5511 26.792 54.3539 26.9565 54.182 27.1006ZM 99.7523 26.5317C 99.8656 26.4434 99.9789 26.356 100.088 26.2847C 100.088 26.1353 100.088 25.9814 100.092 25.8359C 99.9711 25.7622 99.8519 25.6694 99.7328 25.5767L 99.7035 25.5537C 99.4359 25.3423 99.1761 25.1367 98.9144 25.1494C 98.7054 25.2114 98.5179 25.3276 98.3675 25.4858C 98.2191 25.644 98.1136 25.8389 98.0648 26.0508C 98.1117 26.2632 98.2132 26.46 98.3617 26.6206C 98.5082 26.7817 98.6957 26.9014 98.9027 26.9673C 99.1742 26.981 99.4671 26.7534 99.7523 26.5317ZM 77.6898 35.791L 77.6644 35.8159C 77.3851 36.082 77.1742 36.2817 76.973 36.2744C 76.7562 36.2661 76.5375 36.0283 76.3187 35.7905L 76.2875 35.7578C 76.2054 35.6689 76.1234 35.5811 76.0414 35.5073C 76.1254 35.4136 76.2054 35.3018 76.2855 35.1904C 76.4671 34.937 76.6488 34.6846 76.8675 34.6445C 77.0785 34.606 77.3207 34.7798 77.6371 35.0068C 77.7933 35.1196 77.9691 35.2456 78.1683 35.3652C 77.9925 35.5059 77.8402 35.6489 77.7035 35.7773L 77.6898 35.791ZM 83.3617 72.9922C 83.4652 73.0957 83.5824 73.2124 83.6937 73.3467C 83.7816 73.2017 83.8714 73.0747 83.9535 72.9604L 83.9632 72.9463C 84.1234 72.7197 84.2484 72.541 84.2425 72.3647C 84.2367 72.2349 84.0394 72.0996 83.8441 71.9653C 83.7621 71.9092 83.68 71.853 83.6117 71.7974C 83.5511 71.873 83.4769 71.9468 83.4027 72.02C 83.2386 72.1846 83.0746 72.3491 83.0472 72.5376C 83.0277 72.6572 83.1703 72.8013 83.3617 72.9922ZM 76.1859 80.7817C 76.0004 80.9468 75.8597 81.0708 75.723 81.0659C 75.5746 81.0605 75.4164 80.9072 75.2601 80.7549C 75.1937 80.6895 75.1273 80.6245 75.0609 80.5713C 75.1234 80.5029 75.1839 80.4248 75.2445 80.3472C 75.3832 80.1655 75.5238 79.9844 75.7035 79.9307C 75.805 79.8979 75.9613 80.0293 76.1683 80.2007C 76.2777 80.292 76.4007 80.395 76.5375 80.4907C 76.4027 80.5903 76.2875 80.6919 76.1859 80.7817ZM 48.6761 92.5708C 49.7933 92.2461 50.9496 92.0825 52.1117 92.084C 53.0882 92.0498 54.0648 92.1777 55.0004 92.4634C 55.7074 92.7202 56.0375 93.0732 55.9886 93.5371C 55.9379 94.001 55.6117 94.3462 55.0004 94.5801C 54.3089 94.8242 53.5785 94.9409 52.8461 94.9253C 51.805 94.9033 50.7679 94.812 49.7386 94.6533C 48.3949 94.459 47.0648 94.1851 45.7543 93.8325C 46.6664 93.2827 47.6507 92.8584 48.6761 92.5708ZM 41.8031 111.688C 41.2699 112.175 40.7308 112.65 40.1957 113.11C 39.6625 113.571 39.1957 113.996 38.8089 114.388C 38.4203 114.779 38.1507 114.802 38.0043 114.606C 37.9574 114.46 38.0765 114.223 38.389 113.95C 38.4379 113.903 38.6273 113.737 38.9613 113.446L 39.0121 113.402L 40.3265 112.274C 40.8402 111.837 41.3871 111.363 41.9691 110.852L 41.9984 110.825L 42.0472 110.782L 42.098 110.738C 42.639 110.268 43.1683 109.807 43.7269 109.356C 44.2113 108.773 44.7836 108.071 45.4418 107.243L 47.5609 104.582L 48.0062 104.032C 48.6293 103.261 49.2621 102.479 49.9379 101.706L 50.8949 100.601C 51.389 100.027 51.8714 99.4678 52.35 98.9326C 53.6312 97.4756 54.9964 95.9697 56.4457 94.4155C 57.8929 92.8608 59.432 91.354 61.0589 89.894C 61.9886 89.0684 62.8636 88.6553 63.6898 88.6553C 64.4203 88.6553 64.7855 88.8276 64.7855 89.1655C 64.4476 89.5068 63.8246 90.1626 62.9242 91.1362C 62.0257 92.1104 61.0375 93.188 59.9632 94.377C 58.891 95.5659 57.807 96.7852 56.7093 98.0239C 55.6136 99.2627 54.6761 100.344 53.8949 101.265C 52.68 102.724 51.4496 104.231 50.2074 105.786C 48.9632 107.34 47.8168 108.822 46.7679 110.23C 45.723 111.642 44.7972 112.966 43.9925 114.204C 43.3304 115.198 42.7308 116.232 42.1996 117.302C 42.1039 117.547 41.9925 117.874 41.8734 118.288C 41.805 118.451 41.7875 118.631 41.8187 118.805C 41.8519 118.979 41.932 119.14 42.0531 119.27C 42.2113 119.369 42.389 119.428 42.5746 119.441C 42.7601 119.454 42.9457 119.42 43.1156 119.342C 43.5355 119.215 43.9398 119.044 44.3226 118.832C 44.8363 118.573 45.3246 118.269 45.7836 117.923C 46.1488 117.634 46.5296 117.36 46.9281 117.075L 46.9886 117.032L 47.3226 116.792C 48.0023 116.26 48.5863 115.786 49.0765 115.369C 49.4847 115.027 49.889 114.673 50.2953 114.312L 50.5062 114.096C 50.7484 113.851 51.0902 113.548 51.5277 113.184C 51.9261 112.85 52.3461 112.543 52.7855 112.267C 53.2738 111.927 53.7855 111.585 54.3246 111.243C 54.8636 110.9 55.5199 110.536 56.2972 110.15C 57.3363 109.629 58.4105 109.18 59.5121 108.804C 60.43 108.473 61.389 108.264 62.3617 108.183C 62.6058 108.182 62.85 108.195 63.0921 108.221C 63.3382 108.244 63.4574 108.328 63.4574 108.474C 63.4574 108.524 63.1937 108.67 62.6546 108.911C 61.7484 109.32 60.9007 109.848 60.1351 110.48C 59.3285 111.134 58.4144 111.949 57.3929 112.922C 56.3304 113.976 55.3754 115.131 54.5433 116.374C 53.7132 117.617 53.2523 118.598 53.1507 119.327C 53.055 120.155 53.3968 120.565 54.1781 120.565C 54.9593 120.565 56.0629 120.144 57.3558 119.292C 58.6957 118.398 59.9125 117.332 60.973 116.121C 61.0394 115.661 61.1507 115.209 61.305 114.771C 61.5355 114.15 61.8675 113.572 62.2894 113.061C 62.639 112.565 63.0726 112.133 63.5687 111.784C 63.9027 111.544 64.2562 111.336 64.6273 111.163C 64.7328 110.882 64.7953 110.587 64.8109 110.288C 64.8343 109.951 64.85 109.682 64.85 109.486C 64.8675 109.214 64.8304 108.942 64.7386 108.685C 64.7015 108.629 64.6859 108.563 64.6918 108.497C 64.6976 108.431 64.7269 108.368 64.7738 108.321C 64.8519 108.273 64.9457 108.252 65.0375 108.259C 65.1293 108.266 65.2171 108.301 65.2894 108.359C 65.473 108.467 65.6449 108.596 65.8011 108.743C 66.1078 109.057 66.3558 109.425 66.5316 109.828C 66.7269 110.284 66.7777 110.788 66.6761 111.273C 66.4984 112.313 66.0453 113.287 65.3617 114.092C 64.5023 115.186 63.5472 116.201 62.5082 117.125C 62.7211 117.237 62.9671 117.276 63.2035 117.237C 63.4379 117.225 63.6703 117.188 63.8968 117.125C 64.8031 116.9 65.6507 116.486 66.3851 115.91C 66.8695 115.576 67.2855 115.277 67.6273 115.017C 68.0101 114.716 68.3773 114.393 68.723 114.05C 68.9847 113.812 69.2074 113.63 69.389 113.505L 70.0296 112.911L 71.6371 111.416C 72.7132 110.393 73.5648 109.543 74.1957 108.865C 74.0296 108.751 73.8929 108.599 73.7992 108.421C 73.7035 108.244 73.6527 108.046 73.6488 107.845C 73.6468 107.601 73.6957 107.359 73.7894 107.134C 73.8832 106.909 74.0199 106.705 74.1957 106.534C 74.5316 106.127 74.9574 105.803 75.4398 105.588C 75.9222 105.373 76.4476 105.273 76.9769 105.295C 77.266 105.295 77.5511 105.356 77.8148 105.475C 77.9339 105.521 78.0394 105.594 78.1214 105.689C 78.2054 105.785 78.264 105.9 78.2914 106.023L 77.6683 106.495C 77.4476 106.663 77.2406 106.846 77.0492 107.044C 76.1234 108.018 76.1957 108.552 77.2679 108.646C 78.2933 108.695 79.2445 108.781 80.1175 108.904C 80.9945 109.022 81.4339 109.425 81.4339 110.104L 81.4261 110.158C 81.4261 110.645 81.0726 111.25 80.3636 111.983C 79.6566 112.715 78.891 113.559 78.057 114.533C 77.0882 115.568 76.2523 116.718 75.5687 117.958C 75.182 118.641 75.1566 119.102 75.4945 119.342C 75.7875 119.588 76.3265 119.488 77.1058 119.051C 77.4945 118.811 77.9925 118.507 78.6019 118.142C 79.2328 117.763 79.8304 117.336 80.3949 116.865C 81.2211 116.231 81.8773 115.708 82.3675 115.296C 82.8558 114.886 83.3402 114.46 83.8285 114.023C 84.0746 113.776 84.2855 113.602 84.4593 113.5L 84.725 113.275C 85.139 112.918 85.5785 112.59 86.0394 112.294L 87.5004 111.381C 88.0843 111.018 88.7191 110.641 89.4046 110.25C 90.68 109.579 92.0121 109.018 93.3851 108.574C 94.4515 108.204 95.5882 108.08 96.7113 108.209C 97.0257 108.228 97.3304 108.329 97.5941 108.502C 97.8578 108.675 98.0707 108.914 98.2113 109.195C 98.3382 109.471 98.4066 109.771 98.4105 110.075C 98.4144 110.379 98.3539 110.68 98.2347 110.959C 98.9359 110.196 99.7074 109.501 100.541 108.885C 101.077 108.466 101.729 108.223 102.407 108.19C 103.176 108.145 103.637 108.217 103.756 108.409C 103.875 108.601 103.756 108.919 103.371 109.356C 102.883 109.893 102.276 110.583 101.545 111.435C 100.815 112.286 100.057 113.195 99.2796 114.169C 98.7914 114.752 98.3265 115.346 97.889 115.952C 97.4496 116.558 97.0648 117.154 96.7347 117.739C 96.2464 118.614 96.1742 119.172 96.516 119.415C 96.6273 119.49 96.7562 119.536 96.891 119.548C 97.0257 119.561 97.1605 119.541 97.2836 119.488C 97.598 119.392 97.9027 119.271 98.1957 119.124C 98.7152 118.853 99.2152 118.549 99.6957 118.215C 100.303 117.801 100.903 117.352 101.489 116.865L 102.448 116.08C 102.84 115.76 103.203 115.464 103.534 115.189C 103.809 114.959 104.063 114.741 104.295 114.534L 104.813 114.008C 105.006 113.812 105.313 113.543 105.725 113.206C 106.137 112.869 106.59 112.5 107.078 112.109C 107.567 111.718 108.067 111.342 108.578 110.959C 109.09 110.575 109.563 110.23 110 109.939C 110.721 109.4 111.508 108.959 112.344 108.627C 112.957 108.43 113.598 108.331 114.243 108.336C 115.012 108.336 115.452 108.409 115.559 108.554C 115.655 108.7 115.485 109.019 115.047 109.501C 113.828 110.862 112.512 112.417 111.098 114.169C 110.467 114.936 109.944 115.638 109.528 116.247C 109.114 116.857 108.782 117.352 108.539 117.739C 108.102 118.506 108.028 119.041 108.321 119.342C 108.662 119.633 109.246 119.561 110.075 119.124C 110.565 118.873 111.041 118.593 111.5 118.288C 112.125 117.875 112.725 117.424 113.293 116.938C 114.063 116.309 114.682 115.787 115.119 115.403C 115.44 115.125 115.797 114.801 116.194 114.441L 116.348 114.302C 116.459 114.193 116.582 114.076 116.715 113.951C 117.121 113.597 117.635 113.119 118.268 112.533L 118.43 112.382C 119.139 111.726 119.83 111.132 120.514 110.595C 121.34 109.922 122.225 109.326 123.161 108.815C 123.877 108.418 124.68 108.205 125.498 108.194C 126.184 108.194 126.653 108.367 126.926 108.705C 127.182 109.012 127.325 109.397 127.33 109.797C 127.315 110.286 127.176 110.762 126.926 111.182C 126.58 111.787 126.202 112.372 125.791 112.934C 125.258 113.663 124.649 114.464 123.965 115.339C 123.284 116.213 122.744 116.942 122.358 117.524L 122.43 117.598L 125.506 115.047C 126.68 114.077 127.895 113.103 129.164 112.129C 130.463 111.141 131.83 110.244 133.256 109.444C 134.717 108.619 136.01 108.206 137.133 108.206C 138.786 108.206 139.541 108.862 139.397 110.173C 139.235 110.987 138.856 111.743 138.301 112.363C 137.887 112.862 137.487 113.362 137.094 113.85L 136.471 114.622L 136.114 115.06C 135.68 115.592 135.301 116.055 134.975 116.516C 134.563 117.099 134.256 117.536 134.059 117.828C 133.526 118.656 133.424 119.189 133.768 119.431C 133.885 119.506 134.02 119.552 134.161 119.564C 134.301 119.577 134.442 119.556 134.571 119.503C 134.899 119.413 135.217 119.291 135.522 119.139C 135.959 118.897 136.448 118.618 136.987 118.303C 137.694 117.866 138.377 117.392 139.032 116.88C 139.662 116.395 140.303 115.872 140.955 115.312C 141.614 114.756 142.135 114.28 142.528 113.893C 143.016 113.456 143.332 113.31 143.479 113.456C 143.623 113.602 143.381 113.916 142.893 114.403C 142.551 114.744 141.932 115.312 141.028 116.113C 140.125 116.915 139.286 117.609 138.51 118.192C 138.125 118.483 137.666 118.802 137.155 119.139C 136.627 119.489 136.078 119.806 135.51 120.086C 134.934 120.375 134.336 120.619 133.721 120.815C 133.141 120.998 132.537 121.09 131.93 121.087C 131.344 121.116 130.764 120.95 130.284 120.616C 130.077 120.446 129.916 120.226 129.821 119.977C 129.725 119.727 129.696 119.457 129.737 119.193C 129.828 118.257 130.196 117.369 130.795 116.643C 131.455 115.768 132.127 114.918 132.805 114.092C 133.34 113.41 133.879 112.781 134.414 112.198C 134.948 111.615 135.436 111.047 135.875 110.518C 136.012 110.347 136.112 110.148 136.166 109.936C 136.194 109.849 136.186 109.754 136.145 109.673C 136.106 109.591 136.034 109.529 135.948 109.498C 135.688 109.402 135.403 109.402 135.145 109.498C 134.768 109.613 134.401 109.759 134.047 109.936C 133.368 110.277 132.537 110.752 131.563 111.358C 130.452 112.066 129.377 112.834 128.348 113.659C 127.518 114.292 126.787 114.871 126.157 115.408C 125.526 115.945 124.887 116.462 124.235 116.976L 122.311 118.541C 121.655 119.078 120.936 119.661 120.153 120.29C 119.61 120.712 118.942 120.943 118.254 120.945C 117.879 120.975 117.502 120.914 117.157 120.765C 116.961 120.643 117.012 120.316 117.303 119.78C 117.713 119.015 118.164 118.272 118.653 117.555C 119.309 116.561 119.932 115.675 120.518 114.898C 120.842 114.446 121.241 113.94 121.709 113.348L 121.981 113.003L 122.151 112.788C 122.661 112.139 123.092 111.589 123.442 111.105C 123.93 110.476 124.1 110.062 123.953 109.866C 123.807 109.671 123.391 109.648 122.858 109.939C 122.418 110.185 121.946 110.476 121.434 110.813C 120.934 111.146 120.457 111.511 120.008 111.907C 119.52 112.298 119.008 112.736 118.469 113.222L 117.09 114.445L 117.008 114.529L 116.862 114.679C 116.848 114.691 116.834 114.703 116.821 114.715C 116.399 115.124 115.838 115.633 115.143 116.243C 114.338 116.949 113.569 117.588 112.836 118.161C 111.934 118.853 110.994 119.493 110.02 120.078C 108.961 120.755 107.733 121.121 106.475 121.133C 105.014 121.133 104.284 120.504 104.284 119.238C 104.284 118.747 104.395 118.262 104.61 117.819C 104.832 117.351 105.088 116.9 105.379 116.47C 105.752 115.839 106.18 115.241 106.655 114.683C 107.168 114.077 107.692 113.482 108.229 112.899C 108.764 112.316 109.264 111.781 109.729 111.292C 110.092 110.919 110.477 110.564 110.877 110.23C 110.405 110.47 109.953 110.751 109.528 111.07C 108.871 111.53 108.27 111.983 107.737 112.42L 106.309 113.57C 106.004 113.821 105.703 114.073 105.411 114.326C 105.307 114.436 105.188 114.554 105.053 114.679C 104.563 115.116 103.93 115.675 103.153 116.355C 102.375 117.035 101.645 117.642 100.961 118.177C 100.075 118.866 99.1468 119.499 98.18 120.071C 97.1293 120.73 95.9144 121.084 94.6722 121.091C 94.1254 121.133 93.5785 120.978 93.1351 120.654C 92.9691 120.519 92.8343 120.353 92.7328 120.166C 92.6332 119.978 92.5707 119.772 92.5511 119.561C 92.5101 119.112 92.5843 118.661 92.7699 118.25C 92.9593 117.77 93.2328 117.326 93.5726 116.938L 93.5004 116.865C 93.0121 117.302 92.4535 117.752 91.8187 118.215C 91.1859 118.678 90.516 119.115 89.8089 119.526C 89.1078 119.936 88.3734 120.289 87.6156 120.581C 86.9261 120.858 86.1996 121.03 85.4593 121.091C 84.6761 121.15 83.8949 120.959 83.2289 120.546C 82.5726 120.132 82.3148 119.342 82.4593 118.177C 82.5765 117.582 82.7738 117.005 83.0433 116.462C 83.4379 115.71 83.9281 115.012 84.5043 114.388L 84.432 114.315L 84.0668 114.698C 83.8812 114.879 83.6859 115.049 83.4828 115.208L 83.3519 115.296L 82.3324 116.213C 81.6254 116.846 80.7953 117.501 79.8832 118.18C 78.9457 118.866 77.9691 119.499 76.9613 120.075C 75.8793 120.729 74.641 121.081 73.3754 121.095C 72.7425 121.144 72.1156 120.949 71.6234 120.55C 71.4339 120.383 71.2894 120.173 71.1996 119.938C 71.1117 119.703 71.0804 119.45 71.1117 119.2C 71.2171 118.229 71.6195 117.313 72.264 116.577C 72.9808 115.671 73.7621 114.819 74.6039 114.027C 75.0414 113.59 75.5277 113.153 76.0648 112.715C 76.6 112.278 77.1 111.877 77.5648 111.511C 78.0257 111.147 78.43 110.817 78.7718 110.526C 79.0121 110.352 79.2113 110.128 79.3558 109.87C 79.5023 109.486 79.2836 109.287 78.6996 109.287L 75.4769 109.287C 75.2367 109.294 74.9964 109.245 74.7796 109.142C 74.1488 109.824 73.223 110.747 72.0043 111.91C 71.3695 112.497 70.8226 112.996 70.3578 113.406C 69.8929 113.816 69.4691 114.219 69.0804 114.61C 68.8851 114.788 68.7171 114.927 68.5707 115.03L 67.9535 115.557C 67.5453 115.907 67.1195 116.236 66.6761 116.543C 66.1898 116.876 65.6742 117.169 65.139 117.417C 64.7367 117.6 64.3207 117.746 63.8929 117.854C 63.5492 117.953 63.1918 117.991 62.8343 117.965C 62.514 117.952 62.2015 117.864 61.9203 117.708C 61.432 118.092 60.8734 118.499 60.2386 118.913C 59.5843 119.336 58.9007 119.713 58.1937 120.04C 57.4457 120.387 56.6761 120.679 55.8851 120.915C 55.139 121.15 54.3617 121.273 53.5785 121.279C 52.6234 121.332 51.68 121.048 50.9125 120.478C 50.2562 119.946 49.9515 119.144 49.9984 118.073C 50.098 116.519 50.8773 114.964 52.3363 113.41L 52.264 113.337C 52.057 113.557 51.8363 113.762 51.6019 113.95C 51.5004 114.028 51.4027 114.108 51.307 114.191C 51.2523 114.254 51.1898 114.32 51.1214 114.388C 50.6839 114.825 50.0492 115.396 49.223 116.098C 48.3949 116.8 47.5414 117.498 46.6644 118.176C 46.2796 118.468 45.8343 118.786 45.35 119.124C 44.8382 119.479 44.3011 119.795 43.7425 120.071C 43.1546 120.365 42.5414 120.608 41.9125 120.799C 41.3207 120.988 40.7054 121.086 40.0843 121.091C 39.4769 121.126 38.8734 120.96 38.3695 120.619C 38.1546 120.439 37.9925 120.207 37.8949 119.944C 37.7992 119.682 37.7738 119.399 37.8207 119.124C 37.8675 118.249 38.2816 117.156 39.0629 115.845C 39.9183 114.422 40.8714 113.06 41.9125 111.765L 41.8031 111.688ZM 93.4847 110.23C 94.7035 109.356 95.6761 108.919 96.4066 108.919C 97.3226 108.919 97.7621 109.356 97.723 110.23C 97.6703 110.666 97.5082 111.08 97.2504 111.435C 96.8851 112.009 96.4828 112.557 96.0414 113.076C 95.555 113.656 95.0199 114.264 94.4339 114.897C 93.8871 115.494 93.3011 116.054 92.68 116.574C 91.6898 117.508 90.5843 118.316 89.3929 118.978C 88.1742 119.661 87.223 119.998 86.5394 119.998C 85.9554 119.998 85.6859 119.752 85.5902 119.27C 85.4925 118.786 85.7738 118.065 86.432 117.118C 87.4027 115.819 88.4925 114.613 89.6859 113.513C 90.8617 112.319 92.1312 111.222 93.4847 110.23ZM 121.112 98.4956C 121.309 98.4717 121.508 98.5122 121.678 98.6108C 121.85 98.71 121.985 98.8618 122.061 99.0439C 122.207 99.4097 122.061 99.8579 121.623 100.39C 121.159 100.995 120.557 101.482 119.869 101.812C 119.354 102.111 118.782 102.298 118.19 102.361C 117.971 102.051 117.858 101.681 117.862 101.303C 117.84 100.815 117.926 100.33 118.116 99.8799C 118.221 99.6309 118.375 99.4053 118.571 99.2178C 118.766 99.0298 118.996 98.8833 119.25 98.7871C 119.825 98.5835 120.43 98.4849 121.039 98.4956L 121.112 98.4956Z" fill="#363333"/>
</g>
</g>
</g>
</svg>

