<svg viewBox="0 0 181 140" version="1.1" xmlns="http://www.w3.org/2000/svg" xmlns:xlink="http://www.w3.org/1999/xlink">
<g id="Canvas" fill="none">
<g id="&#208;&#186;&#209;&#128;&#208;&#184;&#208;&#178;&#209;&#139;&#208;&#181;2 &#208;&#189;&#208;&#190;&#208;&#178;">
<g id="Vector">
<path fill-rule="evenodd" clip-rule="evenodd" d="M 9.80248 89.2035C 9.36192 89.4455 4.91225 98.445 2.95616 102.37C 2.40106 103.493 1.47588 103.977 -2.68897e-06 104.192C 2.01336 99.9588 5.75813 91.8307 5.72729 91.7823L 8.30457 87.5004C 15.4152 74.4435 24.5172 62.8344 34.3549 51.7579C 36.8133 48.9898 39.3113 46.2526 41.7872 43.4933C 42.1088 43.1369 42.4128 42.7628 42.5053 42.6484C 42.0648 41.3898 41.6727 40.3512 41.2453 39.1674C 40.1351 39.1674 38.6901 39.3391 37.3111 39.1058C 36.4216 38.8949 35.6316 38.3853 35.0731 37.6624C 34.2933 36.659 34.9497 35.1012 36.2449 34.5819C 36.9653 34.3436 37.7013 34.1553 38.4478 34.0186L 35.0598 29.4155C 34.3285 30.7357 33.3505 30.8633 32.042 30.7357C 30.2313 30.5728 28.3897 30.8325 26.557 30.8457C 25.7057 30.8676 24.8549 30.7848 24.0238 30.5992C 22.6316 30.2604 21.821 29.279 21.8871 28.1568C 21.9146 27.5746 22.1615 27.0243 22.5782 26.6162C 22.9949 26.2082 23.5506 25.9725 24.1339 25.9565C 25.6202 25.9077 27.1072 26.0288 28.566 26.3174C 29.5969 26.4934 30.5749 26.9731 31.5882 27.2811C 32.0382 27.3888 32.4943 27.4696 32.954 27.5231L 33.0993 27.2283C 31.5574 25.9345 30.0595 24.5879 28.4558 23.3601C 26.9227 22.2027 25.2794 21.1949 23.8564 19.9055C 30.7732 23.0388 35.7647 28.3197 39.8708 34.6963C 40.091 34.3442 40.1792 34.2562 40.1615 34.2254C 38.0865 29.1294 35.8528 24.1038 31.9627 20.0815C 31.1874 19.3898 30.307 18.8254 29.3546 18.4093C 28.2796 17.8504 27.1165 17.4631 26.0416 16.9042C 25.5997 16.6855 25.2624 16.3011 25.1032 15.8349C 24.8609 14.5455 23.7815 14.3386 22.9004 14.0746C 21.0148 13.4761 19.0675 13.0624 17.1731 12.5079C 16.3516 12.2864 15.5644 11.9532 14.8337 11.5178C 13.8028 10.8753 13.6045 9.79269 13.9173 8.71012C 14.0279 8.20037 14.3297 7.75222 14.7606 7.45763C 15.1915 7.16303 15.7189 7.04433 16.2347 7.12586C 17.2999 7.29664 18.3244 7.66214 19.2569 8.20403C 20.5786 8.98296 21.7681 9.99073 23.0237 10.8841C 23.8079 11.443 23.9577 11.9578 23.6801 13.4057L 24.7507 13.8898C 26.3455 12.4595 27.6716 12.3319 29.4163 13.6565C 30.9979 14.8579 32.5002 16.1825 33.9717 17.5159C 34.8528 18.3257 34.5708 19.2762 33.2183 20.0815C 36.9939 24.4823 39.2187 29.7367 41.4215 35.0087L 41.8621 34.8459C 41.0427 31.7214 40.4567 28.5177 39.3465 25.5032C 37.9675 21.7362 36.1392 18.1364 34.5532 14.4442C 34.361 13.9014 34.2932 13.3224 34.3549 12.75C 34.3549 12.5959 34.8748 12.4331 35.1788 12.3495C 35.4393 12.293 35.7077 12.2825 35.9718 12.3187C 36.2664 12.3281 36.5546 12.4065 36.8133 12.5475C 36.8642 12.6454 36.8909 12.7541 36.8909 12.8644C 36.8909 12.9747 36.8642 13.0834 36.8133 13.1812C 36.5488 13.3028 36.2578 13.3558 35.9674 13.3353C 35.8396 13.3353 35.7075 13.1812 35.3903 12.9744C 35.3903 13.4453 35.2801 13.8149 35.3903 14.0482C 39.0117 20.548 41.2409 27.5231 42.6022 34.8019C 42.6022 34.8283 42.6595 34.8459 42.7829 34.9295C 42.7829 34.0494 42.7829 33.2485 42.7829 32.4387C 42.6771 25.5868 42.1573 18.7965 40.3069 12.1515C 40.0039 11.3399 39.5026 10.6168 38.8487 10.0479C 38.016 9.2206 36.9851 8.5957 36.1304 7.78597C 34.8616 6.58458 34.7426 4.94751 35.7339 3.86494C 36.7252 2.78236 38.342 2.79997 39.6417 4.06297C 40.2142 4.69122 40.7029 5.39088 41.0955 6.14451C 41.7872 7.28429 42.4172 8.46808 43.0825 9.62106C 43.8094 10.8577 43.3336 11.7246 41.4392 12.4551C 41.7828 14.2682 42.2894 16.0813 42.4436 17.9252C 42.915 23.4745 43.2455 29.0326 43.6508 34.5907C 43.7265 35.0236 43.8446 35.4481 44.0032 35.8581L 44.5011 35.7745C 44.6288 33.2661 44.8227 30.7621 44.8623 28.2537C 44.924 24.5131 44.9592 20.7725 44.8403 17.0231C 44.7654 14.6379 44.3997 12.2615 44.1795 9.88071C 44.1178 9.15899 44.0253 8.34486 44.294 7.71996C 44.5627 7.09506 45.2236 6.42175 45.7787 6.36014C 46.3338 6.29853 47.2986 6.88822 47.4484 7.3855C 47.7578 8.50472 47.8637 9.67029 47.7612 10.8269C 47.6429 12.1652 47.407 13.4905 47.0563 14.7875C 46.8318 15.3704 46.5438 15.9268 46.1972 16.4466C 46.056 16.6679 45.9643 16.9171 45.9285 17.1771C 45.8316 21.9005 45.7464 26.621 45.673 31.3386C 45.673 31.4486 45.7082 31.563 45.9285 31.7082C 46.7303 27.2811 47.5806 22.8628 48.3163 18.4269C 48.8406 15.2584 49.2635 12.0723 49.638 8.88175C 49.7922 7.51753 49.638 6.1269 49.6777 4.74948C 49.6432 3.70232 49.6978 2.65413 49.8407 1.61618C 49.9127 1.14181 50.1615 0.712171 50.5374 0.413446C 50.9133 0.114721 51.3883 -0.0309974 51.8672 0.00551936C 52.0971 0.000214343 52.3256 0.042638 52.5381 0.130102C 52.7507 0.217566 52.9428 0.348164 53.1023 0.513633C 53.2617 0.679101 53.385 0.875832 53.4644 1.09137C 53.5438 1.30691 53.5775 1.53657 53.5634 1.7658C 53.5532 2.80306 53.4291 3.83608 53.1933 4.8463C 52.9603 5.9126 52.6661 6.96464 52.3122 7.99721C 52.18 8.40207 51.9686 8.96976 51.6558 9.08418C 50.713 9.41863 50.7746 10.18 50.6337 10.9061C 49.3414 17.9765 48.049 25.0485 46.7567 32.1219C 46.7259 32.2715 46.7259 32.4299 46.6862 32.8524C 46.9286 32.4123 47.1268 32.2231 47.1268 32.0207C 47.1973 29.8203 48.9199 28.2053 49.3032 26.1193C 49.4265 25.4504 49.3384 24.7507 49.4133 24.073C 49.4212 23.7217 49.5451 23.3829 49.7658 23.1092C 51.1844 21.789 51.3033 20.0287 51.4091 18.2905C 51.4089 17.9353 51.4473 17.5812 51.5236 17.2343C 51.9245 15.7953 52.3431 14.3562 52.7924 12.9304C 53.0259 12.1999 53.1889 11.377 53.6471 10.8093C 54.0216 10.3692 54.863 9.89831 55.3697 10.0127C 55.8763 10.1271 56.7531 10.8929 56.7531 11.4034C 56.7826 12.5197 56.5231 13.6247 55.9997 14.6115C 55.0481 16.2265 53.6163 17.5731 52.7087 19.2102C 51.995 20.4952 51.7615 22.0443 51.3386 23.4833C 51.1844 23.9938 51.0875 24.5219 50.9905 24.9399C 52.81 24.8431 53.7572 23.4569 54.7221 21.9562C 56.6958 18.8758 58.7796 15.8657 60.8503 12.8468C 61.2621 12.2021 61.4466 11.4386 61.3745 10.6772C 61.3745 9.26461 61.912 7.82557 62.357 6.44375C 62.5746 5.67002 62.9925 4.96724 63.5685 4.40623C 63.8457 4.20815 64.1622 4.07185 64.4966 4.00655C 64.831 3.94126 65.1756 3.94849 65.507 4.02777C 66.3529 4.28301 66.5247 5.22916 66.2163 5.98168C 65.8242 6.94544 65.1722 7.79917 64.6964 8.73652C 64.4295 9.33403 64.1943 9.9451 63.9915 10.5672C 63.9038 10.875 63.778 11.1707 63.617 11.4474C 61.4142 14.4486 59.1717 17.4323 56.9601 20.4336C 56.3345 21.2829 55.7442 22.1675 55.1979 23.074C 54.6516 23.9806 53.9819 24.7859 54.0965 26.1237C 54.1714 26.9731 53.2682 28.2053 52.4576 28.7641C 50.9685 29.7763 50.0433 31.1273 49.1842 32.6016C 48.3157 34.0355 47.5302 35.518 46.8316 37.0419C 47.0695 36.8174 47.3206 36.6018 47.5497 36.3642C 51.5882 32.2334 55.6252 28.0982 59.6608 23.9586C 60.8459 22.7396 61.9737 21.4678 63.15 20.24C 63.6042 19.723 64.1173 19.2608 64.6788 18.8626C 65.6083 18.2597 66.5864 18.3169 67.3221 19.1882C 67.6362 19.5483 67.8074 20.0108 67.8034 20.4884C 67.7993 20.966 67.6203 21.4255 67.3001 21.7802C 66.8517 22.3009 66.3054 22.7285 65.6921 23.0388C 64.592 23.6507 63.4546 24.193 62.2865 24.6627C 61.7843 24.8563 61.1675 24.7551 60.4714 24.7947L 49.0609 35.9285C 49.1402 36.0209 49.2195 36.1089 49.2944 36.2013C 56.1187 31.0261 63.595 26.9599 70.992 22.9684C 71.2343 22.4271 71.3445 21.679 71.763 21.4018C 72.0626 21.2037 72.7763 21.723 73.3093 21.7318C 73.6981 21.6807 74.0543 21.4879 74.3094 21.1905C 74.6795 20.8033 74.8998 20.2796 75.2566 19.8703C 75.8954 19.1442 76.5783 18.4401 77.2656 17.7624C 78.0005 16.9544 78.8104 16.2176 79.6843 15.562C 80.6623 14.9195 81.7505 15.1219 82.5788 16.0021C 82.9443 16.3436 83.1704 16.8081 83.2135 17.3062C 83.2566 17.8042 83.1137 18.3006 82.8122 18.6997C 82.2064 19.4959 81.4488 20.1645 80.583 20.6668C 79.3055 21.3752 77.9908 22.0142 76.6444 22.5812C 76.3272 22.7264 75.8161 22.9244 75.6223 22.7836C 74.6795 22.1103 74.0098 22.7836 73.2873 23.1488C 70.6704 24.359 68.1548 25.6792 65.5775 26.9995C 67.2472 28.2185 67.2693 28.3725 66.0577 30.7885C 67.1195 30.322 68.049 29.8335 69.0315 29.5123C 69.5133 29.3971 70.0201 29.4499 70.4677 29.6619C 70.5604 29.8145 70.6169 29.9862 70.6329 30.1639C 70.6489 30.3416 70.6241 30.5206 70.5602 30.6873C 70.1381 30.887 69.6825 31.0064 69.2165 31.0393C 68.9044 31.0541 68.5945 31.0998 68.2914 31.1757C 62.3996 33.7458 56.5122 36.3275 50.6293 38.921C 50.3488 39.1025 50.0409 39.2378 49.7173 39.3214L 75.0892 35.11C 74.9704 34.55 74.9099 33.9793 74.9086 33.4069C 75.2479 33.227 75.6315 33.1476 76.0144 33.1781C 76.2586 33.7733 76.4445 34.3909 76.5695 35.0219L 79.4464 34.3486C 79.6006 34.3134 79.8869 34.2518 79.8869 34.1902C 79.9838 32.4299 81.6051 32.628 82.6184 32.0559C 83.2925 31.6774 83.9753 31.3078 84.6758 30.9777C 86.4601 30.1328 87.6232 30.4716 88.2003 31.9767C 88.8523 33.7017 87.9976 35.5456 86.2927 35.9373C 85.6941 36.0503 85.0813 36.0667 84.4776 35.9857C 82.9576 35.8405 81.4421 35.4796 79.931 35.5104C 78.5256 35.5368 77.1334 35.9505 75.7324 36.2101C 68.1548 37.5304 60.5727 38.789 53.0039 40.1708C 51.2416 40.492 49.4794 41.1169 47.4969 41.6626L 60.4802 40.8485C 60.5199 40.536 60.4494 40.0696 60.6432 39.7791C 60.8914 39.3091 61.2945 38.9391 61.7843 38.7318C 62.8228 38.5644 63.8702 38.4572 64.9211 38.4105C 67.2296 38.1685 67.8023 38.6085 68.1812 41.0069C 69.9963 41.5262 71.6044 40.5184 73.2961 40.1884C 74.5253 39.9463 75.6928 39.4051 76.9175 39.119C 78.4815 38.7582 79.7548 39.5019 80.0852 40.8441C 80.4156 42.1863 79.5169 43.4845 77.9705 43.753C 77.0444 43.8559 76.1106 43.8706 75.1817 43.797C 73.979 43.797 72.7719 43.797 71.5647 43.7398C 71.243 43.7602 70.9262 43.6526 70.6836 43.4405C 69.6307 41.9751 68.2341 42.6836 66.9344 42.7848C 66.2648 42.8376 65.5467 43.1105 64.9299 42.9608C 60.9648 41.9971 56.9998 42.6484 53.0347 42.82C 52.7924 42.82 52.5677 43.2601 52.1536 43.6561C 55.0437 44.2634 57.6386 44.7255 60.1938 45.3592C 63.7844 46.2394 67.3486 47.2647 70.9215 48.2505C 71.5603 48.4265 72.0978 48.6245 72.6838 48.0128C 72.9393 47.7444 73.6001 47.7092 74.0363 47.7884C 75.7985 48.1229 77.5608 48.5717 79.323 48.9282C 80.42 49.1482 81.5655 49.245 81.8871 50.5961C 81.9987 51.0754 81.9648 51.5771 81.7899 52.0372C 81.6149 52.4973 81.3067 52.8948 80.9046 53.1793C 79.9927 53.9274 78.7415 53.9142 77.6004 53.1793C 76.4594 52.4444 75.4901 51.419 74.2698 50.9789C 70.3047 49.5311 66.2912 48.1757 62.2248 47.0183C 59.2202 46.1645 56.1054 45.6981 53.0391 45.0512C 52.706 45.0085 52.3705 44.9879 52.0347 44.9896C 51.9994 45.0996 51.9642 45.2096 51.9245 45.3152C 52.1933 45.478 52.4576 45.6541 52.7351 45.7993C 56.9337 47.9556 61.1278 50.1208 65.344 52.2375C 65.8436 52.4033 66.3686 52.4793 66.8948 52.462C 67.093 52.484 67.3089 52.3739 67.4983 52.4136C 69.2606 52.7876 70.9876 53.1573 72.7234 53.5797C 73.7719 53.8394 74.4504 54.4951 74.4416 55.6481C 74.4185 56.2016 74.2135 56.7322 73.8584 57.1577C 73.5032 57.5833 73.0176 57.8801 72.4767 58.0025C 71.2651 58.2709 70.2386 57.8572 69.2914 57.1223C 68.4103 56.4534 67.723 55.494 66.3529 55.6965C 66.1018 55.7317 65.6964 54.8603 65.3925 54.3763C 65.1942 54.0682 65.1281 53.5709 64.8594 53.4301C 60.6873 51.2298 56.4887 49.0734 52.2946 46.9127C 52.0507 46.8525 51.8011 46.8186 51.55 46.8114C 51.8408 47.564 51.8937 48.3385 52.299 48.6421C 58.4008 53.2321 63.476 58.8474 68.4279 64.5903C 68.8112 65.0304 69.0756 65.3648 69.8069 65.1316C 70.688 64.8456 71.1858 65.4264 71.2828 66.3946C 71.3549 66.8087 71.5796 67.1808 71.9128 67.4376C 72.4326 67.816 73.0759 68.0185 73.6354 68.3485C 74.772 69.0218 75.0187 70.0648 74.3403 71.1342C 73.5781 72.3312 72.1066 72.8108 71.2299 71.8955C 70.1858 70.7997 69.4192 69.4355 68.5381 68.1813C 68.494 68.1197 68.45 68.0053 68.4808 67.9525C 69.2562 66.5178 68.0138 65.8357 67.3309 65.0084C 62.965 59.7275 58.3611 54.6755 52.9202 50.4552C 52.5193 50.1384 52.0963 49.8479 51.6822 49.5443L 51.4223 49.7379C 51.5395 50.0818 51.6869 50.4146 51.8628 50.7325C 54.1273 53.9582 56.3786 57.1971 58.7136 60.3744C 59.088 60.8849 59.8458 61.1137 60.4229 61.4702L 59.4713 61.4702C 60.4494 63.5063 61.4039 65.4998 62.335 67.4508L 63.3086 67.1911C 62.4275 65.3516 61.5728 63.5385 60.7093 61.7255C 61.705 62.9488 62.8372 64.0886 63.6434 65.422C 64.1221 66.3567 64.3727 67.3911 64.3748 68.4409C 64.3968 68.9514 63.8153 69.4883 63.4936 70.0164C 62.9958 69.7215 62.3218 69.5411 62.0442 69.1098C 61.3883 68.0334 60.8168 66.9079 60.3348 65.7433C 58.1078 60.6856 55.1576 55.9776 51.5765 51.7666C 51.433 51.6143 51.2768 51.4744 51.1095 51.3486L 50.0125 52.6688C 53.9775 59.6615 55.775 67.3276 56.524 75.4072C 57.6562 75.328 58.0792 75.9045 58.3479 76.9343C 58.6387 78.0521 59.2951 79.073 59.7841 80.1424C 60.3436 81.3526 60.2247 82.4924 59.2687 82.9325C 58.4745 83.2663 57.5988 83.3567 56.7531 83.1921C 55.8059 82.9941 55.7089 82.0083 55.7794 81.1766C 56.1803 76.6614 55.427 72.2431 54.6163 67.8468C 53.7403 62.9483 52.0864 58.2211 49.7173 53.8438C 49.5697 53.5512 49.3479 53.3024 49.0741 53.1221C 49.6292 55.2256 50.3121 57.2983 50.713 59.4283C 51.2945 62.544 51.669 65.6949 52.136 68.8326C 52.1844 69.1494 52.136 69.6907 52.299 69.7567C 53.7308 70.3552 53.233 71.2838 52.9642 72.3488C 52.7792 73.0969 53.0964 73.955 53.1228 74.7691C 53.1493 75.5833 52.9422 76.415 52.0479 76.7715C 51.1535 77.1279 50.0742 77.1191 49.4618 76.3314C 49.0212 75.7681 48.6511 74.6767 48.9155 74.1662C 49.6336 72.7844 49.7966 71.0461 51.2989 70.0824C 51.4707 69.9724 51.4795 69.4971 51.4531 69.2022C 50.9685 64.005 50.1711 58.865 48.3912 53.9318C 48.1547 53.4823 47.8868 53.0499 47.5894 52.638C 47.1488 51.8459 46.4087 51.0229 46.4351 50.2352C 46.51 47.9292 45.1707 46.3934 43.9371 44.5539C 31.694 57.4392 20.0808 70.6457 11.2651 86.3606L 9.80248 89.2035ZM 58.1408 31.2461L 48.2943 38.3489C 50.9377 37.4027 53.4092 36.1925 55.916 35.0704C 58.4228 33.9482 60.9428 32.9316 63.5994 31.8094C 61.749 31.1713 59.9383 32.562 58.1408 31.2461ZM 25.1781 28.7817C 27.4646 29.2526 29.7246 29.7059 31.9759 30.19C 33.3284 30.4848 34.1787 30.234 34.3417 29.4155C 34.5047 28.5969 33.8351 28.0292 32.3856 27.9236C 29.9405 27.7432 27.4866 27.6552 25.1781 27.5363L 25.1781 28.7817ZM 16.2831 10.0347C 17.7561 11.0093 19.2796 11.9053 20.8473 12.7192C 21.5126 13.0272 22.9004 13.0316 23.1867 12.6267C 23.8123 11.7466 22.7726 11.2845 22.0809 10.8665C 21.8006 10.7111 21.5055 10.5844 21.1998 10.488C 19.6534 9.94232 18.1159 9.40543 16.6532 8.89935C 16.5166 9.32622 16.3624 9.78829 16.2831 10.0347ZM 86.4204 33.8822C 86.3103 33.4113 86.187 32.914 86.1253 32.65C 84.6186 32.7644 83.125 32.8128 81.658 33.0372C 81.3892 33.0888 81.1355 33.2002 80.9158 33.3633C 80.6962 33.5263 80.5161 33.7368 80.3892 33.979C 80.0455 35.0264 80.8826 35.7393 82.0545 35.3872C 83.526 34.9603 84.9622 34.3927 86.4204 33.8822ZM 75.9747 22.5988L 81.1425 18.0968L 80.2217 17.2607L 74.5914 20.8385L 74.794 21.1245C 76.0056 20.9573 76.151 21.0849 75.9747 22.5988ZM 72.5207 43.1149L 77.781 42.0631C 77.6665 41.623 77.5519 41.1565 77.4815 40.8705C 75.4901 40.8705 74.7059 41.4602 72.6045 41.4602C 73.0098 42.2743 72.1242 42.3183 72.5207 43.1149ZM 30.0815 15.7292C 29.7907 16.0021 29.5881 16.1077 29.5396 16.2617C 29.5155 16.351 29.5121 16.4445 29.5296 16.5353C 29.5472 16.626 29.5853 16.7116 29.6409 16.7854C 30.5925 17.6656 31.5398 18.5457 32.5707 19.307C 32.7597 19.3767 32.9636 19.3967 33.1626 19.3652C 33.3616 19.3336 33.5492 19.2514 33.7073 19.1266C 33.9144 18.8846 33.9452 18.0968 33.7646 17.9692C 32.5839 17.1639 31.3283 16.4686 30.0815 15.7292ZM 68.7936 67.486C 69.0359 69.5543 71.4017 69.5631 72.3401 71.0065L 73.0626 69.9372C 72.3886 69.1891 71.8203 68.5025 71.1947 67.8864C 70.9255 67.6386 70.5905 67.4736 70.2298 67.4112C 69.7498 67.3899 69.2688 67.4149 68.7936 67.486ZM 66.6216 53.4037C 66.5732 53.5049 66.5203 53.6061 66.4718 53.7118C 66.9775 54.1807 67.5148 54.6145 68.0799 55.01C 68.7461 55.4821 69.5065 55.8048 70.3091 55.9561C 70.851 56.0969 71.3709 56.3302 71.8951 56.5238L 72.2916 55.2784C 70.525 54.3807 68.3354 54.2839 66.6216 53.4037ZM 58.3171 77.4448C 56.361 78.0917 56.3786 78.0873 56.9954 79.8608C 57.198 80.4681 57.2905 81.1106 57.4359 81.7135L 58.7004 81.7135C 58.5506 80.248 58.436 78.875 58.3171 77.4448ZM 40.2276 7.19628L 40.0029 7.3327C 40.2981 8.41087 40.558 9.50225 40.9105 10.5672C 41.0148 11.0035 41.2789 11.385 41.6506 11.6366C 41.8559 11.6438 42.0594 11.5973 42.2411 11.5015C 42.4227 11.4058 42.5761 11.2642 42.6859 11.0909C 42.756 10.8559 42.7761 10.6088 42.745 10.3655C 42.7139 10.1223 42.6323 9.88818 42.5053 9.67827C 41.7893 8.8124 41.029 7.98397 40.2276 7.19628ZM 65.0532 20.1784L 60.8767 24.051L 61.1543 24.4382C 63.4232 24.2798 64.2382 21.7978 65.8462 21.1157L 65.0532 20.1784ZM 54.5194 12.2571C 53.3268 14.0746 52.8701 16.2769 53.2418 18.4181C 53.9849 16.4466 54.7324 14.4721 55.4842 12.4947L 54.5194 12.2571ZM 46.7523 14.4574C 46.6686 12.5211 46.5849 10.6552 46.5012 8.77173L 45.4262 8.91255C 45.8316 14.0746 45.8316 14.0746 46.7523 14.431L 46.7523 14.4574ZM 65.2559 40.9541C 65.1634 40.5976 65.1634 40.2016 65.0356 40.1576C 63.9437 39.7374 62.8215 39.4005 61.6785 39.1498C 61.4715 39.1102 61.0529 39.8451 60.8723 40.2808C 60.8283 40.382 61.3481 40.9057 61.6257 40.9233C 62.7799 40.9717 63.9518 40.9277 65.2471 40.9277L 65.2559 40.9541ZM 58.9515 31.1889C 60.9472 32.1395 62.5288 30.3616 64.4937 30.3088C 63.6655 29.1998 60.8767 29.6399 58.9427 31.1625L 58.9515 31.1889ZM 51.1183 8.81573C 52.5986 7.31069 51.8452 5.4448 51.8628 3.6229C 51.4722 3.79088 51.1429 4.07519 50.92 4.43703C 50.0125 5.87606 51.3121 7.29309 51.1095 8.78933L 51.1183 8.81573ZM 51.3033 70.5665L 50.7262 70.5401C 50.5456 72.0803 50.3693 73.6206 50.1799 75.24L 51.7923 75.24C 51.6249 73.647 51.4795 72.1155 51.3033 70.5665ZM 64.0047 5.54601L 62.1103 8.99177L 63.3747 9.27781L 64.7404 6.01689L 64.0047 5.54601ZM 37.9059 37.3983L 40.6021 37.6096C 40.2761 35.8493 38.8399 36.0561 37.7164 35.8493C 37.7737 36.3554 37.8222 36.8306 37.9059 37.4115L 37.9059 37.3983ZM 48.3383 30.7225L 48.7481 31.0305C 49.5616 29.725 50.3796 28.4209 51.202 27.1183L 50.8275 26.8762L 48.3383 30.7225ZM 79.5169 52.5852C 79.7283 51.705 79.8385 51.2254 79.9574 50.7105L 78.1687 50.3364L 79.5169 52.5852ZM 77.6268 50.1868L 77.8119 49.9051L 75.3271 48.5189L 75.0452 49.0426C 75.6135 49.9712 76.7854 49.7819 77.6268 50.2L 77.6268 50.1868ZM 50.7526 46.2262L 49.0829 45.6761L 48.8758 46.0281L 50.2812 47.2515C 50.4663 46.8511 50.5984 46.6046 50.7526 46.2262Z" transform="translate(27.0508 20.4182)" fill="white"/>
</g>
<g id="Vector_2">
<path fill-rule="evenodd" clip-rule="evenodd" d="M 7.17826 4.17951C 6.84343 4.94524 6.25307 6.43267 5.54818 7.8629C 4.84328 9.29313 4.04587 10.5385 3.32335 11.8984C 2.88279 12.7125 2.39818 13.3506 1.34524 13.0865C 0.902357 12.9317 0.527707 12.6269 0.286292 12.225C 0.0448763 11.8231 -0.048073 11.3494 0.0235524 10.8862C 0.565442 8.24577 1.16019 5.60534 1.73733 2.94292C 1.77257 2.78449 1.82985 2.63047 1.87831 2.47644C 2.48188 0.716159 3.55244 -0.163986 4.90055 0.0252449C 6.24867 0.214475 7.15182 1.6007 7.17826 4.17951ZM 3.75069 3.33458C 3.38943 4.33354 3.06341 5.42051 2.60082 6.44588C 2.03691 7.70448 1.33202 8.89707 0.737259 10.1425C 0.261453 11.137 0.512564 12.1932 1.29236 12.4792C 2.38495 12.8797 2.71977 12.0392 3.0546 11.2779C 3.29601 10.7201 3.49483 10.1449 3.64936 9.55718C 4.18684 7.57246 4.69349 5.59654 5.19132 3.68664L 3.75069 3.33458Z" transform="translate(134.658 1.55463)" fill="white"/>
</g>
<g id="Vector_3">
<path fill-rule="evenodd" clip-rule="evenodd" d="M 9.9677 0.0391174C 10.21 0.0391174 10.5008 -0.0488968 10.6902 0.0391174C 11.329 0.382373 12.285 0.681622 12.4525 1.20971C 12.6199 1.73779 12.1881 2.79836 11.6815 3.14602C 10.0866 4.23739 8.33321 5.10433 6.64145 6.05928C 5.23606 6.85141 3.86593 7.72275 2.40767 8.40486C 1.84375 8.6689 0.86571 8.78772 0.469205 8.47527C 0.0726998 8.16282 -0.12555 7.11106 0.0859188 6.58737C 1.19613 3.81053 7.00713 0.0391174 9.9677 0.0391174ZM 8.50944 1.94023C 7.29349 2.46831 5.92335 2.97879 4.63691 3.6521C 3.45061 4.25373 2.32621 4.97007 1.27984 5.79085C 0.19165 6.67099 0.0110213 7.66994 0.689485 8.14962C 1.69837 8.86693 2.31956 8.0484 2.96278 7.43671C 2.98922 7.4103 3.02445 7.3839 3.05089 7.35309C 4.69418 5.38157 6.63706 3.83253 9.06014 3.26924L 8.50944 1.94023Z" transform="translate(146.943 24.0548)" fill="white"/>
</g>
<g id="Vector_4">
<path fill-rule="evenodd" clip-rule="evenodd" d="M 3.45359 0.000977835C 4.22898 0.000977835 5.15856 0.766701 5.98241 1.71285C 6.9957 2.87024 8.0178 4.01442 9.06633 5.15861C 9.39277 5.49781 9.57326 5.9512 9.56914 6.4217C 9.56502 6.89219 9.37663 7.34237 9.04431 7.67581C 8.33941 8.41953 7.61249 8.55595 6.66969 7.96626C 5.72689 7.37656 4.64311 6.9849 3.63422 6.48322C 2.71691 6.07817 1.83304 5.60141 0.990858 5.05739C -0.00481 4.34007 -0.229499 3.05507 0.224279 1.86248C 0.678057 0.669884 1.6561 -0.0298271 3.45359 0.000977835ZM 3.75758 4.07603C 4.66954 5.06179 5.64758 6.13997 6.65206 7.20054C 7.24682 7.82104 7.92529 8.15549 8.65221 7.40297C 9.37914 6.65044 9.23815 5.87152 8.44074 5.32583C 7.20717 4.4897 5.90311 3.75918 4.69597 3.01986L 3.75758 4.07603Z" transform="translate(48.334 20.4843)" fill="white"/>
</g>
<g id="Vector_5">
<path fill-rule="evenodd" clip-rule="evenodd" d="M 5.08106 6.09505C 5.16917 7.22603 5.25288 8.35261 5.34981 9.4836C 5.42911 10.3637 5.34981 11.2175 4.44225 11.6839C 4.23916 11.7827 4.01732 11.8371 3.79153 11.8436C 3.56575 11.85 3.34118 11.8083 3.13278 11.7213C 2.92437 11.6343 2.7369 11.5039 2.58287 11.3389C 2.42884 11.1739 2.31176 10.978 2.23944 10.7642C 1.60944 8.93351 0.917762 7.12482 0.384683 5.26772C 0.0796597 4.191 -0.0453826 3.07138 0.0146067 1.95399C 0.0850964 0.911018 0.869295 0.193702 1.93545 0.0352765C 2.40017 -0.0474316 2.87913 0.0161248 3.30611 0.217158C 3.73309 0.41819 4.087 0.746769 4.3189 1.15746C 5.36303 2.6713 5.27931 4.37878 5.08106 6.09505ZM 3.38931 4.08393C 2.21741 4.29076 2.08965 4.92447 2.34077 5.87062C 2.43778 6.50981 2.47906 7.15621 2.46412 7.80253C 2.47899 8.69 2.57783 9.57407 2.75931 10.443C 2.86173 10.6575 3.01684 10.8426 3.21019 10.9811C 3.40355 11.1196 3.62884 11.207 3.86511 11.2351C 4.22637 11.2043 4.65372 10.6762 4.85197 10.2713C 4.97133 9.88096 4.9605 9.46242 4.82113 9.07873C 4.36295 7.38446 3.86071 5.70339 3.38931 4.08393Z" transform="translate(67.7754 11.1646)" fill="white"/>
</g>
<g id="Vector_6">
<path fill-rule="evenodd" clip-rule="evenodd" d="M 4.12518 0.206827C 6.27071 0.396058 8.41624 0.545685 10.553 0.800926C 10.7493 0.808712 10.942 0.856931 11.1188 0.942544C 11.2957 1.02816 11.453 1.14932 11.5808 1.29846C 11.7086 1.4476 11.8041 1.62149 11.8615 1.80924C 11.9189 1.997 11.9369 2.19458 11.9143 2.38959C 11.9201 2.75998 11.7882 3.11936 11.5441 3.3982C 11.2999 3.67703 10.9609 3.85549 10.5926 3.89903C 8.69379 4.30389 6.79938 4.73517 4.86532 5.07402C 3.99456 5.24056 3.10446 5.28205 2.22195 5.19724C 1.66082 5.16296 1.13044 4.92947 0.726502 4.5389C 0.322569 4.14832 0.0716912 3.62639 0.0191484 3.06729C -0.126237 1.87029 0.569853 1.02977 1.64042 0.611698C 2.44689 0.353647 3.2696 0.149292 4.10315 -6.44635e-06L 4.12518 0.206827ZM 4.75518 3.18171C 6.60994 3.27853 8.35457 3.39294 10.1036 3.45455C 10.8261 3.47656 11.4253 3.15971 11.4253 2.34558C 11.4393 2.17973 11.4143 2.01289 11.3521 1.85846C 11.2899 1.70403 11.1924 1.56631 11.0673 1.45634C 10.9422 1.34638 10.7931 1.26723 10.6318 1.22524C 10.4706 1.18326 10.3017 1.17961 10.1388 1.21459C 8.21799 1.38182 6.30596 1.62386 4.34106 1.8395L 4.75518 3.18171Z" transform="translate(47.5312 58.7979)" fill="white"/>
</g>
<g id="Vector_7">
<path fill-rule="evenodd" clip-rule="evenodd" d="M 10.7126 2.17441C 10.6487 2.80404 10.4447 3.41142 10.1154 3.95205C 9.78604 4.49269 9.3398 4.95288 8.80934 5.29891C 7.95927 5.83736 7.07643 6.32238 6.16597 6.75114C 5.01611 7.35404 3.85304 7.92173 2.72079 8.55103C 1.58855 9.18033 0.720649 9.10112 0.231627 8.331C -0.257396 7.56087 0.0597993 6.62792 0.883648 5.8842C 2.26701 4.6344 3.52702 3.26578 4.9236 2.02478C 5.67967 1.29563 6.54469 0.688407 7.48765 0.224894C 9.10892 -0.48362 10.7214 0.568153 10.7126 2.17441ZM 7.44361 2.45606C 5.85318 3.42861 4.23631 4.40997 2.62827 5.40453C 1.97786 5.72753 1.37462 6.13765 0.835193 6.62353C 0.693983 6.82421 0.605461 7.0571 0.577751 7.30083C 0.550041 7.54456 0.584022 7.79134 0.676584 8.01855C 0.856806 8.18279 1.07616 8.29814 1.31371 8.35361C 1.55126 8.40908 1.79909 8.40281 2.03352 8.3354C 2.8605 7.90465 3.63138 7.37406 4.32884 6.75554C 5.70339 5.62456 7.02948 4.43197 8.29389 3.3494L 7.44361 2.45606Z" transform="translate(133.541 18.9314)" fill="white"/>
</g>
<g id="Vector_8">
<path fill-rule="evenodd" clip-rule="evenodd" d="M 3.30404 5.37196e-07C 6.14566 5.37196e-07 7.33518 1.99792 5.98706 4.49312C 5.35265 5.66371 4.77992 6.8695 4.22481 8.0709C 3.78425 9.02585 2.65201 9.43512 1.37438 9.05666C 0.339067 8.74861 0.087952 8.14571 0.264176 7.01913C 0.440401 5.89255 0.145216 4.76596 0.035076 3.63498C -0.220449 1.2718 0.925015 0.00880195 3.30404 5.37196e-07ZM 2.65201 2.39839C 2.08369 3.93863 1.55061 5.44367 0.977883 6.93551C 0.515294 8.15011 1.12767 8.95544 2.41851 8.78381C 3.44061 8.64739 3.93405 7.90367 4.00894 6.39423C 4.08384 4.9904 4.15432 3.58658 4.2204 2.27517L 2.65201 2.39839Z" transform="translate(121.484 7.46796)" fill="white"/>
</g>
<g id="Vector_9">
<path fill-rule="evenodd" clip-rule="evenodd" d="M 3.16339 -8.05794e-07C 3.93793 0.310409 4.68885 0.676634 5.41025 1.09578C 6.73193 1.94511 7.98312 2.93087 9.27837 3.84182C 9.63594 4.05058 9.89664 4.39181 10.0039 4.79142C 10.1111 5.19102 10.0562 5.61674 9.8511 5.97616C 9.47222 6.76829 8.7497 7.01033 7.8862 6.75509C 6.33543 6.31502 4.77584 5.87494 3.22947 5.38206C 2.5669 5.19829 1.92478 4.94763 1.31303 4.63394C 0.81844 4.38211 0.42627 3.96714 0.203041 3.45942C -0.0201878 2.9517 -0.0607329 2.38247 0.0882758 1.8483C 0.427508 0.6381 1.29541 0.00880061 3.16339 -8.05794e-07ZM 3.6392 3.49416C 5.03137 4.3743 6.3134 5.22804 7.60424 6.05097C 8.25187 6.46024 8.92593 6.58786 9.40614 5.83974C 9.88635 5.09162 9.51628 4.46232 8.82019 4.15867C 7.25179 3.47656 5.63934 2.89567 4.0313 2.26637C 3.85507 2.82086 3.74934 3.15971 3.6392 3.49416Z" transform="translate(38.7129 35.3905)" fill="white"/>
</g>
<g id="Vector_10">
<path fill-rule="evenodd" clip-rule="evenodd" d="M 7.91156 2.96872C 7.3917 3.94568 6.9996 5.02385 6.32554 5.88199C 5.20211 7.31222 3.90685 8.61043 2.66007 9.94384C 2.10055 10.5423 1.4265 10.956 0.624678 10.3839C -0.177143 9.81182 -0.0934438 9.09891 0.245788 8.31999C 1.01236 6.5597 1.76573 4.75981 2.52349 2.97753C 2.69531 2.56386 2.81867 2.13259 3.00811 1.73213C 3.6293 0.411913 4.66021 -0.195383 5.77923 0.0554569C 6.89826 0.306297 7.67806 1.38447 7.91156 2.96872ZM 4.85407 2.78389C 3.56763 4.51777 2.30321 6.22965 1.0344 7.93272C 0.549779 8.58403 0.0915912 9.30574 0.919846 9.93064C 1.7481 10.5555 2.31202 9.86904 2.68209 9.23533C 3.81874 7.25502 4.8849 5.23069 5.95986 3.27237L 4.85407 2.78389Z" transform="translate(82.3555 17.6398)" fill="white"/>
</g>
<g id="Vector_11">
<path fill-rule="evenodd" clip-rule="evenodd" d="M 5.28198 5.09765C 5.37009 6.06141 5.4538 7.02956 5.55072 7.99332C 5.58897 8.18418 5.58877 8.38074 5.55014 8.57152C 5.5115 8.7623 5.4352 8.94348 5.32569 9.10449C 5.21619 9.26549 5.07567 9.40309 4.91234 9.50925C 4.74901 9.61541 4.56615 9.68801 4.37442 9.7228C 3.54617 9.93843 2.82805 9.72279 2.45798 8.87346C 1.82357 7.43003 1.2156 5.9734 0.598819 4.52556L 0.453433 4.19111C -0.0488062 3.01612 -0.32636 1.83233 0.673714 0.784962C 1.00567 0.418462 1.44341 0.164015 1.92641 0.0567995C 2.40942 -0.0504158 2.91384 -0.00510447 3.36995 0.186465C 4.69163 0.683745 5.22471 1.82353 5.36569 3.14374C 5.40096 3.79163 5.40096 4.44096 5.36569 5.08885L 5.28198 5.09765ZM 2.52407 4.65758C 2.54957 5.88804 2.65553 7.11552 2.84127 8.33217C 2.95519 8.58054 3.12922 8.79668 3.34765 8.96109C 3.56608 9.1255 3.82205 9.23301 4.09246 9.27392C 4.25877 9.27828 4.42354 9.24113 4.57184 9.16583C 4.72015 9.09054 4.84731 8.97947 4.9418 8.8427C 5.03629 8.70592 5.09513 8.54777 5.11299 8.38255C 5.13085 8.21733 5.10716 8.05027 5.04408 7.8965C 4.65638 6.57629 4.20701 5.25608 3.76645 3.86986L 2.52407 4.65758Z" transform="translate(59.459 4.25824)" fill="white"/>
</g>
<g id="Vector_12">
<path fill-rule="evenodd" clip-rule="evenodd" d="M 8.46357 8.78338C 8.06388 8.6542 7.67499 8.49381 7.30049 8.30369C 5.78496 7.37075 4.26503 6.4334 2.78034 5.45204C 2.05455 5.00445 1.38205 4.4759 0.775785 3.87658C -0.105337 2.93483 -0.241911 1.70263 0.396902 0.8709C 1.16348 -0.119259 2.25607 -0.172062 3.26936 0.250406C 4.1276 0.611149 4.90612 1.13755 5.56028 1.79945C 6.87735 3.17577 8.12002 4.62126 9.28302 6.12975C 9.45165 6.36367 9.57068 6.62953 9.6328 6.91104C 9.69492 7.19254 9.69883 7.48375 9.64428 7.76682C 9.52533 8.18928 8.86889 8.45772 8.46357 8.78338ZM 2.55124 3.12407C 3.27817 3.74457 4.0844 4.36066 4.80251 5.06038C 5.68363 5.90971 6.39735 6.92188 7.32693 7.7008C 7.57414 7.85728 7.85586 7.9511 8.14761 7.97411C 8.43937 7.99712 8.73233 7.94862 9.00106 7.83282C 9.64428 7.42796 9.31827 6.75025 8.82043 6.29697C 8.22677 5.74707 7.60473 5.22854 6.95685 4.74352C 5.68804 3.81938 4.38398 2.93924 3.11957 2.0591L 2.55124 3.12407Z" transform="translate(41.5605 9.64679)" fill="white"/>
</g>
<g id="Vector_13">
<path fill-rule="evenodd" clip-rule="evenodd" d="M 5.24624 0.352052L 8.03499 0.180432C 9.00863 0.114421 9.64744 0.567694 9.73115 1.50064C 9.81486 2.43359 9.29059 2.93088 8.40947 3.0981C 7.28604 3.30494 6.20666 3.49856 5.82337 4.88918C 5.73526 5.18843 4.82771 5.37326 4.28582 5.39966C 3.67784 5.43047 3.05665 5.14883 2.43546 5.14002C 1.28119 5.14002 0.439715 4.62954 0.118106 3.54257C -0.203504 2.45559 0.118109 1.31141 1.25035 0.902141C 2.50154 0.431265 3.89372 0.290448 5.2154 1.07439e-06C 5.19337 0.11882 5.22421 0.246435 5.24624 0.352052ZM 2.63811 3.23892L 7.54156 2.73724C 8.38303 2.64923 9.48003 2.73724 9.27737 1.45663C 9.08352 0.264042 8.05702 0.457678 7.21995 0.690915C 5.55023 1.15739 3.89812 1.68548 2.26805 2.17836C 2.41343 2.60082 2.55 3.02768 2.63811 3.23892Z" transform="translate(39.8555 67.4144)" fill="white"/>
</g>
<g id="Vector_14">
<path fill-rule="evenodd" clip-rule="evenodd" d="M 0.52112 8.50786C 0.34049 8.1206 -0.0692329 7.64972 0.010068 7.28887C 0.198548 6.7626 0.520334 6.2941 0.944055 5.92905C 2.01902 4.83327 3.14686 3.7771 4.23946 2.72533C 5.0758 1.84302 5.98835 1.03604 6.96653 0.313747C 7.47317 -0.0163056 8.53052 -0.126325 8.93584 0.181725C 9.34115 0.489774 9.44247 1.50193 9.32352 2.13124C 8.95345 4.16436 7.5833 5.49338 5.79903 6.37352C 4.41126 7.05563 2.97944 7.64092 1.56084 8.25262C 1.22073 8.36211 0.873292 8.44741 0.52112 8.50786ZM 6.49513 2.59331C 5.75048 3.30989 4.96497 3.98285 4.14253 4.60884C 3.30987 5.18093 2.28336 5.48898 1.49917 6.07867C 1.03658 6.42633 0.842725 7.13925 0.529927 7.68493C 1.08944 7.64533 1.78993 7.81255 2.17762 7.53971C 4.0456 6.2195 5.82546 4.78927 7.68463 3.35904C 7.05904 2.95857 6.73743 2.75174 6.49513 2.59331Z" transform="translate(87.8418 29.4218)" fill="white"/>
</g>
<g id="Vector_15">
<path fill-rule="evenodd" clip-rule="evenodd" d="M 9.51957 1.69819C 8.81467 2.83798 8.33887 4.2022 7.38726 5.01193C 5.80124 6.36734 3.93326 7.40591 2.13578 8.50169C 1.98357 8.61132 1.80972 8.68731 1.62583 8.72462C 1.44193 8.76193 1.25219 8.75969 1.06922 8.71806C 0.886257 8.67643 0.714257 8.59636 0.564678 8.48317C 0.415099 8.36999 0.291367 8.22628 0.201707 8.06162C -0.291721 7.26509 0.201705 6.76781 0.805274 6.21332C 2.62479 4.48384 4.37382 2.69276 6.1625 0.910469C 6.40358 0.627907 6.70455 0.40243 7.04362 0.250363C 7.55467 0.0919376 8.21991 -0.119299 8.62523 0.0831341C 9.03055 0.285567 9.14069 0.985278 9.51957 1.69819ZM 6.23299 2.44631C 5.18445 4.2374 3.48829 5.36398 1.56745 6.21332C 1.34717 6.31013 1.0652 6.42015 0.968279 6.60498C 0.788577 7.00173 0.641244 7.41234 0.527718 7.83278C 0.968279 7.9516 1.40884 8.24205 1.80975 8.15403C 2.36103 8.01558 2.86477 7.73131 3.26801 7.3311C 4.65137 5.94928 5.97306 4.50584 7.28153 3.12842L 6.23299 2.44631Z" transform="translate(100.396 21.9556)" fill="white"/>
</g>
<g id="Vector_16">
<path fill-rule="evenodd" clip-rule="evenodd" d="M 10.7081 1.96289C 10.2676 2.59659 9.94595 3.39752 9.38643 3.74958C 8.51898 4.26175 7.55966 4.59961 6.56244 4.74414C 4.91868 5.00493 3.25726 5.13881 1.59291 5.1446C 1.0378 5.1446 0.165492 4.66493 0.0245127 4.22046C -0.116467 3.77599 0.376969 2.82103 0.830747 2.6186C 2.78243 1.73846 4.79578 0.99914 6.83558 0.281825C 7.85328 -0.0790334 8.93706 -0.206653 9.8358 0.598676C 10.1772 1.01906 10.4698 1.47671 10.7081 1.96289ZM 7.58895 1.87048C 5.49188 2.18293 3.43887 2.42937 1.4211 2.84303C 0.980536 2.93105 0.68536 3.61756 0.319694 4.02682C 0.753284 4.29463 1.20694 4.52856 1.67662 4.72654C 1.9594 4.75535 2.24463 4.70507 2.50046 4.58131C 4.35522 4.00922 6.20558 3.42833 8.03391 2.85184L 7.58895 1.87048Z" transform="translate(112.469 41.1288)" fill="white"/>
</g>
<g id="Vector_17">
<path fill-rule="evenodd" clip-rule="evenodd" d="M 9.2469 1.24354C 8.91648 3.4879 7.73577 4.91374 6.18499 6.02271C 4.94457 6.86869 3.65757 7.64443 2.33009 8.34629C 1.56351 8.78636 0.717639 8.86997 0.188966 7.98983C -0.339708 7.10969 0.347564 6.64761 0.942321 6.09752C 2.07016 5.05455 3.08785 3.89716 4.18925 2.82339C 5.09443 1.8965 6.06148 1.032 7.08374 0.235787C 7.32042 0.101579 7.58433 0.0223799 7.85587 0.00409446C 8.1274 -0.0141909 8.39957 0.0288987 8.65214 0.130161C 9.0178 0.301788 9.13235 0.975096 9.2469 1.24354ZM 6.56388 2.59456C 5.05716 3.70354 3.62094 4.77291 2.15827 5.81588C 1.80142 6.07112 1.27714 6.16353 1.02162 6.48478C 0.776453 6.8936 0.599405 7.33947 0.497364 7.805C 0.954905 7.95778 1.42754 8.06106 1.90715 8.11305C 2.23162 8.06862 2.53059 7.91308 2.75303 7.67298C 4.28619 6.19874 5.7973 4.6937 7.33045 3.18425L 6.56388 2.59456Z" transform="translate(106.73 59.1254)" fill="white"/>
</g>
<g id="Vector_18">
<path fill-rule="evenodd" clip-rule="evenodd" d="M 1.61338e-06 1.94324C 1.61338e-06 0.865071 0.700494 -0.0546781 1.76225 0.00253108C 2.71539 0.0702666 3.64192 0.346721 4.4761 0.812266C 5.64123 1.46387 6.72895 2.2448 7.71862 3.14024C 7.92032 3.3571 8.0684 3.61811 8.15102 3.90237C 8.23364 4.18664 8.24851 4.48627 8.19444 4.7773C 8.07989 5.14696 7.22519 5.59143 6.79344 5.50782C 5.17548 5.16274 3.57695 4.73234 2.00455 4.21841C 0.898741 3.87956 1.61338e-06 3.28106 1.61338e-06 1.94324ZM 2.12351 2.44493L 5.33079 4.29763C 5.75034 4.60984 6.21345 4.85893 6.70534 5.03694C 7.04898 5.11175 7.72743 4.90492 7.79792 4.67609C 7.84631 4.4644 7.84359 4.24423 7.78996 4.0338C 7.73634 3.82337 7.63337 3.62871 7.48954 3.46589C 7.00915 3.10118 6.46549 2.82816 5.88589 2.66056C 4.7184 2.22049 3.5289 1.86843 2.38344 1.48997C 2.29533 1.80682 2.19399 2.18528 2.13231 2.44493L 2.12351 2.44493Z" transform="translate(168.475 9.02332)" fill="white"/>
</g>
<g id="Vector_19">
<path fill-rule="evenodd" clip-rule="evenodd" d="M 2.10241 4.14987C 1.82711 4.16587 1.55149 4.12447 1.29309 4.02828C 1.03469 3.93209 0.79917 3.78323 0.601504 3.59116C 0.403837 3.3991 0.248354 3.16804 0.144957 2.91268C 0.04156 2.65732 -0.00749265 2.38326 0.000922133 2.10794C -0.00140079 1.83269 0.0507262 1.5597 0.154301 1.30463C 0.257876 1.04956 0.410855 0.81743 0.604475 0.621572C 0.798095 0.425714 1.02854 0.269984 1.28257 0.163317C 1.5366 0.0566508 1.80922 0.00115214 2.08478 2.95458e-06C 2.61859 0.0317505 3.12319 0.25411 3.50653 0.626528C 3.88988 0.998946 4.12642 1.49661 4.17304 2.02873C 4.17321 2.58226 3.95676 3.11393 3.56989 3.51023C 3.18301 3.90654 2.65638 4.13609 2.10241 4.14987Z" transform="translate(149.65 4.38312)" fill="white"/>
</g>
<g id="Vector_20">
<path fill-rule="evenodd" clip-rule="evenodd" d="M 2.12791 0.000473877C 2.4035 -0.00230947 2.67674 0.0513343 2.93078 0.158094C 3.18482 0.264853 3.41428 0.422464 3.60499 0.62121C 3.7957 0.819957 3.94362 1.05562 4.03965 1.31368C 4.13567 1.57173 4.17776 1.8467 4.1633 2.12162C 4.13589 2.6757 3.89315 3.19724 3.4867 3.57529C 3.08025 3.95334 2.54217 4.15808 1.98693 4.14594C 1.45402 4.10059 0.956603 3.86043 0.589967 3.47146C 0.22333 3.0825 0.0132642 2.57208 6.45353e-06 2.038C 0.00573118 1.76463 0.0653068 1.49507 0.175354 1.24471C 0.285402 0.994347 0.443759 0.7681 0.641366 0.578886C 0.838973 0.389672 1.07196 0.241203 1.32703 0.141958C 1.58209 0.0427123 1.85424 -0.00536667 2.12791 0.000473877Z" transform="translate(119.455 19.9391)" fill="white"/>
</g>
<g id="Vector_21">
<path fill-rule="evenodd" clip-rule="evenodd" d="M 1.97246 0.00424558C 2.44143 0.0553991 2.87259 0.285228 3.17622 0.645892C 3.47984 1.00656 3.63253 1.47028 3.60253 1.94056C 3.58362 2.18328 3.5155 2.41963 3.4023 2.63523C 3.28911 2.85083 3.1332 3.04118 2.94405 3.19472C 2.7549 3.34825 2.53648 3.46176 2.30205 3.52834C 2.06761 3.59493 1.82207 3.61319 1.58035 3.58202C 1.11468 3.52035 0.690932 3.28116 0.397783 2.91452C 0.104634 2.54787 -0.0351876 2.08219 0.00755994 1.61491C 0.0681849 1.14699 0.305232 0.719817 0.670364 0.420512C 1.0355 0.121207 1.5012 -0.0276743 1.97246 0.00424558Z" transform="translate(177.395 32.5038)" fill="white"/>
</g>
<g id="Vector_22">
<path fill-rule="evenodd" clip-rule="evenodd" d="M 3.57735 1.73004C 3.59403 2.1955 3.42535 2.6486 3.10826 2.99008C 2.79117 3.33156 2.35152 3.5336 1.8856 3.55193C 1.64307 3.56197 1.40098 3.52319 1.17375 3.43791C 0.946517 3.35262 0.738776 3.22257 0.562869 3.05548C 0.386962 2.88839 0.246485 2.68767 0.14979 2.46527C 0.0530946 2.24286 0.00215487 2.00331 5.37794e-07 1.76084C 0.00581108 1.28968 0.19818 0.839988 0.535025 0.510115C 0.87187 0.180242 1.32577 -0.00296795 1.79748 0.000558163C 2.02874 -0.0053073 2.25885 0.0350622 2.47427 0.119292C 2.68969 0.203522 2.88608 0.329912 3.0519 0.491038C 3.21772 0.652164 3.34962 0.844772 3.43985 1.05754C 3.53009 1.27032 3.57684 1.49896 3.57735 1.73004Z" transform="translate(120.701 31.3677)" fill="white"/>
</g>
<g id="Vector_23">
<path fill-rule="evenodd" clip-rule="evenodd" d="M 5.23827 5.37196e-07C 5.67884 0.36966 6.3573 0.682112 6.4366 1.10898C 6.44968 1.39143 6.39445 1.67287 6.27559 1.92948C 6.15672 2.18609 5.97771 2.41033 5.75372 2.58321C 5.02514 2.91667 4.24393 3.1207 3.44519 3.18612C 2.65071 3.3223 1.84581 3.38856 1.03973 3.38415C 0.852133 3.37315 0.669035 3.32232 0.502661 3.23505C 0.336286 3.14779 0.190459 3.02608 0.0748991 2.87806C 0.0310917 2.7149 0.0303867 2.54318 0.0728555 2.37966C 0.115324 2.21615 0.19951 2.06642 0.317202 1.94511C 1.86357 1.2718 3.454 0.690912 5.23827 5.37196e-07ZM 5.19863 1.98032C 4.81974 1.65467 4.51575 1.29381 4.43204 1.34222C 3.13679 2.05953 1.31728 1.2586 -2.15118e-06 2.76364C 2.03539 3.52937 3.37911 2.11234 5.19863 1.98032Z" transform="translate(98.6289 47.2944)" fill="white"/>
</g>
<g id="Vector_24">
<path fill-rule="evenodd" clip-rule="evenodd" d="M 3.27649 1.79549C 3.27369 2.00774 3.22846 2.21728 3.14345 2.41182C 3.05844 2.60636 2.93536 2.78197 2.78145 2.92833C 2.62754 3.07469 2.4459 3.18885 2.2472 3.2641C 2.0485 3.33936 1.83675 3.37418 1.62438 3.36654C 1.40083 3.36163 1.18057 3.31167 0.976812 3.21968C 0.773053 3.12768 0.589995 2.99553 0.438601 2.83116C 0.287206 2.66678 0.1706 2.47356 0.0957703 2.26308C 0.0209402 2.05261 -0.0105741 1.82919 0.00312177 1.60626C 0.0295543 1.17755 0.216361 0.774431 0.526476 0.476889C 0.836591 0.179347 1.24735 0.00912523 1.67725 0C 1.9013 0.0100048 2.12108 0.0647609 2.3236 0.161031C 2.52611 0.257301 2.70726 0.393133 2.85633 0.560507C 3.00541 0.72788 3.11941 0.923399 3.19157 1.13551C 3.26373 1.34763 3.2926 1.57204 3.27649 1.79549Z" transform="translate(74.373 0)" fill="white"/>
</g>
<g id="Vector_25">
<path fill-rule="evenodd" clip-rule="evenodd" d="M 1.62284 8.81025e-06C 1.83527 -0.000617047 2.04568 0.0411492 2.24172 0.122865C 2.43776 0.204582 2.61549 0.324597 2.76446 0.475864C 2.91344 0.62713 3.03065 0.806607 3.10924 1.00375C 3.18782 1.20088 3.22618 1.41172 3.22207 1.62387C 3.23689 1.84597 3.20416 2.06867 3.12605 2.27714C 3.04794 2.48561 2.92626 2.67507 2.7691 2.83288C 2.61195 2.99069 2.42293 3.11324 2.21464 3.19236C 2.00636 3.27148 1.78358 3.30536 1.56116 3.29174C 1.34824 3.2861 1.13857 3.23815 0.9444 3.15069C 0.750231 3.06322 0.575449 2.938 0.430262 2.78232C 0.285075 2.62664 0.17239 2.44363 0.0987863 2.24398C 0.0251825 2.04432 -0.00786405 1.83202 0.00157329 1.61947C 0.00388748 1.19067 0.175441 0.780099 0.478987 0.476891C 0.782532 0.173683 1.19357 0.00232042 1.62284 8.81025e-06Z" transform="translate(36.9355 53.4774)" fill="white"/>
</g>
<g id="Vector_26">
<path fill-rule="evenodd" clip-rule="evenodd" d="M 2.79019 1.01602C 2.66242 2.29222 2.20864 2.7763 1.32312 2.70589C 0.437589 2.63548 -0.0294052 2.169 0.00143409 1.30206C 0.0322734 0.435123 0.600596 -0.14137 1.41123 0.0302578C 1.99277 0.149077 2.45095 0.756377 2.79019 1.01602Z" transform="translate(57.7402 19.0556)" fill="white"/>
</g>
<g id="Vector_27">
<path fill-rule="evenodd" clip-rule="evenodd" d="M 2.73413 1.74354C 2.37287 1.99878 1.89266 2.58848 1.34637 2.65449C 0.544545 2.7557 -0.0237795 2.16601 0.00265416 1.29026C -0.00894874 1.11547 0.0175787 0.940245 0.080399 0.776692C 0.143219 0.613139 0.240834 0.465158 0.366506 0.342974C 0.492177 0.220789 0.642904 0.127312 0.808276 0.0690037C 0.973649 0.0106958 1.14973 -0.011057 1.32434 0.00525203C 2.21868 0.00525203 2.62399 0.533342 2.73413 1.74354Z" transform="translate(54.9727 71.7219)" fill="white"/>
</g>
<g id="Vector_28">
<path fill-rule="evenodd" clip-rule="evenodd" d="M 2.73485 1.48742C 2.24583 1.84388 1.75239 2.48198 1.26778 2.47758C 0.78316 2.47318 0.179601 1.81748 0.0386217 1.329C -0.00796337 1.16232 -0.0124775 0.98671 0.0254861 0.817862C 0.0634496 0.649014 0.142708 0.492188 0.256173 0.361413C 0.369637 0.230638 0.513769 0.129988 0.675693 0.0684534C 0.837617 0.0069184 1.01229 -0.0135791 1.18408 0.00879112C 1.71716 0.0527982 2.21059 0.607286 2.72164 0.928537L 2.73485 1.48742Z" transform="translate(151.094 16.4146)" fill="white"/>
</g>
<g id="Vector_29">
<path fill-rule="evenodd" clip-rule="evenodd" d="M 2.79316 1.03C 2.00896 1.58889 1.54637 2.16099 1.21595 2.09497C 0.775388 2.00256 0.400913 1.42167 2.68897e-06 1.05201C 0.383291 0.677949 0.735739 0.0662487 1.16308 0.00463884C 1.59043 -0.0569711 2.01336 0.50632 2.79316 1.03Z" transform="translate(59.9609 29.5285)" fill="white"/>
</g>
<g id="Vector_30">
<path fill-rule="evenodd" clip-rule="evenodd" d="M 2.31735 1.30328C 1.87679 1.58932 1.39658 2.10861 0.960429 2.08661C 0.722124 2.01072 0.507956 1.87361 0.339398 1.68902C 0.170839 1.50443 0.0537963 1.27883 -4.30235e-06 1.03483C 0.0564755 0.79196 0.176309 0.568347 0.347317 0.386708C 0.518324 0.20507 0.734422 0.0718828 0.973645 0.000672798C 1.41421 -0.0213307 1.85477 0.502351 2.32176 0.788397C 2.31735 0.955623 2.31735 1.13165 2.31735 1.30328Z" transform="translate(112.34 28.8592)" fill="white"/>
</g>
<g id="Vector_31">
<path fill-rule="evenodd" clip-rule="evenodd" d="M 2.4363 0.833465C 1.79308 1.35275 1.41861 1.88963 1.06616 1.87643C 0.713715 1.86323 0.356855 1.31754 5.37794e-07 0.996289C 0.312799 0.644233 0.585944 0.0721406 0.947204 0.00612999C 1.30846 -0.0598806 1.74903 0.419799 2.4363 0.833465Z" transform="translate(87.1094 39.7498)" fill="white"/>
</g>
<g id="Vector_32">
<path fill-rule="evenodd" clip-rule="evenodd" d="M 0.742265 1.77789C 0.3766 1.33782 -0.0331186 1.06057 0.00212624 0.849334C 0.0461823 0.536884 0.42066 0.281646 0.649751 5.37196e-07C 0.909682 0.215635 1.36345 0.440076 1.37226 0.65131C 1.38108 0.95936 1.04625 1.27181 0.742265 1.77789Z" transform="translate(95.1348 82.3901)" fill="white"/>
</g>
<g id="Vector_33">
<path fill-rule="evenodd" clip-rule="evenodd" d="M 1.69175 0.648235C 1.25119 0.973887 1.00007 1.31714 0.757762 1.30834C 0.515454 1.29954 0.251117 0.943079 -3.22676e-06 0.740646C 0.242305 0.481004 0.440564 0.0937362 0.73574 0.00572209C 0.911964 -0.0514871 1.24238 0.331384 1.69175 0.648235Z" transform="translate(85.9883 91.7182)" fill="white"/>
</g>
<g id="Vector_34">
<path d="M 27.3775 2.59345C 25.482 2.58816 23.5899 2.75608 21.7251 3.09512C 20.0412 3.38761 18.4088 3.92275 16.8789 4.68378C 15.4969 5.37615 14.2602 6.32616 13.2355 7.48263C 12.2131 8.64592 11.489 10.0398 11.1252 11.5445C 10.9551 12.3557 10.8988 13.1866 10.9578 14.0133C 11.0211 14.9155 11.2621 15.7964 11.6671 16.6053C 12.1228 17.5246 12.7322 18.3595 13.4689 19.0741C 14.3868 19.9455 15.4677 20.6274 16.6498 21.0808C 16.949 21.2018 17.2567 21.3004 17.5706 21.3757C 17.738 21.4021 17.7953 21.4725 17.738 21.5825C 17.6807 21.6925 17.5133 21.7365 17.2357 21.7101C 16.8685 21.6652 16.5049 21.5946 16.1476 21.4989C 13.6364 20.6187 11.8506 19.1973 10.7903 17.2346C 9.87024 15.5925 9.43297 13.7243 9.52884 11.845C 9.6247 9.9656 10.2498 8.15147 11.3322 6.6113C 12.3213 5.20932 13.5904 4.02711 15.0594 3.13913C 16.7883 2.09492 18.666 1.3189 20.6281 0.83757C 22.9696 0.258268 25.3751 -0.0226863 27.7872 0.00142487C 29.9674 0.0432462 32.1394 0.281867 34.2766 0.714351C 36.8143 1.18963 39.396 1.78959 42.0217 2.51424L 46.2511 3.68483L 50.5642 4.8554C 51.8936 4.15616 53.2975 3.6085 54.7495 3.22275C 56.3845 2.75651 58.076 2.51809 59.7763 2.51424C 61.0459 2.48209 62.3098 2.69424 63.4991 3.13913C 64.5344 3.5572 65.019 4.2129 64.9661 5.10625C 64.9089 5.83237 64.4507 6.40006 63.5828 6.81813C 62.5144 7.27707 61.357 7.49206 60.1948 7.44743C 58.462 7.44743 56.8848 7.37701 55.4632 7.23619C 54.0402 7.09977 52.5159 6.88854 50.899 6.6113C 50.3562 6.96313 49.8512 7.37016 49.3923 7.82588C 48.8342 8.35397 48.2468 8.9246 47.63 9.53777C 47.0133 10.1539 46.4141 10.7788 45.8282 11.4213C 45.2422 12.0638 44.7267 12.6623 44.2774 13.2168C 42.9968 14.8362 41.8675 16.3031 40.8895 17.6175C 39.9114 18.9318 38.8365 20.3122 37.6646 21.7585L 39.3387 21.7585C 39.9511 21.7585 40.5943 21.7321 41.2639 21.6749C 41.9336 21.6177 42.5856 21.5517 43.1892 21.4681C 43.7317 21.401 44.2651 21.2741 44.7796 21.0896C 44.947 20.8696 45.1849 20.5747 45.4933 20.2095C 45.7907 19.8526 46.1116 19.516 46.4538 19.2017C 46.7717 18.9096 47.1237 18.657 47.5023 18.4492C 47.8468 18.2582 48.2446 18.1855 48.6345 18.2424C 49.3042 18.4096 49.4275 18.744 49.009 19.2457C 48.3653 19.9812 47.6798 20.6791 46.956 21.3361C 46.0749 22.1194 45.3406 22.803 44.7532 23.3868C 44.1658 23.9706 43.6209 24.5706 43.1187 25.1867C 42.8982 25.3913 42.7148 25.6325 42.5768 25.8996C 42.4931 26.0976 42.3918 26.1636 42.2816 26.1064C 42.1715 26.0492 42.0878 25.8424 42.1979 25.4815C 42.308 25.1214 42.4479 24.771 42.6165 24.4342C 42.8527 23.9769 43.1191 23.5359 43.4139 23.114C 43.7179 22.6739 43.9558 22.335 44.1232 22.1106C 43.1139 22.3702 42.0804 22.5251 41.0393 22.5727C 39.7528 22.6548 38.3856 22.6959 36.9376 22.6959C 36.6545 23.0916 36.347 23.4693 36.0169 23.8269C 35.682 24.1877 35.3472 24.5662 35.0124 24.9534C 31.6765 28.6007 27.7909 31.7054 23.4961 34.1553C 19.4011 36.4831 14.7663 37.6971 10.0546 37.6759C 8.86205 37.6755 7.67202 37.5665 6.49928 37.3502C 5.38405 37.1621 4.29931 36.8246 3.27437 36.3469C 2.37373 35.9368 1.58388 35.3183 0.970234 34.5426C 0.362777 33.7324 0.0266861 32.7514 0.00981081 31.7393C -0.0271629 31.211 0.0405858 30.6805 0.209171 30.1783C 0.377756 29.6762 0.643867 29.2121 0.992263 28.8129C 1.36186 28.3811 1.82578 28.04 2.34825 27.8157C 2.87071 27.5913 3.43777 27.4899 4.0057 27.5191C 4.36101 27.5068 4.71508 27.5672 5.04616 27.6966C 5.37724 27.826 5.67833 28.0217 5.93095 28.2716C 6.1739 28.5054 6.35469 28.7961 6.45699 29.1172C 6.55929 29.4384 6.57988 29.78 6.5169 30.1111C 6.41914 30.5276 6.24917 30.9237 6.01466 31.2817C 5.794 31.6119 5.54169 31.92 5.2613 32.2014C 4.53584 32.9261 4.17311 33.5671 4.17311 34.1245C 4.17362 34.3476 4.22275 34.5678 4.31709 34.77C 4.41143 34.9721 4.54872 35.1513 4.71941 35.2951C 5.10702 35.6497 5.55451 35.9328 6.04109 36.1312C 6.62678 36.3698 7.2392 36.5368 7.86501 36.6285C 8.52872 36.7409 9.20079 36.7969 9.87397 36.7957C 13.021 36.7898 16.1214 36.0355 18.9187 34.5954C 21.8235 33.1252 24.4348 31.1372 26.6241 28.7292C 27.6814 27.6203 28.6022 26.5817 29.3864 25.6136C 30.1706 24.6454 30.9519 23.6332 31.7302 22.5771L 29.0868 22.5771C 28.4294 22.5716 27.7721 22.5995 27.1175 22.6607C 26.5249 22.6776 25.9351 22.7483 25.3553 22.8719C 25.0733 22.9555 24.9147 22.8719 24.9147 22.5771C 24.9676 22.4098 25.2055 22.2734 25.624 22.159C 26.3286 22.0032 27.0422 21.8915 27.7607 21.8245C 28.4563 21.7591 29.1549 21.7312 29.8534 21.7409L 32.2809 21.7409L 34.1665 19.3557C 34.8068 18.5489 35.6027 17.616 36.5543 16.5569C 37.5588 15.4978 38.6323 14.424 39.7748 13.3356C 40.9174 12.2471 42.0481 11.2438 43.1672 10.3255C 44.2862 9.40428 45.3142 8.58134 46.2511 7.85669C 47.0278 7.25152 47.8398 6.69311 48.683 6.18443L 45.4889 5.4363L 41.5239 4.50335C 40.6868 4.33613 39.6955 4.1381 38.5501 3.91807C 37.4046 3.69803 36.1931 3.47798 34.9066 3.28875C 33.6202 3.09952 32.325 2.9279 31.0165 2.78708C 29.8076 2.66025 28.593 2.59562 27.3775 2.59345ZM 59.697 3.34597C 58.3657 3.34429 57.0409 3.5325 55.7628 3.90486C 54.5867 4.23506 53.4605 4.72205 52.4145 5.35269C 53.9158 5.75726 55.4399 6.07175 56.9788 6.29445C 58.1571 6.47701 59.3463 6.58138 60.5385 6.60689C 61.3781 6.62489 62.214 6.49071 63.0056 6.21083C 63.7061 5.94239 64.0806 5.54632 64.1379 5.01384C 64.1951 4.48135 63.8163 4.07648 63.0056 3.78163C 61.9346 3.45403 60.8164 3.3068 59.697 3.34597Z" transform="translate(0 102.324)" fill="white"/>
</g>
<g id="Vector_35">
<path d="M 4.58995 26.4306C 3.97757 26.9895 3.36079 27.5352 2.74841 28.0633C 2.13603 28.5914 1.60295 29.0799 1.15798 29.5287C 0.713016 29.9776 0.404625 30.004 0.237211 29.7796C 0.184344 29.6124 0.320918 29.3395 0.677772 29.0271C 0.735045 28.9699 0.972946 28.763 1.39148 28.3978L 2.8982 27.104C 3.48561 26.6023 4.11268 26.0581 4.77939 25.4713C 5.44905 24.886 6.10107 24.3139 6.79275 23.755C 7.34786 23.0861 8.0043 22.2808 8.75766 21.3302L 11.1851 18.2761C 12.0663 17.1892 12.9474 16.0758 13.9078 14.9756C 14.8682 13.8754 15.7758 12.7973 16.6701 11.7939C 18.1387 10.1216 19.7027 8.39362 21.3621 6.60987C 23.0216 4.82611 24.7838 3.09663 26.6488 1.42143C 27.7121 0.473811 28.7165 -3.22317e-06 29.6623 -3.22317e-06C 30.4993 -3.22317e-06 30.9179 0.198036 30.9179 0.585298C 30.5302 0.976961 29.8165 1.72948 28.7856 2.84726C 27.7546 3.96504 26.6224 5.20164 25.3932 6.56586C 24.1641 7.93008 22.9217 9.32949 21.6661 10.7509C 20.4105 12.1724 19.3355 13.4134 18.4412 14.4695C 17.049 16.1447 15.6407 17.8742 14.2162 19.658C 12.7917 21.4417 11.4789 23.1419 10.2776 24.7584C 9.07927 26.3778 8.01898 27.8975 7.09674 29.3175C 6.33813 30.4584 5.65242 31.646 5.04373 32.8733C 4.93359 33.1549 4.80583 33.529 4.66925 34.0043C 4.59219 34.1922 4.57073 34.3982 4.60743 34.5979C 4.64414 34.7976 4.73747 34.9826 4.87632 35.1309C 5.05568 35.2456 5.26108 35.3134 5.47358 35.328C 5.68608 35.3427 5.89885 35.3036 6.09226 35.2145C 6.57281 35.0688 7.03653 34.8726 7.47563 34.6292C 8.06362 34.332 8.62389 33.9829 9.14976 33.5862C 9.70486 33.1461 10.2908 32.7369 10.912 32.288C 11.6903 31.6778 12.36 31.1335 12.921 30.6553C 13.4805 30.1845 14.0356 29.696 14.5951 29.1943C 14.8034 28.9948 15.0273 28.8124 15.2647 28.6486C 15.5423 28.455 15.7405 28.411 15.8507 28.5254C 15.9608 28.6398 15.767 29.0271 15.2647 29.5287C 14.7625 30.0304 14.0356 30.6861 13.0884 31.4915C 12.1412 32.2968 11.1631 33.0977 10.1586 33.8767C 9.71808 34.2111 9.20703 34.5764 8.65192 34.9636C 8.06572 35.3708 7.4502 35.7341 6.81038 36.0506C 6.13627 36.388 5.43473 36.6677 4.71331 36.8867C 4.03661 37.1029 3.33108 37.2157 2.62064 37.2212C 1.92386 37.2619 1.23312 37.0716 0.655743 36.6799C 0.410436 36.4732 0.223312 36.2062 0.112833 35.9052C 0.00235374 35.6043 -0.0276673 35.2797 0.0257373 34.9636C 0.0815417 33.9603 0.555884 32.7061 1.44875 31.201C 2.43083 29.569 3.52146 28.0047 4.71331 26.5187L 4.58995 26.4306Z" transform="translate(43.2988 101.736)" fill="white"/>
</g>
<g id="Vector_36">
<path d="M 1.9328 6.6187C 1.6662 6.82365 1.41446 7.04717 1.17944 7.28761C 0.624336 7.78929 0.25867 7.95651 0.0912568 7.78928C -0.0761563 7.62205 0.0075446 7.52524 0.174958 7.32721C 0.342371 7.12918 0.509791 6.95315 0.677204 6.78592C 0.954757 6.50427 1.34685 6.15663 1.84909 5.73856C 2.3046 5.35541 2.78595 5.00398 3.28973 4.68679C 3.84777 4.29659 4.43519 3.90492 5.05197 3.51179C 5.66876 3.11866 6.42212 2.7006 7.31205 2.2576C 8.50342 1.66023 9.73393 1.14417 10.9951 0.712947C 12.0471 0.332634 13.1448 0.0929213 14.2597 3.47661e-05C 14.5393 -0.000779618 14.8188 0.0139147 15.0968 0.0440445C 15.3787 0.0704488 15.5153 0.167253 15.5153 0.334479C 15.5153 0.391689 15.2113 0.558922 14.5945 0.836167C 13.5569 1.30542 12.5864 1.91071 11.7088 2.63605C 10.7837 3.38711 9.7366 4.32152 8.56765 5.4393C 7.34987 6.64739 6.25624 7.97422 5.30309 9.39994C 4.35148 10.8258 3.8228 11.9524 3.70826 12.7885C 3.59812 13.739 3.99022 14.2099 4.88456 14.2099C 5.77889 14.2099 7.04331 13.7258 8.52359 12.7489C 10.0596 11.723 11.4535 10.4994 12.6693 9.10949C 12.7447 8.58203 12.8716 8.06322 13.0481 7.56045C 13.3124 6.84818 13.6935 6.18487 14.176 5.59774C 14.5775 5.02907 15.0738 4.5334 15.6431 4.13229C 16.0236 3.85723 16.4293 3.61854 16.8546 3.41938C 16.9765 3.09783 17.0478 2.75937 17.0661 2.41602C 17.0925 2.02876 17.1101 1.72071 17.1101 1.49627C 17.1308 1.18419 17.0873 0.871196 16.9824 0.576526C 16.9402 0.512799 16.9211 0.436568 16.9283 0.360507C 16.9355 0.284445 16.9686 0.213134 17.022 0.158454C 17.113 0.10431 17.2185 0.0794952 17.3241 0.0873694C 17.4298 0.0952435 17.5304 0.135427 17.6124 0.202464C 17.8237 0.32662 18.0202 0.474248 18.1983 0.642534C 18.5508 1.00337 18.8345 1.42542 19.0354 1.88794C 19.2592 2.41099 19.3176 2.98987 19.2028 3.547C 18.9992 4.74037 18.4789 5.85735 17.6961 6.78153C 16.7119 8.03641 15.618 9.20132 14.4271 10.2625C 14.672 10.3903 14.9519 10.4351 15.2245 10.3901C 15.4927 10.3766 15.7587 10.3338 16.0175 10.2625C 17.0557 10.0038 18.0271 9.52837 18.868 8.86746C 19.4231 8.4846 19.8989 8.14135 20.291 7.8421C 20.7307 7.49708 21.1499 7.12678 21.5466 6.73311C 22.3278 6.0202 22.8022 5.74736 22.9696 5.91459C 23.137 6.08181 22.7713 6.58349 21.8814 7.41962L 20.6655 8.46259C 20.1975 8.86416 19.7093 9.24165 19.2028 9.59357C 18.6445 9.97668 18.055 10.3123 17.4405 10.5969C 16.9807 10.8066 16.503 10.9745 16.0131 11.0986C 15.62 11.2121 15.2098 11.2553 14.8016 11.2262C 14.4339 11.2106 14.0749 11.1097 13.753 10.9314C 13.1935 11.3715 12.5547 11.8379 11.8278 12.3132C 11.0781 12.7993 10.2949 13.2316 9.48401 13.607C 8.62844 14.0051 7.74498 14.3404 6.84065 14.6104C 5.98537 14.8808 5.09436 15.0217 4.19728 15.0285C 3.10312 15.0888 2.0225 14.7633 1.1442 14.1087C 0.392307 13.4985 0.0427927 12.5787 0.09566 11.3495C 0.210206 9.56571 1.10308 7.78196 2.77427 5.9982L 2.69056 5.91459C 2.45538 6.16731 2.20212 6.40264 1.9328 6.6187Z" transform="translate(57.1797 124.144)" fill="white"/>
</g>
<g id="Vector_37">
<path d="M 15.4421 5.58354C 15.4421 6.14243 15.0368 6.83775 14.2262 7.67829C 13.4156 8.51882 12.5388 9.48697 11.5828 10.6048C 10.4743 11.7924 9.5169 13.1124 8.7324 14.5346C 8.2889 15.3179 8.261 15.8475 8.64869 16.1232C 8.98352 16.4049 9.6003 16.2905 10.4946 15.7888C 10.9381 15.513 11.5094 15.1654 12.2084 14.7458C 12.9296 14.3109 13.616 13.821 14.2614 13.2804C 15.2072 12.5528 15.9605 11.9528 16.5215 11.4805C 17.081 11.0096 17.6361 10.5211 18.1957 10.0195C 18.808 9.40335 19.2266 9.18332 19.4513 9.35055C 19.5614 9.46057 19.5085 9.641 19.2838 9.89184C 19.0592 10.1427 18.7816 10.4375 18.4468 10.772C 17.9445 11.215 17.2896 11.8017 16.4819 12.5323C 15.6712 13.2584 14.7196 14.0109 13.6755 14.7898C 12.6015 15.5772 11.4836 16.303 10.3272 16.9638C 9.08823 17.7143 7.67015 18.1186 6.22121 18.1344C 5.49613 18.191 4.77697 17.9673 4.21225 17.5095C 3.99639 17.3179 3.8303 17.0769 3.72824 16.807C 3.62618 16.5372 3.5912 16.2467 3.6263 15.9604C 3.74835 14.8457 4.20964 13.7951 4.94798 12.9503C 5.76797 11.9107 6.66325 10.9326 7.6266 10.0239C 8.12884 9.52218 8.68688 9.0205 9.30073 8.51882C 9.91458 8.01714 10.4873 7.55653 11.0189 7.13699C 11.5476 6.71893 12.0102 6.34046 12.4023 6.00601C 12.6771 5.80623 12.9055 5.54955 13.0719 5.25349C 13.2393 4.81342 12.9882 4.58459 12.3186 4.58459L 8.62667 4.58459C 8.35133 4.593 8.07796 4.53567 7.82926 4.41736C 7.10673 5.20069 6.04645 6.25979 4.6484 7.59467C 3.92148 8.26798 3.29588 8.84007 2.7628 9.31094C 2.22973 9.78182 1.74511 10.2439 1.30014 10.6928C 0.630486 11.3045 0.21195 11.5289 0.0445373 11.3617C -0.122876 11.1944 0.18111 10.7456 0.965308 10.0415C 1.46755 9.60139 1.93895 9.16132 2.38832 8.74325C 2.8377 8.32518 3.44567 7.75309 4.22987 7.02698C 5.4605 5.85345 6.43709 4.87797 7.15961 4.10051C 6.96972 3.96907 6.81393 3.79433 6.70513 3.59076C 6.59634 3.38719 6.53767 3.16065 6.53401 2.92992C 6.53183 2.64995 6.5861 2.37242 6.69358 2.11385C 6.80106 1.85528 6.95955 1.62096 7.15961 1.42487C 7.54424 0.957926 8.03211 0.58652 8.58483 0.339869C 9.13755 0.0932175 9.74002 -0.0219405 10.3449 0.00344998C 10.676 0.0037086 11.0034 0.0742081 11.3053 0.210284C 11.4413 0.261966 11.5624 0.346482 11.6577 0.456293C 11.753 0.566103 11.8196 0.697786 11.8516 0.839582C 11.5579 1.06255 11.32 1.24298 11.1379 1.38087C 10.8861 1.57271 10.649 1.78306 10.4286 2.01017C 9.36828 3.12795 9.45199 3.74111 10.6797 3.84966C 11.8545 3.90541 12.9427 4.00369 13.9442 4.14452C 14.9487 4.28094 15.451 4.743 15.451 5.52193L 15.4421 5.58354Z" transform="translate(77.8359 120.827)" fill="white"/>
</g>
<g id="Vector_38">
<path d="M 18.1161 3.21262C 18.9191 2.3365 19.8042 1.53926 20.7595 0.831831C 21.3716 0.351122 22.1184 0.0727294 22.8962 0.0353039C 23.7773 -0.0175046 24.306 0.0661121 24.4426 0.286147C 24.5791 0.506183 24.4426 0.871442 24.002 1.37312C 23.4425 1.98922 22.7464 2.78134 21.9093 3.7583C 21.0723 4.73526 20.2043 5.77823 19.3144 6.89601C 18.7534 7.56491 18.2218 8.24702 17.7196 8.94233C 17.2173 9.63764 16.7768 10.3212 16.3979 10.9931C 15.8399 11.9964 15.7562 12.6375 16.1468 12.9162C 16.2753 13.0018 16.423 13.0543 16.5768 13.0689C 16.7306 13.0834 16.8856 13.0597 17.0279 12.9998C 17.3871 12.8899 17.7363 12.75 18.072 12.5817C 18.6664 12.271 19.2403 11.9226 19.7902 11.5388C 20.4863 11.0635 21.1736 10.5486 21.8432 9.9897C 22.7244 9.26359 23.5174 8.62549 24.187 8.0666C 24.8567 7.50771 25.4162 7.00603 25.8612 6.56156C 26.1387 6.33713 26.3766 6.15669 26.5749 6.01586C 26.7731 5.87504 26.9229 5.86184 27.0154 5.97626C 27.1079 6.09068 26.8216 6.64517 25.9272 7.48131C 25.3663 7.98299 24.6408 8.62402 23.7509 9.40442C 22.8609 10.1848 22.0239 10.8816 21.2397 11.4948C 20.2252 12.2862 19.1613 13.0123 18.0544 13.6687C 16.8507 14.4258 15.4589 14.8313 14.0365 14.8393C 13.408 14.8873 12.783 14.7094 12.2743 14.3376C 12.0855 14.1829 11.9291 13.9924 11.8142 13.7772C 11.6993 13.562 11.6281 13.3262 11.6046 13.0834C 11.5583 12.5685 11.6448 12.0504 11.8557 11.5784C 12.0743 11.0278 12.3858 10.5188 12.7765 10.0733L 12.6928 9.9897C 12.1347 10.4914 11.493 11.0077 10.7675 11.5388C 10.0421 12.0698 9.27403 12.5715 8.4634 13.0438C 7.66027 13.514 6.82049 13.9187 5.95221 14.254C 5.16253 14.5722 4.32929 14.7695 3.48065 14.8393C 2.58408 14.9073 1.68912 14.6884 0.925406 14.2144C 0.173515 13.7391 -0.120192 12.8326 0.0442836 11.4948C 0.178965 10.8122 0.404163 10.1507 0.713931 9.52763C 1.16497 8.6641 1.72786 7.86363 2.38807 7.14685L 2.30436 7.06323L 1.88583 7.50331C 1.67354 7.71054 1.44999 7.90594 1.21618 8.08861C 0.828484 8.36585 0.572949 8.44946 0.462808 8.33944C 0.295395 8.11647 0.686028 7.58692 1.6347 6.75079C 1.74925 6.63637 2.07526 6.34592 2.63918 5.87065C 3.1147 5.46073 3.61816 5.0843 4.14591 4.74407L 5.82003 3.6967C 6.48968 3.2801 7.21662 2.84735 8.00081 2.39848C 9.46303 1.62865 10.9885 0.985268 12.5606 0.475375C 13.7832 0.0510623 15.0859 -0.0918435 16.3715 0.0573155C 16.7321 0.0785835 17.0807 0.194289 17.3823 0.392821C 17.6839 0.591353 17.9279 0.865704 18.0897 1.18829C 18.236 1.50498 18.3139 1.84889 18.3185 2.19765C 18.323 2.54641 18.2541 2.89222 18.1161 3.21262ZM 16.0234 0.871436C 15.1864 0.871436 14.0703 1.37312 12.6752 2.37648C 11.1256 3.51374 9.67005 4.77345 8.32243 6.14349C 6.95545 7.40507 5.70778 8.78981 4.59527 10.2802C 3.84191 11.3671 3.5203 12.1945 3.63044 12.749C 3.74058 13.3034 4.04898 13.5851 4.71863 13.5851C 5.50283 13.5851 6.59102 13.1978 7.9876 12.4145C 9.3533 11.655 10.6187 10.7281 11.7544 9.65526C 12.4652 9.05853 13.1363 8.41612 13.7633 7.73214C 14.433 7.00455 15.0469 6.30778 15.6049 5.6418C 16.1087 5.04636 16.5709 4.41704 16.9883 3.7583C 17.2839 3.35138 17.4704 2.87571 17.5301 2.37648C 17.5742 1.37312 17.072 0.871436 16.0234 0.871436Z" transform="translate(94.418 124.117)" fill="white"/>
</g>
<g id="Vector_39">
<path d="M 7.96621 13.4738C 7.42357 13.7494 6.90613 14.0719 6.41984 14.4376C 5.66648 14.9657 4.97921 15.485 4.36684 15.9866L 2.73234 17.3069C 2.26094 17.6941 1.79835 18.0858 1.35339 18.4774C 0.683733 19.0363 0.265211 19.2564 0.0977977 19.1463C -0.0696155 19.0363 0.000872655 18.8955 0.137447 18.7283C 0.27402 18.5611 0.578008 18.253 1.01857 17.8085C 1.23885 17.5841 1.5913 17.2761 2.0627 16.8888C 2.5341 16.5015 3.05395 16.0791 3.61347 15.6302C 4.17298 15.1813 4.74571 14.75 5.33165 14.31C 5.9176 13.8699 6.45949 13.4738 6.96173 13.1394C 7.78522 12.521 8.68749 12.0148 9.64475 11.6343C 10.3477 11.4074 11.0824 11.2945 11.8211 11.2999C 12.7022 11.2999 13.2045 11.3835 13.3278 11.5507C 13.438 11.718 13.2441 12.0832 12.7419 12.6377C 11.3468 14.1985 9.8386 15.9837 8.21733 17.9934C 7.49481 18.8735 6.89564 19.6788 6.41984 20.3786C 5.94403 21.0783 5.56516 21.646 5.28761 22.0904C 4.78537 22.9706 4.70166 23.5837 5.03648 23.9299C 5.42711 24.2644 6.09677 24.1808 7.04544 23.6791C 7.60844 23.3912 8.15418 23.0709 8.67992 22.7197C 9.39538 22.2459 10.081 21.7285 10.7329 21.1707C 11.6141 20.449 12.3234 19.8505 12.8256 19.4104C 13.3278 18.9703 13.9138 18.4334 14.5878 17.8217C 15.2619 17.21 15.7597 16.902 15.9095 17.0692C 16.0593 17.2364 15.9095 17.4037 15.6188 17.7381C 15.328 18.0726 15.0989 18.2926 14.9888 18.407C 14.4865 18.9087 13.7743 19.5644 12.852 20.3741C 11.9298 21.1839 11.0487 21.9173 10.2087 22.5745C 9.17664 23.3689 8.0999 24.1035 6.98375 24.7749C 5.77065 25.5518 4.36277 25.9713 2.92178 25.9851C 1.24765 25.9851 0.410592 25.2633 0.410592 23.8111C 0.411685 23.2472 0.539668 22.6907 0.785072 22.1828C 1.04011 21.6455 1.33462 21.1277 1.66619 20.6338C 2.09429 19.9098 2.58362 19.2237 3.12885 18.5831C 3.71626 17.8877 4.3169 17.2056 4.93075 16.5367C 5.5446 15.8678 6.11733 15.2532 6.64894 14.6928C 7.06674 14.2641 7.50641 13.8573 7.96621 13.4738ZM 19.6895 0.0076718C 19.9147 -0.0197647 20.1428 0.0268157 20.3391 0.140359C 20.5354 0.253903 20.6894 0.428227 20.7777 0.63697C 20.9451 1.0565 20.7777 1.57139 20.2755 2.18162C 19.7434 2.87576 19.0552 3.43505 18.2665 3.81428C 17.6763 4.15718 17.0202 4.37164 16.3413 4.44359C 16.0922 4.08788 15.9612 3.66304 15.9668 3.22899C 15.9413 2.66996 16.0406 2.11227 16.2576 1.59633C 16.3782 1.31045 16.5555 1.05193 16.7789 0.836377C 17.0023 0.620821 17.267 0.452689 17.5572 0.34213C 18.2144 0.108637 18.9084 -0.00466149 19.6058 0.0076718L 19.6895 0.0076718Z" transform="translate(119.053 113.02)" fill="white"/>
</g>
<g id="Vector_40">
<path d="M 18.7175 14.7952C 18.0462 14.8285 17.3829 14.6381 16.8319 14.2539C 16.5943 14.0597 16.4115 13.807 16.3018 13.5206C 16.1921 13.2343 16.1592 12.9242 16.2063 12.6212C 16.3106 11.5473 16.7323 10.5286 17.4178 9.69476C 18.1756 8.6914 18.9436 7.71591 19.7219 6.76829C 20.3343 5.98497 20.9511 5.26325 21.5635 4.59434C 22.1759 3.92543 22.7354 3.27413 23.2376 2.66683C 23.3948 2.46967 23.5088 2.24181 23.5724 1.99793C 23.6035 1.8981 23.5948 1.79011 23.548 1.6966C 23.5011 1.60309 23.4199 1.5313 23.3213 1.49624C 23.0243 1.38599 22.6976 1.38599 22.4006 1.49624C 21.9687 1.62816 21.5487 1.79598 21.145 1.99793C 20.3652 2.38959 19.4136 2.93527 18.2989 3.63059C 17.0237 4.44261 15.7941 5.32408 14.6158 6.27101C 13.6642 6.99713 12.8272 7.66163 12.1046 8.27773C 11.3821 8.89383 10.6508 9.48793 9.90184 10.0776L 7.69904 11.8731C 6.94714 12.4892 6.12329 13.1581 5.22748 13.8798C 4.60571 14.3649 3.84006 14.6297 3.05111 14.6324C 2.62196 14.6666 2.19095 14.5956 1.79552 14.4255C 1.57084 14.2847 1.6281 13.9106 1.96292 13.2945C 2.43304 12.4171 2.94922 11.5652 3.5093 10.7421C 4.26119 9.60088 4.97343 8.58431 5.64602 7.69243C 6.08658 7.07633 6.65049 6.37223 7.32015 5.51849C 7.9898 4.66476 8.54932 3.95624 8.99429 3.34014C 9.5538 2.61842 9.74764 2.14314 9.58023 1.9187C 9.41281 1.69427 8.93701 1.66787 8.32463 2.00232C 7.82239 2.28396 7.2805 2.61842 6.69456 3.00568C 6.12205 3.38647 5.57597 3.80549 5.06007 4.25988C 4.50202 4.70876 3.91461 5.2119 3.29782 5.76932C 2.68104 6.32675 2.06719 6.88418 1.45628 7.4416C 0.672082 8.11051 0.200691 8.36135 0.0332776 8.19412C -0.134136 8.02689 0.337254 7.49881 1.28887 6.60547C 1.79111 6.1654 2.44315 5.55809 3.25378 4.80557C 4.06441 4.05305 4.85741 3.37095 5.64161 2.75485C 6.58684 1.98241 7.60151 1.29885 8.67267 0.712915C 9.49267 0.257388 10.4131 0.0124201 11.3513 2.14878e-06C 12.1355 2.14878e-06 12.673 0.198028 12.9858 0.58529C 13.2799 0.937727 13.4432 1.38071 13.4484 1.83949C 13.4323 2.39978 13.273 2.94666 12.9858 3.42816C 12.5907 4.12239 12.1568 4.79382 11.6861 5.43927C 11.0752 6.2754 10.3776 7.19516 9.59344 8.19852C 8.81365 9.20188 8.19687 10.038 7.7519 10.7069L 7.83561 10.7905L 11.3601 7.86407C 12.7038 6.75069 14.096 5.63291 15.5498 4.51513C 17.0392 3.38137 18.6055 2.35207 20.2374 1.43464C 21.9115 0.487018 23.3918 0.0132037 24.6782 0.0132037C 26.5727 0.0132037 27.4376 0.765727 27.2732 2.27077C 27.0856 3.20495 26.6522 4.07233 26.0176 4.78357C 25.2906 5.66371 24.5945 6.54386 23.9205 7.37559C 23.2464 8.20733 22.6781 8.88062 22.2067 9.54953C 21.7353 10.2184 21.3829 10.7201 21.1582 11.0546C 20.5458 12.0051 20.4312 12.6168 20.8233 12.8941C 20.959 12.9803 21.1134 13.0329 21.2736 13.0474C 21.4338 13.062 21.5951 13.0381 21.7441 12.9777C 22.1193 12.8732 22.4837 12.7332 22.8323 12.5596C 23.3345 12.2824 23.8941 11.9611 24.5108 11.6003C 25.3213 11.099 26.1037 10.554 26.8546 9.9676C 27.5771 9.41018 28.3114 8.81022 29.0574 8.16772C 29.8108 7.52961 30.4099 6.98392 30.8593 6.53945C 31.4188 6.03777 31.7801 5.87055 31.9475 6.03777C 32.1149 6.205 31.8374 6.56586 31.2779 7.12475C 30.8858 7.51641 30.1764 8.16771 29.1411 9.08746C 28.1058 10.0072 27.1454 10.8037 26.2555 11.4727C 25.8149 11.8071 25.2906 12.1724 24.7047 12.5596C 24.0996 12.9612 23.4698 13.3242 22.8191 13.6466C 22.1592 13.9785 21.4742 14.2581 20.7705 14.4827C 20.1066 14.693 19.4139 14.7984 18.7175 14.7952Z" transform="translate(132.418 124.157)" fill="white"/>
</g>
</g>
</g>
</svg>

